<svg width="69" height="72" viewBox="0 0 69 72" fill="none" xmlns="http://www.w3.org/2000/svg">
<path d="M29.9805 0.950195C29.9805 0.950195 13.635 6.56895 12.644 7.01421C8.90939 8.68577 5.7304 11.42 3.49078 14.8869C1.25116 18.3538 0.0465237 22.4054 0.0222168 26.5526V52.9502C0.0222168 52.9502 16.3575 47.3314 17.3589 46.8862C21.1006 45.2169 24.2871 42.483 26.5341 39.0142C28.7811 35.5455 29.9925 31.49 30.0222 27.3371V26.5526L29.9805 0.950195Z" fill="#60AAFB" fill-opacity="0.2"/>
<path opacity="0.2" d="M14.9778 55.9502C14.9778 57.0111 15.3992 58.0285 16.1494 58.7786C16.8995 59.5288 17.9169 59.9502 18.9778 59.9502H58.9778C59.5082 59.9502 60.0169 59.7395 60.392 59.3644C60.7671 58.9893 60.9778 58.4806 60.9778 57.9502V29.9502C60.9778 29.4198 60.7671 28.9111 60.392 28.536C60.0169 28.1609 59.5082 27.9502 58.9778 27.9502H18.9778C17.9169 27.9502 16.8995 27.5288 16.1494 26.7786C15.3992 26.0285 14.9778 25.0111 14.9778 23.9502V55.9502Z" fill="#355DFB"/>
<path d="M14.9778 23.9502V55.9502C14.9778 57.0111 15.3992 58.0285 16.1494 58.7786C16.8995 59.5288 17.9169 59.9502 18.9778 59.9502H58.9778C59.5082 59.9502 60.0169 59.7395 60.392 59.3644C60.7671 58.9893 60.9778 58.4806 60.9778 57.9502V29.9502C60.9778 29.4198 60.7671 28.9111 60.392 28.536C60.0169 28.1609 59.5082 27.9502 58.9778 27.9502H18.9778C17.9169 27.9502 16.8995 27.5288 16.1494 26.7786C15.3992 26.0285 14.9778 25.0111 14.9778 23.9502ZM14.9778 23.9502C14.9778 22.8893 15.3992 21.8719 16.1494 21.1218C16.8995 20.3716 17.9169 19.9502 18.9778 19.9502H52.9778" stroke="#355DFB" stroke-linecap="round" stroke-linejoin="round"/>
<path d="M49.9778 46.9502C51.6346 46.9502 52.9778 45.607 52.9778 43.9502C52.9778 42.2933 51.6346 40.9502 49.9778 40.9502C48.3209 40.9502 46.9778 42.2933 46.9778 43.9502C46.9778 45.607 48.3209 46.9502 49.9778 46.9502Z" stroke="#355DFB" stroke-linecap="round" stroke-linejoin="round"/>
</svg>
