<svg width="44" height="44" viewBox="0 0 44 44" fill="none" xmlns="http://www.w3.org/2000/svg">
<rect x="0.682617" y="0.315704" width="42.5332" height="43.5013" rx="21.2666" fill="white" fill-opacity="0.7"/>
<path fill-rule="evenodd" clip-rule="evenodd" d="M33.5495 22.0663C33.5495 22.4509 33.3968 22.8196 33.1249 23.0915C32.853 23.3634 32.4842 23.5162 32.0997 23.5162H15.3019L21.5275 29.7389C21.6623 29.8737 21.7692 30.0337 21.8422 30.2098C21.9152 30.3859 21.9527 30.5747 21.9527 30.7653C21.9527 30.956 21.9152 31.1447 21.8422 31.3209C21.7692 31.497 21.6623 31.657 21.5275 31.7918C21.3927 31.9266 21.2327 32.0335 21.0566 32.1065C20.8804 32.1795 20.6917 32.217 20.501 32.217C20.3104 32.217 20.1216 32.1795 19.9455 32.1065C19.7694 32.0335 19.6094 31.9266 19.4746 31.7918L10.7756 23.0928C10.6405 22.9581 10.5334 22.7981 10.4603 22.622C10.3872 22.4459 10.3496 22.257 10.3496 22.0663C10.3496 21.8756 10.3872 21.6868 10.4603 21.5107C10.5334 21.3345 10.6405 21.1745 10.7756 21.0399L19.4746 12.3409C19.7468 12.0686 20.116 11.9157 20.501 11.9157C20.886 11.9157 21.2553 12.0686 21.5275 12.3409C21.7998 12.6131 21.9527 12.9823 21.9527 13.3673C21.9527 13.7523 21.7998 14.1216 21.5275 14.3938L15.3019 20.6165H32.0997C32.4842 20.6165 32.853 20.7693 33.1249 21.0411C33.3968 21.313 33.5495 21.6818 33.5495 22.0663Z" fill="#4B6462"/>
</svg>
