<svg width="37" height="36" viewBox="0 0 37 36" fill="none" xmlns="http://www.w3.org/2000/svg">
<path fill-rule="evenodd" clip-rule="evenodd" d="M14.3846 2.54544C14.4779 2.89311 14.4292 3.26359 14.2493 3.57538L11.247 8.77523H25.7541L22.7518 3.57538C22.6553 3.42097 22.5909 3.2487 22.5623 3.06886C22.5338 2.88902 22.5418 2.70528 22.5858 2.52859C22.6299 2.3519 22.709 2.18588 22.8185 2.04043C22.9281 1.89498 23.0658 1.77307 23.2234 1.68197C23.3811 1.59087 23.5555 1.53245 23.7362 1.51018C23.9169 1.48791 24.1003 1.50226 24.2754 1.55237C24.4504 1.60247 24.6136 1.68731 24.7552 1.80182C24.8967 1.91633 25.0138 2.05818 25.0994 2.2189L28.7167 8.48584C28.7699 8.57708 28.8124 8.67419 28.8433 8.77523H29.3515C30.3778 8.77539 31.3789 9.09302 32.2176 9.68459C33.0563 10.2761 33.6914 11.1127 34.0359 12.0794C34.3804 13.0462 34.4174 14.0958 34.1419 15.0845C33.8663 16.0731 33.2917 16.9522 32.4967 17.6014L31.2904 25.894L30.4819 29.6795C30.2458 30.7868 29.6747 31.7945 28.846 32.566C28.0173 33.3374 26.9713 33.835 25.85 33.9913C20.9721 34.6696 16.0272 34.6696 11.1493 33.9913C10.028 33.835 8.982 33.3374 8.15333 32.566C7.32465 31.7945 6.75349 30.7868 6.5174 29.6795L5.70894 25.894L4.50257 17.6014C3.70765 16.9522 3.13301 16.0731 2.85744 15.0845C2.58188 14.0958 2.61889 13.0462 2.9634 12.0794C3.3079 11.1127 3.94304 10.2761 4.7817 9.68459C5.62037 9.09302 6.6215 8.77539 7.6478 8.77523H8.15603C8.18615 8.67363 8.22803 8.57591 8.28083 8.48404L11.8981 2.2189C12.078 1.9071 12.3744 1.67954 12.722 1.58626C13.0697 1.49299 13.4402 1.54164 13.752 1.72152C14.0638 1.9014 14.2913 2.19777 14.3846 2.54544ZM29.3515 18.7228C29.4323 18.7229 29.5131 18.7211 29.5939 18.7173L28.619 25.4147L27.8286 29.1152C27.7083 29.6773 27.418 30.1889 26.9971 30.5803C26.5761 30.9718 26.045 31.2244 25.4756 31.3037C20.8473 31.9476 16.152 31.9476 11.5237 31.3037C10.9541 31.2243 10.4228 30.9715 10.0018 30.5796C9.58084 30.1878 9.29066 29.6759 9.17068 29.1134L8.3803 25.4147L7.40725 18.7173C7.48503 18.721 7.56641 18.7228 7.6478 18.7228H29.3515ZM7.6478 11.4882C6.39984 11.4882 5.387 12.501 5.387 13.749C5.387 14.997 6.39984 16.0098 7.6478 16.0098H29.3515C29.9511 16.0098 30.5262 15.7716 30.9501 15.3476C31.3741 14.9236 31.6123 14.3486 31.6123 13.749C31.6123 13.1494 31.3741 12.5743 30.9501 12.1504C30.5262 11.7264 29.9511 11.4882 29.3515 11.4882H7.6478ZM15.8415 21.833C15.5872 21.5786 15.2421 21.4357 14.8824 21.4357C14.5226 21.4357 14.1776 21.5786 13.9232 21.833C13.6688 22.0874 13.5259 22.4324 13.5259 22.7922V26.4095C13.5259 26.7692 13.6688 27.1143 13.9232 27.3686C14.1776 27.623 14.5226 27.7659 14.8824 27.7659C15.2421 27.7659 15.5872 27.623 15.8415 27.3686C16.0959 27.1143 16.2389 26.7692 16.2389 26.4095V22.7922C16.2389 22.4324 16.0959 22.0874 15.8415 21.833ZM23.0761 21.833C23.3305 22.0874 23.4734 22.4324 23.4734 22.7922V26.4095C23.4734 26.7692 23.3305 27.1143 23.0761 27.3686C22.8217 27.623 22.4767 27.7659 22.1169 27.7659C21.7572 27.7659 21.4122 27.623 21.1578 27.3686C20.9034 27.1143 20.7605 26.7692 20.7605 26.4095V22.7922C20.7605 22.4324 20.9034 22.0874 21.1578 21.833C21.4122 21.5786 21.7572 21.4357 22.1169 21.4357C22.4767 21.4357 22.8217 21.5786 23.0761 21.833Z" fill="white"/>
</svg>
