<svg width="23" height="23" viewBox="0 0 23 23" fill="none" xmlns="http://www.w3.org/2000/svg">
<g clip-path="url(#clip0_102_626)">
<path d="M11.1793 20.5416C16.1729 20.5416 20.2209 16.4935 20.2209 11.5C20.2209 6.50645 16.1729 2.45838 11.1793 2.45838C6.18576 2.45838 2.1377 6.50645 2.1377 11.5C2.1377 16.4935 6.18576 20.5416 11.1793 20.5416Z" stroke="#2F313A" stroke-opacity="0.7" stroke-width="1.80788" stroke-linecap="round" stroke-linejoin="round"/>
<path d="M2.1377 11.5H20.2209" stroke="#2F313A" stroke-opacity="0.7" stroke-width="1.80788" stroke-linecap="round" stroke-linejoin="round"/>
<path d="M11.1801 2.45838C13.4417 4.93429 14.7269 8.1474 14.7968 11.5C14.7269 14.8526 13.4417 18.0657 11.1801 20.5416C8.91856 18.0657 7.63332 14.8526 7.56348 11.5C7.63332 8.1474 8.91856 4.93429 11.1801 2.45838Z" stroke="#2F313A" stroke-opacity="0.7" stroke-width="1.80788" stroke-linecap="round" stroke-linejoin="round"/>
</g>
<defs>
<clipPath id="clip0_102_626">
<rect width="21.6999" height="21.6999" fill="white" transform="translate(0.330078 0.650063)"/>
</clipPath>
</defs>
</svg>
