<svg width="20" height="21" viewBox="0 0 20 21" fill="none" xmlns="http://www.w3.org/2000/svg">
<g clip-path="url(#clip0_102_789)">
<path d="M12.8999 14.82C11.2927 16.0685 9.26991 16.6576 7.24357 16.4671C5.21724 16.2767 3.33967 15.321 1.99318 13.7948C0.646696 12.2686 -0.0674734 10.2866 -0.00390579 8.25235C0.0596618 6.21808 0.896186 4.28451 2.33534 2.84536C3.77449 1.40621 5.70805 0.569687 7.74233 0.506119C9.7766 0.442552 11.7586 1.15672 13.2848 2.50321C14.811 3.8497 15.7666 5.72726 15.9571 7.7536C16.1475 9.77993 15.5585 11.8027 14.3099 13.41L19.6599 18.74L18.2399 20.16L12.9099 14.82H12.8999ZM7.99994 14.5C8.78787 14.5 9.56809 14.3448 10.296 14.0432C11.024 13.7417 11.6854 13.2998 12.2426 12.7426C12.7997 12.1855 13.2417 11.524 13.5432 10.7961C13.8447 10.0681 13.9999 9.2879 13.9999 8.49997C13.9999 7.71204 13.8447 6.93182 13.5432 6.20387C13.2417 5.47591 12.7997 4.81448 12.2426 4.25733C11.6854 3.70018 11.024 3.25822 10.296 2.95669C9.56809 2.65516 8.78787 2.49997 7.99994 2.49997C6.40864 2.49997 4.88252 3.13211 3.7573 4.25733C2.63208 5.38254 1.99994 6.90867 1.99994 8.49997C1.99994 10.0913 2.63208 11.6174 3.7573 12.7426C4.88252 13.8678 6.40864 14.5 7.99994 14.5Z" fill="#2F313A" fill-opacity="0.5"/>
</g>
<defs>
<clipPath id="clip0_102_789">
<rect width="20" height="20" fill="white" transform="translate(0 0.499969)"/>
</clipPath>
</defs>
</svg>
