<svg width="213" height="212" viewBox="0 0 213 212" fill="none" xmlns="http://www.w3.org/2000/svg">
<g id="solar:bag-heart-broken">
<g id="Group">
<path id="Vector" d="M106.499 107.679L101.934 112.447C103.162 113.624 104.798 114.281 106.499 114.281C108.2 114.281 109.836 113.624 111.064 112.447L106.499 107.679ZM101.978 134.682C98.3106 131.981 94.2559 128.613 91.1862 125.068C87.9495 121.321 86.7093 118.41 86.7093 116.528H73.5161C73.5161 123.3 77.3949 129.281 81.2121 133.696C85.1965 138.314 90.1308 142.351 94.1767 145.315L101.978 134.682ZM86.7093 116.528C86.7093 111.461 89.0225 109.254 91.0367 108.55C93.2356 107.776 97.3167 108.022 101.943 112.447L111.064 102.921C103.808 95.9726 94.6956 93.2812 86.6741 96.0958C78.4592 98.9719 73.5161 106.879 73.5161 116.528H86.7093ZM118.813 145.315C122.859 142.351 127.802 138.314 131.786 133.705C135.603 129.29 139.482 123.3 139.482 116.528H126.289C126.289 118.41 125.049 121.321 121.803 125.068C118.743 128.613 114.688 131.981 111.02 134.682L118.822 145.324L118.813 145.315ZM139.482 116.528C139.482 106.879 134.53 98.9719 126.324 96.0958C118.303 93.2812 109.191 95.9726 101.934 102.921L111.064 112.447C115.682 108.022 119.763 107.776 121.97 108.55C123.976 109.254 126.289 111.453 126.289 116.528H139.482ZM94.1855 145.315C97.4222 147.69 101.064 150.663 106.499 150.663V137.47C106.288 137.47 106.147 137.47 105.672 137.206C104.389 136.444 103.155 135.601 101.978 134.682L94.1767 145.324L94.1855 145.315ZM111.02 134.682C109.844 135.607 108.61 136.447 107.326 137.215C106.851 137.47 106.71 137.47 106.499 137.47V150.663C111.935 150.663 115.576 147.699 118.813 145.315L111.02 134.682Z" fill="white" fill-opacity="0.6"/>
<path id="Vector_2" d="M80.1117 53.2271V44.4316C80.1117 37.4335 82.8917 30.722 87.8401 25.7736C92.7885 20.8252 99.5 18.0452 106.498 18.0452C113.496 18.0452 120.208 20.8252 125.156 25.7736C130.105 30.722 132.885 37.4335 132.885 44.4316V53.2271M178.832 110.627C173.678 83.1758 171.11 69.446 161.329 61.3366C151.575 53.2271 137.608 53.2271 109.665 53.2271H103.332C75.3973 53.2271 61.43 53.2271 51.6582 61.3366C41.8953 69.446 39.3182 83.1758 34.164 110.627C26.9253 149.23 23.3104 168.527 33.865 181.246C44.4196 193.955 64.0511 193.955 103.323 193.955H109.673C148.945 193.955 168.586 193.955 179.131 181.246C185.253 173.857 186.607 164.27 185.253 149.978" stroke="white" stroke-opacity="0.6" stroke-width="12.8884" stroke-linecap="round"/>
</g>
</g>
</svg>
