<svg width="25" height="24" viewBox="0 0 25 24" fill="none" xmlns="http://www.w3.org/2000/svg">
<g id="iconoir:language">
<g id="Group">
<path id="Vector" d="M2.5 12C2.5 17.523 6.977 22 12.5 22C18.023 22 22.5 17.523 22.5 12C22.5 6.477 18.023 2 12.5 2C6.977 2 2.5 6.477 2.5 12Z" stroke="white" stroke-width="1.5" stroke-linecap="round" stroke-linejoin="round"/>
<path id="Vector_2" d="M13.5 2.05005C13.5 2.05005 16.5 6.00005 16.5 12C16.5 18 13.5 21.9501 13.5 21.9501M11.5 21.9501C11.5 21.9501 8.5 18 8.5 12C8.5 6.00005 11.5 2.05005 11.5 2.05005M3.13 15.5H21.87M3.13 8.50005H21.87" stroke="white" stroke-width="1.5" stroke-linecap="round" stroke-linejoin="round"/>
</g>
</g>
</svg>
