<svg width="16" height="16" viewBox="0 0 16 16" fill="none" xmlns="http://www.w3.org/2000/svg">
<path d="M14.3501 14.3563C14.2568 14.4483 14.1311 14.4999 14.0001 14.5001C13.8673 14.4995 13.7398 14.4481 13.6438 14.3563L10.9438 11.6501C9.80671 12.6052 8.34474 13.0845 6.86285 12.9879C5.38095 12.8913 3.99355 12.2264 2.99 11.1317C1.98645 10.0371 1.44424 8.59729 1.47645 7.1126C1.50867 5.62791 2.11282 4.21298 3.1629 3.1629C4.21298 2.11282 5.62791 1.50867 7.1126 1.47645C8.59729 1.44424 10.0371 1.98645 11.1317 2.99C12.2264 3.99355 12.8913 5.38095 12.9879 6.86285C13.0845 8.34474 12.6052 9.80671 11.6501 10.9438L14.3501 13.6438C14.3973 13.6904 14.4349 13.7458 14.4605 13.807C14.4861 13.8681 14.4993 13.9338 14.4993 14.0001C14.4993 14.0664 14.4861 14.132 14.4605 14.1932C14.4349 14.2544 14.3973 14.3098 14.3501 14.3563ZM7.2501 12.0001C8.18956 12.0001 9.10792 11.7215 9.88906 11.1996C10.6702 10.6776 11.279 9.93579 11.6385 9.06784C11.998 8.19989 12.0921 7.24483 11.9088 6.32342C11.7255 5.40201 11.2732 4.55564 10.6089 3.89134C9.94455 3.22704 9.09819 2.77465 8.17678 2.59137C7.25537 2.40809 6.3003 2.50215 5.43235 2.86167C4.5644 3.22119 3.82255 3.83001 3.30062 4.61114C2.77868 5.39227 2.5001 6.31064 2.5001 7.2501C2.50175 8.50937 3.00273 9.71659 3.89317 10.607C4.78361 11.4975 5.99083 11.9984 7.2501 12.0001Z" fill="#1C1C1C" fill-opacity="0.2"/>
</svg>
