<svg width="20" height="21" viewBox="0 0 20 21" fill="none" xmlns="http://www.w3.org/2000/svg">
<g clip-path="url(#clip0_102_633)">
<path fill-rule="evenodd" clip-rule="evenodd" d="M4.44708 9.10528C4.66838 8.88405 4.96848 8.75977 5.2814 8.75977C5.59432 8.75977 5.89443 8.88405 6.11573 9.10528L10.0018 12.9913L13.8878 9.10528C13.9967 8.99257 14.1269 8.90267 14.2709 8.84082C14.4148 8.77897 14.5697 8.74642 14.7264 8.74506C14.8831 8.7437 15.0385 8.77356 15.1835 8.83289C15.3285 8.89223 15.4603 8.97985 15.5711 9.09065C15.6819 9.20146 15.7695 9.33322 15.8288 9.47825C15.8882 9.62327 15.918 9.77867 15.9167 9.93536C15.9153 10.0921 15.8828 10.2469 15.8209 10.3909C15.7591 10.5349 15.6692 10.6651 15.5565 10.7739L10.8361 15.4943C10.6148 15.7155 10.3147 15.8398 10.0018 15.8398C9.68885 15.8398 9.38874 15.7155 9.16744 15.4943L4.44708 10.7739C4.22584 10.5526 4.10156 10.2525 4.10156 9.93961C4.10156 9.62669 4.22584 9.32658 4.44708 9.10528Z" fill="#2F313A" fill-opacity="0.7"/>
</g>
<defs>
<clipPath id="clip0_102_633">
<rect width="20" height="20" fill="white" transform="translate(0 0.5)"/>
</clipPath>
</defs>
</svg>
