<svg width="45" height="46" viewBox="0 0 45 46" fill="none" xmlns="http://www.w3.org/2000/svg">
<path d="M31.5 20.9999C31.5 27.9999 22.5 33.9999 22.5 33.9999C22.5 33.9999 13.5 27.9999 13.5 20.9999C13.5 18.6129 14.4482 16.3237 16.136 14.6359C17.8239 12.9481 20.1131 11.9999 22.5 11.9999C24.887 11.9999 27.1761 12.9481 28.864 14.6359C30.5518 16.3237 31.5 18.6129 31.5 20.9999Z" stroke="#2F313A" stroke-opacity="0.7" stroke-width="2" stroke-linecap="round" stroke-linejoin="round"/>
<path d="M22.4971 23.998C24.1539 23.998 25.4971 22.6549 25.4971 20.998C25.4971 19.3412 24.1539 17.998 22.4971 17.998C20.8402 17.998 19.4971 19.3412 19.4971 20.998C19.4971 22.6549 20.8402 23.998 22.4971 23.998Z" stroke="#2F313A" stroke-opacity="0.7" stroke-width="2" stroke-linecap="round" stroke-linejoin="round"/>
</svg>
