<svg width="252" height="21" viewBox="0 0 252 21" fill="none" xmlns="http://www.w3.org/2000/svg">
<path fill-rule="evenodd" clip-rule="evenodd" d="M18.1503 6.56661C18.15 6.87228 18.1485 7.18632 18.1493 7.47023C18.1559 9.49949 18.1527 11.4631 18.1493 13.4887L18.1492 13.4889L18.1491 13.5491V13.665L18.1493 13.7961L18.1492 14.9043L18.1493 14.9911V15.1039V15.2021V15.2979L18.1492 15.4027L18.1485 15.8274H28.1447V16.9389L28.1284 16.9542V18.1804C28.1284 19.3764 27.1337 20.3549 25.9184 20.3549H24.4415H19.0067C18.9392 20.3602 18.8708 20.3629 18.8021 20.3629H11.6866V20.3549V17.2043V16.0326V15.8372V15.339L11.6937 15.3386L11.7007 15.3383L11.7078 15.3379L11.7095 15.3378L11.7149 15.3376L11.722 15.3371L11.7289 15.3367L11.7347 15.3364H11.736L11.7431 15.3361L11.7499 15.3356L11.7569 15.3352L11.7597 15.3351L11.7639 15.3349L11.7709 15.3345L11.7778 15.3341L11.7844 15.3337L11.7847 15.3337L11.7916 15.3332L11.7985 15.3328L11.8053 15.3324L11.8091 15.3323L11.8121 15.332L11.8189 15.3316L11.8258 15.3312L11.8326 15.3309L11.8333 15.3308L11.8394 15.3304L11.8462 15.33L11.853 15.3297L11.8575 15.3294L11.8596 15.3292L11.8663 15.3287L11.873 15.3284L11.8796 15.328L11.8815 15.3278L11.8862 15.3275L11.8929 15.3271L11.8996 15.3267L11.9051 15.3264L11.9061 15.3263L11.9127 15.3259L11.9193 15.3255L11.9257 15.325L11.9284 15.3249L11.9323 15.3246L11.9389 15.3242L11.9453 15.3236L11.9516 15.3233H11.9517L11.9581 15.3229L11.9646 15.3224L11.9709 15.322L11.9746 15.3218L11.9772 15.3216L11.9837 15.3211L11.9899 15.3207L11.9962 15.3203H11.997L12.0025 15.3199L12.0087 15.3195L12.0149 15.3191L12.0193 15.3188L12.0212 15.3186L12.0273 15.3182L12.0335 15.3178L12.0396 15.3173H12.0413L12.0457 15.3169L12.0517 15.3165L12.0578 15.3161L12.063 15.3157H12.0638L12.0698 15.3152L12.0757 15.3147L12.0817 15.3143L12.0842 15.3141L12.0877 15.3139L12.0935 15.3135L12.0994 15.3131L12.1053 15.3126L12.1603 15.3085L12.1953 15.3056L12.2099 15.3043L12.2377 15.3019L12.2479 15.3008L12.2972 15.2961L12.3033 15.2954L12.3132 15.2944L12.3645 15.289L12.3684 15.2886L12.4155 15.283L12.433 15.2809L12.4486 15.2789L12.4833 15.2744L12.497 15.2727L12.5165 15.27L12.5607 15.2637L12.5667 15.2629L12.6166 15.2554L12.624 15.2543L12.6661 15.2475L12.6762 15.2458L12.7051 15.241L12.7254 15.2374L12.7614 15.2311L12.7645 15.2305L12.8111 15.2218L12.8133 15.2214L12.8617 15.2119L12.8726 15.2096L12.8808 15.208L12.9286 15.198L12.941 15.1953L12.9799 15.1867L12.9943 15.1834L13.0056 15.1809L13.0531 15.1698L13.0544 15.1695L13.0715 15.1653L13.1121 15.1551L13.1182 15.1536L13.1634 15.1419L13.1736 15.1393L13.1938 15.1339L13.2325 15.1232L13.2402 15.121L13.2863 15.1077L13.291 15.1064L13.3034 15.1027L13.3455 15.09L13.3542 15.0874L13.4034 15.072L13.4091 15.0701L13.4599 15.0535L13.4642 15.0521L13.4682 15.0507L13.5131 15.0353L13.5211 15.0325L13.5339 15.028L13.5688 15.0156L13.5777 15.0124L13.6021 15.0034L13.6174 14.9978L13.6407 14.9889L13.6464 14.9868L13.6896 14.9701L13.6902 14.9698L13.7339 14.9523L13.7359 14.9515L13.7627 14.9405L13.7888 14.9294L13.8107 14.9201L13.8206 14.9161L13.8545 14.9012L13.8635 14.8973L13.9063 14.8779L13.9088 14.8769L13.9489 14.8583L13.9803 14.8434L14.0046 14.8316L14.0163 14.8261L14.0333 14.8176L14.0693 14.7996L14.075 14.7967L14.1167 14.7752L14.1507 14.7573L14.1605 14.752L14.1936 14.7341L14.2067 14.7269L14.2373 14.7098L14.2497 14.7029L14.281 14.6849L14.3215 14.6614L14.3228 14.6607L14.3497 14.6445L14.3669 14.6342L14.3992 14.6143L14.4021 14.6125L14.4318 14.5939L14.442 14.5876L14.4817 14.562L14.4822 14.5618L14.5212 14.536L14.5253 14.5332L14.5477 14.5183L14.5686 14.5041L14.5939 14.4866L14.5996 14.4827L14.6315 14.4603L14.6385 14.4554L14.6773 14.4276L14.705 14.4072L14.7188 14.397C14.7562 14.3692 14.7933 14.3407 14.8302 14.3116L14.868 14.2814C14.8924 14.2617 14.9168 14.2417 14.9411 14.2213L14.943 14.2196C15.1569 14.0399 15.3617 13.8369 15.5592 13.609C16.1384 13.0023 16.5669 12.2699 16.799 11.4685C17.0819 10.7145 17.1783 9.75756 17.3012 8.96224C17.3894 8.39143 17.5845 7.09595 18.0151 6.68049C18.0582 6.63875 18.1027 6.60054 18.1503 6.56661ZM0 10.0718H9.06184C12.5219 9.6487 11.5814 7.7469 12.6245 4.16846C13.0102 2.84481 13.9285 1.93895 15.0772 1.42504C15.3461 1.29777 15.6291 1.1943 15.9235 1.11732C16.5907 0.943104 17.2152 0.951935 17.8662 0.960952C18.3425 0.967553 18.8429 0.958165 19.338 0.958165H28.1695V5.47993L20.092 5.52864C18.6395 5.65805 18.0418 5.56862 17.4261 6.16276C16.4364 7.1178 16.5355 9.91719 16.025 11.2429C15.8239 11.9538 15.4451 12.597 14.9369 13.1253C13.9542 14.2668 12.8936 14.5239 11.9783 14.5897C11.3523 14.6347 10.7274 14.6342 10.5044 14.5933H0V10.0718ZM18.9783 8.25477H24.2879L24.3428 12.7823L18.9774 12.7781C18.9797 11.2704 18.9813 9.76258 18.9783 8.25477ZM11.7027 5.12935L11.702 5.13233L11.7013 5.1354L11.7008 5.13828L11.7001 5.14125L11.6997 5.14349L11.6996 5.14432L11.6989 5.1472L11.6983 5.15018L11.6976 5.15325L11.6971 5.15622L11.6965 5.1592L11.6958 5.16217L11.6952 5.16515L11.6945 5.16812L11.694 5.1711L11.6934 5.17407L11.6927 5.17695L11.6921 5.18002L11.6914 5.183L11.6908 5.18588L11.6903 5.18885L11.69 5.19025L11.6896 5.19192L11.6891 5.1948L11.6884 5.19778L11.6878 5.20084L11.6872 5.20382L11.6866 5.2068L11.686 5.20977L11.6853 5.21274L11.6848 5.21572L11.6842 5.21869L11.6835 5.22167L11.6828 5.22464L11.6823 5.22762L11.6816 5.23059L11.6811 5.23357L11.6805 5.23654L11.6803 5.2371L11.6799 5.23961L11.6792 5.24249L11.6786 5.24556L11.6781 5.24854L11.6774 5.25142L11.6769 5.25439L11.6762 5.25746L11.6757 5.26034L11.6751 5.26332L11.6745 5.26639L11.6738 5.26927L11.6732 5.27224L11.6726 5.27531L11.6719 5.27829L11.6714 5.28126L11.6709 5.28386L11.6708 5.28424L11.6702 5.28721L11.6695 5.29019L11.669 5.29316L11.6684 5.29613L11.6679 5.29911L11.6672 5.30209L11.6666 5.30506L11.666 5.30803L11.6654 5.3111L11.6647 5.31408L11.6641 5.31696L11.6636 5.31993L0.0246305 5.31696V5.28498V5.253V5.22148V5.19006V5.15882V5.12768V5.09691V5.06614V5.03564V5.00534V4.97512V4.94491V4.91497V4.88523V4.85557V4.82601V4.79663V4.76716V4.73787V4.70878V4.67968V4.65077V4.62185V4.59294V4.56422V4.53539V4.50676V4.47794V4.44931V4.42068V4.39204V4.36341V4.33478V4.30624V4.2776V4.24888V4.22024V4.19151V4.16279V4.13397V4.10515V4.07624V4.04714V4.01804V3.98894V3.95975V3.93037V3.901V3.87143V3.84178V3.81184V3.782V3.75188V3.72167V3.69127V3.66077V3.63009V3.59932V3.56809V3.53694V3.50552V3.47382V3.44491V3.44203V3.40995C0.0246305 3.3935 0.0252896 3.37751 0.0262193 3.3617C0.0711218 2.06585 1.15984 0.958535 2.48442 0.963463C3.74959 0.968111 5.00425 0.94989 6.26952 0.961325L10.373 0.954073L10.5584 0.951843C10.9997 0.946265 11.5653 0.956584 12.102 0.957235C12.2507 0.957514 12.3803 0.961232 12.5254 0.961697C12.6218 0.962069 12.7186 0.961697 12.815 0.961697H12.8274L13.6829 0.963277C13.8712 0.966251 14.0182 0.963091 14.2287 0.963649L14.4413 0.964207C13.2512 1.60865 12.3777 2.63768 11.9898 3.96868C11.8759 4.35923 11.7834 4.74438 11.7027 5.12935ZM6.48734 15.3183V20.3549H0.0246305V15.3183H6.48734Z" fill="#061F36"/>
<path d="M43.9657 16.3559H40.1695V4.95736H45.7517C47.371 4.95736 48.6099 5.3057 49.4677 6.00219C50.2829 6.6672 50.6905 7.60134 50.6905 8.8044C50.6905 10.0815 50.3097 11.0577 49.5481 11.7332C48.7438 12.4508 47.5212 12.8097 45.8803 12.8097H43.9657V16.3559ZM43.9657 10.1501H45.5425C46.0252 10.1501 46.3898 10.055 46.6365 9.86509C46.926 9.64349 47.0708 9.29513 47.0708 8.82025C47.0708 8.35585 46.8348 8.02356 46.3628 7.82294C46.0305 7.6857 45.5906 7.61719 45.0437 7.61719H43.9657V10.1501ZM56.8036 12.3823H55.6452V16.3559H51.8487V4.95736H57.3182C59.1951 4.95736 60.5305 5.22113 61.3241 5.7489C62.0749 6.24498 62.4502 7.06308 62.4502 8.20277C62.4502 8.88877 62.2946 9.4692 61.9835 9.9443C61.6405 10.4614 61.1471 10.8097 60.5037 10.9891C61.2329 11.2529 61.7101 11.5223 61.9354 11.7965C62.2893 12.2292 62.4662 12.9679 62.4662 14.013C62.4662 14.4457 62.4662 14.8732 62.4662 15.2952C62.4876 15.7703 62.6218 16.0076 62.8685 16.0076V16.3559H59.0237C58.8949 16.0183 58.8307 15.3533 58.8307 14.3611C58.8307 13.5698 58.7179 13.0525 58.4928 12.8097C58.2352 12.5247 57.6723 12.3823 56.8036 12.3823ZM55.6452 7.61719V9.88093H57.1414C57.7418 9.88093 58.1924 9.79903 58.4928 9.63566C58.793 9.47188 58.9433 9.19472 58.9433 8.8044C58.9433 8.42457 58.8011 8.13158 58.5169 7.92582C58.2328 7.72007 57.8655 7.61719 57.4149 7.61719H55.6452ZM74.2744 16.3559H64.6057V4.95736H74.0491V7.61719H68.4025V9.24782H73.3413L73.3736 11.9074H68.4025V13.6963H74.2744V16.3559ZM85.793 10.1501L83.8463 15.9917L81.2723 15.9761L79.3579 10.1184L79.3739 16.3559H75.9635V4.95736H80.5484L82.5916 12.0657L84.6345 4.95736H89.2194V16.3559H85.809L85.793 10.1501ZM95.2039 16.3559H91.4073V4.95736H95.2039V16.3559ZM107.334 16.3559H97.6652V4.95736H107.109V7.61719H101.462V9.24782H106.401L106.433 11.9074H101.462V13.6963H107.334V16.3559ZM113.994 12.3823H112.836V16.3559H109.039V4.95736H114.509C116.386 4.95736 117.721 5.22113 118.515 5.7489C119.265 6.24498 119.641 7.06308 119.641 8.20277C119.641 8.88877 119.485 9.4692 119.174 9.9443C118.831 10.4614 118.337 10.8097 117.694 10.9891C118.423 11.2529 118.901 11.5223 119.126 11.7965C119.48 12.2292 119.657 12.9679 119.657 14.013C119.657 14.4457 119.657 14.8732 119.657 15.2952C119.678 15.7703 119.812 16.0076 120.059 16.0076V16.3559H116.214C116.085 16.0183 116.021 15.3533 116.021 14.3611C116.021 13.5698 115.908 13.0525 115.683 12.8097C115.426 12.5247 114.863 12.3823 113.994 12.3823ZM112.836 7.61719V9.88093H114.332C114.932 9.88093 115.383 9.79903 115.683 9.63566C115.983 9.47188 116.134 9.19472 116.134 8.8044C116.134 8.42457 115.992 8.13158 115.707 7.92582C115.423 7.72007 115.056 7.61719 114.605 7.61719H112.836ZM136.822 16.3559H127.153V4.95736H136.597V7.61719H130.95V9.24782H135.889L135.921 11.9074H130.95V13.6963H136.822V16.3559ZM142.211 4.95736L146.346 11.1793L146.201 8.5826V4.95736H149.836V16.3559H146.281L142.147 10.1501L142.292 12.7465V16.3559H138.656V4.95736H142.211ZM163.27 10.0867V16.3876L160.422 16.3401V15.4535C160.079 15.8545 159.693 16.1448 159.264 16.3242C158.738 16.5458 158.046 16.6567 157.188 16.6567C155.601 16.6567 154.298 16.1819 153.279 15.2319C152.142 14.166 151.574 12.6885 151.574 10.7992C151.574 8.96263 152.121 7.47995 153.215 6.35054C154.309 5.22114 155.784 4.65674 157.639 4.65674C159.076 4.65674 160.277 5.01023 161.242 5.71721C162.272 6.46658 162.899 7.52212 163.125 8.88362H159.521C159.242 7.92314 158.593 7.44291 157.575 7.44291C156.856 7.44291 156.309 7.74105 155.934 8.33754C155.558 8.93362 155.371 9.74883 155.371 10.7832C155.371 11.7227 155.531 12.4404 155.853 12.9364C156.25 13.5591 156.899 13.8704 157.8 13.8704C158.218 13.8704 158.623 13.749 159.015 13.5064C159.406 13.2636 159.65 12.9469 159.746 12.5564H158.17V10.0867H163.27ZM169.367 16.3559H165.57V4.95736H169.367V16.3559ZM175.271 4.95736L179.405 11.1793L179.26 8.5826V4.95736H182.896V16.3559H179.341L175.206 10.1501L175.351 12.7465V16.3559H171.715V4.95736H175.271ZM194.897 16.3559H185.229V4.95736H194.672V7.61719H189.025V9.24782H193.964L193.997 11.9074H189.025V13.6963H194.897V16.3559ZM206.512 16.3559H196.844V4.95736H206.287V7.61719H200.64V9.24782H205.579L205.611 11.9074H200.64V13.6963H206.512V16.3559ZM213.172 12.3823H212.014V16.3559H208.218V4.95736H213.687C215.564 4.95736 216.899 5.22113 217.693 5.7489C218.444 6.24498 218.819 7.06308 218.819 8.20277C218.819 8.88877 218.663 9.4692 218.352 9.9443C218.009 10.4614 217.516 10.8097 216.873 10.9891C217.602 11.2529 218.079 11.5223 218.304 11.7965C218.658 12.2292 218.835 12.9679 218.835 14.013C218.835 14.4457 218.835 14.8732 218.835 15.2952C218.856 15.7703 218.991 16.0076 219.237 16.0076V16.3559H215.393C215.264 16.0183 215.199 15.3533 215.199 14.3611C215.199 13.5698 215.087 13.0525 214.862 12.8097C214.604 12.5247 214.041 12.3823 213.172 12.3823ZM212.014 7.61719V9.88093H213.51C214.111 9.88093 214.561 9.79903 214.862 9.63566C215.162 9.47188 215.312 9.19472 215.312 8.8044C215.312 8.42457 215.17 8.13158 214.886 7.92582C214.602 7.72007 214.234 7.61719 213.784 7.61719H212.014ZM224.771 16.3559H220.975V4.95736H224.771V16.3559ZM230.675 4.95736L234.81 11.1793L234.665 8.5826V4.95736H238.301V16.3559H234.745L230.611 10.1501L230.756 12.7465V16.3559H227.12V4.95736H230.675ZM251.734 10.0867V16.3876L248.886 16.3401V15.4535C248.543 15.8545 248.157 16.1448 247.728 16.3242C247.202 16.5458 246.511 16.6567 245.653 16.6567C244.065 16.6567 242.762 16.1819 241.744 15.2319C240.607 14.166 240.038 12.6885 240.038 10.7992C240.038 8.96263 240.585 7.47995 241.679 6.35054C242.773 5.22114 244.248 4.65674 246.103 4.65674C247.54 4.65674 248.741 5.01023 249.707 5.71721C250.736 6.46658 251.364 7.52212 251.589 8.88362H247.985C247.707 7.92314 247.058 7.44291 246.039 7.44291C245.32 7.44291 244.773 7.74105 244.398 8.33754C244.023 8.93362 243.835 9.74883 243.835 10.7832C243.835 11.7227 243.996 12.4404 244.318 12.9364C244.714 13.5591 245.363 13.8704 246.264 13.8704C246.682 13.8704 247.087 13.749 247.479 13.5064C247.87 13.2636 248.114 12.9469 248.211 12.5564H246.634V10.0867H251.734Z" fill="#061F36"/>
</svg>
