<svg xmlns="http://www.w3.org/2000/svg" fill="none" viewBox="0 23.808306709265178 96 6.996805111821087" style="max-height: 500px" width="96" height="6.996805111821087">
<path fill="url(#paint0_linear_55_120)" d="M51.8602 5.61641C51.86 5.92208 51.8585 6.23612 51.8593 6.52004C51.8659 8.5493 51.8627 10.5129 51.8592 12.5385L51.8591 12.5387L51.859 12.5989V12.7148L51.8592 12.8459L51.8591 13.9541L51.8592 14.0409V14.1537V14.2519V14.3477L51.8591 14.4525L51.8585 14.8772H61.8547V15.9887L61.8383 16.004V17.2302C61.8383 18.4262 60.8437 19.4047 59.6284 19.4047H58.1514H52.7166C52.6491 19.41 52.5808 19.4127 52.5121 19.4127H45.3966V19.4047V16.2541V15.0824V14.887V14.3888L45.4037 14.3884L45.4106 14.3881L45.4178 14.3877L45.4195 14.3876L45.4249 14.3874L45.4319 14.3869L45.4389 14.3865L45.4447 14.3862H45.446L45.453 14.3859L45.4599 14.3854L45.4669 14.385L45.4697 14.3849L45.4738 14.3847L45.4808 14.3843L45.4878 14.3839L45.4944 14.3836L45.4947 14.3835L45.5016 14.383L45.5084 14.3826L45.5152 14.3822L45.519 14.3821L45.5221 14.3818L45.5289 14.3814L45.5358 14.381L45.5426 14.3807L45.5433 14.3806L45.5493 14.3802L45.5561 14.3798L45.5629 14.3795L45.5675 14.3792L45.5695 14.379L45.5763 14.3785L45.583 14.3782L45.5896 14.3778L45.5915 14.3776L45.5962 14.3773L45.6029 14.377L45.6096 14.3765L45.6151 14.3762L45.6161 14.3761L45.6227 14.3757L45.6293 14.3753L45.6357 14.3748L45.6384 14.3747L45.6423 14.3744L45.6488 14.374L45.6552 14.3734L45.6616 14.3731H45.6616L45.6681 14.3727L45.6746 14.3722L45.6809 14.3718L45.6845 14.3716L45.6872 14.3714L45.6936 14.3709L45.6999 14.3705L45.7062 14.3701H45.707L45.7125 14.3697L45.7186 14.3693L45.7249 14.3689L45.7292 14.3686L45.7312 14.3684L45.7372 14.368L45.7435 14.3676L45.7496 14.3671H45.7513L45.7556 14.3667L45.7617 14.3663L45.7677 14.3659L45.7729 14.3655H45.7738L45.7798 14.3651L45.7857 14.3645L45.7917 14.3641L45.7941 14.3639L45.7977 14.3637L45.8034 14.3633L45.8094 14.3629L45.8152 14.3624L45.8703 14.3583L45.9053 14.3554L45.9198 14.3541L45.9477 14.3517L45.9578 14.3506L46.0072 14.3459L46.0132 14.3453L46.0232 14.3442L46.0744 14.3388L46.0783 14.3384L46.1255 14.3328L46.1429 14.3307L46.1585 14.3287L46.1932 14.3242L46.207 14.3225L46.2265 14.3198L46.2707 14.3135L46.2767 14.3127L46.3265 14.3052L46.334 14.3041L46.3761 14.2973L46.3861 14.2956L46.415 14.2908L46.4354 14.2872L46.4714 14.2809L46.4744 14.2803L46.521 14.2716L46.5233 14.2712L46.5717 14.2617L46.5826 14.2594L46.5907 14.2578L46.6385 14.2478L46.651 14.2451L46.6898 14.2365L46.7043 14.2332L46.7156 14.2307L46.763 14.2196L46.7644 14.2193L46.7815 14.2151L46.822 14.2049L46.8282 14.2034L46.8734 14.1917L46.8836 14.1891L46.9038 14.1837L46.9424 14.173L46.9502 14.1708L46.9963 14.1576L47.001 14.1562L47.0134 14.1525L47.0555 14.1398L47.0641 14.1372L47.1134 14.1218L47.1191 14.1199L47.1698 14.1033L47.1742 14.1019L47.1782 14.1005L47.2231 14.0851L47.2311 14.0823L47.2438 14.0778L47.2788 14.0654L47.2876 14.0622L47.3121 14.0532L47.3274 14.0476L47.3507 14.0387L47.3563 14.0366L47.3995 14.0199L47.4002 14.0196L47.4439 14.0021L47.4458 14.0013L47.4726 13.9903L47.4987 13.9792L47.5207 13.9699L47.5305 13.9659L47.5645 13.951L47.5735 13.9471L47.6162 13.9277L47.6188 13.9267L47.6588 13.9081L47.6902 13.8932L47.7145 13.8814L47.7262 13.8759L47.7432 13.8674L47.7793 13.8494L47.785 13.8465L47.8266 13.825L47.8607 13.8071L47.8704 13.8018L47.9035 13.7839L47.9166 13.7767L47.9473 13.7596L47.9597 13.7527L47.991 13.7347L48.0314 13.7112L48.0327 13.7105L48.0597 13.6943L48.0769 13.684L48.1092 13.6641L48.112 13.6623L48.1418 13.6437L48.1519 13.6374L48.1916 13.6118L48.1922 13.6116L48.2311 13.5858L48.2353 13.583L48.2576 13.5681L48.2785 13.5539L48.3038 13.5364L48.3096 13.5325L48.3415 13.5101L48.3485 13.5052L48.3872 13.4774L48.415 13.457L48.4288 13.4468C48.4661 13.419 48.5032 13.3905 48.5401 13.3614L48.578 13.3312C48.6023 13.3115 48.6268 13.2915 48.6511 13.2711L48.6529 13.2695C48.8668 13.0897 49.0716 12.8867 49.2692 12.6588C49.8484 12.0522 50.2768 11.3197 50.509 10.5183C50.7919 9.76427 50.8883 8.80737 51.0112 8.01205C51.0994 7.44124 51.2944 6.14576 51.7251 5.73029C51.7682 5.68855 51.8126 5.65034 51.8602 5.61641ZM33.71 9.12159H42.7718C46.2319 8.69851 45.2914 6.7967 46.3344 3.21826C46.7202 1.89462 47.6385 0.988759 48.7872 0.474844C49.056 0.347574 49.3391 0.244102 49.6334 0.167126C50.3006 -0.00709168 50.9252 0.00173943 51.5761 0.0107571C52.0525 0.0173577 52.5528 0.00796996 53.048 0.00796996H61.8794V4.52973L53.802 4.57845C52.3494 4.70786 51.7517 4.61842 51.136 5.21257C50.1463 6.1676 50.2454 8.96699 49.7349 10.2927C49.5339 11.0036 49.155 11.6468 48.6469 12.1751C47.6641 13.3166 46.6036 13.5737 45.6882 13.6395C45.0623 13.6845 44.4374 13.684 44.2144 13.6431H33.71V9.12159ZM52.6883 7.30458H57.9978L58.0528 11.8321L52.6874 11.8279C52.6897 10.3202 52.6913 8.81239 52.6883 7.30458ZM45.4127 4.17916L45.4119 4.18214L45.4113 4.1852L45.4107 4.18808L45.4101 4.19106L45.4096 4.19329L45.4095 4.19413L45.4089 4.19701L45.4082 4.19998L45.4076 4.20305L45.407 4.20603L45.4064 4.209L45.4058 4.21198L45.4052 4.21495L45.4045 4.21793L45.4039 4.2209L45.4034 4.22388L45.4026 4.22676L45.4021 4.22983L45.4013 4.2328L45.4008 4.23568L45.4002 4.23866L45.3999 4.24005L45.3996 4.24172L45.399 4.24461L45.3984 4.24758L45.3977 4.25065L45.3972 4.25362L45.3966 4.2566L45.3959 4.25957L45.3953 4.26255L45.3947 4.26552L45.3942 4.2685L45.3934 4.27147L45.3928 4.27445L45.3922 4.27742L45.3916 4.2804L45.391 4.28337L45.3905 4.28635L45.3903 4.28691L45.3898 4.28942L45.3892 4.2923L45.3886 4.29537L45.388 4.29834L45.3874 4.30122L45.3868 4.3042L45.3862 4.30727L45.3856 4.31015L45.3851 4.31312L45.3844 4.31619L45.3838 4.31907L45.3831 4.32205L45.3826 4.32512L45.3819 4.32809L45.3814 4.33107L45.3809 4.33367L45.3808 4.33404L45.3801 4.33702L45.3795 4.33999L45.3789 4.34296L45.3784 4.34594L45.3778 4.34892L45.3772 4.35189L45.3766 4.35486L45.376 4.35784L45.3754 4.36091L45.3747 4.36388L45.3741 4.36676L45.3735 4.36974L33.7346 4.36676V4.33478V4.3028V4.27129V4.23987V4.20863V4.17749V4.14671V4.11594V4.08545V4.05514V4.02493V3.99471V3.96478V3.93503V3.90538V3.87581V3.84643V3.81696V3.78768V3.75858V3.72948V3.70057V3.67166V3.64275V3.61402V3.5852V3.55657V3.52775V3.49912V3.47048V3.44185V3.41321V3.38458V3.35604V3.32741V3.29868V3.27005V3.24132V3.21259V3.18377V3.15496V3.12604V3.09695V3.06785V3.03875V3.00956V2.98018V2.9508V2.92124V2.89158V2.86165V2.83181V2.80169V2.77147V2.74107V2.71058V2.6799V2.64913V2.61789V2.58675V2.55533V2.52362V2.49471V2.49183V2.45976C33.7346 2.4433 33.7353 2.42731 33.7362 2.41151C33.7811 1.11566 34.8698 0.00834019 36.1944 0.0132674C37.4596 0.0179157 38.7142 -0.000305453 39.9795 0.0111293L44.083 0.00387774L44.2684 0.00164778C44.7097 -0.00393017 45.2753 0.00638863 45.812 0.00703939C45.9606 0.00731829 46.0902 0.0110367 46.2353 0.0115016C46.3317 0.0118734 46.4285 0.0115016 46.5249 0.0115016H46.5374L47.3929 0.0130813C47.5812 0.0160562 47.7282 0.0128957 47.9387 0.0134535L48.1513 0.0140118C46.9611 0.658451 46.0877 1.68749 45.6998 3.01848C45.5859 3.40903 45.4934 3.79419 45.4127 4.17916ZM40.1973 14.3681V19.4047H33.7346V14.3681H40.1973Z" clip-rule="evenodd" fill-rule="evenodd"/>
<path fill="url(#paint1_linear_55_120)" d="M1.71522 29.8641H0V24.714H2.52217C3.25381 24.714 3.81355 24.8714 4.20113 25.186C4.56946 25.4865 4.75362 25.9086 4.75362 26.4521C4.75362 27.0292 4.58155 27.4702 4.23748 27.7754C3.87408 28.0997 3.32168 28.2618 2.58027 28.2618H1.71522V29.8641ZM1.71522 27.0601H2.42762C2.64572 27.0601 2.81046 27.0172 2.92192 26.9314C3.05273 26.8313 3.11817 26.6739 3.11817 26.4593C3.11817 26.2495 3.01153 26.0993 2.79827 26.0087C2.64813 25.9467 2.44938 25.9157 2.20227 25.9157H1.71522V27.0601ZM7.51564 28.0687H6.99225V29.8641H5.27693V24.714H7.74815C8.59618 24.714 9.19953 24.8331 9.5581 25.0716C9.89733 25.2957 10.0669 25.6654 10.0669 26.1803C10.0669 26.4903 9.99662 26.7525 9.85606 26.9672C9.70108 27.2008 9.47815 27.3582 9.18745 27.4393C9.51692 27.5584 9.73251 27.6801 9.8343 27.8041C9.9942 27.9996 10.0742 28.3333 10.0742 28.8055C10.0742 29.001 10.0742 29.1942 10.0742 29.3848C10.0838 29.5995 10.1444 29.7067 10.2559 29.7067V29.8641H8.51874C8.46054 29.7115 8.43154 29.4111 8.43154 28.9628C8.43154 28.6052 8.38059 28.3715 8.27889 28.2618C8.16249 28.1331 7.90814 28.0687 7.51564 28.0687ZM6.99225 25.9157V26.9385H7.66829C7.93956 26.9385 8.14316 26.9015 8.27889 26.8277C8.41452 26.7537 8.4824 26.6285 8.4824 26.4521C8.4824 26.2805 8.41815 26.1482 8.28976 26.0552C8.16138 25.9622 7.99544 25.9157 7.79184 25.9157H6.99225ZM15.4094 29.8641H11.0408V24.714H15.3076V25.9157H12.7563V26.6525H14.9878L15.0024 27.8542H12.7563V28.6624H15.4094V29.8641ZM20.6137 27.0601L19.7341 29.6995L18.5711 29.6925L17.7062 27.0458L17.7134 29.8641H16.1725V24.714H18.2441L19.1672 27.9257L20.0903 24.714H22.1618V29.8641H20.6209L20.6137 27.0601ZM24.8658 29.8641H23.1503V24.714H24.8658V29.8641ZM30.3464 29.8641H25.9778V24.714H30.2446V25.9157H27.6933V26.6525H29.9248L29.9393 27.8542H27.6933V28.6624H30.3464V29.8641ZM33.3555 28.0687H32.8322V29.8641H31.1168V24.714H33.5881C34.4361 24.714 35.0394 24.8331 35.398 25.0716C35.7372 25.2957 35.9068 25.6654 35.9068 26.1803C35.9068 26.4903 35.8366 26.7525 35.696 26.9672C35.5409 27.2008 35.318 27.3582 35.0273 27.4393C35.3568 27.5584 35.5724 27.6801 35.6741 27.8041C35.8341 27.9996 35.914 28.3333 35.914 28.8055C35.914 29.001 35.914 29.1942 35.914 29.3848C35.9238 29.5995 35.9843 29.7067 36.0958 29.7067V29.8641H34.3586C34.3005 29.7115 34.2714 29.4111 34.2714 28.9628C34.2714 28.6052 34.2204 28.3715 34.1187 28.2618C34.0024 28.1331 33.748 28.0687 33.3555 28.0687ZM32.8322 25.9157V26.9385H33.5081C33.7795 26.9385 33.983 26.9015 34.1187 26.8277C34.2544 26.7537 34.3222 26.6285 34.3222 26.4521C34.3222 26.2805 34.2581 26.1482 34.1296 26.0552C34.0012 25.9622 33.8353 25.9157 33.6317 25.9157H32.8322ZM43.6697 29.8641H39.3012V24.714H43.5679V25.9157H41.0166V26.6525H43.2481L43.2627 27.8542H41.0166V28.6624H43.6697V29.8641ZM46.1046 24.714L47.9727 27.5252L47.9072 26.3519V24.714H49.5499V29.8641H47.9436L46.0755 27.0601L46.141 28.2333V29.8641H44.4983V24.714H46.1046ZM55.6193 27.0315V29.8784L54.3328 29.8569V29.4563C54.1777 29.6375 54.0032 29.7687 53.8095 29.8498C53.5719 29.9499 53.2594 30 52.8717 30C52.1546 30 51.5658 29.7854 51.1055 29.3562C50.5918 28.8747 50.3349 28.2071 50.3349 27.3535C50.3349 26.5236 50.5821 25.8537 51.0764 25.3434C51.5707 24.8331 52.237 24.5781 53.0753 24.5781C53.7246 24.5781 54.2673 24.7379 54.7034 25.0573C55.1686 25.3959 55.4521 25.8728 55.5539 26.4879H53.9257C53.7997 26.054 53.5065 25.837 53.0462 25.837C52.7215 25.837 52.4744 25.9717 52.3048 26.2412C52.1352 26.5105 52.0504 26.8789 52.0504 27.3462C52.0504 27.7707 52.1231 28.0949 52.2684 28.3191C52.4478 28.6004 52.7409 28.7411 53.148 28.7411C53.337 28.7411 53.5199 28.6862 53.6968 28.5766C53.8736 28.4669 53.9839 28.3238 54.0275 28.1474H53.3151V27.0315H55.6193ZM58.3742 29.8641H56.6587V24.714H58.3742V29.8641ZM61.0417 24.714L62.9098 27.5252L62.8443 26.3519V24.714H64.487V29.8641H62.8807L61.0126 27.0601L61.0781 28.2333V29.8641H59.4353V24.714H61.0417ZM69.9095 29.8641H65.541V24.714H69.8077V25.9157H67.2564V26.6525H69.4878L69.5024 27.8542H67.2564V28.6624H69.9095V29.8641ZM75.1573 29.8641H70.7888V24.714H75.0556V25.9157H72.5042V26.6525H74.7357L74.7503 27.8542H72.5042V28.6624H75.1573V29.8641ZM78.1665 28.0687H77.6431V29.8641H75.9278V24.714H78.399C79.247 24.714 79.8504 24.8331 80.209 25.0716C80.5482 25.2957 80.7178 25.6654 80.7178 26.1803C80.7178 26.4903 80.6475 26.7525 80.5069 26.9672C80.3518 27.2008 80.129 27.3582 79.8383 27.4393C80.1678 27.5584 80.3834 27.6801 80.4852 27.8041C80.6451 27.9996 80.725 28.3333 80.725 28.8055C80.725 29.001 80.725 29.1942 80.725 29.3848C80.7347 29.5995 80.7953 29.7067 80.9068 29.7067V29.8641H79.1696C79.1114 29.7115 79.0824 29.4111 79.0824 28.9628C79.0824 28.6052 79.0314 28.3715 78.9297 28.2618C78.8134 28.1331 78.559 28.0687 78.1665 28.0687ZM77.6431 25.9157V26.9385H78.3191C78.5904 26.9385 78.794 26.9015 78.9297 26.8277C79.0654 26.7537 79.1333 26.6285 79.1333 26.4521C79.1333 26.2805 79.069 26.1482 78.9406 26.0552C78.8122 25.9622 78.6463 25.9157 78.4427 25.9157H77.6431ZM83.4072 29.8641H81.6917V24.714H83.4072V29.8641ZM86.0747 24.714L87.9428 27.5252L87.8773 26.3519V24.714H89.52V29.8641H87.9137L86.0456 27.0601L86.1111 28.2333V29.8641H84.4684V24.714H86.0747ZM95.5894 27.0315V29.8784L94.3029 29.8569V29.4563C94.1478 29.6375 93.9733 29.7687 93.7795 29.8498C93.542 29.9499 93.2295 30 92.8418 30C92.1247 30 91.5359 29.7854 91.0756 29.3562C90.5619 28.8747 90.305 28.2071 90.305 27.3535C90.305 26.5236 90.5522 25.8537 91.0464 25.3434C91.5407 24.8331 92.207 24.5781 93.0454 24.5781C93.6947 24.5781 94.2374 24.7379 94.6735 25.0573C95.1387 25.3959 95.4222 25.8728 95.524 26.4879H93.8958C93.7698 26.054 93.4766 25.837 93.0163 25.837C92.6916 25.837 92.4445 25.9717 92.2748 26.2412C92.1053 26.5105 92.0204 26.8789 92.0204 27.3462C92.0204 27.7707 92.0931 28.0949 92.2385 28.3191C92.4179 28.6004 92.711 28.7411 93.1181 28.7411C93.3071 28.7411 93.49 28.6862 93.6669 28.5766C93.8437 28.4669 93.9539 28.3238 93.9975 28.1474H93.2852V27.0315H95.5894Z"/>
<defs>
<linearGradient gradientUnits="userSpaceOnUse" y2="4.41975" x2="59.6074" y1="14.9928" x1="35.9822" id="paint0_linear_55_120">
<stop stop-color="#F8E081"/>
<stop stop-color="#B5833D" offset="0.2"/>
<stop stop-color="#F8E081" offset="0.509804"/>
<stop stop-color="#FCF4A9" offset="0.521569"/>
<stop stop-color="#F8E081" offset="0.588235"/>
<stop stop-color="#B5833D" offset="0.839216"/>
<stop stop-color="#F8E081" offset="1"/>
</linearGradient>
<linearGradient gradientUnits="userSpaceOnUse" y2="11.6476" x2="10.8589" y1="28.7655" x1="7.7107" id="paint1_linear_55_120">
<stop stop-color="#F8E081"/>
<stop stop-color="#B5833D" offset="0.2"/>
<stop stop-color="#F8E081" offset="0.509804"/>
<stop stop-color="#FCF4A9" offset="0.521569"/>
<stop stop-color="#F8E081" offset="0.588235"/>
<stop stop-color="#B5833D" offset="0.839216"/>
<stop stop-color="#F8E081" offset="1"/>
</linearGradient>
</defs>
</svg>