<svg width="32" height="33" viewBox="0 0 32 33" fill="none" xmlns="http://www.w3.org/2000/svg">
<path d="M10.4003 3.16638H21.6003C25.867 3.16638 29.3337 6.63305 29.3337 10.8997V22.0997C29.3337 24.1507 28.5189 26.1177 27.0686 27.568C25.6183 29.0183 23.6513 29.833 21.6003 29.833H10.4003C6.13366 29.833 2.66699 26.3664 2.66699 22.0997V10.8997C2.66699 8.84871 3.48175 6.8817 4.93203 5.43142C6.38231 3.98114 8.34932 3.16638 10.4003 3.16638ZM10.1337 5.83305C8.86062 5.83305 7.63972 6.33876 6.73955 7.23894C5.83937 8.13911 5.33366 9.36001 5.33366 10.633V22.3664C5.33366 25.0197 7.48033 27.1664 10.1337 27.1664H21.867C23.14 27.1664 24.3609 26.6607 25.2611 25.7605C26.1613 24.8603 26.667 23.6394 26.667 22.3664V10.633C26.667 7.97971 24.5203 5.83305 21.867 5.83305H10.1337ZM23.0003 7.83305C23.4424 7.83305 23.8663 8.00864 24.1788 8.3212C24.4914 8.63376 24.667 9.05769 24.667 9.49971C24.667 9.94174 24.4914 10.3657 24.1788 10.6782C23.8663 10.9908 23.4424 11.1664 23.0003 11.1664C22.5583 11.1664 22.1344 10.9908 21.8218 10.6782C21.5093 10.3657 21.3337 9.94174 21.3337 9.49971C21.3337 9.05769 21.5093 8.63376 21.8218 8.3212C22.1344 8.00864 22.5583 7.83305 23.0003 7.83305ZM16.0003 9.83305C17.7684 9.83305 19.4641 10.5354 20.7144 11.7857C21.9646 13.0359 22.667 14.7316 22.667 16.4997C22.667 18.2678 21.9646 19.9635 20.7144 21.2138C19.4641 22.464 17.7684 23.1664 16.0003 23.1664C14.2322 23.1664 12.5365 22.464 11.2863 21.2138C10.036 19.9635 9.33366 18.2678 9.33366 16.4997C9.33366 14.7316 10.036 13.0359 11.2863 11.7857C12.5365 10.5354 14.2322 9.83305 16.0003 9.83305ZM16.0003 12.4997C14.9395 12.4997 13.922 12.9211 13.1719 13.6713C12.4218 14.4214 12.0003 15.4388 12.0003 16.4997C12.0003 17.5606 12.4218 18.578 13.1719 19.3281C13.922 20.0783 14.9395 20.4997 16.0003 20.4997C17.0612 20.4997 18.0786 20.0783 18.8288 19.3281C19.5789 18.578 20.0003 17.5606 20.0003 16.4997C20.0003 15.4388 19.5789 14.4214 18.8288 13.6713C18.0786 12.9211 17.0612 12.4997 16.0003 12.4997Z" fill="white"/>
</svg>
