<svg width="32" height="33" viewBox="0 0 32 33" fill="none" xmlns="http://www.w3.org/2000/svg">
<g id="mingcute:youtube-line" clip-path="url(#clip0_65_507)">
<g id="Group">
<path id="Vector" d="M16.0003 5.83289C17.1403 5.83289 18.3097 5.86222 19.443 5.91022L20.7817 5.97422L22.063 6.05022L23.263 6.13155L24.359 6.21689C25.5484 6.30792 26.6676 6.81548 27.5197 7.65027C28.3718 8.48506 28.9022 9.59361 29.0177 10.7809L29.071 11.3476L29.171 12.5609C29.2643 13.8182 29.3337 15.1889 29.3337 16.4996C29.3337 17.8102 29.2643 19.1809 29.171 20.4382L29.071 21.6516C29.0537 21.8462 29.0363 22.0342 29.0177 22.2182C28.9022 23.4057 28.3716 24.5144 27.5192 25.3492C26.6668 26.1841 25.5473 26.6915 24.3577 26.7822L23.2643 26.8662L22.0643 26.9489L20.7817 27.0249L19.443 27.0889C18.2961 27.1387 17.1483 27.1645 16.0003 27.1662C14.8524 27.1645 13.7045 27.1387 12.5577 27.0889L11.219 27.0249L9.93766 26.9489L8.73766 26.8662L7.64166 26.7822C6.45226 26.6912 5.33306 26.1836 4.48096 25.3488C3.62885 24.514 3.09842 23.4055 2.98299 22.2182L2.92966 21.6516L2.82966 20.4382C2.72771 19.1277 2.67345 17.814 2.66699 16.4996C2.66699 15.1889 2.73633 13.8182 2.82966 12.5609L2.92966 11.3476C2.94699 11.1529 2.96433 10.9649 2.98299 10.7809C3.09838 9.59382 3.62861 8.48544 4.48045 7.65068C5.33228 6.81591 6.45116 6.30822 7.64033 6.21689L8.73499 6.13155L9.93499 6.05022L11.2177 5.97422L12.5563 5.91022C13.7037 5.8604 14.8519 5.83461 16.0003 5.83289ZM16.0003 8.49955C14.9003 8.49955 13.7683 8.52889 12.667 8.57422L11.363 8.63689L10.111 8.71022L8.93499 8.79022L7.85766 8.87422C7.29143 8.91439 6.75772 9.15375 6.35112 9.54985C5.94451 9.94596 5.69129 10.4732 5.63633 11.0382C5.48033 12.6502 5.33366 14.6569 5.33366 16.4996C5.33366 18.3422 5.48033 20.3489 5.63633 21.9609C5.74966 23.1236 6.67233 24.0276 7.85766 24.1249L8.93499 24.2076L10.111 24.2876L11.363 24.3622L12.667 24.4249C13.7683 24.4702 14.9003 24.4996 16.0003 24.4996C17.1003 24.4996 18.2323 24.4702 19.3337 24.4249L20.6377 24.3622L21.8897 24.2889L23.0657 24.2089L24.143 24.1249C24.7092 24.0847 25.2429 23.8454 25.6495 23.4492C26.0561 23.0531 26.3094 22.5259 26.3643 21.9609C26.5203 20.3489 26.667 18.3422 26.667 16.4996C26.667 14.6569 26.5203 12.6502 26.3643 11.0382C26.3094 10.4732 26.0561 9.94596 25.6495 9.54985C25.2429 9.15375 24.7092 8.91439 24.143 8.87422L23.0657 8.79155L21.8897 8.71155L20.6377 8.63689L19.3337 8.57422C18.2232 8.52644 17.1118 8.50155 16.0003 8.49955ZM13.3337 13.2662C13.3336 13.1359 13.3653 13.0075 13.4261 12.8923C13.487 12.777 13.575 12.6784 13.6827 12.6049C13.7903 12.5315 13.9142 12.4854 14.0437 12.4708C14.1732 12.4561 14.3043 12.4733 14.4257 12.5209L14.5337 12.5742L20.1337 15.8062C20.2452 15.8706 20.3395 15.9609 20.4087 16.0695C20.4778 16.1781 20.5197 16.3018 20.5308 16.43C20.542 16.5583 20.522 16.6873 20.4726 16.8062C20.4231 16.9251 20.3458 17.0303 20.247 17.1129L20.1337 17.1929L14.5337 20.4262C14.4208 20.4916 14.2937 20.5283 14.1634 20.5333C14.0331 20.5383 13.9035 20.5114 13.786 20.4549C13.6685 20.3983 13.5666 20.3139 13.4891 20.209C13.4117 20.1041 13.3611 19.9818 13.3417 19.8529L13.3337 19.7329V13.2662Z" fill="white"/>
</g>
</g>
<defs>
<clipPath id="clip0_65_507">
<rect width="32" height="32" fill="white" transform="translate(0 0.5)"/>
</clipPath>
</defs>
</svg>
