<svg width="43" height="43" viewBox="0 0 43 43" fill="none" xmlns="http://www.w3.org/2000/svg">
<path d="M23.1919 38.4509C28.3382 26.6811 21.9853 21.9531 21.9853 21.9531C25.3713 25.339 25.3716 30.8294 21.9853 34.2155C19.2158 36.985 15.0394 37.4876 11.7578 35.7272C12.3249 36.6324 12.9986 37.491 13.7862 38.2785C19.4157 43.9082 28.5445 43.9082 34.1741 38.2785C34.1741 38.2785 28.9855 41.6069 23.1919 38.4509Z" fill="#3094CE"/>
<path d="M34.8573 32.1119C30.174 20.1501 22.3389 21.2994 22.3389 21.2994C27.1274 21.2992 31.0093 25.1812 31.0093 29.97C31.0095 33.887 28.4118 37.1953 24.8467 38.2709C25.888 38.5098 26.9711 38.6406 28.0854 38.6407C36.0464 38.6409 42.5013 32.1857 42.5017 24.224C42.5017 24.224 41.1859 30.2467 34.8573 32.1119Z" fill="#3EA8D7"/>
<path d="M38.6439 19.1271C26.8738 13.9802 22.1465 20.3333 22.1465 20.3333C25.5324 16.9472 31.0223 16.9472 34.4083 20.3333C37.1783 23.1033 37.6807 27.2792 35.9201 30.5608C36.8258 29.9934 37.6839 29.3201 38.4717 28.5324C44.1017 22.903 44.1009 13.774 38.4715 8.14453C38.4715 8.14453 41.7998 13.3333 38.6439 19.1271Z" fill="#55BCE1"/>
<path d="M10.4941 34.8586C22.4555 30.175 21.3063 22.3398 21.3063 22.3398C21.3063 27.1286 17.4245 31.0105 12.6357 31.0105C8.71896 31.0103 5.41031 28.4129 4.3345 24.8474C4.09536 25.889 3.96484 26.9721 3.96484 28.0861C3.96484 36.0476 10.4199 42.5022 18.3817 42.5023C18.3817 42.5023 12.359 41.187 10.4941 34.8586Z" fill="#1E84C5"/>
<path d="M19.5018 4.04997C14.3556 15.8197 20.7083 20.5477 20.7083 20.5477C17.3222 17.1614 17.3219 11.6713 20.7082 8.28496C23.4778 5.51541 27.6538 5.01269 30.9358 6.77346C30.369 5.86795 29.6948 5.00959 28.9073 4.22198C23.2779 -1.40722 14.1493 -1.40753 8.51953 4.22229C8.51953 4.22229 13.7083 0.893819 19.5018 4.04997Z" fill="#55BCE1"/>
<path d="M7.83643 10.392C12.5197 22.3538 20.3549 21.2044 20.3549 21.2044C15.5662 21.2044 11.6845 17.3228 11.6843 12.5338C11.6846 8.61686 14.2818 5.30836 17.8469 4.23293C16.8056 3.99388 15.7226 3.86328 14.6086 3.86328C6.64735 3.86289 0.192538 10.3183 0.192383 18.2799C0.192383 18.2799 1.5081 12.2572 7.83643 10.392Z" fill="#3EA8D7"/>
<path d="M4.04996 23.3716C15.8198 28.5185 20.5474 22.1655 20.5474 22.1655C17.1618 25.5516 11.6716 25.5514 8.28525 22.165C5.5157 19.3954 5.01283 15.2192 6.77367 11.9375C5.86825 12.5051 5.00996 13.1788 4.22228 13.9664C-1.40754 19.5957 -1.40731 28.7246 4.22228 34.3542C4.22228 34.3542 0.89412 29.1656 4.04996 23.3716Z" fill="#3094CE"/>
<path d="M32.1983 7.64366C20.2374 12.3275 21.3863 20.1624 21.3863 20.1624C21.3863 15.3737 25.2682 11.4917 30.057 11.4917C33.9737 11.4923 37.2825 14.0893 38.3587 17.6548C38.5974 16.6137 38.7279 15.5304 38.7278 14.4163C38.7279 6.4549 32.273 0 24.311 0C24.311 0 30.3336 1.31541 32.1983 7.64366Z" fill="#64CAE5"/>
</svg>
