<svg width="57" height="57" viewBox="0 0 57 57" fill="none" xmlns="http://www.w3.org/2000/svg">
<path d="M0.00464502 27.7467C0.364647 12.2067 13.0646 -0.263321 28.8346 0.00668091C44.5046 0.266681 57.0246 13.1167 56.6846 28.9567C56.3546 44.6367 43.4346 57.0367 27.6646 56.6767C12.1446 56.3167 -0.275355 43.4567 0.00464502 27.7467ZM33.2946 28.3867C33.0646 28.5767 32.8746 28.7067 32.7046 28.8767C29.6146 31.9667 26.5246 35.0567 23.4246 38.1467C22.9246 38.6467 22.6046 39.2067 22.7246 39.9367C22.8446 40.6767 23.2646 41.2067 23.9746 41.4467C24.7646 41.7067 25.4346 41.4867 26.0146 40.9067C29.6746 37.2467 33.3346 33.5867 36.9946 29.9267C38.0746 28.8467 38.0646 27.8567 36.9746 26.7667C33.3646 23.1567 29.7646 19.5567 26.1546 15.9467C26.0146 15.8067 25.8846 15.6567 25.7246 15.5367C25.0946 15.0467 24.3946 14.9467 23.6746 15.3167C22.9846 15.6667 22.6346 16.2567 22.6446 17.0367C22.6446 17.6567 22.9646 18.1067 23.3746 18.5267C26.6646 21.7567 29.9246 25.0167 33.2946 28.3867Z" fill="#FA7F72"/>
</svg>
