<svg width="108" height="107" viewBox="0 0 108 107" fill="none" xmlns="http://www.w3.org/2000/svg">
<g opacity="0.997002">
<path d="M56.8407 24.8834C58.9289 24.8754 61.0171 24.8964 63.1048 24.9464L63.6599 24.9664C64.3009 24.9893 64.9333 25.0179 65.6974 25.0522C68.7421 25.1953 70.8196 25.6761 72.6425 26.3829C74.5311 27.1097 76.1222 28.0941 77.7133 29.6852C79.168 31.1149 80.2939 32.8442 81.0127 34.7531C81.7195 36.5759 82.2003 38.6563 82.3433 41.7011C82.3777 42.4623 82.4063 43.0975 82.4292 43.7385L82.4464 44.2937C82.4972 46.3803 82.5191 48.4676 82.5122 50.5549L82.515 52.6896V56.4383C82.5221 58.5266 82.5001 60.6148 82.4492 62.7024L82.432 63.2576C82.4092 63.8986 82.3805 64.531 82.3462 65.295C82.2031 68.3398 81.7166 70.4173 81.0127 72.2401C80.2963 74.151 79.1701 75.8818 77.7133 77.3109C76.2823 78.7655 74.5521 79.8914 72.6425 80.6103C70.8196 81.3172 68.7421 81.7979 65.6974 81.941C64.9333 81.9753 64.3009 82.0039 63.6599 82.0268L63.1048 82.044C61.0171 82.0949 58.9289 82.1168 56.8407 82.1098L54.7059 82.1127H50.9601C48.8719 82.1197 46.7837 82.0978 44.696 82.0469L44.1409 82.0297C43.4616 82.0051 42.7824 81.9765 42.1034 81.9438C39.0587 81.8008 36.9811 81.3143 35.1554 80.6103C33.2458 79.8931 31.5162 78.767 30.0875 77.3109C28.6311 75.8809 27.5041 74.1504 26.7852 72.2401C26.0784 70.4173 25.5977 68.3398 25.4546 65.295C25.4227 64.616 25.3941 63.9368 25.3687 63.2576L25.3544 62.7024C25.3017 60.6148 25.2778 58.5266 25.2829 56.4383V50.5549C25.2749 48.4676 25.2959 46.3804 25.3459 44.2937L25.3659 43.7385C25.3888 43.0975 25.4174 42.4623 25.4517 41.7011C25.5948 38.6535 26.0756 36.5788 26.7824 34.7531C27.5017 32.8433 28.6309 31.1144 30.0904 29.688C31.518 28.2308 33.2466 27.1028 35.1554 26.3829C36.9811 25.6761 39.0558 25.1953 42.1034 25.0522L44.1409 24.9664L44.696 24.9521C46.7827 24.8994 48.8699 24.8755 50.9572 24.8805L56.8407 24.8834ZM53.899 39.1914C52.0032 39.1646 50.1209 39.5149 48.3617 40.2218C46.6024 40.9288 45.0012 41.9783 43.6511 43.3094C42.301 44.6406 41.2289 46.2268 40.4972 47.9759C39.7654 49.725 39.3886 51.6021 39.3886 53.498C39.3886 55.394 39.7654 57.2711 40.4972 59.0202C41.2289 60.7693 42.301 62.3555 43.6511 63.6866C45.0012 65.0178 46.6024 66.0673 48.3617 66.7743C50.1209 67.4812 52.0032 67.8315 53.899 67.8046C57.6937 67.8046 61.333 66.2972 64.0163 63.6139C66.6995 60.9306 68.207 57.2913 68.207 53.4966C68.207 49.7019 66.6995 46.0626 64.0163 43.3793C61.333 40.696 57.6937 39.1914 53.899 39.1914ZM53.899 44.9147C55.0393 44.8936 56.1725 45.1001 57.2322 45.5219C58.2918 45.9437 59.2569 46.5725 60.0708 47.3715C60.8848 48.1704 61.5314 49.1236 61.9728 50.1753C62.4143 51.2269 62.6417 52.356 62.6419 53.4966C62.6421 54.6371 62.415 55.7663 61.9739 56.8181C61.5328 57.8699 60.8866 58.8233 60.0729 59.6226C59.2592 60.4218 58.2944 61.0509 57.2348 61.4731C56.1753 61.8952 55.0422 62.1021 53.9018 62.0814C51.625 62.0814 49.4414 61.177 47.8314 59.567C46.2215 57.957 45.317 55.7734 45.317 53.4966C45.317 51.2198 46.2215 49.0362 47.8314 47.4262C49.4414 45.8163 51.625 44.9118 53.9018 44.9118L53.899 44.9147ZM68.9224 34.899C67.9992 34.936 67.1262 35.3287 66.486 35.9949C65.8459 36.6612 65.4884 37.5493 65.4884 38.4732C65.4884 39.3971 65.8459 40.2852 66.486 40.9514C67.1262 41.6176 67.9992 42.0104 68.9224 42.0473C69.8711 42.0473 70.7809 41.6705 71.4517 40.9996C72.1226 40.3288 72.4994 39.419 72.4994 38.4703C72.4994 37.5216 72.1226 36.6118 71.4517 35.941C70.7809 35.2702 69.8711 34.8933 68.9224 34.8933V34.899Z" fill="black" fill-opacity="0.75"/>
</g>
</svg>
