<svg width="250" height="250" viewBox="0 0 250 250" fill="none" xmlns="http://www.w3.org/2000/svg">
<g opacity="0.997002" filter="url(#filter0_d_298_638)">
<rect x="52.0293" y="52" width="145.588" height="145.588" rx="72.7941" fill="black" shape-rendering="crispEdges"/>
<path d="M128.834 85.8011C131.68 85.7902 134.526 85.8188 137.371 85.8869L138.127 85.9142C139.001 85.9454 139.862 85.9844 140.904 86.0312C145.053 86.2262 147.884 86.8813 150.368 87.8446C152.942 88.8351 155.11 90.1766 157.278 92.3448C159.261 94.2931 160.795 96.6498 161.775 99.2511C162.738 101.735 163.393 104.57 163.588 108.72C163.635 109.757 163.674 110.623 163.705 111.496L163.728 112.253C163.798 115.096 163.828 117.941 163.818 120.785L163.822 123.694V128.803C163.832 131.649 163.802 134.494 163.732 137.339L163.709 138.096C163.678 138.969 163.639 139.831 163.592 140.872C163.397 145.022 162.734 147.853 161.775 150.337C160.798 152.941 159.264 155.3 157.278 157.247C155.328 159.23 152.97 160.764 150.368 161.744C147.884 162.707 145.053 163.362 140.904 163.557C139.862 163.604 139.001 163.643 138.127 163.674L137.371 163.697C134.526 163.767 131.68 163.797 128.834 163.787L125.925 163.791H120.82C117.975 163.801 115.129 163.771 112.284 163.701L111.527 163.678C110.602 163.644 109.676 163.605 108.751 163.561C104.601 163.366 101.77 162.703 99.2823 161.744C96.68 160.766 94.3229 159.231 92.376 157.247C90.3912 155.298 88.8555 152.94 87.8758 150.337C86.9125 147.853 86.2574 145.022 86.0624 140.872C86.019 139.947 85.98 139.022 85.9454 138.096L85.9259 137.339C85.854 134.494 85.8215 131.649 85.8284 128.803V120.785C85.8175 117.941 85.8461 115.096 85.9142 112.253L85.9415 111.496C85.9727 110.623 86.0117 109.757 86.0585 108.72C86.2535 104.566 86.9086 101.739 87.8719 99.2511C88.8521 96.6486 90.3909 94.2925 92.3799 92.3487C94.3254 90.3628 96.6811 88.8256 99.2823 87.8446C101.77 86.8813 104.598 86.2262 108.751 86.0312L111.527 85.9142L112.284 85.8947C115.127 85.8229 117.972 85.7904 120.816 85.7972L128.834 85.8011ZM124.825 105.3C122.242 105.263 119.677 105.74 117.279 106.704C114.882 107.667 112.7 109.097 110.86 110.911C109.02 112.725 107.559 114.887 106.562 117.271C105.565 119.654 105.051 122.212 105.051 124.796C105.051 127.38 105.565 129.938 106.562 132.321C107.559 134.705 109.02 136.867 110.86 138.681C112.7 140.495 114.882 141.925 117.279 142.888C119.677 143.852 122.242 144.329 124.825 144.292C129.997 144.292 134.956 142.238 138.613 138.582C142.269 134.925 144.324 129.965 144.324 124.794C144.324 119.623 142.269 114.663 138.613 111.007C134.956 107.35 129.997 105.3 124.825 105.3ZM124.825 113.099C126.379 113.07 127.923 113.352 129.368 113.926C130.812 114.501 132.127 115.358 133.236 116.447C134.345 117.536 135.226 118.835 135.828 120.268C136.43 121.701 136.74 123.24 136.74 124.794C136.74 126.348 136.431 127.887 135.829 129.32C135.228 130.754 134.348 132.053 133.239 133.142C132.13 134.231 130.815 135.089 129.371 135.664C127.927 136.239 126.383 136.521 124.829 136.493C121.726 136.493 118.751 135.261 116.557 133.067C114.363 130.873 113.13 127.897 113.13 124.794C113.13 121.691 114.363 118.716 116.557 116.522C118.751 114.328 121.726 113.095 124.829 113.095L124.825 113.099ZM145.299 99.45C144.041 99.5004 142.851 100.036 141.978 100.943C141.106 101.851 140.619 103.062 140.619 104.321C140.619 105.58 141.106 106.79 141.978 107.698C142.851 108.606 144.041 109.141 145.299 109.191C146.591 109.191 147.831 108.678 148.745 107.764C149.66 106.85 150.173 105.61 150.173 104.317C150.173 103.024 149.66 101.784 148.745 100.87C147.831 99.9558 146.591 99.4422 145.299 99.4422V99.45Z" fill="#FEB7D1"/>
</g>
<defs>
<filter id="filter0_d_298_638" x="0.0335159" y="0.00421906" width="249.579" height="249.58" filterUnits="userSpaceOnUse" color-interpolation-filters="sRGB">
<feFlood flood-opacity="0" result="BackgroundImageFix"/>
<feColorMatrix in="SourceAlpha" type="matrix" values="0 0 0 0 0 0 0 0 0 0 0 0 0 0 0 0 0 0 127 0" result="hardAlpha"/>
<feOffset/>
<feGaussianBlur stdDeviation="25.9979"/>
<feComposite in2="hardAlpha" operator="out"/>
<feColorMatrix type="matrix" values="0 0 0 0 0.890196 0 0 0 0 0.176471 0 0 0 0 0.568627 0 0 0 0.7 0"/>
<feBlend mode="normal" in2="BackgroundImageFix" result="effect1_dropShadow_298_638"/>
<feBlend mode="normal" in="SourceGraphic" in2="effect1_dropShadow_298_638" result="shape"/>
</filter>
</defs>
</svg>
