<svg width="210" height="131" viewBox="0 0 210 131" fill="none" xmlns="http://www.w3.org/2000/svg">
<path d="M82.9817 0.385824L79.1044 0.707147V1.51459H79.7557C80.3141 1.57567 80.8674 1.67725 81.4111 1.81852L82.2588 2.0388L83.6742 2.61543L83.7016 2.63136C84.4945 3.09174 85.248 3.61678 85.9545 4.20115L86.1021 4.36055C86.6576 4.96049 87.1525 5.61384 87.5795 6.31108L87.9804 7.17093C88.0715 7.36621 88.1465 7.56857 88.2047 7.776C88.3029 8.12573 88.3527 8.48726 88.3527 8.8505V10.1771L88.3175 10.4706C88.2886 10.7114 88.2409 10.9496 88.1748 11.1829C88.0926 11.4727 87.9825 11.7539 87.8459 12.0223L87.6712 12.3657L87.602 12.4984C87.3341 13.0119 87.0241 13.5022 86.6753 13.9645C86.2565 14.4798 85.8789 15.0272 85.546 15.6016L85.0895 16.3889L84.5784 17.6208L84.3884 18.1459C84.1834 18.7122 84.0259 19.2946 83.9174 19.8871C83.7992 20.5329 83.7397 21.1881 83.7397 21.8446V23.4133L84.028 25.9426L84.1158 27.8529C84.1334 28.2357 83.8278 28.5557 83.4445 28.5557C83.409 28.5557 83.3735 28.5529 83.3384 28.5473L83.1237 28.5129C82.9469 28.4846 82.7725 28.4424 82.6023 28.3867L82.2716 28.2785L82.4422 28.4704L82.7319 28.6892C82.8865 28.8059 83.0546 28.9035 83.2326 28.9798L83.4844 29.0876C83.5356 29.1096 83.5899 29.1239 83.6453 29.1299L83.8725 29.1547C84.0293 29.1718 84.1481 29.3042 84.1481 29.462V30.2978C84.1481 30.9244 84.0583 31.5477 83.8815 32.1487C83.6262 32.7444 83.3145 33.3143 82.9505 33.8505L82.5062 34.505L81.8132 35.4432L81.587 35.7887C81.4831 35.9474 81.4149 36.1268 81.3869 36.3144L81.3703 36.4263C81.36 36.4954 81.3612 36.5658 81.3738 36.6345C81.4089 36.8248 81.529 36.9887 81.7 37.0795L81.852 37.1601C81.9183 37.1953 81.9884 37.2228 82.0609 37.2421L83.0713 37.5116L83.6224 37.7412C83.9084 37.8604 84.0948 38.1399 84.0948 38.4498L84.0201 39.0788L83.9936 39.185C83.9404 39.3977 83.9135 39.6162 83.9135 39.8355V40.3935C83.9135 40.5651 83.9649 40.7327 84.0609 40.8749C84.1392 40.9907 84.2445 41.0857 84.3678 41.1516L84.6385 41.2965L84.9027 41.4153C85.1312 41.5182 85.2782 41.7455 85.2782 41.9962C85.2782 42.1435 85.2271 42.2863 85.1337 42.4002L85.01 42.551C84.9616 42.61 84.9215 42.6753 84.8908 42.7451L84.8464 42.8459C84.8288 42.8858 84.8198 42.9289 84.8198 42.9725C84.8198 43.0718 84.8667 43.1652 84.9464 43.2245L85.2782 43.4715C85.5624 43.6384 85.7464 43.9342 85.7705 44.2629L85.8406 45.2205C85.8601 45.4874 85.8417 45.7558 85.7859 46.0175L85.7321 46.2702L85.6575 46.7064C85.6153 46.9528 85.5941 47.2023 85.5941 47.4523V48.4265C85.5941 48.8364 85.7384 49.2332 86.0017 49.5473C86.1322 49.703 86.2889 49.8346 86.4647 49.9364L86.5182 49.9674C86.8374 50.1522 87.1997 50.2495 87.5685 50.2495H87.8365C88.1299 50.2495 88.4218 50.2078 88.7034 50.1256L90.4966 49.6022L93.0858 48.5941L95.0194 47.9268C95.3287 47.82 95.6454 47.7357 95.9668 47.6744L96.179 47.634C96.4578 47.5809 96.7411 47.5542 97.025 47.5542H97.441C97.7534 47.5542 98.0627 47.615 98.3518 47.7333C98.6785 47.8669 98.9718 48.0708 99.2108 48.3305L99.2239 48.3447C99.4732 48.6155 99.6594 48.9381 99.7692 49.2894L99.851 49.5512C99.9631 49.9099 100.02 50.2836 100.02 50.6594V51.1709C100.02 52.0045 99.8726 52.8316 99.5844 53.6139L99.5165 53.7982C99.3653 54.2088 99.1812 54.6065 98.9663 54.9876L98.3704 56.0439L98.2332 56.244C97.6587 57.0818 96.9813 57.8441 96.2168 58.513C95.5386 59.1064 94.7963 59.6225 94.0038 60.0515L93.6379 60.2496C92.8268 60.6887 91.979 61.0561 91.104 61.3478L90.4143 61.5777L89.0542 61.8377C88.0698 62.0259 87.0698 62.1206 86.0675 62.1206C85.1802 62.1206 84.2945 62.0464 83.4196 61.8987L83.1263 61.8492L83.1007 61.8434C82.3124 61.6667 81.5443 61.4098 80.8084 61.0765L79.0125 60.1159L77.6552 59.1345L76.7363 58.2783L77.0237 58.8531C77.2769 59.3595 77.5829 59.8376 77.9365 60.2797C78.3598 60.8088 78.8483 61.2822 79.3903 61.6888L79.6413 61.877C80.2643 62.3443 80.9373 62.7408 81.6479 63.0594L81.7846 63.1206C82.593 63.483 83.4395 63.7536 84.3083 63.9274L85.2981 64.1253C86.2848 64.2921 87.2837 64.3759 88.2844 64.3759H89.3493L91.2913 64.1253L91.5615 64.065C93.1232 63.7162 94.648 63.219 96.1151 62.5801L96.3809 62.4167C97.5379 61.7056 98.63 60.8938 99.6443 59.9906L100.223 59.3808C100.602 58.9805 100.952 58.5525 101.268 58.1006C101.729 57.4414 102.118 56.7342 102.428 55.9915L102.589 55.6053L102.705 55.1724C102.92 54.3764 103.069 53.5645 103.152 52.7445C103.152 51.5211 103.06 50.2996 102.874 49.0903L102.839 48.8604L102.234 46.8139L101.712 45.4148L100.271 42.5748L99.0178 40.3612L94.9248 34.1383L92.6487 30.6092L90.8946 27.5604L89.579 25.0336L89.0987 23.8433L88.4931 22.2145L88.1172 20.7318L87.9163 19.8399C87.7029 18.8922 87.5951 17.9237 87.5951 16.9521V15.8871C87.6924 15.1231 87.8599 14.3696 88.0956 13.6364L88.1172 13.5692L88.4931 12.5251L89.3701 10.6666L89.9966 9.51803C90.65 8.58663 91.3732 7.70627 92.1601 6.88454L92.1868 6.85668L92.9903 6.2152C93.6288 5.70552 94.306 5.24646 95.0159 4.8422V3.55353L97.9043 3.40541H101.267L102.941 3.55353L104.348 3.79053L106.451 4.26452L108.006 4.75333L109.562 5.3162L111.25 6.02719L112.82 6.96036L113.425 7.40105C114.077 7.87653 114.685 8.40988 115.242 8.9946L115.38 9.14006C115.894 9.68035 116.354 10.2698 116.753 10.9001L116.887 11.1123C117.187 11.5863 117.441 12.0879 117.645 12.6103C117.874 13.1968 118.04 13.8062 118.138 14.4281L118.161 14.5712C118.244 15.0955 118.286 15.6257 118.286 16.1566V16.239C118.286 17.0423 118.199 17.8433 118.027 18.6279L118.016 18.6777C117.88 19.2982 117.694 19.9066 117.458 20.4967L117.137 21.3022C116.867 21.9803 116.546 22.6375 116.179 23.2683L115.788 23.9387C115.423 24.5653 114.981 25.1435 114.472 25.6599C113.937 26.2027 113.332 26.6724 112.674 27.0568L111.962 27.4728C111.252 27.887 110.51 28.2417 109.742 28.5333L109.258 28.7174C108.416 29.0369 107.548 29.281 106.664 29.4467L107.528 31.4898L109.611 31.9062L112.425 32.571L113.895 33.0362C114.966 33.3753 116.005 33.8081 117.001 34.3295L117.226 34.4476C117.939 34.8209 118.622 35.2479 119.269 35.7251C120.023 36.2801 120.725 36.901 121.369 37.5803L121.997 38.2433L122.59 39.0638C122.888 39.4764 123.157 39.9099 123.393 40.3609C123.644 40.8392 123.857 41.3359 124.032 41.8467L124.274 42.5525C124.469 43.1207 124.621 43.7027 124.728 44.2937C124.857 45.0004 124.922 45.7171 124.922 46.4354V46.81C124.922 47.7884 124.833 48.7648 124.656 49.727L124.567 50.2083L124.385 50.9961C124.226 51.6811 124.012 52.3522 123.746 53.003L123.648 53.2426C123.449 53.7302 123.211 54.201 122.936 54.6507C122.518 55.3352 122.019 55.9663 121.448 56.5302L121.117 56.8578C120.582 57.3872 120.004 57.8716 119.389 58.3061L119.36 58.3262C118.638 58.8366 117.869 59.278 117.064 59.6447L116.036 60.1128L112.691 61.1985L110.652 61.5752L107.306 61.9518H103.296C102.797 61.9115 101.473 61.8117 100.164 61.7347C98.8245 63.4128 95.4362 64.6663 93.9094 65.0832H99.9138H104.552L109.286 64.8138L113.039 64.3904L116.483 63.8323L119.235 63.2165L122.873 61.9079L125.201 60.8109L125.973 60.3188C126.944 59.699 127.854 58.9871 128.69 58.193L128.881 58.0111C129.467 57.4538 130.007 56.8493 130.494 56.2036L130.62 56.0369C131.035 55.4871 131.403 54.9034 131.721 54.292C132.107 53.5465 132.417 52.7634 132.644 51.9548L132.784 51.4581C133.039 50.5506 133.182 49.6152 133.21 48.6728L133.224 48.2215C133.251 47.302 133.195 46.3819 133.055 45.4726L132.976 44.9534L132.837 44.493C132.481 43.3133 132.039 42.1614 131.513 41.0468L130.667 39.6419L129.724 38.3718L128.28 36.6975L126.346 34.9534C125.814 34.473 125.245 34.0345 124.644 33.6417C124.089 33.2786 123.509 32.9556 122.908 32.6752L122.204 32.3466L119.912 31.4898L114.107 29.8617L115.799 29.1977L117.427 28.4693C118.61 27.8849 119.74 27.1979 120.803 26.416L121.069 26.2201L122.376 25.1276L123.49 24.0137L123.569 23.9096C124.315 22.9382 124.976 21.9053 125.546 20.8219L125.905 19.9897C126.065 19.6167 126.199 19.2327 126.304 18.8405C126.498 18.1224 126.596 17.3819 126.596 16.6382V16.2805V15.8929C126.596 15.1692 126.498 14.4489 126.305 13.7515C126.199 13.3673 126.065 12.9916 125.903 12.6274L125.546 11.8249L125.354 11.4716C124.855 10.5526 124.266 9.68509 123.597 8.88165C122.984 8.1462 122.306 7.4676 121.571 6.8541L121.519 6.81078C120.65 6.08533 119.709 5.4504 118.711 4.91583L116.613 3.79184L113.507 2.61366L107.295 1.11416L100.162 0.150191L95.299 0.000244141H92.043L86.4305 0.150191L82.9817 0.385824Z" fill="white"/>
<path d="M94.5597 5.71412L94.7995 5.49463L94.6426 5.78545C94.2278 6.55461 93.8762 7.35624 93.5913 8.1824L93.2703 9.32739L93.2527 9.42015C93.0508 10.4831 92.9492 11.5627 92.9492 12.6447L93.1847 14.5494L93.602 16.497L94.2975 18.4338L95.4532 21.0127L97.3687 24.3942L99.1343 27.3155L100.579 29.3272L103.104 32.7622L105.298 35.9083L107.085 38.3052L108.462 40.5001L109.472 42.2151L110.07 43.4892C110.547 44.5047 110.921 45.5653 111.187 46.6551L111.318 47.0958C111.472 47.6124 111.549 48.1483 111.549 48.6871C111.549 49.1222 111.499 49.5558 111.398 49.9791L111.187 50.8664C110.922 51.7125 110.528 52.5126 110.019 53.2384L109.263 54.3155C108.048 55.7203 106.664 56.9694 105.142 58.0344L104.575 58.4316L101.888 59.8226L103.336 58.0123L104.006 57.1572C104.385 56.6739 104.717 56.1562 104.998 55.6108C105.325 54.9778 105.582 54.3111 105.764 53.6225L105.928 53.0007L105.982 52.759C106.174 51.9064 106.271 51.0352 106.271 50.1614L106.157 48.9227C106.005 47.7692 105.746 46.6321 105.385 45.526L105.318 45.3212L104.423 43.3203C104.042 42.483 103.601 41.6744 103.103 40.9011L102.06 39.2805L100.993 37.5655L98.2486 33.9258L96.8003 31.9822L94.4374 28.7236L93.3893 27.161L92.3984 25.5222L90.7406 22.0922L90.1499 20.4344L89.9606 19.7231C89.7189 18.8147 89.5653 17.885 89.502 16.9471V15.1178V14.7423C89.502 14.245 89.5638 13.7497 89.6861 13.2677C89.7791 12.9012 89.9065 12.5444 90.0667 12.2019L90.3785 11.5353L91.3885 9.64879L92.5318 7.93377C93.1404 7.13502 93.819 6.39219 94.5597 5.71412Z" fill="#FFAEAD"/>
<path d="M94.9797 49.6167C93.6182 50.5707 89.6733 51.527 87.8711 51.8859C87.9809 53.123 88.1345 56.5918 87.8711 60.5698C91.925 59.7827 94.6187 58.1198 94.9797 57.6052V49.6167Z" fill="#FFAEAD"/>
<path d="M20.7615 99.8736C20.7615 100.381 20.6726 100.902 20.4949 101.435C19.8599 103.213 18.3997 104.47 16.114 105.207C16.7235 105.283 17.3076 105.397 17.8663 105.55C20.9393 106.362 22.4758 108.178 22.4758 110.997C22.4758 112.267 22.0948 113.435 21.3329 114.502C19.7838 116.559 17.2695 117.588 13.7902 117.588H0.76189V116.559H3.80945V95.7594H0.76189V94.7308H13.1045C14.5013 94.7308 15.7457 94.8832 16.8378 95.1879C19.4536 95.9498 20.7615 97.5117 20.7615 99.8736ZM10.9712 95.7594H9.14269V104.673H11.276C11.7331 104.673 12.1649 104.623 12.5712 104.521C14.3489 104.013 15.2378 102.566 15.2378 100.178C15.2124 97.2831 13.7902 95.8102 10.9712 95.7594ZM12.2664 105.74H9.14269V116.559H11.695C12.0252 116.559 12.3553 116.534 12.6855 116.483C15.3267 116.102 16.6473 114.184 16.6473 110.731C16.6473 109.969 16.533 109.258 16.3045 108.597C15.6442 106.692 14.2981 105.74 12.2664 105.74ZM38.2088 117.968C36.1771 117.841 34.8946 116.686 34.3613 114.502C34.2343 114.857 34.0692 115.2 33.866 115.53C32.8502 117.156 31.2629 117.968 29.1042 117.968C28.3931 117.968 27.7455 117.88 27.1614 117.702C25.1805 117.067 24.19 115.619 24.19 113.359C24.2154 110.032 27.4915 108.305 34.0184 108.178V105.702C34.0184 104.966 33.9676 104.331 33.866 103.797C33.6121 102.35 32.8883 101.626 31.6946 101.626C31.3391 101.626 31.0216 101.689 30.7423 101.816C30.3105 102.07 29.955 102.705 29.6756 103.721C29.574 104.077 29.4979 104.331 29.4471 104.483C29.0661 105.55 28.3296 106.083 27.2376 106.083C26.9836 106.083 26.7424 106.045 26.5138 105.969C25.5741 105.715 25.1043 105.093 25.1043 104.102C25.1043 103.67 25.2186 103.264 25.4471 102.883C26.336 101.385 28.5074 100.635 31.9613 100.635C32.8502 100.635 33.6756 100.724 34.4375 100.902C37.3834 101.639 38.8564 103.594 38.8564 106.769V114.73C38.8564 115.949 39.1358 116.584 39.6945 116.635C40.431 116.61 40.8754 115.721 41.0278 113.969L42.0183 114.007C41.9421 114.794 41.8278 115.442 41.6754 115.949C41.2183 117.295 40.0627 117.968 38.2088 117.968ZM31.0851 116.33C31.2629 116.33 31.4661 116.292 31.6946 116.216C32.7613 115.81 33.5359 114.718 34.0184 112.94V109.245C32.8756 109.296 31.9359 109.435 31.1994 109.664C29.828 110.172 29.1423 111.264 29.1423 112.94C29.1677 115.149 29.8153 116.28 31.0851 116.33ZM51.0086 116.597C51.1609 116.597 51.3006 116.61 51.4276 116.635C51.7578 116.686 51.9228 117.003 51.9228 117.588H42.9706V116.597C43.1484 116.597 43.3262 116.584 43.5039 116.559C44.6468 116.457 45.2182 115.81 45.2182 114.616V93.8165H42.9706V92.8261H50.0562V104.064C50.234 103.708 50.4498 103.353 50.7038 102.997C51.9228 101.423 53.5609 100.635 55.618 100.635C56.2783 100.635 56.8878 100.737 57.4465 100.94C59.7068 101.702 60.837 103.67 60.837 106.845V116.597H62.0941C62.2465 116.597 62.3988 116.61 62.5512 116.635C62.8814 116.686 63.0464 117.003 63.0464 117.588H54.5133V116.597C54.945 116.597 55.2879 116.534 55.5418 116.407C55.8466 116.229 55.999 115.632 55.999 114.616V106.197C55.999 105.943 55.9863 105.715 55.9609 105.512C55.7831 103.607 54.9196 102.654 53.3704 102.654C52.9641 102.654 52.545 102.769 52.1133 102.997C50.7419 103.734 50.0562 105.22 50.0562 107.454V116.597H51.0086ZM64.1893 102.388V101.397H66.8178V97.7784L71.6558 96.9784V101.397H76.6843V102.388H71.6558V113.93C71.6558 114.261 71.6812 114.578 71.732 114.883C71.9352 116.203 72.5066 116.864 73.4462 116.864C73.5986 116.864 73.751 116.851 73.9034 116.826C74.8938 116.622 75.643 115.492 76.151 113.435L77.1795 113.588C76.9763 114.629 76.697 115.467 76.3414 116.102C75.6049 117.372 74.2589 118.007 72.3034 118.007C71.9987 118.007 71.6939 117.994 71.3891 117.968C68.3416 117.613 66.8178 115.594 66.8178 111.911V102.388H64.1893ZM109.636 117.588H108.874C108.442 117.588 108.087 117.511 107.808 117.359C107.35 117.105 106.817 116.203 106.208 114.654L102.093 103.95L97.0648 117.588H96.303C95.8712 117.588 95.5157 117.511 95.2363 117.359C94.7792 117.105 94.2459 116.203 93.6363 114.654L86.3222 95.7594H84.4175V94.7308H94.7411V95.7594H91.6935L97.6744 112.407L101.408 102.235L98.5124 94.7308H107.35V95.7594L104.303 95.7213L110.207 112.064L115.579 95.7594H112.531V94.7308H118.817V95.7594H116.912L109.636 117.588ZM125.179 109.321C125.179 111.708 125.331 113.448 125.636 114.54C126.093 116.165 127.109 116.978 128.683 116.978C129.572 116.978 130.296 116.711 130.855 116.178C131.82 115.213 132.302 112.877 132.302 109.169C132.302 106.858 132.15 105.169 131.845 104.102C131.388 102.451 130.347 101.626 128.721 101.626C127.756 101.626 127.007 101.918 126.474 102.502C125.61 103.493 125.179 105.766 125.179 109.321ZM128.912 100.635C131.096 100.635 132.963 101.232 134.512 102.426C136.518 104.026 137.521 106.248 137.521 109.092C137.521 111.226 136.886 113.105 135.617 114.73C133.915 116.889 131.566 117.968 128.569 117.968C126.385 117.968 124.506 117.308 122.931 115.988C120.95 114.311 119.96 112.038 119.96 109.169C119.96 107.137 120.544 105.359 121.712 103.835C123.388 101.702 125.788 100.635 128.912 100.635ZM147.159 116.597C147.312 116.597 147.451 116.61 147.578 116.635C147.908 116.686 148.073 117.003 148.073 117.588H139.426V116.597C139.629 116.597 139.82 116.584 139.997 116.559C141.089 116.432 141.635 115.784 141.635 114.616V102.197H139.426V101.207H146.207L146.397 103.988C147.515 101.778 149.292 100.661 151.73 100.635C152.137 100.635 152.543 100.686 152.95 100.788C154.499 101.245 155.578 102.375 156.188 104.178C157.407 101.842 159.248 100.661 161.711 100.635C162.6 100.635 163.426 100.877 164.187 101.359C165.838 102.401 166.664 104.166 166.664 106.654V116.597H167.921C168.073 116.597 168.225 116.61 168.378 116.635C168.708 116.686 168.873 117.003 168.873 117.588H160.187V116.597C160.594 116.597 160.911 116.559 161.14 116.483C161.622 116.28 161.864 115.657 161.864 114.616V106.197C161.864 105.562 161.787 104.978 161.635 104.445C161.229 103.15 160.48 102.502 159.387 102.502C159.134 102.502 158.88 102.553 158.626 102.654C157.432 103.162 156.746 104.47 156.568 106.578V106.845V116.597H157.216C157.368 116.597 157.521 116.61 157.673 116.635C158.003 116.686 158.168 117.003 158.168 117.588H150.092V116.597C150.499 116.597 150.816 116.559 151.045 116.483C151.527 116.28 151.769 115.657 151.769 114.616V106.197C151.769 105.512 151.68 104.889 151.502 104.331C151.096 103.162 150.423 102.578 149.483 102.578C149.153 102.578 148.823 102.667 148.492 102.845C147.324 103.454 146.664 104.762 146.512 106.769L146.473 116.597H147.159ZM184.225 117.968C182.193 117.841 180.911 116.686 180.378 114.502C180.251 114.857 180.086 115.2 179.882 115.53C178.866 117.156 177.279 117.968 175.121 117.968C174.409 117.968 173.762 117.88 173.178 117.702C171.197 117.067 170.206 115.619 170.206 113.359C170.232 110.032 173.508 108.305 180.035 108.178V105.702C180.035 104.966 179.984 104.331 179.882 103.797C179.628 102.35 178.905 101.626 177.711 101.626C177.355 101.626 177.038 101.689 176.759 101.816C176.327 102.07 175.971 102.705 175.692 103.721C175.59 104.077 175.514 104.331 175.463 104.483C175.082 105.55 174.346 106.083 173.254 106.083C173 106.083 172.759 106.045 172.53 105.969C171.59 105.715 171.121 105.093 171.121 104.102C171.121 103.67 171.235 103.264 171.463 102.883C172.352 101.385 174.524 100.635 177.978 100.635C178.866 100.635 179.692 100.724 180.454 100.902C183.4 101.639 184.873 103.594 184.873 106.769V114.73C184.873 115.949 185.152 116.584 185.711 116.635C186.447 116.61 186.892 115.721 187.044 113.969L188.035 114.007C187.958 114.794 187.844 115.442 187.692 115.949C187.235 117.295 186.079 117.968 184.225 117.968ZM177.101 116.33C177.279 116.33 177.482 116.292 177.711 116.216C178.778 115.81 179.552 114.718 180.035 112.94V109.245C178.892 109.296 177.952 109.435 177.216 109.664C175.844 110.172 175.159 111.264 175.159 112.94C175.184 115.149 175.832 116.28 177.101 116.33ZM196.987 116.597C197.139 116.597 197.279 116.61 197.406 116.635C197.736 116.686 197.901 117.003 197.901 117.588H188.987V116.597C189.19 116.597 189.381 116.584 189.558 116.559C190.65 116.432 191.196 115.784 191.196 114.616V102.197H188.987V101.207H195.768L195.958 104.178C196.187 103.721 196.492 103.277 196.872 102.845C198.168 101.372 199.742 100.635 201.596 100.635C202.257 100.635 202.891 100.737 203.501 100.94C205.736 101.728 206.853 103.696 206.853 106.845V116.597H208.11C208.263 116.597 208.415 116.61 208.568 116.635C208.898 116.686 209.063 117.003 209.063 117.588H200.263V116.597C200.618 116.597 200.923 116.559 201.177 116.483C201.736 116.305 202.015 115.683 202.015 114.616V106.197C202.015 105.842 201.99 105.499 201.939 105.169C201.685 103.467 200.834 102.616 199.387 102.616C199.006 102.616 198.638 102.705 198.282 102.883C196.987 103.518 196.25 104.839 196.073 106.845L196.034 116.597H196.987Z" fill="#FEB7D1"/>
</svg>
