<svg width="108" height="107" viewBox="0 0 108 107" fill="none" xmlns="http://www.w3.org/2000/svg">
<g opacity="0.997002">
<path d="M48.01 62.0819L62.8618 53.4971L48.01 44.9122V62.0819ZM81.0902 39.6755C81.4622 41.0205 81.7198 42.8233 81.8915 45.1126C82.0918 47.4018 82.1776 49.3764 82.1776 51.0933L82.3493 53.4971C82.3493 59.764 81.8915 64.3712 81.0902 67.3186C80.3748 69.8941 78.7151 71.5538 76.1396 72.2692C74.7947 72.6412 72.3337 72.8988 68.5564 73.0705C64.8363 73.2708 61.431 73.3566 58.2832 73.3566L53.7333 73.5283C41.7431 73.5283 34.2743 73.0705 31.3269 72.2692C28.7514 71.5538 27.0917 69.8941 26.3763 67.3186C26.0043 65.9737 25.7467 64.1709 25.575 61.8816C25.3747 59.5923 25.2889 57.6178 25.2889 55.9008L25.1172 53.4971C25.1172 47.2301 25.575 42.623 26.3763 39.6755C27.0917 37.1001 28.7514 35.4403 31.3269 34.7249C32.6718 34.3529 35.1328 34.0954 38.9101 33.9237C42.6302 33.7234 46.0355 33.6375 49.1833 33.6375L53.7333 33.4658C65.7234 33.4658 73.1922 33.9237 76.1396 34.7249C78.7151 35.4403 80.3748 37.1001 81.0902 39.6755Z" fill="black" fill-opacity="0.75"/>
</g>
</svg>
