<svg width="178" height="61" viewBox="0 0 178 61" fill="none" xmlns="http://www.w3.org/2000/svg">
<path fill-rule="evenodd" clip-rule="evenodd" d="M152.443 16.7788C152.442 17.0369 152.395 17.6337 152.505 17.8368L162.524 16.0595L162.517 41.3349L167.743 41.2636L167.744 16.0233L177.684 17.8257L177.692 13.3158H152.443V16.7788Z" fill="#1AA27A"/>
<path fill-rule="evenodd" clip-rule="evenodd" d="M115.924 49.709H158.613C160.856 49.709 161.967 50.095 163.926 48.9143C165.063 48.2295 166.824 47.4572 167.68 46.4978L107.046 46.4341C107.046 47.2589 109.886 48.519 110.642 48.8828C113.087 50.0589 113.221 49.709 115.924 49.709Z" fill="#1AA27A"/>
<path fill-rule="evenodd" clip-rule="evenodd" d="M134.687 55.3128C141.108 55.3128 142.488 55.4946 149.291 54.1762C150.301 53.9804 157.113 52.4419 157.165 51.6608H117.623C117.623 52.3624 117.663 52.0375 118.332 52.2115C118.564 52.272 119.055 52.4671 119.307 52.559C119.977 52.8038 120.61 52.9107 121.283 53.1643C122.217 53.5164 124.365 53.9969 125.401 54.2096C128.247 54.7943 131.817 55.3128 134.687 55.3128Z" fill="#1AA27A"/>
<path fill-rule="evenodd" clip-rule="evenodd" d="M60.8927 41.3348H63.6002V20.2417C64.7096 20.9866 67.9494 24.6362 69.0793 25.8443C70.8493 27.7372 72.6573 29.6917 74.4932 31.5121C76.3532 33.3565 78.0388 35.3941 79.9066 37.1805C80.7501 37.9873 81.946 39.0935 82.6041 40.0239C83.8898 41.8419 84.8188 41.3348 86.8969 41.3348V13.3157H84.1895V34.2198C83.5226 33.7609 79.2249 29.36 78.7366 28.6539C77.664 27.1032 74.6399 24.6346 73.2254 23.0834C71.4847 21.1743 69.5249 19.293 67.868 17.422C67.0002 16.4421 66.1664 15.4375 65.1985 14.5508C63.2283 12.746 63.7799 13.3157 60.8927 13.3157V41.3348Z" fill="white"/>
<path fill-rule="evenodd" clip-rule="evenodd" d="M1.03964 31.801L1.02153 31.823C0.94405 31.8722 0.887669 37.3464 1.01201 37.7473C1.34656 38.8263 3.73583 39.681 4.73071 40.0732C7.87375 41.312 12.049 41.7185 15.3539 41.0672C18.3112 40.4844 21.3728 39.1443 22.6043 36.1638C23.9873 32.8163 22.8236 29.6726 20.3048 27.3325C18.2383 25.4128 14.8025 24.241 12.1863 23.2989C10.1407 22.5621 4.83703 20.2515 6.71188 17.3098C8.18628 14.9966 14.1073 15.6449 16.2934 16.7991C19.9041 18.7052 20.1216 19.8456 22.6103 22.6343C22.6103 21.6122 22.7369 17.3326 22.5078 16.6922C22.1463 15.6819 19.7685 14.7209 18.788 14.3675C15.3571 13.1308 11.6908 12.9773 8.12336 13.6831C-0.0863934 15.3076 -1.29018 21.8379 6.39964 25.7485C9.13093 27.1374 12.2176 27.8612 14.7734 29.4638C17.6609 31.2742 19.2535 34.3374 16.7545 37.3049C14.6912 39.7551 9.81637 38.9636 7.35569 37.6371C4.2385 35.9568 3.08521 34.6045 1.03964 31.801Z" fill="white"/>
<path fill-rule="evenodd" clip-rule="evenodd" d="M39.7365 20.4306L45.5048 31.6505C45.1648 31.8205 36.5573 31.6641 34.8834 31.7064C33.8841 31.7318 34.0657 31.6453 34.4038 30.9662C35.1093 29.5491 39.5076 20.4559 39.7365 20.4306ZM26.514 41.3348C27.3338 41.3348 29.0886 41.5925 29.4012 41.0107C29.747 40.3671 30.0815 39.6161 30.4789 38.8142C30.7828 38.2005 32.6816 34.5084 32.6846 34.4717H46.9145C46.9414 34.6731 49.2533 39.1333 49.5601 39.7596C50.4004 41.4752 49.955 41.3348 51.9517 41.3348C53.2949 41.3348 54.6382 41.3348 55.9814 41.3348L56.1682 41.2416L42.2443 13.3211C41.5075 13.3157 40.3248 13.021 40.0103 13.774C39.7428 14.4144 39.3907 14.9621 39.1164 15.5918C38.5836 16.8143 37.8848 18.0431 37.2972 19.2506C36.1046 21.7016 34.8847 24.1527 33.7039 26.6129C32.751 28.5979 26.514 40.366 26.514 41.3348Z" fill="white"/>
<path fill-rule="evenodd" clip-rule="evenodd" d="M39.816 8.8917L42.6959 8.90859L46.776 0.429258C46.075 0.0943338 38.9443 -0.130816 38.0402 0.098161C37.3734 0.26693 35.6384 0.171997 35.946 0.788172C36.5568 2.01231 37.3092 3.5976 37.9328 4.79336C38.3393 5.57307 39.3065 8.16351 39.816 8.8917Z" fill="white"/>
<path fill-rule="evenodd" clip-rule="evenodd" d="M38.5404 8.90812C38.5404 8.15044 36.3583 3.99851 35.959 3.24129C35.0653 1.54707 35.3194 0.778553 34.3254 0.770245C33.9337 0.766978 31.5309 1.42142 30.9913 1.61092C29.3154 2.19927 30.7918 2.49453 31.3645 3.68011C31.7398 4.45684 32.7679 5.4562 33.0917 6.1085C33.3049 6.5377 34.4422 8.04057 34.7958 8.49721C35.4357 9.3236 37.5483 8.90812 38.5404 8.90812Z" fill="white"/>
<path fill-rule="evenodd" clip-rule="evenodd" d="M43.9221 8.89243C47.9954 8.9082 47.1821 9.55154 49.2186 6.48989C49.6978 5.76945 52.5187 2.36756 52.2597 1.92604L47.7176 0.606781L47.7749 0.835851L43.9221 8.89243Z" fill="white"/>
<path fill-rule="evenodd" clip-rule="evenodd" d="M33.6291 8.90803C33.6201 8.56722 30.9615 4.95428 30.5876 4.45693C28.6777 1.91597 29.4992 1.97842 26.1795 3.66209C24.9704 4.27537 24.4693 4.23972 25.8124 5.39123C26.4677 5.95308 27.0701 6.75548 27.695 7.28643C28.3391 7.83371 28.9559 8.93052 29.8432 8.91605C31.1031 8.89561 32.3677 8.90803 33.6291 8.90803Z" fill="white"/>
<path fill-rule="evenodd" clip-rule="evenodd" d="M49.0552 8.90818C50.1454 8.90818 51.2411 8.89726 52.3305 8.90921C53.5029 8.92218 53.5778 8.49933 54.4051 7.70972C54.9563 7.18381 55.5344 6.43191 56.114 6.14449C56.431 5.9873 57.6813 4.77362 57.6813 4.43776C57.6577 4.22017 55.257 3.12607 54.9305 2.96999C52.8351 1.96737 53.6551 2.56982 52.5127 3.86546C51.9933 4.45466 49.067 8.51305 49.0552 8.90818Z" fill="white"/>
<path fill-rule="evenodd" clip-rule="evenodd" d="M18.6436 8.90806H27.7105C27.701 8.49165 26.0296 7.09109 25.671 6.729C25.2559 6.30988 24.9655 5.96179 24.6216 5.6377C24.1166 5.16182 23.9653 4.61902 23.4291 5.19039C23.259 5.37148 21.6963 6.26769 20.9491 6.93203C20.5801 7.26014 20.2011 7.40912 19.749 7.87267C19.4735 8.15523 18.6528 8.48287 18.6436 8.90806Z" fill="white"/>
<path fill-rule="evenodd" clip-rule="evenodd" d="M54.9036 8.83747L63.852 8.90804L63.9937 8.71677L58.8337 4.8938L58.7499 5.00227L54.9036 8.83747Z" fill="white"/>
<g clip-path="url(#clip0_14_650)">
<path d="M2.18339 50.288V59.4495H0.968994V50.288H2.18339ZM7.58839 50.288V59.4495H6.39288V50.288H7.58839ZM10.5331 50.288V51.2822H3.45441V50.288H10.5331ZM12.6788 55.0764V56.0328H9.60819V55.0764H12.6788ZM19.5247 56.5362H20.7328C20.6699 57.115 20.5042 57.6331 20.2357 58.0903C19.9672 58.5476 19.5876 58.9104 19.0968 59.1789C18.606 59.4432 17.9936 59.5753 17.2595 59.5753C16.7226 59.5753 16.2339 59.4746 15.7934 59.2733C15.3572 59.0719 14.9817 58.7867 14.6671 58.4175C14.3525 58.0442 14.1092 57.5974 13.9372 57.0773C13.7694 56.553 13.6855 55.9699 13.6855 55.3281V54.4157C13.6855 53.7739 13.7694 53.1929 13.9372 52.6728C14.1092 52.1484 14.3546 51.6996 14.6734 51.3262C14.9964 50.9529 15.3844 50.6655 15.8375 50.4642C16.2905 50.2628 16.8002 50.1622 17.3665 50.1622C18.0586 50.1622 18.6438 50.2922 19.122 50.5523C19.6002 50.8124 19.9714 51.1731 20.2357 51.6345C20.5042 52.0918 20.6699 52.6224 20.7328 53.2265H19.5247C19.466 52.7986 19.3569 52.4316 19.1975 52.1253C19.0381 51.8149 18.8116 51.5758 18.5179 51.408C18.2243 51.2402 17.8405 51.1563 17.3665 51.1563C16.9596 51.1563 16.6009 51.2339 16.2905 51.3891C15.9843 51.5444 15.7263 51.7646 15.5166 52.0498C15.311 52.3351 15.1558 52.6769 15.0509 53.0755C14.9461 53.474 14.8936 53.9165 14.8936 54.4031V55.3281C14.8936 55.7769 14.9398 56.1985 15.032 56.5928C15.1285 56.9871 15.2733 57.3332 15.4662 57.631C15.6592 57.9288 15.9046 58.1637 16.2024 58.3357C16.5002 58.5035 16.8526 58.5874 17.2595 58.5874C17.7755 58.5874 18.1866 58.5056 18.4928 58.342C18.799 58.1784 19.0297 57.9435 19.1849 57.6373C19.3443 57.3311 19.4576 56.964 19.5247 56.5362ZM29.4413 54.5793V55.1582C29.4413 55.8461 29.3551 56.4628 29.1833 57.0081C29.0112 57.5534 28.7638 58.0169 28.4406 58.3987C28.1177 58.7804 27.7297 59.0719 27.2767 59.2733C26.8278 59.4746 26.3244 59.5753 25.7665 59.5753C25.2255 59.5753 24.7282 59.4746 24.2753 59.2733C23.8265 59.0719 23.4364 58.7804 23.105 58.3987C22.7778 58.0169 22.524 57.5534 22.3436 57.0081C22.1632 56.4628 22.073 55.8461 22.073 55.1582V54.5793C22.073 53.8913 22.1611 53.2768 22.3373 52.7357C22.5177 52.1904 22.7715 51.7268 23.0986 51.3451C23.4258 50.9592 23.814 50.6655 24.2627 50.4642C24.7157 50.2628 25.2129 50.1622 25.754 50.1622C26.3118 50.1622 26.8152 50.2628 27.2642 50.4642C27.7171 50.6655 28.1051 50.9592 28.4281 51.3451C28.7554 51.7268 29.0048 52.1904 29.1769 52.7357C29.3531 53.2768 29.4413 53.8913 29.4413 54.5793ZM28.2395 55.1582V54.5667C28.2395 54.0214 28.1826 53.539 28.0694 53.1195C27.9604 52.7 27.7989 52.3477 27.585 52.0624C27.371 51.7772 27.1089 51.5611 26.7985 51.4143C26.4922 51.2675 26.1442 51.1941 25.754 51.1941C25.3764 51.1941 25.0345 51.2675 24.7282 51.4143C24.4262 51.5611 24.1662 51.7772 23.9481 52.0624C23.7342 52.3477 23.5686 52.7 23.4511 53.1195C23.3335 53.539 23.2749 54.0214 23.2749 54.5667V55.1582C23.2749 55.7077 23.3335 56.1943 23.4511 56.618C23.5686 57.0375 23.7362 57.3919 23.9543 57.6813C24.1768 57.9666 24.439 58.1826 24.741 58.3294C25.0472 58.4763 25.3889 58.5497 25.7665 58.5497C26.1609 58.5497 26.5112 58.4763 26.8174 58.3294C27.1236 58.1826 27.3816 57.9666 27.5913 57.6813C27.8053 57.3919 27.9667 57.0375 28.0758 56.618C28.1849 56.1943 28.2395 55.7077 28.2395 55.1582ZM31.6434 50.288H32.8201L35.8216 57.7569L38.8166 50.288H39.9995L36.2745 59.4495H35.3558L31.6434 50.288ZM31.2597 50.288H32.2978L32.4678 55.8755V59.4495H31.2597V50.288ZM39.3388 50.288H40.3771V59.4495H39.1689V55.8755L39.3388 50.288ZM45.8889 55.8566H43.4413V54.8687H45.8889C46.363 54.8687 46.7468 54.7932 47.0405 54.6422C47.3341 54.4912 47.548 54.2815 47.6822 54.013C47.8208 53.7445 47.89 53.4383 47.89 53.0943C47.89 52.7797 47.8208 52.484 47.6822 52.2071C47.548 51.9303 47.3341 51.708 47.0405 51.5402C46.7468 51.3682 46.363 51.2822 45.8889 51.2822H43.7244V59.4495H42.5101V50.288H45.8889C46.5811 50.288 47.1662 50.4076 47.6445 50.6467C48.1228 50.8858 48.4857 51.2172 48.7331 51.6408C48.9805 52.0603 49.1043 52.5406 49.1043 53.0818C49.1043 53.669 48.9805 54.1703 48.7331 54.5856C48.4857 55.0009 48.1228 55.3176 47.6445 55.5357C47.1662 55.7496 46.5811 55.8566 45.8889 55.8566ZM53.1628 51.0997L50.13 59.4495H48.8904L52.3824 50.288H53.1817L53.1628 51.0997ZM55.7049 59.4495L52.6658 51.0997L52.6468 50.288H53.4459L56.9507 59.4495H55.7049ZM55.5476 56.058V57.0521H50.4006V56.058H55.5476ZM65.225 50.288V59.4495H64.0043L59.3922 52.3833V59.4495H58.1776V50.288H59.3922L64.023 57.373V50.288H65.225ZM67.6221 50.288L70.0008 54.8876L72.3854 50.288H73.7634L70.6047 56.0265V59.4495H69.3903V56.0265L66.2316 50.288H67.6221Z" fill="white"/>
</g>
<path fill-rule="evenodd" clip-rule="evenodd" d="M131.665 15.7711C134.211 15.7711 139.428 15.5894 141.409 17.3604C142.528 18.3607 143.395 19.4267 143.387 21.0487C143.379 22.5248 142.809 24.0843 141.531 24.9452C139.812 26.1035 139.203 25.9445 137.386 26.4671C137.149 26.5353 132.242 26.815 132.07 26.7627C131.363 26.5474 131.665 25.0152 131.665 24.3342V15.7711ZM126.439 41.2716L131.664 41.2864L131.665 29.0566C136.748 29.0566 137.981 33.4848 140.926 36.5437C142.449 38.1255 142.83 39.58 145.056 40.788C146.202 41.4103 147.185 41.5816 148.476 41.586C149.046 41.5879 152.06 41.6347 151.961 40.9331C151.83 40.7876 150.826 40.9872 149.767 39.9172C149.187 39.3302 148.717 38.9666 148.19 38.2838C147.687 37.6325 145.609 35.13 145.367 34.6216C145.101 34.0628 143.014 31.6264 142.46 31.1061C141.686 30.379 141.557 30.2436 140.639 29.7159C140.244 29.489 138.278 28.9027 138.236 28.845C139.188 28.4582 141.578 28.3965 143.076 27.7489C144.525 27.1226 145.721 26.6594 146.839 25.4675C149.146 23.0089 149.434 19.3024 146.899 16.9075C142.16 12.4313 132.494 13.3155 126.439 13.3155V41.2716Z" fill="#19A278"/>
<path fill-rule="evenodd" clip-rule="evenodd" d="M105.445 20.2281L111.197 31.7033L99.7398 31.7011L105.445 20.2281ZM92.0601 41.3346H94.9564L98.3262 34.4563L112.649 34.4716L115.987 41.2949L121.779 41.3348L107.944 13.3384C107.549 13.3155 107.106 13.3212 106.665 13.3122C105.912 13.2967 105.944 13.1528 105.718 13.7521C105.48 14.3847 99.759 25.6849 99.3023 26.6023C98.2661 28.6841 92.2544 40.132 92.0601 41.3346Z" fill="#19A278"/>
<defs>
<clipPath id="clip0_14_650">
<rect width="72.9215" height="9.69349" fill="white" transform="translate(0.918945 49.9763)"/>
</clipPath>
</defs>
</svg>
