<svg width="131" height="46" viewBox="0 0 131 46" fill="none" xmlns="http://www.w3.org/2000/svg">
<path fill-rule="evenodd" clip-rule="evenodd" d="M112.34 12.911C112.339 13.1007 112.305 13.5395 112.386 13.6888L119.751 12.3822L119.747 30.9645L123.588 30.9121L123.589 12.3555L130.897 13.6806L130.903 10.365H112.34V12.911Z" fill="#1AA27A"/>
<path fill-rule="evenodd" clip-rule="evenodd" d="M85.4912 37.1212H116.877C118.526 37.1212 119.342 37.4049 120.782 36.5369C121.618 36.0334 122.913 35.4657 123.542 34.7603L78.9641 34.7135C78.9641 35.3199 81.0521 36.2463 81.6083 36.5137C83.4061 37.3784 83.5043 37.1212 85.4912 37.1212Z" fill="#1AA27A"/>
<path fill-rule="evenodd" clip-rule="evenodd" d="M99.2859 41.2409C104.007 41.2409 105.021 41.3746 110.023 40.4053C110.766 40.2613 115.774 39.1302 115.812 38.556H86.741C86.741 39.0718 86.7702 38.8329 87.262 38.9609C87.4327 39.0053 87.7936 39.1488 87.9787 39.2164C88.4715 39.3964 88.9369 39.4749 89.4315 39.6614C90.118 39.9203 91.6973 40.2735 92.4589 40.4299C94.5517 40.8598 97.176 41.2409 99.2859 41.2409Z" fill="#1AA27A"/>
<path fill-rule="evenodd" clip-rule="evenodd" d="M45.0328 30.9644H47.0233V15.4569C47.8389 16.0045 50.2209 18.6876 51.0515 19.5759C52.3528 20.9675 53.6821 22.4044 55.0318 23.7428C56.3992 25.0988 57.6385 26.5968 59.0117 27.9102C59.6319 28.5033 60.511 29.3166 60.9949 30.0006C61.9401 31.3372 62.6231 30.9644 64.151 30.9644V10.3648H62.1605V25.7334C61.6702 25.3961 58.5106 22.1606 58.1515 21.6415C57.363 20.5014 55.1397 18.6865 54.0997 17.546C52.82 16.1425 51.3792 14.7593 50.161 13.3838C49.523 12.6634 48.9099 11.9248 48.1983 11.2729C46.7499 9.94602 47.1554 10.3648 45.0328 10.3648V30.9644Z" fill="black"/>
<path fill-rule="evenodd" clip-rule="evenodd" d="M1.02914 23.9552L1.01583 23.9714C0.958865 24.0076 0.917414 28.0321 1.00883 28.3269C1.25479 29.1201 3.01137 29.7486 3.7428 30.0369C6.05355 30.9476 9.12318 31.2465 11.5529 30.7677C13.7271 30.3392 15.9779 29.354 16.8833 27.1627C17.9001 24.7016 17.0446 22.3904 15.1928 20.67C13.6735 19.2586 11.1475 18.3971 9.22413 17.7045C7.72023 17.1628 3.82097 15.4641 5.19935 13.3014C6.28331 11.6007 10.6364 12.0773 12.2437 12.9259C14.8982 14.3273 15.0581 15.1657 16.8878 17.2159C16.8878 16.4645 16.9809 13.3181 16.8125 12.8473C16.5467 12.1045 14.7985 11.398 14.0777 11.1382C11.5553 10.229 8.85986 10.1161 6.23706 10.635C0.201288 11.8293 -0.683729 16.6304 4.96979 19.5054C6.97782 20.5266 9.24712 21.0587 11.1261 22.2369C13.249 23.5679 14.4199 25.8199 12.5826 28.0017C11.0657 29.803 7.48175 29.2211 5.67267 28.2458C3.38093 27.0105 2.53304 26.0163 1.02914 23.9552Z" fill="black"/>
<path fill-rule="evenodd" clip-rule="evenodd" d="M29.4789 15.5958L33.7198 23.8446C33.4697 23.9696 27.1416 23.8546 25.9109 23.8857C25.1762 23.9044 25.3098 23.8408 25.5583 23.3415C26.077 22.2997 29.3106 15.6144 29.4789 15.5958ZM19.7578 30.9644C20.3605 30.9644 21.6506 31.1539 21.8805 30.7262C22.1347 30.253 22.3806 29.7009 22.6728 29.1114C22.8962 28.6601 24.2922 25.9457 24.2944 25.9187H34.7561C34.7759 26.0668 36.4756 29.3459 36.7011 29.8063C37.3189 31.0677 36.9915 30.9644 38.4594 30.9644C39.447 30.9644 40.4345 30.9644 41.4221 30.9644L41.5594 30.8959L31.3226 10.3689C30.7809 10.3649 29.9114 10.1483 29.6802 10.7019C29.4835 11.1727 29.2247 11.5754 29.023 12.0383C28.6313 12.9371 28.1175 13.8405 27.6856 14.7282C26.8087 16.5303 25.9119 18.3323 25.0438 20.141C24.3432 21.6004 19.7578 30.2522 19.7578 30.9644Z" fill="black"/>
<path fill-rule="evenodd" clip-rule="evenodd" d="M29.5374 7.11239L31.6546 7.12481L34.6543 0.890843C34.139 0.644609 28.8965 0.47908 28.2318 0.647423C27.7416 0.771501 26.466 0.701707 26.6921 1.15472C27.1412 2.05469 27.6944 3.22019 28.1528 4.09931C28.4517 4.67255 29.1628 6.57703 29.5374 7.11239Z" fill="black"/>
<path fill-rule="evenodd" clip-rule="evenodd" d="M28.5995 7.12454C28.5995 6.56749 26.9952 3.51502 26.7016 2.95831C26.0446 1.71273 26.2314 1.14772 25.5006 1.14161C25.2127 1.13921 23.4461 1.62035 23.0494 1.75967C21.8173 2.19223 22.9027 2.40929 23.3238 3.28093C23.5997 3.85198 24.3556 4.5867 24.5936 5.06627C24.7503 5.38182 25.5865 6.48671 25.8464 6.82244C26.3169 7.43 27.87 7.12454 28.5995 7.12454Z" fill="black"/>
<path fill-rule="evenodd" clip-rule="evenodd" d="M32.5562 7.11293C35.5508 7.12452 34.9529 7.5975 36.4501 5.3466C36.8024 4.81693 38.8763 2.31588 38.6859 1.99127L35.3465 1.02136L35.3887 1.18977L32.5562 7.11293Z" fill="black"/>
<path fill-rule="evenodd" clip-rule="evenodd" d="M24.9888 7.12437C24.9821 6.87381 23.0275 4.21759 22.7526 3.85195C21.3485 1.98384 21.9525 2.02976 19.5118 3.26759C18.6229 3.71847 18.2545 3.69225 19.2419 4.53884C19.7238 4.95191 20.1666 5.54183 20.626 5.93218C21.0996 6.33454 21.553 7.14091 22.2054 7.13027C23.1316 7.11524 24.0613 7.12437 24.9888 7.12437Z" fill="black"/>
<path fill-rule="evenodd" clip-rule="evenodd" d="M36.33 7.12459C37.1315 7.12459 37.9371 7.11656 38.738 7.12535C39.6 7.13488 39.655 6.824 40.2633 6.24349C40.6685 5.85684 41.0935 5.30405 41.5196 5.09274C41.7527 4.97717 42.6719 4.08488 42.6719 3.83796C42.6546 3.67799 40.8895 2.87361 40.6496 2.75887C39.109 2.02174 39.7118 2.46466 38.872 3.41721C38.4901 3.85038 36.3387 6.83409 36.33 7.12459Z" fill="black"/>
<path fill-rule="evenodd" clip-rule="evenodd" d="M13.9715 7.12443H20.6374C20.6305 6.81829 19.4016 5.7886 19.138 5.5224C18.8328 5.21426 18.6193 4.95835 18.3665 4.72008C17.9952 4.37022 17.884 3.97115 17.4897 4.39122C17.3647 4.52435 16.2158 5.18324 15.6665 5.67166C15.3952 5.91289 15.1165 6.02242 14.7842 6.36322C14.5816 6.57096 13.9782 6.81184 13.9715 7.12443Z" fill="black"/>
<path fill-rule="evenodd" clip-rule="evenodd" d="M40.6297 7.07258L47.2085 7.12447L47.3127 6.98385L43.5191 4.17322L43.4575 4.25296L40.6297 7.07258Z" fill="black"/>
<g clip-path="url(#clip0_9_85)">
<path d="M1.86999 37.5469V44.2823H0.977173V37.5469H1.86999ZM5.84372 37.5469V44.2823H4.96479V37.5469H5.84372ZM8.00869 37.5469V38.2778H2.80444V37.5469H8.00869ZM9.58614 41.0672V41.7704H7.32866V41.0672H9.58614ZM14.6192 42.1405H15.5074C15.4612 42.5661 15.3393 42.9469 15.142 43.2831C14.9446 43.6192 14.6655 43.886 14.3047 44.0834C13.9438 44.2777 13.4936 44.3748 12.9539 44.3748C12.5591 44.3748 12.1998 44.3008 11.876 44.1528C11.5553 44.0047 11.2793 43.795 11.048 43.5237C10.8167 43.2492 10.6378 42.9207 10.5113 42.5383C10.388 42.1528 10.3263 41.7241 10.3263 41.2523V40.5815C10.3263 40.1097 10.388 39.6825 10.5113 39.3001C10.6378 38.9146 10.8182 38.5846 11.0526 38.3102C11.2901 38.0357 11.5753 37.8244 11.9084 37.6764C12.2415 37.5284 12.6162 37.4543 13.0325 37.4543C13.5414 37.4543 13.9716 37.55 14.3232 37.7412C14.6747 37.9324 14.9477 38.1976 15.142 38.5368C15.3393 38.873 15.4612 39.2631 15.5074 39.7072H14.6192C14.576 39.3926 14.4959 39.1228 14.3787 38.8977C14.2615 38.6694 14.0949 38.4937 13.8791 38.3703C13.6632 38.2469 13.381 38.1853 13.0325 38.1853C12.7334 38.1853 12.4697 38.2423 12.2415 38.3564C12.0163 38.4705 11.8267 38.6324 11.6725 38.8421C11.5214 39.0519 11.4072 39.3032 11.3301 39.5962C11.253 39.8892 11.2145 40.2145 11.2145 40.5723V41.2523C11.2145 41.5823 11.2484 41.8922 11.3163 42.1821C11.3872 42.472 11.4936 42.7264 11.6355 42.9454C11.7773 43.1644 11.9577 43.3371 12.1767 43.4635C12.3957 43.5869 12.6547 43.6485 12.9539 43.6485C13.3332 43.6485 13.6354 43.5884 13.8606 43.4681C14.0857 43.3479 14.2553 43.1752 14.3694 42.95C14.4866 42.7249 14.5699 42.455 14.6192 42.1405ZM21.9098 40.7018V41.1274C21.9098 41.6332 21.8465 42.0865 21.7202 42.4874C21.5937 42.8883 21.4118 43.2291 21.1742 43.5098C20.9367 43.7904 20.6515 44.0047 20.3185 44.1528C19.9884 44.3008 19.6183 44.3748 19.2082 44.3748C18.8104 44.3748 18.4449 44.3008 18.1118 44.1528C17.7819 44.0047 17.4951 43.7904 17.2515 43.5098C17.0109 43.2291 16.8243 42.8883 16.6917 42.4874C16.5591 42.0865 16.4927 41.6332 16.4927 41.1274V40.7018C16.4927 40.196 16.5575 39.7442 16.687 39.3464C16.8196 38.9455 17.0062 38.6047 17.2468 38.324C17.4873 38.0403 17.7727 37.8244 18.1026 37.6764C18.4356 37.5284 18.8012 37.4543 19.199 37.4543C19.6091 37.4543 19.9792 37.5284 20.3093 37.6764C20.6423 37.8244 20.9275 38.0403 21.1649 38.324C21.4056 38.6047 21.589 38.9455 21.7155 39.3464C21.8451 39.7442 21.9098 40.196 21.9098 40.7018ZM21.0263 41.1274V40.6925C21.0263 40.2916 20.9845 39.937 20.9013 39.6286C20.8211 39.3202 20.7024 39.0611 20.5451 38.8514C20.3878 38.6417 20.1951 38.4829 19.9669 38.3749C19.7417 38.267 19.4858 38.213 19.199 38.213C18.9214 38.213 18.67 38.267 18.4449 38.3749C18.2228 38.4829 18.0317 38.6417 17.8713 38.8514C17.7141 39.0611 17.5923 39.3202 17.5059 39.6286C17.4194 39.937 17.3763 40.2916 17.3763 40.6925V41.1274C17.3763 41.5314 17.4194 41.8891 17.5059 42.2006C17.5923 42.509 17.7155 42.7696 17.8759 42.9824C18.0394 43.1921 18.2322 43.3509 18.4542 43.4589C18.6794 43.5668 18.9306 43.6208 19.2082 43.6208C19.4981 43.6208 19.7557 43.5668 19.9808 43.4589C20.2059 43.3509 20.3956 43.1921 20.5498 42.9824C20.7071 42.7696 20.8258 42.509 20.906 42.2006C20.9861 41.8891 21.0263 41.5314 21.0263 41.1274ZM23.5289 37.5469H24.3939L26.6006 43.0379L28.8026 37.5469H29.6722L26.9336 44.2823H26.2582L23.5289 37.5469ZM23.2467 37.5469H24.0099L24.135 41.6547V44.2823H23.2467V37.5469ZM29.1864 37.5469H29.9498V44.2823H29.0615V41.6547L29.1864 37.5469ZM34.0021 41.6409H32.2026V40.9146H34.0021C34.3506 40.9146 34.6328 40.8591 34.8487 40.748C35.0646 40.637 35.2218 40.4828 35.3205 40.2855C35.4224 40.0881 35.4732 39.8629 35.4732 39.6101C35.4732 39.3788 35.4224 39.1613 35.3205 38.9578C35.2218 38.7542 35.0646 38.5908 34.8487 38.4674C34.6328 38.341 34.3506 38.2778 34.0021 38.2778H32.4107V44.2823H31.518V37.5469H34.0021C34.511 37.5469 34.9412 37.6348 35.2928 37.8105C35.6444 37.9863 35.9112 38.23 36.0931 38.5415C36.275 38.8499 36.366 39.203 36.366 39.6008C36.366 40.0326 36.275 40.4011 36.0931 40.7064C35.9112 41.0117 35.6444 41.2446 35.2928 41.4049C34.9412 41.5622 34.511 41.6409 34.0021 41.6409ZM39.3498 38.1436L37.1201 44.2823H36.2087L38.7761 37.5469H39.3637L39.3498 38.1436ZM41.2187 44.2823L38.9844 38.1436L38.9704 37.5469H39.5579L42.1347 44.2823H41.2187ZM41.1031 41.7889V42.5198H37.319V41.7889H41.1031ZM48.2179 37.5469V44.2823H47.3204L43.9296 39.0873V44.2823H43.0367V37.5469H43.9296L47.3342 42.7557V37.5469H48.2179ZM49.9802 37.5469L51.729 40.9285L53.4821 37.5469H54.4953L52.173 41.7658V44.2823H51.2802V41.7658L48.9579 37.5469H49.9802Z" fill="black"/>
</g>
<path fill-rule="evenodd" clip-rule="evenodd" d="M97.064 12.1701C98.9365 12.1701 102.771 12.0365 104.228 13.3385C105.051 14.0739 105.688 14.8576 105.682 16.0502C105.676 17.1354 105.257 18.2819 104.318 18.9148C103.054 19.7664 102.606 19.6495 101.271 20.0337C101.096 20.0839 97.4886 20.2895 97.3623 20.2511C96.8422 20.0928 97.064 18.9663 97.064 18.4656V12.1701ZM93.2219 30.9179L97.0632 30.9288L97.0644 21.9375C100.801 21.9375 101.708 25.1931 103.873 27.442C104.992 28.6049 105.273 29.6743 106.909 30.5624C107.752 31.0199 108.475 31.1458 109.424 31.1491C109.843 31.1505 112.059 31.1849 111.985 30.6691C111.889 30.5621 111.151 30.7088 110.373 29.9222C109.946 29.4906 109.601 29.2233 109.213 28.7213C108.844 28.2425 107.316 26.4027 107.138 26.0289C106.942 25.6181 105.408 23.8268 105.001 23.4443C104.431 22.9097 104.337 22.8102 103.662 22.4222C103.372 22.2555 101.926 21.8244 101.895 21.782C102.595 21.4976 104.352 21.4522 105.453 20.9761C106.519 20.5157 107.398 20.1751 108.22 19.2989C109.916 17.4913 110.128 14.7663 108.264 13.0056C104.78 9.71471 97.6739 10.3647 93.2219 10.3647V30.9179Z" fill="#19A278"/>
<path fill-rule="evenodd" clip-rule="evenodd" d="M77.7872 15.4469L82.0161 23.8834L73.593 23.8817L77.7872 15.4469ZM67.9469 30.9642H70.0763L72.5537 25.9074L83.0841 25.9186L85.5378 30.935L89.7963 30.9644L79.6247 10.3816C79.334 10.3647 79.0089 10.3689 78.6845 10.3623C78.131 10.3509 78.1544 10.2451 77.9883 10.6857C77.813 11.1508 73.6071 19.4587 73.2714 20.1331C72.5095 21.6637 68.0898 30.08 67.9469 30.9642Z" fill="#19A278"/>
<defs>
<clipPath id="clip0_9_85">
<rect width="53.6115" height="7.1266" fill="white" transform="translate(0.94043 37.3176)"/>
</clipPath>
</defs>
</svg>
