<svg width="48" height="48" viewBox="0 0 48 48" fill="none" xmlns="http://www.w3.org/2000/svg">
<rect x="6" y="5.5" width="37" height="37" rx="10" fill="#176EB2"/>
<path d="M28.1676 28.6353L30.062 26.7401C30.3172 26.488 30.64 26.3154 30.9913 26.2433C31.3426 26.1712 31.7072 26.2027 32.041 26.334L34.3498 27.2562C34.6871 27.3931 34.9763 27.6269 35.181 27.928C35.3857 28.2292 35.4967 28.5842 35.5 28.9483V33.1786C35.498 33.4263 35.446 33.6711 35.347 33.8981C35.248 34.1252 35.1041 34.3298 34.9239 34.4998C34.7438 34.6697 34.5311 34.8015 34.2987 34.887C34.0663 34.9726 33.8191 35.0102 33.5718 34.9976C17.3931 33.9908 14.1286 20.2846 13.5113 15.039C13.4826 14.7814 13.5088 14.5207 13.5881 14.274C13.6674 14.0272 13.798 13.8001 13.9714 13.6075C14.1448 13.4148 14.3569 13.2611 14.5939 13.1564C14.8309 13.0517 15.0874 12.9984 15.3465 13H19.4313C19.7958 13.0011 20.1517 13.1113 20.4531 13.3163C20.7545 13.5214 20.9877 13.8119 21.1227 14.1507L22.0446 16.4604C22.1801 16.793 22.2147 17.1581 22.144 17.5102C22.0733 17.8623 21.9005 18.1858 21.6471 18.4402L19.7527 20.3354C19.7527 20.3354 20.8437 27.7215 28.1676 28.6353Z" fill="white"/>
</svg>
