<svg width="48" height="48" viewBox="0 0 48 48" fill="none" xmlns="http://www.w3.org/2000/svg">
<g clip-path="url(#clip0_614_765)">
<path d="M39.5588 5.5H8.44492C6.81613 5.5 5.5 6.87785 5.5 8.58204V39.4193C5.5 41.1183 6.81613 42.5 8.44492 42.5H39.5588C41.1802 42.5 42.5 41.1196 42.5 39.4193V8.58204C42.4988 6.87785 41.1789 5.5 39.5588 5.5ZM30.9054 14.3656C30.6401 15.4171 29.4583 15.7153 28.3759 15.6503C28.3299 15.6475 28.2834 15.6461 28.2363 15.6461C27.4899 15.6461 26.8522 15.8417 26.526 16.1706C26.1997 16.4969 26.0378 17.1289 26.0378 18.0625C26.0378 18.8257 26.6565 19.4443 27.4196 19.4443H27.8116C28.9481 19.4443 29.7914 20.4981 29.5422 21.607L29.4692 21.9318C29.291 22.7245 28.5871 23.2878 27.7746 23.2878C26.8154 23.2878 26.0378 24.0654 26.0378 25.0246V33.5526C26.0378 34.9367 24.9158 36.0588 23.5316 36.0588C22.1475 36.0588 21.0254 34.9367 21.0254 33.5526V24.4575C21.0254 23.8115 20.5017 23.2878 19.8557 23.2878C19.2097 23.2878 18.686 22.7641 18.686 22.1181V20.6152C18.686 19.9685 19.2103 19.4443 19.857 19.4443C20.5036 19.4443 21.0279 18.92 21.0279 18.2734V17.9771C21.0279 16.4322 21.2046 15.5076 21.5531 14.7448C21.9004 13.9847 22.5739 13.1378 23.5106 12.6586C24.4461 12.1808 25.8302 11.9399 27.2625 11.9399C28.1908 11.9399 28.9906 12.1449 29.8088 12.4001C30.6334 12.6573 31.1167 13.5281 30.9054 14.3656Z" fill="#176EB2"/>
</g>
<defs>
<clipPath id="clip0_614_765">
<rect x="5.5" y="5.5" width="37" height="37" rx="10" fill="white"/>
</clipPath>
</defs>
</svg>
