<svg width="48" height="48" viewBox="0 0 48 48" fill="none" xmlns="http://www.w3.org/2000/svg">
<path d="M24 5.5C29.0265 5.5 29.6536 5.5185 31.6257 5.611C33.596 5.7035 34.9372 6.01245 36.1175 6.47125C37.3385 6.94115 38.3671 7.57755 39.3957 8.6043C40.3364 9.52911 41.0643 10.6478 41.5288 11.8825C41.9857 13.0609 42.2965 14.404 42.389 16.3743C42.4759 18.3464 42.5 18.9735 42.5 24C42.5 29.0265 42.4815 29.6536 42.389 31.6257C42.2965 33.596 41.9857 34.9372 41.5288 36.1175C41.0657 37.3529 40.3376 38.4718 39.3957 39.3957C38.4706 40.3361 37.352 41.0639 36.1175 41.5288C34.939 41.9857 33.596 42.2965 31.6257 42.389C29.6536 42.4759 29.0265 42.5 24 42.5C18.9735 42.5 18.3464 42.4815 16.3743 42.389C14.404 42.2965 13.0628 41.9857 11.8825 41.5288C10.6473 41.0653 9.52843 40.3372 8.6043 39.3957C7.6634 38.471 6.93547 37.3523 6.47125 36.1175C6.01245 34.939 5.7035 33.596 5.611 31.6257C5.52405 29.6536 5.5 29.0265 5.5 24C5.5 18.9735 5.5185 18.3464 5.611 16.3743C5.7035 14.4022 6.01245 13.0628 6.47125 11.8825C6.93419 10.647 7.66229 9.52804 8.6043 8.6043C9.52869 7.66308 10.6475 6.9351 11.8825 6.47125C13.0628 6.01245 14.4022 5.7035 16.3743 5.611C18.3464 5.52405 18.9735 5.5 24 5.5ZM24 14.75C21.5467 14.75 19.194 15.7246 17.4593 17.4593C15.7246 19.194 14.75 21.5467 14.75 24C14.75 26.4533 15.7246 28.806 17.4593 30.5407C19.194 32.2754 21.5467 33.25 24 33.25C26.4533 33.25 28.806 32.2754 30.5407 30.5407C32.2754 28.806 33.25 26.4533 33.25 24C33.25 21.5467 32.2754 19.194 30.5407 17.4593C28.806 15.7246 26.4533 14.75 24 14.75ZM36.025 14.2875C36.025 13.6742 35.7814 13.086 35.3477 12.6523C34.914 12.2186 34.3258 11.975 33.7125 11.975C33.0992 11.975 32.511 12.2186 32.0773 12.6523C31.6436 13.086 31.4 13.6742 31.4 14.2875C31.4 14.9008 31.6436 15.489 32.0773 15.9227C32.511 16.3564 33.0992 16.6 33.7125 16.6C34.3258 16.6 34.914 16.3564 35.3477 15.9227C35.7814 15.489 36.025 14.9008 36.025 14.2875ZM24 18.45C25.472 18.45 26.8836 19.0347 27.9244 20.0756C28.9653 21.1164 29.55 22.528 29.55 24C29.55 25.472 28.9653 26.8836 27.9244 27.9244C26.8836 28.9653 25.472 29.55 24 29.55C22.528 29.55 21.1164 28.9653 20.0756 27.9244C19.0347 26.8836 18.45 25.472 18.45 24C18.45 22.528 19.0347 21.1164 20.0756 20.0756C21.1164 19.0347 22.528 18.45 24 18.45Z" fill="#176EB2"/>
</svg>
