<svg width="49" height="48" viewBox="0 0 49 48" fill="none" xmlns="http://www.w3.org/2000/svg">
<rect x="0.5" width="48" height="48" rx="6" fill="#176EB2"/>
<path d="M24.5 11.5C21.225 11.5 18.5625 14.1625 18.5625 17.4375C18.5625 20.65 21.075 23.25 24.35 23.3625C24.45 23.35 24.55 23.35 24.625 23.3625C24.65 23.3625 24.6625 23.3625 24.6875 23.3625C24.7 23.3625 24.7 23.3625 24.7125 23.3625C27.9125 23.25 30.425 20.65 30.4375 17.4375C30.4375 14.1625 27.775 11.5 24.5 11.5Z" fill="white"/>
<path d="M30.85 26.6871C27.3625 24.3621 21.675 24.3621 18.1625 26.6871C16.575 27.7496 15.7 29.1871 15.7 30.7246C15.7 32.2621 16.575 33.6871 18.15 34.7371C19.9 35.9121 22.2 36.4996 24.5 36.4996C26.8 36.4996 29.1 35.9121 30.85 34.7371C32.425 33.6746 33.3 32.2496 33.3 30.6996C33.2875 29.1621 32.425 27.7371 30.85 26.6871Z" fill="white"/>
</svg>
