<svg width="96" height="62" viewBox="0 0 96 62" fill="none" xmlns="http://www.w3.org/2000/svg">
<path d="M3.84 0.856018C1.71965 0.856018 0 2.57519 0 4.69602V57.304C0 59.4248 1.72051 61.144 3.84 61.144H92.16C94.2804 61.144 96 59.4249 96 57.304V4.69602C96 2.57528 94.2795 0.856018 92.16 0.856018H3.84ZM57.336 18.823C59.6724 18.823 61.5449 19.3391 62.739 19.819L61.923 24.952L61.383 24.679C60.2706 24.1991 58.8419 23.7372 56.871 23.77C54.5117 23.77 53.421 24.8224 53.421 25.8071C53.4073 26.9166 54.6954 27.6483 56.802 28.744C60.2788 30.4346 61.8857 32.4844 61.8631 35.179C61.8162 40.0958 57.704 43.273 51.369 43.273C48.6663 43.2433 46.0625 42.6711 44.655 42.01L45.501 36.706L46.278 37.084C48.2573 37.9684 49.5389 38.3261 51.951 38.3261C53.6831 38.3261 55.5422 37.6008 55.557 36.013C55.5683 34.9762 54.7799 34.237 52.434 33.076C50.148 31.9428 47.1175 30.0446 47.1511 26.641C47.1868 22.0368 51.3811 18.823 57.336 18.823ZM8.48995 19.576H18.219C19.5291 19.6256 20.5868 20.0474 20.952 21.469L23.049 32.293C23.0493 32.294 23.0486 32.2979 23.049 32.299L23.679 35.5421L29.586 19.576H35.976L26.478 42.9461L20.094 42.952L15.012 24.094C18.0358 25.6959 20.6101 27.5494 22.101 30.1C21.7166 29.2929 21.2101 28.3819 20.562 27.484C19.8073 26.4384 18.1773 25.0883 17.496 24.514C15.1219 22.5127 11.8978 20.8963 8.41498 20.041L8.48995 19.576ZM38.517 19.603H44.766L40.8569 42.937H34.608L38.517 19.603ZM73.812 19.603H78.546L83.502 42.937H77.82C77.82 42.937 77.2563 40.2563 77.073 39.439C76.1799 39.439 69.9338 39.4301 69.231 39.4301C68.9932 40.0617 67.941 42.9369 67.941 42.9369H61.512L70.605 21.541C71.2488 20.0206 72.3462 19.603 73.812 19.603ZM74.277 25.879C73.9695 26.7469 73.4341 28.1485 73.47 28.087C73.47 28.087 71.5464 33.2172 71.0431 34.549L76.098 34.546C75.6284 32.321 75.1584 30.096 74.688 27.8712L74.277 25.8792V25.879Z" fill="url(#paint0_linear_169_1955)"/>
<defs>
<linearGradient id="paint0_linear_169_1955" x1="93.037" y1="4.13254" x2="4.70211" y2="3.28676" gradientUnits="userSpaceOnUse">
<stop stop-color="#176EB2"/>
<stop offset="1" stop-color="#1C2E51"/>
</linearGradient>
</defs>
</svg>
