<svg width="86" height="81" viewBox="0 0 86 81" fill="none" xmlns="http://www.w3.org/2000/svg">
<path d="M82.9378 36.8925L66.0253 51.6525L71.0915 73.6275C71.3596 74.7763 71.2831 75.9786 70.8716 77.0841C70.4601 78.1897 69.7318 79.1494 68.7778 79.8433C67.8238 80.5372 66.6864 80.9345 65.5079 80.9854C64.3293 81.0364 63.1619 80.7389 62.1515 80.13L42.9853 68.505L23.8603 80.13C22.8499 80.7389 21.6825 81.0364 20.5039 80.9854C19.3254 80.9345 18.188 80.5372 17.234 79.8433C16.28 79.1494 15.5517 78.1897 15.1402 77.0841C14.7287 75.9786 14.6522 74.7763 14.9203 73.6275L19.979 51.675L3.06278 36.8925C2.16806 36.1208 1.52109 35.1022 1.20299 33.9643C0.88489 32.8264 0.909827 31.6199 1.27467 30.4961C1.63952 29.3724 2.32803 28.3813 3.25387 27.6473C4.17971 26.9133 5.30166 26.4689 6.47903 26.37L28.7765 24.4387L37.4803 3.67873C37.9348 2.58942 38.7015 1.65894 39.6837 1.00445C40.666 0.349963 41.8199 0.000732422 43.0003 0.000732422C44.1806 0.000732422 45.3346 0.349963 46.3168 1.00445C47.2991 1.65894 48.0658 2.58942 48.5203 3.67873L57.2503 24.4387L79.5403 26.37C80.7176 26.4689 81.8396 26.9133 82.7654 27.6473C83.6913 28.3813 84.3798 29.3724 84.7446 30.4961C85.1095 31.6199 85.1344 32.8264 84.8163 33.9643C84.4982 35.1022 83.8512 36.1208 82.9565 36.8925H82.9378Z" fill="url(#paint0_linear_169_1969)"/>
<defs>
<linearGradient id="paint0_linear_169_1969" x1="82.4435" y1="4.40238" x2="5.09448" y2="3.91968" gradientUnits="userSpaceOnUse">
<stop stop-color="#176EB2"/>
<stop offset="1" stop-color="#1C2E51"/>
</linearGradient>
</defs>
</svg>
