<svg width="86" height="86" viewBox="0 0 86 86" fill="none" xmlns="http://www.w3.org/2000/svg">
<path d="M72.6978 13.3262C68.8048 9.39467 64.1733 6.27105 59.0694 4.13484C53.9655 1.99862 48.4898 0.891919 42.9569 0.878301C37.424 0.864683 31.9429 1.94442 26.8286 4.05548C21.7142 6.16655 17.0674 9.26733 13.155 13.1797C9.24267 17.0921 6.14189 21.7389 4.03083 26.8532C1.91976 31.9676 0.840025 37.4486 0.853643 42.9815C0.867261 48.5144 1.97397 53.9901 4.11018 59.094C6.24639 64.1979 9.37001 68.8294 13.3016 72.7225C17.1946 76.6541 21.8262 79.7777 26.93 81.9139C32.0339 84.0501 37.5096 85.1568 43.0425 85.1704C48.5754 85.184 54.0565 84.1043 59.1708 81.9932C64.2852 79.8822 68.932 76.7814 72.8444 72.869C76.7567 68.9567 79.8575 64.3098 81.9686 59.1955C84.0796 54.0811 85.1594 48.6001 85.1458 43.0672C85.1322 37.5343 84.0255 32.0586 81.8892 26.9547C79.753 21.8508 76.6294 17.2193 72.6978 13.3262ZM6.99971 43.0244C6.99836 39.8382 7.42081 36.666 8.25595 33.5912C9.6322 36.5537 11.631 39.1131 12.9903 42.1525C14.7472 46.06 19.4647 44.9762 21.5478 48.4C23.3966 51.4394 21.4222 55.2831 22.806 58.4631C23.811 60.7712 26.181 61.2756 27.816 62.9631C29.4866 64.6656 29.451 66.9981 29.706 69.2181C29.9937 71.8265 30.4604 74.4119 31.1028 76.9562C31.1028 76.975 31.1028 76.9956 31.1178 77.0144C17.0872 72.0869 6.99971 58.7125 6.99971 43.0244ZM42.9997 79.0244C40.9892 79.0237 38.9823 78.8556 36.9997 78.5219C37.0203 78.0137 37.0297 77.5394 37.0803 77.2094C37.536 74.2281 39.0285 71.3125 41.0422 69.0812C43.0316 66.88 45.7578 65.3912 47.4378 62.8937C49.0841 60.4562 49.5772 57.175 48.8985 54.3269C47.8991 50.1194 42.1822 48.715 39.0997 46.4331C37.3278 45.1206 35.751 43.0919 33.4241 42.9269C32.3516 42.8519 31.4535 43.0825 30.3903 42.8087C29.4153 42.5556 28.6503 42.0306 27.6116 42.1675C25.671 42.4225 24.4466 44.4962 22.3616 44.215C20.3835 43.9506 18.3453 41.635 17.8953 39.7506C17.3178 37.3281 19.2341 36.5425 21.2872 36.3269C22.1441 36.2369 23.106 36.1394 23.9291 36.4544C25.0128 36.8556 25.5247 37.9169 26.4978 38.4531C28.3222 39.4544 28.6916 37.855 28.4122 36.235C27.9941 33.8087 27.5066 32.8206 29.6703 31.15C31.1703 29.9987 32.4528 29.1662 32.2128 27.0981C32.0703 25.8831 31.4047 25.3337 32.0253 24.1244C32.496 23.2037 33.7878 22.3731 34.6297 21.8237C36.8028 20.4062 43.9391 20.5112 41.0235 16.5437C40.1666 15.3794 38.586 13.2981 37.086 13.0131C35.211 12.6587 34.3785 14.7512 33.0716 15.6737C31.7216 16.6281 29.0928 17.7119 27.741 16.2362C25.9222 14.2506 28.9466 13.6 29.616 12.2125C29.9253 11.5656 29.616 10.6675 29.0947 9.82186C29.771 9.53686 30.4585 9.27249 31.1572 9.02874C31.5951 9.35218 32.1146 9.54698 32.6572 9.59124C33.9116 9.67374 35.0947 8.99499 36.1897 9.84999C37.4047 10.7875 38.2803 11.9725 39.8928 12.265C41.4528 12.5481 43.1047 11.6387 43.491 10.0412C43.7253 9.06999 43.491 8.04436 43.266 7.04124C50.2785 7.08159 57.1246 9.18171 62.9535 13.0806C62.5785 12.9381 62.1303 12.955 61.5772 13.2119C60.4391 13.7406 58.8266 15.0869 58.6935 16.4219C58.5416 17.9369 60.7766 18.1506 61.8378 18.1506C63.4316 18.1506 65.046 17.4381 64.5322 15.5969C64.3091 14.7981 64.0053 13.9675 63.516 13.465C64.6924 14.2813 65.8193 15.1666 66.891 16.1162C66.8741 16.1331 66.8572 16.1481 66.8403 16.1669C65.7603 17.2919 64.506 18.1825 63.7672 19.5512C63.246 20.515 62.6591 20.9725 61.6035 21.2219C61.0222 21.3587 60.3585 21.4094 59.871 21.7994C58.5135 22.8681 59.286 25.4369 60.5722 26.2075C62.1978 27.1806 64.6091 26.7231 65.8353 25.3337C66.7935 24.2462 67.3578 22.3581 69.081 22.36C69.8396 22.3584 70.5683 22.6554 71.1097 23.1869C71.8222 23.9256 71.6816 24.6156 71.8335 25.5381C72.1016 27.1769 73.5472 26.2881 74.4266 25.4612C75.0676 26.602 75.6459 27.7769 76.1591 28.9806C75.1916 30.3737 74.4228 31.8925 72.096 30.2687C70.7028 29.2956 69.846 27.8837 68.0966 27.445C66.5685 27.07 65.0028 27.46 63.4935 27.7206C61.7778 28.0187 59.7435 28.15 58.4422 29.4494C57.1841 30.7019 56.5185 32.3781 55.1797 33.6362C52.5903 36.0737 51.4972 38.7344 53.1735 42.1806C54.786 45.4937 58.1591 47.2919 61.7985 47.0556C65.3741 46.8175 69.0885 44.7437 68.9853 49.9394C68.9478 51.7787 69.3322 53.0519 69.8966 54.76C70.4197 56.335 70.3841 57.8612 70.5041 59.4869C70.6182 61.3905 70.9158 63.2786 71.3928 65.125C68.0321 69.4521 63.7268 72.9538 58.8059 75.3628C53.885 77.7717 48.4786 79.0241 42.9997 79.0244Z" fill="url(#paint0_linear_169_1962)"/>
<defs>
<linearGradient id="paint0_linear_169_1962" x1="82.5443" y1="5.45928" x2="4.97788" y2="4.99288" gradientUnits="userSpaceOnUse">
<stop stop-color="#176EB2"/>
<stop offset="1" stop-color="#1C2E51"/>
</linearGradient>
</defs>
</svg>
