<svg width="57" height="57" viewBox="0 0 57 57" fill="none" xmlns="http://www.w3.org/2000/svg">
<path d="M56.6899 28.9401C56.3299 44.4801 43.6299 56.9501 27.8599 56.6801C12.1899 56.4201 -0.330062 43.5701 0.00993826 27.7301C0.339938 12.0501 13.2599 -0.349914 29.0299 0.0100858C44.5499 0.370086 56.9699 13.2301 56.6899 28.9401ZM23.3999 28.3001C23.6299 28.1101 23.8199 27.9801 23.9899 27.8101C27.0799 24.7201 30.1699 21.6301 33.2699 18.5401C33.7699 18.0401 34.0899 17.4801 33.9699 16.7501C33.8499 16.0101 33.4299 15.4801 32.7199 15.2401C31.9299 14.9801 31.2599 15.2001 30.6799 15.7801C27.0199 19.4401 23.3599 23.1001 19.6999 26.7601C18.6199 27.8401 18.6299 28.8301 19.7199 29.9201C23.3299 33.5301 26.9299 37.1301 30.5399 40.7401C30.6799 40.8801 30.8099 41.0301 30.9699 41.1501C31.5999 41.6401 32.2999 41.7401 33.0199 41.3701C33.7099 41.0201 34.0599 40.4301 34.0499 39.6501C34.0499 39.0301 33.7299 38.5801 33.3199 38.1601C30.0299 34.9301 26.7699 31.6701 23.3999 28.3001Z" fill="#FA7F72"/>
</svg>
