<svg width="25" height="23" viewBox="0 0 25 23" fill="none" xmlns="http://www.w3.org/2000/svg">
<path fill-rule="evenodd" clip-rule="evenodd" d="M3.96655 20.0798H20.8637C21.7516 20.0798 22.191 20.2326 22.9666 19.7653C23.4165 19.4942 24.1136 19.1885 24.4525 18.8088L0.452515 18.7836C0.452515 19.11 1.57664 19.6088 1.8761 19.7528C2.84398 20.2183 2.89685 20.0798 3.96655 20.0798Z" fill="#1AA27A"/>
<path fill-rule="evenodd" clip-rule="evenodd" d="M11.3809 22.2979C13.9226 22.2979 14.4685 22.3699 17.1615 21.848C17.5613 21.7705 20.2575 21.1616 20.2781 20.8524H4.62695C4.62695 21.1301 4.64269 21.0015 4.90746 21.0704C4.99938 21.0943 5.19369 21.1716 5.2933 21.2079C5.55866 21.3048 5.8092 21.3471 6.07548 21.4475C6.4451 21.5869 7.29534 21.7771 7.70534 21.8613C8.83209 22.0927 10.2449 22.2979 11.3809 22.2979Z" fill="#1AA27A"/>
<path fill-rule="evenodd" clip-rule="evenodd" d="M8.08787 12.9916L8.0807 13.0004C8.05004 13.0198 8.02772 15.1866 8.07693 15.3453C8.20935 15.7723 9.15506 16.1107 9.54885 16.2659C10.7929 16.7562 12.4455 16.9171 13.7537 16.6593C14.9242 16.4286 16.136 15.8982 16.6234 14.7185C17.1708 13.3935 16.7103 12.1492 15.7133 11.223C14.8953 10.4631 13.5354 9.99929 12.4999 9.62638C11.6902 9.33476 9.59093 8.4202 10.333 7.25583C10.9166 6.34024 13.2602 6.59684 14.1255 7.0537C15.5547 7.80816 15.6407 8.25955 16.6258 9.36332C16.6258 8.95878 16.6759 7.26485 16.5853 7.01139C16.4422 6.61147 15.501 6.2311 15.1129 6.09121C13.7549 5.60173 12.3038 5.54096 10.8917 5.82035C7.64217 6.46331 7.1657 9.04812 10.2094 10.596C11.2905 11.1457 12.5123 11.4322 13.5239 12.0665C14.6668 12.7831 15.2972 13.9956 14.308 15.1702C13.4913 16.14 11.5618 15.8267 10.5878 15.3016C9.35402 14.6366 8.89754 14.1013 8.08787 12.9916Z" fill="#1AA37A"/>
<path fill-rule="evenodd" clip-rule="evenodd" d="M11.8577 3.92382L12.9976 3.93051L14.6126 0.574273C14.3351 0.441705 11.5127 0.352588 11.1548 0.44322C10.8909 0.510021 10.2042 0.472446 10.3259 0.716336C10.5677 1.20086 10.8655 1.82834 11.1123 2.30164C11.2732 2.61026 11.6561 3.63559 11.8577 3.92382Z" fill="#1AA37A"/>
<path fill-rule="evenodd" clip-rule="evenodd" d="M11.3528 3.93031C11.3528 3.63041 10.4891 1.98702 10.331 1.68731C9.97726 1.01671 10.0778 0.712522 9.68442 0.709233C9.52938 0.70794 8.57832 0.966979 8.36473 1.04198C7.70141 1.27486 8.28577 1.39173 8.51244 1.861C8.66101 2.16844 9.06795 2.564 9.19612 2.82218C9.28047 2.99207 9.73064 3.58692 9.87059 3.76767C10.1239 4.09477 10.9601 3.93031 11.3528 3.93031Z" fill="#1AA37A"/>
<path fill-rule="evenodd" clip-rule="evenodd" d="M13.483 3.9241C15.0952 3.93034 14.7733 4.18498 15.5794 2.97314C15.7691 2.68798 16.8856 1.34147 16.7831 1.16671L14.9853 0.644531L15.0079 0.7352L13.483 3.9241Z" fill="#1AA37A"/>
<path fill-rule="evenodd" clip-rule="evenodd" d="M9.40888 3.93031C9.4053 3.79541 8.353 2.36536 8.20499 2.1685C7.44904 1.16276 7.77422 1.18748 6.46022 1.8539C5.98164 2.09664 5.78331 2.08253 6.31491 2.53831C6.57431 2.7607 6.81273 3.0783 7.06006 3.28846C7.31504 3.50508 7.55915 3.93921 7.91037 3.93349C8.40905 3.92539 8.90958 3.93031 9.40888 3.93031Z" fill="#1AA37A"/>
<path fill-rule="evenodd" clip-rule="evenodd" d="M15.5148 3.93035C15.9463 3.93035 16.38 3.92603 16.8112 3.93076C17.2752 3.93589 17.3049 3.76852 17.6323 3.45598C17.8505 3.24782 18.0793 2.95021 18.3087 2.83645C18.4342 2.77423 18.9291 2.29384 18.9291 2.1609C18.9198 2.07478 17.9695 1.64171 17.8403 1.57994C17.0109 1.18309 17.3355 1.42155 16.8833 1.93438C16.6777 2.16759 15.5195 3.77395 15.5148 3.93035Z" fill="#1AA37A"/>
<path fill-rule="evenodd" clip-rule="evenodd" d="M3.47742 3.93032H7.0662C7.06247 3.7655 6.40088 3.21114 6.25893 3.06782C6.09463 2.90193 5.97972 2.76415 5.84357 2.63587C5.64368 2.44751 5.58383 2.23266 5.37157 2.45882C5.30425 2.5305 4.68571 2.88523 4.38995 3.14818C4.24389 3.27805 4.09389 3.33702 3.91495 3.5205C3.80588 3.63234 3.48104 3.76203 3.47742 3.93032Z" fill="#1AA37A"/>
<path fill-rule="evenodd" clip-rule="evenodd" d="M17.8296 3.90239L21.3715 3.93032L21.4276 3.85461L19.3852 2.34143L19.352 2.38436L17.8296 3.90239Z" fill="#1AA37A"/>
</svg>
