<svg width="129" height="25" viewBox="0 0 129 25" fill="none" xmlns="http://www.w3.org/2000/svg">
<g id="Balance 2" clip-path="url(#clip0_3_5)">
<g id="&#208;&#161;&#208;&#187;&#208;&#190;&#208;&#185;_x0020_1">
<path id="Vector" fill-rule="evenodd" clip-rule="evenodd" d="M0.000779283 14.6596H12.651C15.1975 14.6596 17.0058 13.9176 17.6003 12.0268C18.2512 9.9572 17.6723 8.38277 16.2474 7.05682C15.8707 6.70625 16.1497 7.01151 15.9069 6.72472C17.6329 3.22202 16.9478 0.219635 12.5445 0.219635H-6.10352e-05L0.000685914 14.6597L0.000779283 14.6596ZM3.65215 5.829C6.15489 5.9538 10.3241 5.96265 12.8264 5.70703C13.287 4.71346 13.2895 4.40198 12.9933 3.22748C11.6777 2.58098 5.6747 2.76116 3.65215 2.90169V5.82891V5.829ZM3.65812 11.8016C5.56163 11.92 7.6656 11.8343 9.56789 11.8345C11.4353 11.8345 14.1449 12.4266 14.22 10.3617C14.3034 8.06781 11.7071 8.69284 9.78059 8.69284C7.81125 8.69312 5.62727 8.60345 3.68445 8.72571L3.65803 11.8016H3.65812Z" fill="white"/>
<path id="Vector_2" fill-rule="evenodd" clip-rule="evenodd" d="M74.8434 14.6596H78.5035L78.5026 3.95233L86.1909 12.2179C88.6358 15.1823 87.7225 14.6596 93.3371 14.6596L93.3397 0.252502H89.6885L89.6642 10.9442L79.9412 0.304399L74.8491 0.252502L74.8434 14.6596Z" fill="white"/>
<path id="Vector_3" fill-rule="evenodd" clip-rule="evenodd" d="M113.753 14.6597H128.888L128.886 11.7487L117.505 11.7472L117.41 8.7504L128.888 8.72572L128.886 6.08201L117.404 6.05224L117.404 3.25698L128.787 3.19952L128.886 0.291046H113.752L113.753 14.6597Z" fill="white"/>
<path id="Vector_4" fill-rule="evenodd" clip-rule="evenodd" d="M17.7786 14.6984H21.754L23.2389 11.6994L31.9166 11.6646L33.3752 14.6724L37.3478 14.6792C35.6878 10.8958 32.5075 5.50302 30.8084 1.82033C29.9236 -0.0971184 30.7707 0.291024 25.5211 0.291024C24.7753 0.291024 24.7183 0.968413 24.3479 1.68451C22.99 4.30826 18.203 13.3895 17.7786 14.6984ZM24.6816 8.85191L30.4281 8.87018L27.6135 3.10042C27.1826 3.53556 24.9911 8.08071 24.6816 8.85191Z" fill="white"/>
<path id="Vector_5" fill-rule="evenodd" clip-rule="evenodd" d="M54.1368 14.6984H58.1121L59.5971 11.6994L68.2748 11.6646L69.7334 14.6724L73.7059 14.6792C72.046 10.8958 68.8658 5.50302 67.1666 1.82033C66.2818 -0.097304 67.1291 0.291027 61.8761 0.291027C61.0986 0.291027 60.357 2.33911 59.7759 3.54602C58.4309 6.33949 54.8295 12.5619 54.1369 14.6984H54.1368ZM61.0398 8.85192L66.7864 8.87019L63.9718 3.10042C63.5408 3.53556 61.3492 8.08072 61.0398 8.85192Z" fill="white"/>
<path id="Vector_6" fill-rule="evenodd" clip-rule="evenodd" d="M112.334 8.44155H108.611C108.201 11.179 105.745 11.922 102.91 11.7964C100.016 11.6682 98.1068 10.5971 98.0495 7.58031C97.9908 4.48063 99.659 3.20535 102.687 3.08677C105.765 2.96621 108.22 3.51974 108.602 6.33366H112.322C111.892 1.2507 107.838 -0.128946 102.693 0.00941351C97.6776 0.144477 94.2904 2.27818 94.4149 7.58389C94.5414 12.9646 97.779 14.6255 102.905 14.8635C107.96 15.098 111.905 13.2864 112.334 8.44164V8.44155Z" fill="white"/>
<path id="Vector_7" fill-rule="evenodd" clip-rule="evenodd" d="M38.2726 14.6596H52.9692L52.9801 11.5873H42.7634L41.9803 11.5693L41.9127 10.8008L41.924 0.252502H38.2719L38.2726 14.6596Z" fill="white"/>
<path id="Vector_8" fill-rule="evenodd" clip-rule="evenodd" d="M99.5506 24.8151H101.068V21.8124C105.854 21.8124 102.454 25.472 105.781 24.8857C105.982 23.1712 105.589 24.7077 105.065 23.2589C104.734 22.3429 105.129 21.9099 104.282 21.6229C105.101 21.2938 105.403 21.1655 105.525 20.0158C105.867 16.7773 102.229 17.3751 99.5505 17.3751V24.8152L99.5506 24.8151ZM101.024 20.9015L101.056 18.2869C101.392 18.2768 103.418 18.2159 104.024 18.5509C104.629 18.8858 104.413 20.3115 104.271 20.5187C104.129 20.7259 103.578 20.9256 102.636 20.9028C101.694 20.88 101.264 20.8881 101.024 20.9016L101.024 20.9015Z" fill="white"/>
<path id="Vector_9" fill-rule="evenodd" clip-rule="evenodd" d="M123.167 24.8151H124.669V22.2413C126.97 22.2413 129.509 22.3046 128.911 19.1737C128.475 16.8873 125.438 17.3751 123.167 17.3751V24.8151H123.167ZM124.619 20.9015L124.651 18.2869C124.987 18.2768 127.014 18.2159 127.619 18.5509C128.224 18.8858 128.009 20.3115 127.866 20.5187C127.724 20.7259 127.173 20.9256 126.231 20.9028C125.289 20.88 124.859 20.8881 124.619 20.9016L124.619 20.9015Z" fill="white"/>
<path id="Vector_10" fill-rule="evenodd" clip-rule="evenodd" d="M94.191 24.812C95.5855 24.812 96.3688 24.7616 96.8811 23.5632C96.9246 23.608 96.9693 23.6283 96.9861 23.719L97.346 24.3277C97.7031 24.7607 96.9356 24.6926 98.301 24.7406V21.2391H95.407L95.4085 22.1668H97.0599C95.9738 25.0268 90.9958 23.6394 92.3867 19.9201C92.9646 18.3756 95.628 18.4635 96.4108 19.2834C97.3156 20.2313 96.3176 20.076 98.1124 20.0219C97.6101 16.5482 93.1587 17.1218 91.745 18.625C89.7675 20.7282 91.0268 24.812 94.191 24.812Z" fill="white"/>
<path id="Vector_11" fill-rule="evenodd" clip-rule="evenodd" d="M115.359 21.5241C115.359 24.0969 116.651 24.8121 118.855 24.8121C122.534 24.8121 121.869 21.2893 121.869 17.4499H120.463L120.462 21.3096C120.462 24.6365 116.766 24.5208 116.766 21.3096V17.4499H115.359V21.5241H115.359Z" fill="white"/>
<path id="Vector_12" fill-rule="evenodd" clip-rule="evenodd" d="M110.851 17.4498C112.936 17.4498 114.627 19.14 114.627 21.2249C114.627 23.3097 112.936 25 110.851 25C108.765 25 107.075 23.3098 107.075 21.2249C107.075 19.1401 108.766 17.4498 110.851 17.4498ZM110.851 18.7111C112.239 18.7111 113.365 19.8367 113.365 21.2248C113.365 22.613 112.239 23.7386 110.851 23.7386C109.462 23.7386 108.336 22.6129 108.336 21.2248C108.336 19.8366 109.462 18.7111 110.851 18.7111Z" fill="white"/>
</g>
</g>
<defs>
<clipPath id="clip0_3_5">
<rect width="129" height="25" fill="white"/>
</clipPath>
</defs>
</svg>
