<svg width="52" height="52" viewBox="0 0 52 52" fill="none" xmlns="http://www.w3.org/2000/svg">
<g id="icon/navigation/arrow_downward_24px">
<path id="icon/navigation/arrow_downward_24px_2" d="M19.7208 34.4351L31.8216 22.3343L31.8216 32.9076C31.8216 33.7526 32.5149 34.4459 33.3599 34.4459C34.2049 34.4459 34.8874 33.7634 34.8874 32.9184L34.8874 18.6401C34.8874 17.7951 34.2049 17.1126 33.3599 17.1126L19.0816 17.1126C18.2366 17.1126 17.5541 17.7951 17.5541 18.6401C17.5536 19.0454 17.7144 19.4342 18.001 19.7207C18.2875 20.0073 18.6763 20.1681 19.0816 20.1676L29.6549 20.1676L17.5541 32.2684C16.9583 32.8643 16.9583 33.8393 17.5541 34.4351C18.1499 35.0309 19.1249 35.0309 19.7208 34.4351Z" fill="black"/>
</g>
</svg>
