<svg width="263" height="148" viewBox="0 0 263 148" fill="none" xmlns="http://www.w3.org/2000/svg">
<g filter="url(#filter0_d_205_110)">
<rect x="24.0027" y="16" width="214.799" height="99.9834" rx="8" fill="#C63033"/>
<g filter="url(#filter1_d_205_110)">
<rect width="214.4" height="99.7539" rx="8" transform="matrix(0.999999 0.00107439 -0.00400021 0.999992 24.4017 16)" fill="#C63033"/>
</g>
<path d="M60.99 58.7298C60.8342 58.946 60.7927 59.2253 60.8701 59.4789L64.3632 70.3757C64.4769 70.7219 64.7989 70.9577 65.1637 70.9577H77.4574C77.5707 70.9577 77.6781 70.9335 77.7801 70.8889L78.5561 73.0534H65.1637C64.7751 73.0534 64.4649 73.3668 64.4649 73.7489C64.4649 74.1401 64.7751 74.4507 65.1637 74.4507H65.9457C65.5454 74.8952 65.3009 75.4833 65.3009 76.1251C65.3009 77.5137 66.4291 78.6422 67.8147 78.6422C69.2051 78.6422 70.3311 77.5137 70.3311 76.1251C70.3311 75.4833 70.0831 74.8952 69.6832 74.4507H75.1673C74.7675 74.8952 74.5225 75.4833 74.5225 76.1251C74.5225 77.5137 75.6485 78.6422 77.0367 78.6422C78.4253 78.6422 79.5531 77.5137 79.5531 76.1251C79.5531 75.4833 79.3082 74.8952 78.9019 74.4507H79.5531C79.7799 74.4507 79.9923 74.34 80.1231 74.1548C80.2546 73.9666 80.2852 73.7315 80.2073 73.5161L78.9499 70.0196C78.8781 69.8171 78.7144 69.6712 78.5205 69.6024L82.8734 57.0683L86.4228 55.6729C86.8559 55.504 87.0645 55.0175 86.8971 54.5874C86.7274 54.1562 86.2406 53.9457 85.8105 54.1142L81.8964 55.6502C81.6727 55.7398 81.4935 55.9235 81.416 56.1533L76.8606 69.2826H65.7722L65.1932 67.465H75.0574C75.5204 67.465 75.896 67.0905 75.896 66.6279C75.896 66.1649 75.5204 65.79 75.0574 65.79H64.6557L63.9629 63.6243H76.0366C76.4962 63.6243 76.8723 63.2482 76.8723 62.7856C76.8723 62.3241 76.4962 61.9496 76.0366 61.9496H63.4232L62.82 60.0613H77.8754C78.3346 60.0613 78.7118 59.6864 78.7118 59.2253C78.7118 58.7593 78.3346 58.3847 77.8754 58.3847H61.6706C61.4015 58.3847 61.1506 58.5132 60.99 58.7298ZM77.0367 77.245C76.4184 77.245 75.9168 76.743 75.9168 76.1251C75.9168 75.5102 76.4184 75.0086 77.0367 75.0086C77.6516 75.0086 78.1562 75.5102 78.1562 76.1251C78.1562 76.743 77.6516 77.245 77.0367 77.245ZM67.8147 77.245C67.1993 77.245 66.6982 76.743 66.6982 76.1251C66.6982 75.5102 67.1993 75.0086 67.8147 75.0086C68.4326 75.0086 68.9311 75.5102 68.9311 76.1251C68.9311 76.743 68.4326 77.245 67.8147 77.245Z" fill="white"/>
<path d="M86.7599 73.1425C84.2193 78.4388 78.8066 82.0992 72.5557 82.0992C63.8673 82.0992 56.7977 75.0326 56.7977 66.3484C56.7977 57.6623 63.8673 50.5957 72.5557 50.5957C76.3023 50.5957 79.7504 51.914 82.455 54.108L84.1475 53.444C80.9598 50.5719 76.8783 49 72.5557 49C67.9186 49 63.563 50.8047 60.2854 54.0812C57.0105 57.3577 55.2039 61.7155 55.2039 66.3484C55.2039 70.9844 57.0105 75.3373 60.2854 78.6149C63.563 81.8902 67.9186 83.6964 72.5557 83.6964C77.1886 83.6964 81.5415 81.8902 84.8195 78.6149C86.4171 77.0177 87.6643 75.1612 88.5215 73.1425H86.7599Z" fill="white"/>
<path fill-rule="evenodd" clip-rule="evenodd" d="M86.9175 57.9837H91.7058V70.6322H86.9175V57.9837ZM94.1659 61.0908H99.241L96.6679 65.387L99.7603 70.6322H94.6734L92.0047 65.387L94.1659 61.0908ZM103.939 60.9298C104.758 60.7612 105.51 60.6822 106.185 60.6822C107.737 60.6822 109.027 61.0557 110.048 61.8089C111.068 62.5629 111.707 63.481 111.952 64.5691C112.036 64.9425 112.078 65.3363 112.078 65.7559C112.078 66.5156 111.907 67.2397 111.564 67.9325C111.22 68.62 110.704 69.2085 110.012 69.6949C109.319 70.1722 108.484 70.4856 107.492 70.6322C106.618 70.743 106.011 70.7989 105.671 70.7989C104.462 70.7989 103.417 70.5665 102.53 70.0978C101.644 69.6291 100.972 69.0172 100.512 68.256C100.053 67.4949 99.8257 66.6917 99.8257 65.8379C99.8257 64.7838 100.181 63.8019 100.889 62.8914C101.605 61.9775 102.617 61.321 103.939 60.9298ZM104.572 65.8379C104.554 66.2706 104.701 66.68 104.955 67.0666C105.214 67.4786 105.555 67.6853 105.975 67.6853C106.292 67.6853 106.585 67.5368 106.862 67.2363C107.143 66.9154 107.283 66.4827 107.283 65.9275C107.283 65.4365 107.163 64.9947 106.925 64.6122C106.683 64.2301 106.381 64.0532 106.017 64.0407C105.433 64.0203 104.633 64.365 104.572 65.8379ZM133.613 57.6133H138.226V60.3118H133.613V57.6133ZM138.226 61.0908V70.6322H133.613V61.0908H138.226ZM139.739 61.0908H144.36V61.9495C144.719 61.5852 145.22 61.2881 145.866 61.0625C146.51 60.8342 147.179 60.7208 147.877 60.7208C148.391 60.7208 148.89 60.7869 149.361 60.9166C149.839 61.0432 150.266 61.2431 150.645 61.5088C151.021 61.7791 151.323 62.1241 151.544 62.5508C151.77 62.9764 151.89 63.4886 151.896 64.0793V70.6322H147.108V65.678C147.108 65.3258 147.003 65.0468 146.802 64.8378C146.6 64.6334 146.349 64.5272 146.053 64.5272C145.674 64.5272 145.333 64.6987 145.023 65.0408C144.722 65.3844 144.558 65.8723 144.527 66.4978V70.6322H139.739V61.0908ZM153.347 57.9837H158.136V70.6322H153.347V57.9837ZM160.596 61.0908H165.67L163.097 65.387L166.19 70.6322H161.102L158.436 65.387L160.596 61.0908ZM167.934 61.4986C169.877 61.1747 171.486 61.0118 172.764 61.0118C175.773 61.0118 177.349 61.7896 177.504 63.3479V70.6322H172.889V66.9052C172.817 66.974 172.644 67.053 172.351 67.1471C172.071 67.2397 171.838 67.3112 171.656 67.3565C171.265 67.4828 171.068 67.6725 171.068 67.9246C171.068 68.041 171.145 68.1574 171.295 68.281C171.45 68.4038 171.614 68.4665 171.791 68.4665C171.972 68.4665 172.184 68.3951 172.423 68.256L171.791 70.7989C171.325 70.8828 170.826 70.9247 170.304 70.9247C169.115 70.9247 168.181 70.6496 167.498 70.1069C166.817 69.563 166.453 68.8914 166.411 68.0946C166.441 67.3769 166.602 66.807 166.904 66.3901C167.205 65.9736 167.599 65.6633 168.095 65.4558C168.591 65.2528 169.205 65.0858 169.951 64.9675C170.704 64.8454 171.373 64.7422 171.957 64.6576C172.193 64.6379 172.39 64.5691 172.557 64.4557C172.722 64.3435 172.805 64.2301 172.805 64.1197C172.805 63.9855 172.712 63.8687 172.525 63.7705C172.331 63.6767 172.047 63.6272 171.656 63.6272C170.62 63.6272 169.283 63.9285 167.635 64.5272L167.934 61.4986ZM178.976 66.7453H183.122V70.6322H178.976V66.7453ZM184.571 61.0908H189.36V66.008C189.36 66.5008 189.476 66.9026 189.706 67.2159C189.939 67.5292 190.193 67.6853 190.468 67.6853C190.751 67.6853 191.005 67.5394 191.232 67.2424C191.456 66.9457 191.566 66.5352 191.566 66.008V61.0908H196.138V70.6322H191.65V69.7365C191.429 70.0649 190.969 70.3605 190.259 70.6171C189.548 70.8737 188.814 71.0023 188.05 71.0023C187.07 71.0023 186.247 70.7577 185.575 70.2709C184.906 69.7811 184.571 69.0112 184.571 67.965V61.0908ZM197.816 61.1003H206.756V64.6576L202.893 67.6853H206.756V70.6322H197.639V67.2363L201.323 64.2078H197.806L197.816 61.1003Z" fill="white"/>
<path fill-rule="evenodd" clip-rule="evenodd" d="M113.726 61.0846H118.226V61.8234C118.255 61.8023 118.398 61.704 118.67 61.5188C118.935 61.3351 119.151 61.1995 119.3 61.1144C119.455 61.029 119.622 60.9515 119.817 60.8933C120.007 60.8351 120.214 60.8037 120.423 60.8037C120.733 60.8037 121.017 60.8457 121.273 60.9231L121.598 64.8119C121.237 64.7326 120.847 64.6925 120.423 64.6925C119.228 64.6925 118.59 65.2908 118.517 66.4912V70.6252H113.726V61.0846Z" fill="white"/>
<path fill-rule="evenodd" clip-rule="evenodd" d="M132.134 61.0938H122.94L123.199 64.2013H126.7L123.017 67.2302V70.6253H132.134V67.6792H128.27L132.134 64.6506V61.0938Z" fill="white"/>
</g>
<defs>
<filter id="filter0_d_205_110" x="0.00268555" y="0" width="262.799" height="147.983" filterUnits="userSpaceOnUse" color-interpolation-filters="sRGB">
<feFlood flood-opacity="0" result="BackgroundImageFix"/>
<feColorMatrix in="SourceAlpha" type="matrix" values="0 0 0 0 0 0 0 0 0 0 0 0 0 0 0 0 0 0 127 0" result="hardAlpha"/>
<feOffset dy="8"/>
<feGaussianBlur stdDeviation="12"/>
<feColorMatrix type="matrix" values="0 0 0 0 0.584314 0 0 0 0 0.615686 0 0 0 0 0.647059 0 0 0 0.16 0"/>
<feBlend mode="normal" in2="BackgroundImageFix" result="effect1_dropShadow_205_110"/>
<feBlend mode="normal" in="SourceGraphic" in2="effect1_dropShadow_205_110" result="shape"/>
</filter>
<filter id="filter1_d_205_110" x="0.0604248" y="0.0161133" width="262.683" height="147.951" filterUnits="userSpaceOnUse" color-interpolation-filters="sRGB">
<feFlood flood-opacity="0" result="BackgroundImageFix"/>
<feColorMatrix in="SourceAlpha" type="matrix" values="0 0 0 0 0 0 0 0 0 0 0 0 0 0 0 0 0 0 127 0" result="hardAlpha"/>
<feOffset dy="8"/>
<feGaussianBlur stdDeviation="12"/>
<feColorMatrix type="matrix" values="0 0 0 0 0.584314 0 0 0 0 0.615686 0 0 0 0 0.647059 0 0 0 0.16 0"/>
<feBlend mode="normal" in2="BackgroundImageFix" result="effect1_dropShadow_205_110"/>
<feBlend mode="normal" in="SourceGraphic" in2="effect1_dropShadow_205_110" result="shape"/>
</filter>
</defs>
</svg>
