<svg width="216" height="100" viewBox="0 0 216 100" fill="none" xmlns="http://www.w3.org/2000/svg">
<g clip-path="url(#clip0_205_1636)">
<rect x="0.600525" width="214.799" height="99.9834" rx="8" fill="#C63033"/>
<rect width="214.4" height="99.7539" rx="8" transform="matrix(0.999999 0.00107439 -0.00400021 0.999992 0.999573 0)" fill="#373535"/>
<path d="M87.2717 69.4973H84.4457V67.2722C84.4457 66.6241 84.4159 66.2219 84.3565 66.0598C84.2972 65.9003 84.1646 65.8194 83.9612 65.8194C83.7326 65.8194 83.5863 65.9165 83.5243 66.1111C83.4627 66.3081 83.4306 66.7295 83.4306 67.3777V73.3236C83.4306 73.9476 83.4627 74.3524 83.5243 74.5444C83.5863 74.7334 83.7257 74.8279 83.9404 74.8279C84.1487 74.8279 84.2859 74.7334 84.3497 74.5414C84.4136 74.3524 84.4457 73.9042 84.4457 73.1997V71.5873H87.2717V72.087C87.2717 73.4155 87.1916 74.3581 87.0336 74.9114C86.876 75.4678 86.5241 75.9538 85.9821 76.3726C85.4379 76.791 84.7704 76.9988 83.9748 76.9988C83.1494 76.9988 82.4683 76.8235 81.9308 76.4697C81.396 76.1159 81.0393 75.6272 80.8654 75.0006C80.6919 74.3743 80.605 73.4344 80.605 72.1788V68.436C80.605 67.5126 80.6322 66.8213 80.6851 66.3595C80.7399 65.8976 80.8975 65.452 81.1651 65.0253C81.4304 64.599 81.7982 64.2615 82.2695 64.0154C82.7404 63.7698 83.282 63.6484 83.8947 63.6484C84.7247 63.6484 85.4106 63.8374 85.9523 64.218C86.492 64.5959 86.8461 65.0688 87.0177 65.6357C87.187 66.203 87.2717 67.0832 87.2717 68.2795V69.4973ZM94.7567 63.9077V76.7233H91.9307V71.3443H91.1079V76.7233H88.282V63.9077H91.1079V68.4927H91.9307V63.9077H94.7567ZM98.7233 63.9077V76.7233H95.8973V63.9077H98.7233ZM106.435 69.4973H103.609V67.2722C103.609 66.6241 103.579 66.2219 103.52 66.0598C103.46 65.9003 103.328 65.8194 103.124 65.8194C102.896 65.8194 102.749 65.9165 102.688 66.1111C102.626 66.3081 102.594 66.7295 102.594 67.3777V73.3236C102.594 73.9476 102.626 74.3524 102.688 74.5444C102.749 74.7334 102.889 74.8279 103.103 74.8279C103.312 74.8279 103.449 74.7334 103.513 74.5414C103.577 74.3524 103.609 73.9042 103.609 73.1997V71.5873H106.435V72.087C106.435 73.4155 106.355 74.3581 106.197 74.9114C106.039 75.4678 105.687 75.9538 105.145 76.3726C104.601 76.791 103.933 76.9988 103.138 76.9988C102.312 76.9988 101.631 76.8235 101.094 76.4697C100.559 76.1159 100.202 75.6272 100.029 75.0006C99.8549 74.3743 99.7679 73.4344 99.7679 72.1788V68.436C99.7679 67.5126 99.7955 66.8213 99.8481 66.3595C99.9029 65.8976 100.06 65.452 100.328 65.0253C100.593 64.599 100.962 64.2615 101.432 64.0154C101.903 63.7698 102.445 63.6484 103.058 63.6484C103.888 63.6484 104.574 63.8374 105.115 64.218C105.655 64.5959 106.009 65.0688 106.181 65.6357C106.35 66.203 106.435 67.0832 106.435 68.2795V69.4973ZM114.173 63.9077L112.562 69.6945L114.324 76.7233H111.416L110.271 71.2309V76.7233H107.445V63.9077H110.271V68.8868L111.54 63.9077H114.173Z" fill="#FFF215"/>
<path d="M115.244 63.8958H119.997V66.4451H118.057V68.8814H119.779V71.3014H118.057V76.6582H115.244V63.8958ZM123.494 63.8958V76.6582H120.68V63.8958H123.494ZM130.559 67.768H127.95V66.8242C127.95 66.3831 127.916 66.1008 127.849 65.9799C127.784 65.8589 127.674 65.7996 127.519 65.7996C127.351 65.7996 127.224 65.8805 127.137 66.0445C127.05 66.2055 127.007 66.4504 127.007 66.7811C127.007 67.2059 127.057 67.5261 127.155 67.7411C127.251 67.9535 127.515 68.2143 127.95 68.5209C129.195 69.4003 129.981 70.1237 130.304 70.6857C130.629 71.2478 130.791 72.1541 130.791 73.4017C130.791 74.3107 130.7 74.98 130.52 75.4132C130.34 75.8433 129.994 76.2039 129.477 76.4941C128.963 76.7874 128.364 76.9326 127.679 76.9326C126.928 76.9326 126.288 76.7632 125.755 76.4269C125.225 76.0909 124.878 75.6634 124.712 75.1441C124.548 74.6225 124.466 73.8833 124.466 72.9285V72.0921H127.075V73.6436C127.075 74.1225 127.112 74.429 127.185 74.5662C127.258 74.7034 127.388 74.7703 127.574 74.7703C127.761 74.7703 127.9 74.6845 127.991 74.5095C128.082 74.3376 128.127 74.0794 128.127 73.7404C128.127 72.9901 128.041 72.498 127.868 72.2697C127.688 72.0384 127.251 71.6511 126.554 71.1079C125.858 70.5622 125.398 70.1642 125.17 69.9166C124.944 69.6694 124.755 69.3278 124.608 68.892C124.46 68.4566 124.384 67.8999 124.384 67.2222C124.384 66.2459 124.489 65.5309 124.701 65.0788C124.913 64.6272 125.252 64.2749 125.723 64.0194C126.194 63.7639 126.761 63.6377 127.428 63.6377C128.157 63.6377 128.776 63.7775 129.291 64.0546C129.803 64.3339 130.142 64.6835 130.308 65.1087C130.475 65.5309 130.559 66.2486 130.559 67.2626V67.768ZM138.129 63.8958V76.6582H135.315V71.3014H134.495V76.6582H131.681V63.8958H134.495V68.4619H135.315V63.8958H138.129Z" fill="#FFF215"/>
<path fill-rule="evenodd" clip-rule="evenodd" d="M71.0602 60.8351C70.5106 61.1295 70.2173 61.7796 70 62.1545C87.8518 60.2258 127.43 60.2349 145.282 62.1545C145.005 61.8189 144.79 61.1575 144.196 60.8725C133.059 58.6244 119.239 58.022 107.641 58.022C96.1022 58.022 82.1822 58.59 71.0602 60.8351Z" fill="#FFF215"/>
<path fill-rule="evenodd" clip-rule="evenodd" d="M75.6099 32.173L76.5439 32.8189C76.8307 32.5498 77.2162 32.3846 77.6407 32.3846C78.2019 32.3846 78.6997 32.7093 78.9884 33.1466C79.1547 33.399 79.2398 33.7018 79.2428 33.9867C79.247 34.4187 79.0595 34.7899 78.7938 35.0805C78.5273 35.3723 78.1815 35.5832 77.6407 35.5885C77.0265 35.5942 76.559 35.2582 76.2993 34.8587C76.102 34.5559 76.0389 34.2101 76.0389 33.9867C76.0389 33.4682 76.1224 33.4689 76.1621 33.3295L75.2108 32.732C74.7384 33.5151 74.4485 34.4732 74.2028 35.0314C73.7954 35.5794 71.6078 37.2164 70.7789 38.0709C72.7624 38.4383 75.461 38.128 76.9343 38.6095C79.6385 39.4931 80.2017 41.1682 82.0892 42.5719C83.4948 43.6174 85.2175 43.7693 86.3597 42.1872C86.3597 45.2195 83.079 44.4866 81.2815 43.6491C80.498 50.5517 78.9956 50.6979 77.2064 53.9063C84.1441 51.5317 87.7849 38.769 95.1803 44.6382C94.6663 41.833 94.3579 39.0804 90.8524 35.0492C88.3987 32.227 84.9314 30.0088 81.3722 30.0625C78.2828 30.109 76.5631 31.0663 75.6099 32.173Z" fill="#FFF215"/>
<path fill-rule="evenodd" clip-rule="evenodd" d="M78.7039 29.684C79.078 29.8858 80.9644 29.3355 81.4739 29.2221C83.3761 28.6011 84.7303 27.5761 85.5902 25.9135C86.5812 24.3261 86.2966 22.199 84.095 22.021C79.1071 21.6173 82.2921 27.1437 78.7039 29.684Z" fill="#FFF215"/>
<path fill-rule="evenodd" clip-rule="evenodd" d="M73.8948 31.9919C73.9587 32.142 74.4421 32.8609 74.4421 32.8609C74.9081 30.4922 77.2816 30.6804 78.3962 29.1452C78.917 28.4275 79.0293 26.9648 78.473 26.1828C75.915 22.5866 72.1385 27.8432 73.8948 31.9919Z" fill="#FFF215"/>
<path fill-rule="evenodd" clip-rule="evenodd" d="M83.8206 29.8376C85.4344 29.5001 86.9984 30.6615 88.3602 31.4919C89.8051 32.3725 91.9764 32.0139 92.6688 30.4147C93.2222 29.1373 92.3563 27.7075 91.6302 27.1829C87.7736 24.3962 83.4003 29.2662 83.8206 29.8376Z" fill="#FFF215"/>
<path fill-rule="evenodd" clip-rule="evenodd" d="M77.0651 54.6718C82.9706 57.3208 91.8317 43.5569 96.759 48.312C92.1616 36.9787 82.7385 53.9707 77.0651 54.6718Z" fill="#FFF215"/>
<path fill-rule="evenodd" clip-rule="evenodd" d="M76.6138 55.9296C76.6138 55.9296 79.3684 58.9397 87.8413 55.2796C96.3142 51.6187 96.8305 51.6187 98.5517 52.6074C94.3013 40.0462 85.8468 57.9399 76.6138 55.9296Z" fill="#FFF215"/>
<path fill-rule="evenodd" clip-rule="evenodd" d="M74.1859 39.8685C74.5105 40.0529 75.1519 40.2203 75.1474 40.909C74.3064 42.1365 72.1256 46.9936 74.3779 47.5643C76.0272 47.9823 78.586 45.65 79.1484 44.1019C79.3782 43.47 79.4164 42.403 79.1484 41.7552C78.1464 39.3352 74.4149 38.9107 74.0335 39.5476C73.9436 39.6976 74.0592 39.7963 74.1859 39.8685Z" fill="#FFF215"/>
<path fill-rule="evenodd" clip-rule="evenodd" d="M136.52 34.7422L138.855 36.9083C140.321 36.5212 141.762 38.4835 140.935 39.8555C140.935 39.8555 143.248 41.9108 142.418 45.992L144.247 44.6911C142.9 43.0564 144.535 43.4718 145.282 42.0518C143.829 38.3902 140.161 35.4811 136.52 34.7422Z" fill="#FFF215"/>
<path fill-rule="evenodd" clip-rule="evenodd" d="M130.929 30.9946C130.929 30.9946 130.844 34.7148 134.911 38.2732C138.977 41.8313 140.654 47.0009 138.776 49.6077C138.776 49.6077 144.509 47.583 140.377 40.2454C138.304 42.255 135.699 38.9297 137.869 37.2788C136.156 34.8769 133.255 35.3649 130.929 30.9946Z" fill="#FFF215"/>
<path fill-rule="evenodd" clip-rule="evenodd" d="M129.585 30.6064C126.317 36.5093 139.614 47.0421 134.277 51.7268C146.332 48.0078 129.776 36.5841 129.585 30.6064Z" fill="#FFF215"/>
<path fill-rule="evenodd" clip-rule="evenodd" d="M128.335 30.0176C128.335 30.0176 124.991 32.6031 127.958 41.7768C130.925 50.9509 130.878 51.4887 129.703 53.1887C142.986 49.947 125.414 39.4475 128.335 30.0176Z" fill="#FFF215"/>
<path fill-rule="evenodd" clip-rule="evenodd" d="M133.079 27.5399C133.079 27.5399 127.846 28.5532 126.416 31.61C124.986 34.6669 125.21 37.3992 126.083 40.3245C126.957 43.2495 130.148 50.2424 129.263 52.3011C128.377 54.3602 123.047 57.0954 118.954 55.2646C118.954 55.2646 121.353 54.8795 122.215 54.305C122.215 54.305 119.99 54.7249 118.585 54.5919C118.401 54.4864 121.599 54.2895 122.223 52.8397C122.223 52.8397 119.564 54.0503 118.196 53.9648C118.196 53.9648 121.012 52.9629 121.576 51.4858C118.516 49.5787 117.081 46.5501 116.018 44.5077C115.242 43.0174 114.031 42.3564 112.644 43.4778C111.269 44.5897 109.05 46.0804 105.608 45.7542C110.934 44.6574 113.654 40.5645 111.284 38.0046C112.572 40.5192 108.51 43.5227 106.87 43.9279C106.87 43.9279 109.735 42.5216 110.072 39.88C110.05 33.349 102.592 37.062 100.68 33.284C101.952 33.4046 102.271 33.1166 103.864 33.0825C104.212 33.1593 103.089 32.2768 101.223 32.1656C99.3579 32.0549 96.6812 30.4675 96.4983 29.204C98.9361 30.785 101.343 30.1001 103.906 31.2608C103.906 31.2608 103.163 30.7615 102.886 30.2698C102.886 30.2698 103.269 30.4354 104.591 30.8008C105.914 31.1667 108.925 32.5013 110.534 34.1404C112.144 35.7796 113.635 38.7851 114.113 39.2897C114.591 39.7939 115.953 40.6662 116.924 39.315C117.894 37.9638 115.66 37.2933 115.66 37.2933C115.66 37.2933 116.82 36.1568 117.773 35.9845L116.221 35.6364C117.472 34.5207 120.17 35.4977 120.287 34.1337C120.377 33.0931 118.606 34.1427 117.236 34.23C120.657 32.5224 117.885 32.0439 117.249 32.0209C117.249 32.0209 118.149 31.2537 119.339 31.3444C120.529 31.4351 121.552 31.8928 122.101 31.934C122.65 31.9748 123.512 32.002 123.636 31.1607C123.868 29.5929 119.439 30.8587 118.878 29.4395C118.971 28.6526 120.784 29.2641 121.919 28.9648C121.528 28.67 121.237 27.8267 120.496 27.0599C120.496 27.0599 121.257 27.3142 122.122 27.9345L122.568 26.1524C123.075 27.3192 123.19 29.4463 124.527 29.3831C125.063 29.3578 125.268 28.4137 125.275 27.97C125.291 26.9752 125.52 25.4902 125.52 25.4902C125.52 25.4902 125.501 26.5598 125.925 26.7201C126.226 26.8342 126.512 26.4503 126.71 25.8943C126.714 25.8818 126.716 25.8682 126.723 25.8576L126.77 25.7816L126.773 25.8731C126.774 25.892 126.77 25.9109 126.769 25.9306C126.734 26.3667 126.772 26.8735 127.066 27.1343C127.463 27.4851 128.044 27.2277 128.641 26.8679C129.293 26.4737 129.032 26.4676 128.86 27.0614C128.803 27.2591 128.73 27.4416 128.735 27.5985C128.752 28.125 130.839 26.6389 133.079 27.5399Z" fill="#FFF215"/>
<path fill-rule="evenodd" clip-rule="evenodd" d="M139.082 37.3076C139.893 37.3076 140.551 37.9982 140.551 38.8497C140.551 39.7012 139.893 40.3913 139.082 40.3913C138.27 40.3913 137.612 39.7012 137.612 38.8497C137.612 37.9982 138.27 37.3076 139.082 37.3076Z" fill="#FFF215"/>
<path fill-rule="evenodd" clip-rule="evenodd" d="M77.6339 32.8711C78.2507 32.8711 78.7504 33.3711 78.7504 33.9876C78.7504 34.604 78.2507 35.104 77.6339 35.104C77.0175 35.104 76.5175 34.604 76.5175 33.9876C76.5175 33.3711 77.0175 32.8711 77.6339 32.8711Z" fill="#FFF215"/>
</g>
<defs>
<clipPath id="clip0_205_1636">
<rect x="0.600525" width="214.799" height="99.9834" rx="8" fill="white"/>
</clipPath>
</defs>
</svg>
