<svg width="215" height="100" viewBox="0 0 215 100" fill="none" xmlns="http://www.w3.org/2000/svg">
<g clip-path="url(#clip0_205_1682)">
<rect x="0.198364" width="214.799" height="99.9834" rx="8" fill="#817453"/>
<rect width="214.4" height="99.7539" rx="8" transform="matrix(0.999999 0.00107439 -0.00400021 0.999992 0.597412 0)" fill="#817453"/>
<path d="M53.8153 36.873V64.6424H74.1303V61.3753H57.0827V57.2009C58.4082 58.1767 60.044 58.755 61.8132 58.755H68.06V49.1274H61.7474V52.3944H64.793V55.4883H61.8132C59.2045 55.4883 57.0827 53.3657 57.0827 50.7575C57.0827 48.1492 59.2045 46.0274 61.8132 46.0274H64.7423V42.7604H61.8132C60.044 42.7604 58.4082 43.3387 57.0827 44.3146V40.14H78.318V49.124H74.1303V42.7604H67.8188V46.0274H70.8632V58.755H74.1303V52.3914H78.318V64.6424H81.585V36.873H53.8153Z" fill="white"/>
<path d="M99.5446 64.6404H96.9866V60.4946H92.3109V64.6404H89.7526V54.0547H92.3109V58.4832H96.9866V54.0547H99.5446V64.6404Z" fill="white"/>
<path d="M102.072 59.3475C102.072 56.3133 104.206 53.8252 107.717 53.8252C111.263 53.8252 113.398 56.3133 113.398 59.3475C113.398 62.3821 111.263 64.8701 107.717 64.8701C104.206 64.8701 102.072 62.3821 102.072 59.3475ZM110.752 59.3475C110.752 57.5129 109.428 56.2955 107.717 56.2955C106.041 56.2955 104.718 57.5129 104.718 59.3475C104.718 61.1825 106.041 62.3999 107.717 62.3999C109.428 62.3999 110.752 61.1825 110.752 59.3475Z" fill="white"/>
<path d="M116.009 60.0709V54.0547H118.567V60.0709C118.567 61.2883 119.326 62.3999 120.878 62.3999C122.467 62.3999 123.172 61.3061 123.172 60.0709V54.0547H125.731V60.0709C125.731 62.8058 123.913 64.8702 120.878 64.8702C117.897 64.8702 116.009 62.8058 116.009 60.0709Z" fill="white"/>
<path d="M130.037 61.5003C130.037 61.5003 131.572 62.5234 133.124 62.5234C134.095 62.5234 134.447 62.1179 134.447 61.6413C134.447 61.0944 134.077 60.812 132.471 60.3709C130.143 59.7182 128.82 58.8535 128.82 57.107C128.82 55.1839 130.196 53.8252 133.071 53.8252C136.036 53.8252 137.2 54.9546 137.2 54.9546L135.824 57.0367C135.824 57.0367 134.677 56.1546 133.071 56.1546C132.066 56.1546 131.766 56.4894 131.766 56.9305C131.766 57.46 132.26 57.6717 133.601 58.0247C136.088 58.677 137.447 59.5946 137.447 61.3589C137.447 63.282 136.106 64.8701 133.195 64.8701C130.178 64.8701 128.643 63.4585 128.643 63.4585L130.037 61.5003Z" fill="white"/>
<path d="M147.434 60.3533H142.776V62.4354H148.634V64.6404H140.218V54.0547H148.634V56.26H142.776V58.3418H147.434V60.3533Z" fill="white"/>
<path d="M102.072 42.1653C102.072 39.1303 104.206 36.6431 107.717 36.6431C111.263 36.6431 113.398 39.1303 113.398 42.1653C113.398 45.1999 111.263 47.6876 107.717 47.6876C104.206 47.6876 102.072 45.1999 102.072 42.1653ZM110.752 42.1653C110.752 40.3303 109.428 39.1126 107.717 39.1126C106.041 39.1126 104.718 40.3303 104.718 42.1653C104.718 43.9999 106.041 45.2173 107.717 45.2173C109.428 45.2173 110.752 43.9999 110.752 42.1653Z" fill="white"/>
<path d="M116.009 47.4581V36.8721H118.567V45.2527H124.294V47.4581H116.009Z" fill="white"/>
<path d="M132.09 47.4581H127.696V36.8721H132.09C135.619 36.8721 137.7 39.1303 137.7 42.1653C137.7 45.1998 135.619 47.4581 132.09 47.4581ZM130.255 39.0774V45.2527H131.895C133.73 45.2527 135.054 44.2115 135.054 42.1653C135.054 40.1186 133.73 39.0774 131.895 39.0774H130.255Z" fill="white"/>
<path d="M147.434 43.1706H142.776V45.2527H148.634V47.4581H140.218V36.8721H148.634V39.0774H142.776V41.1595H147.434V43.1706Z" fill="white"/>
<path d="M161.373 47.4581H160.791L153.945 41.618V47.4581H151.405V36.8721H151.987L158.832 42.4827V36.8898H161.373V47.4581Z" fill="white"/>
<path d="M95.3572 39.0774H99.5563V36.8721H95.163C91.6344 36.8721 89.5526 39.1303 89.5526 42.1653C89.5526 45.1998 91.6344 47.4581 95.163 47.4581H99.5563V41.1595H94.9513V43.1706H96.9983V45.2527H95.3572C93.5223 45.2527 92.1991 44.2115 92.1991 42.1653C92.1991 40.1186 93.5223 39.0774 95.3572 39.0774Z" fill="white"/>
</g>
<defs>
<clipPath id="clip0_205_1682">
<rect x="0.198364" width="214.799" height="99.9834" rx="8" fill="white"/>
</clipPath>
</defs>
</svg>
