<svg width="263" height="149" viewBox="0 0 263 149" fill="none" xmlns="http://www.w3.org/2000/svg">
<g filter="url(#filter0_d_205_1700)">
<rect x="24.0027" y="16.9834" width="214.799" height="99.9834" rx="8" fill="#373535"/>
<rect width="214.4" height="99.7539" rx="8" transform="matrix(0.999999 0.00107439 -0.00400021 0.999992 24.4017 16.9834)" fill="#373535"/>
<path d="M131.349 108.096C154.295 108.096 172.897 89.4942 172.897 66.5481C172.897 43.602 154.295 25.0005 131.349 25.0005C108.403 25.0005 89.8018 43.602 89.8018 66.5481C89.8018 89.4942 108.403 108.096 131.349 108.096Z" fill="#606163"/>
<path fill-rule="evenodd" clip-rule="evenodd" d="M89.8044 66.7783H172.894C172.77 89.6184 154.219 108.096 131.349 108.096C108.48 108.096 89.9284 89.6184 89.8044 66.7783Z" fill="#606163" stroke="#373535" stroke-width="0.755906" stroke-miterlimit="22.9256"/>
<path d="M172.891 66.9781H89.8072C89.8057 66.8345 89.8015 66.6916 89.8015 66.5476C89.8015 43.6014 108.403 25 131.349 25C154.296 25 172.897 43.6014 172.897 66.5476C172.897 66.6916 172.893 66.8345 172.891 66.9781ZM128.431 31.996C126.352 32.3686 124.358 33.425 123.05 35.1084C121.743 36.7574 121.233 38.9038 121.232 40.9768C121.227 47.6742 121.231 54.3711 121.23 61.0684C123.233 61.0684 125.235 61.0692 127.238 61.0677C127.237 54.3175 127.237 47.5665 127.238 40.8162C127.231 39.7855 127.516 38.7121 128.224 37.9385C128.773 37.3118 129.575 36.9252 130.406 36.8734C131.239 36.8152 132.133 36.9611 132.803 37.4922C133.447 37.9812 133.817 38.7666 133.884 39.5629C134.011 40.6412 133.687 41.7425 133.071 42.6285C132.386 43.6183 131.434 44.3932 130.422 45.0293C130.399 46.3601 130.419 47.692 130.413 49.0227C131.511 49.1868 132.609 49.4653 133.581 50.016C134.202 50.3644 134.787 50.8236 135.139 51.4533C135.587 52.2394 135.586 53.2127 135.325 54.0604C135.066 54.9006 134.395 55.5602 133.611 55.9279C132.616 56.4045 131.503 56.5519 130.414 56.612C130.411 58.1242 130.413 59.6352 130.413 61.1474C132.184 61.178 133.983 61.0794 135.688 60.5555C137.228 60.0891 138.69 59.2664 139.763 58.0509C140.63 57.0705 141.175 55.8247 141.365 54.5332C141.59 53.0052 141.467 51.3857 140.785 49.9816C140.201 48.7544 139.216 47.7546 138.087 47.0157C137.519 46.6257 136.89 46.3423 136.283 46.0252C137.389 45.2477 138.398 44.2911 139.084 43.1146C139.775 41.873 139.93 40.408 139.861 39.0096C139.783 37.4358 139.224 35.8752 138.196 34.6711C137.119 33.363 135.582 32.479 133.941 32.0938C132.14 31.6713 130.248 31.6739 128.431 31.996Z" fill="#FFD430"/>
<path d="M128.431 31.9961C130.248 31.674 132.139 31.6714 133.941 32.0939C135.582 32.4791 137.119 33.3631 138.196 34.6712C139.224 35.8753 139.783 37.4359 139.861 39.0097C139.93 40.4081 139.775 41.8731 139.083 43.1147C138.398 44.2912 137.389 45.2478 136.282 46.0253C136.89 46.342 137.519 46.6258 138.087 47.0158C139.216 47.7547 140.201 48.7548 140.785 49.9817C141.467 51.3858 141.59 53.0049 141.365 54.5333C141.175 55.8248 140.63 57.0706 139.763 58.051C138.69 59.2665 137.228 60.0892 135.688 60.5556C133.983 61.0795 132.184 61.1781 130.412 61.1475C130.413 59.6353 130.411 58.1243 130.414 56.6121C131.504 56.552 132.616 56.405 133.61 55.928C134.395 55.5603 135.066 54.9007 135.325 54.0609C135.586 53.2128 135.587 52.2399 135.139 51.4534C134.787 50.8237 134.201 50.3645 133.581 50.0164C132.609 49.4654 131.51 49.1865 130.413 49.0228C130.418 47.6921 130.399 46.3602 130.422 45.0294C131.434 44.3937 132.386 43.6181 133.071 42.6286C133.687 41.743 134.011 40.6413 133.884 39.5626C133.817 38.7671 133.447 37.9813 132.804 37.4919C132.133 36.9609 131.239 36.8153 130.406 36.8735C129.575 36.9257 128.773 37.3115 128.224 37.9386C127.516 38.7126 127.23 39.7856 127.238 40.8163C127.237 47.5666 127.237 54.3176 127.238 61.0678C125.235 61.0693 123.232 61.0685 121.23 61.0685C121.231 54.3712 121.227 47.6746 121.232 40.9769C121.233 38.9039 121.743 36.7575 123.051 35.1085C124.358 33.4247 126.352 32.3687 128.431 31.9961Z" fill="#231F27"/>
<path d="M107.484 71.3449C108.767 71.3472 110.05 71.3415 111.334 71.3479C112.115 71.3611 112.945 71.4832 113.582 71.9712C114.435 72.6163 114.496 74.011 113.77 74.7737C113.592 74.9683 113.368 75.1127 113.137 75.2378C113.715 75.4128 114.269 75.7854 114.499 76.3637C114.807 77.151 114.662 78.1526 114.013 78.7301C113.243 79.4078 112.158 79.4928 111.178 79.4826C109.946 79.4826 108.716 79.4826 107.485 79.4826C107.482 76.7704 107.483 74.0575 107.484 71.3449ZM109.361 72.7448C109.361 73.4013 109.361 74.0567 109.361 74.7132C110.121 74.6826 110.894 74.7831 111.646 74.6501C112.334 74.5325 112.562 73.6062 112.141 73.1065C111.906 72.8332 111.527 72.7592 111.183 72.7483C110.576 72.7403 109.969 72.7471 109.361 72.7448ZM109.361 76.0308C109.361 76.7145 109.36 77.3993 109.362 78.0838C110.072 78.0815 110.782 78.0887 111.491 78.0815C111.894 78.0706 112.365 77.9833 112.598 77.6151C112.787 77.2841 112.797 76.8467 112.615 76.5104C112.404 76.1536 111.955 76.0519 111.571 76.036C110.834 76.0228 110.097 76.0338 109.361 76.0308Z" fill="white"/>
<path d="M119.544 71.3438C120.164 71.3464 120.783 71.3449 121.403 71.3449C122.617 74.0559 123.828 76.7696 125.043 79.4818C124.385 79.4863 123.727 79.4753 123.07 79.4878C122.815 78.9111 122.583 78.3249 122.344 77.7421C121.087 77.7349 119.829 77.7413 118.573 77.7387C118.33 78.3188 118.093 78.9017 117.851 79.4826C117.206 79.4826 116.561 79.4826 115.916 79.4826C117.124 76.7689 118.332 74.0559 119.544 71.3438ZM120.46 73.2097C120.034 74.2411 119.604 75.2717 119.179 76.3039C120.034 76.3024 120.888 76.3078 121.743 76.301C121.315 75.2711 120.893 74.2381 120.46 73.2097Z" fill="white"/>
<path d="M126.813 71.3458C128.007 71.3466 129.201 71.3417 130.395 71.3481C131.331 71.3598 132.325 71.5813 133.028 72.237C133.887 73.0232 134.068 74.3555 133.668 75.4145C133.386 76.159 132.728 76.7154 131.987 76.9739C130.935 77.359 129.796 77.2101 128.701 77.2419C128.701 77.9879 128.699 78.7333 128.701 79.4798C128.072 79.4858 127.442 79.4813 126.813 79.4828C126.812 76.7706 126.812 74.0576 126.813 71.3458ZM128.698 72.8924C128.705 73.8278 128.698 74.7636 128.701 75.6991C129.266 75.696 129.832 75.7036 130.398 75.696C130.844 75.6752 131.324 75.5611 131.637 75.2206C132.02 74.7897 132.045 74.1192 131.807 73.6124C131.55 73.1003 130.942 72.9106 130.408 72.8909C129.838 72.8845 129.267 72.8844 128.698 72.8924Z" fill="white"/>
<path d="M135.805 71.3463C136.431 71.3448 137.057 71.3437 137.683 71.3463C137.683 73.1072 137.682 74.8693 137.683 76.6301C138.976 74.8708 140.265 73.1072 141.555 71.3456C142.144 71.3437 142.734 71.3472 143.323 71.3438C143.328 74.0567 143.326 76.7696 143.325 79.4833C142.704 79.4818 142.084 79.4826 141.463 79.4826C141.462 77.724 141.465 75.9653 141.462 74.2063C140.174 75.9626 138.879 77.7138 137.599 79.4762C137.001 79.4898 136.402 79.481 135.804 79.481C135.806 76.7688 135.804 74.0574 135.805 71.3463Z" fill="white"/>
<path d="M146.043 71.3459C146.563 71.3459 147.084 71.3433 147.604 71.3467C148.608 73.0146 149.614 74.681 150.62 76.3486C150.715 76.3444 150.732 76.231 150.782 76.1705C151.725 74.5612 152.692 72.9659 153.63 71.3546C154.154 71.3331 154.68 71.3512 155.205 71.3452C155.204 74.0578 155.213 76.7707 155.214 79.4829C154.624 79.4829 154.035 79.4829 153.446 79.4829C153.429 77.8732 153.448 76.2635 153.424 74.6534C152.616 75.9687 151.842 77.3032 151.041 78.6223C150.761 78.62 150.481 78.62 150.201 78.6208C149.403 77.3214 148.61 76.0189 147.812 74.7188C147.812 76.3073 147.813 77.8951 147.812 79.4837C147.222 79.4821 146.633 79.4837 146.043 79.4829C146.043 76.77 146.043 74.0577 146.043 71.3459Z" fill="white"/>
<path d="M135.938 83.3087C135.939 83.029 135.932 82.7494 135.945 82.4712C136.52 82.4806 137.096 82.4712 137.672 82.4761C137.672 82.7493 137.673 83.0222 137.672 83.2962C138.824 83.3759 140.043 83.6367 140.925 84.4331C141.621 85.0503 141.948 85.9982 141.921 86.9144C141.929 87.8222 141.584 88.7527 140.885 89.3521C140.006 90.1198 138.808 90.3696 137.673 90.4343C137.672 90.7272 137.673 91.022 137.672 91.316C137.094 91.3168 136.516 91.316 135.938 91.3168C135.938 91.0189 135.937 90.7211 135.939 90.4241C134.852 90.3492 133.718 90.1205 132.842 89.4342C132.271 88.9889 131.876 88.332 131.747 87.6204C131.541 86.5394 131.764 85.3077 132.582 84.5238C133.468 83.6602 134.744 83.3907 135.938 83.3087ZM134.235 85.3141C133.898 85.542 133.662 85.9026 133.57 86.2975C133.422 86.9484 133.517 87.7062 134.005 88.1972C134.515 88.7006 135.248 88.8718 135.937 88.9546C135.939 87.566 135.938 86.1778 135.938 84.7895C135.346 84.8557 134.732 84.9668 134.235 85.3141ZM137.673 84.7903C137.673 86.1778 137.672 87.5652 137.673 88.9526C138.213 88.8952 138.766 88.792 139.238 88.5078C139.641 88.2761 139.938 87.8766 140.041 87.4235C140.19 86.7704 140.1 86.0043 139.608 85.5118C139.096 85.0125 138.361 84.8587 137.673 84.7903Z" fill="white"/>
<path d="M124.622 82.7934C125.757 82.5602 126.982 82.6902 128.008 83.2466C128.849 83.6971 129.526 84.451 129.865 85.3464C130.327 86.5619 130.221 87.9986 129.529 89.1079C128.942 90.0629 127.94 90.7232 126.853 90.9659C125.665 91.2304 124.366 91.0951 123.3 90.4858C122.438 89.9998 121.763 89.1876 121.458 88.2443C121.085 87.0892 121.199 85.7687 121.828 84.7232C122.426 83.7152 123.482 83.0251 124.622 82.7934ZM125.08 84.3608C124.397 84.5086 123.781 84.9595 123.464 85.5865C122.898 86.6757 123.106 88.1852 124.1 88.9589C125.142 89.7753 126.832 89.6366 127.667 88.5878C128.499 87.5397 128.42 85.8419 127.42 84.9296C126.799 84.363 125.89 84.1779 125.08 84.3608Z" fill="white"/>
<path d="M112.847 82.825C113.471 82.8242 114.095 82.8242 114.718 82.8242C114.72 83.9195 114.718 85.0148 114.72 86.1101C115.166 86.1101 115.613 86.1093 116.059 86.1109C116.773 85.0163 117.483 83.9188 118.198 82.8242C118.861 82.825 119.525 82.8234 120.189 82.825C119.306 84.1353 118.417 85.4411 117.532 86.7496C118.444 88.1522 119.362 89.551 120.271 90.9558C119.556 90.9573 118.841 90.9559 118.128 90.9566C117.422 89.8643 116.72 88.7701 116.011 87.6805C115.58 87.6835 115.15 87.6805 114.719 87.682C114.719 88.7732 114.719 89.8655 114.719 90.9566C114.095 90.9559 113.471 90.9573 112.847 90.9558C112.847 88.2451 112.846 85.5349 112.847 82.825Z" fill="white"/>
<path d="M144.026 82.8248C146.074 82.824 148.123 82.824 150.171 82.8248C150.172 83.3282 150.171 83.8328 150.171 84.337C148.748 84.34 147.324 84.3339 145.901 84.34C145.904 84.9247 145.901 85.5094 145.902 86.0941C147.159 86.0956 148.417 86.0941 149.673 86.0941C149.673 86.5843 149.679 87.0741 149.67 87.5651C148.414 87.5613 147.159 87.5643 145.903 87.5628C145.901 88.1883 145.902 88.8131 145.902 89.4382C147.376 89.4397 148.851 89.4382 150.325 89.439C150.324 89.9447 150.324 90.4496 150.324 90.9556C148.225 90.9564 146.126 90.9564 144.026 90.9556C144.024 88.245 144.026 85.5347 144.026 82.8248Z" fill="white"/>
</g>
<defs>
<filter id="filter0_d_205_1700" x="0.00268555" y="0.983398" width="262.799" height="147.983" filterUnits="userSpaceOnUse" color-interpolation-filters="sRGB">
<feFlood flood-opacity="0" result="BackgroundImageFix"/>
<feColorMatrix in="SourceAlpha" type="matrix" values="0 0 0 0 0 0 0 0 0 0 0 0 0 0 0 0 0 0 127 0" result="hardAlpha"/>
<feOffset dy="8"/>
<feGaussianBlur stdDeviation="12"/>
<feColorMatrix type="matrix" values="0 0 0 0 0.584314 0 0 0 0 0.615686 0 0 0 0 0.647059 0 0 0 0.16 0"/>
<feBlend mode="normal" in2="BackgroundImageFix" result="effect1_dropShadow_205_1700"/>
<feBlend mode="normal" in="SourceGraphic" in2="effect1_dropShadow_205_1700" result="shape"/>
</filter>
</defs>
</svg>
