<svg width="216" height="101" viewBox="0 0 216 101" fill="none" xmlns="http://www.w3.org/2000/svg">
<g clip-path="url(#clip0_205_2041)">
<rect x="0.600525" y="0.983398" width="214.799" height="99.9834" rx="8" fill="#404689"/>
<rect width="214.4" height="99.7539" rx="8" transform="matrix(0.999999 0.00107439 -0.00400021 0.999992 0.999573 0.983398)" fill="#404689"/>
<path fill-rule="evenodd" clip-rule="evenodd" d="M84.7043 46.3369C84.8007 49.0835 84.897 51.8301 84.9934 54.5767C79.6208 54.5283 74.2482 54.4799 68.8756 54.4319C67.3521 54.5438 67.2716 56.7317 69.0204 56.8171C72.0799 56.8651 74.7808 56.9135 77.8403 56.9619C88.2295 57.7288 86.3038 75.431 77.2601 75.1751C70.7068 75.1513 64.1538 75.1271 57.6005 75.1033C57.6489 72.3083 57.6973 69.5137 57.7453 66.7188C63.0219 66.7668 68.2978 66.8155 73.574 66.8635C75.1058 66.8068 75.0877 64.9057 73.357 64.7677C70.3217 64.6472 67.286 64.5266 64.2502 64.4061C55.0811 63.7586 55.6995 47.45 64.3927 46.3369C71.2828 46.3369 77.8142 46.3369 84.7043 46.3369Z" fill="white"/>
<path fill-rule="evenodd" clip-rule="evenodd" d="M87.5717 46.2607L99.1084 46.4867L105.669 57.3449L112.568 46.2607H123.766L123.992 75.2157L113.36 75.3287L113.02 64.9233L108.157 75.4421L103.519 75.2157L97.6381 64.5838L97.9776 75.3287L87.2324 75.1027L87.5717 46.2607Z" fill="white"/>
<path fill-rule="evenodd" clip-rule="evenodd" d="M126.367 46.1475L126.254 75.3288L149.101 75.5556L148.988 66.9594L136.886 66.733L136.999 46.2608L126.367 46.1475Z" fill="white"/>
<path fill-rule="evenodd" clip-rule="evenodd" d="M139.877 26.0438L133.597 32.2801L133.946 43.2256L151.041 26L139.877 26.0438Z" fill="white"/>
<path fill-rule="evenodd" clip-rule="evenodd" d="M152.262 26.6543L146.854 32.0617L158.28 43.2692L158.323 32.4105L152.262 26.6543Z" fill="white"/>
<path fill-rule="evenodd" clip-rule="evenodd" d="M152 38.8213L141.054 38.9952L152.306 49.7672L157.713 44.4902L152 38.8213Z" fill="white"/>
<path fill-rule="evenodd" clip-rule="evenodd" d="M145.633 45.2754L140.313 50.2469L151.389 50.3778L145.633 45.2754Z" fill="white"/>
</g>
<defs>
<clipPath id="clip0_205_2041">
<rect x="0.600525" y="0.983398" width="214.799" height="99.9834" rx="8" fill="white"/>
</clipPath>
</defs>
</svg>
