<svg width="216" height="101" viewBox="0 0 216 101" fill="none" xmlns="http://www.w3.org/2000/svg">
<g clip-path="url(#clip0_205_2052)">
<rect x="0.399414" y="0.983398" width="214.799" height="99.9834" rx="8" fill="white"/>
<rect width="214.4" height="99.7539" rx="8" transform="matrix(0.999999 0.00107439 -0.00400021 0.999992 0.798462 0.983398)" fill="white"/>
<path fill-rule="evenodd" clip-rule="evenodd" d="M47.6005 51L107.412 15L167.223 51L107.412 87L47.6005 51Z" fill="#2C315B"/>
<path d="M108.12 22.4783C108.169 22.4595 108.269 22.4221 108.319 22.4033C112.351 24.6255 116.34 26.9308 120.386 29.1295C116.383 31.4314 112.323 33.6352 108.317 35.9309C104.274 33.679 100.224 31.4314 96.2089 29.1328C100.194 26.9418 104.144 24.688 108.12 22.4783ZM104.761 26.3918C105.059 26.4623 105.392 26.4076 105.673 26.545C105.843 26.7228 105.793 26.9885 105.82 27.2118C105.824 28.5126 105.824 29.8151 105.82 31.1176C105.787 31.3473 105.863 31.6643 105.628 31.8065C105.355 31.8767 105.075 31.9157 104.802 31.9814C105.617 32.0953 106.443 32.0141 107.263 32.0358C108.175 31.9984 109.11 32.117 109.996 31.8407C110.753 31.5923 111.462 31.0022 111.622 30.1869C111.842 29.1545 111.717 27.9162 110.874 27.1836C110.104 26.3856 108.933 26.2794 107.888 26.2467C106.846 26.2937 105.789 26.1717 104.761 26.3918Z" fill="#B98F5A"/>
<path d="M107.763 26.3779C108.206 26.4389 108.751 26.4404 109.034 26.8449C109.507 27.543 109.57 28.4222 109.587 29.2405C109.59 30.0588 109.504 30.9413 109.031 31.6347C108.673 31.9315 108.183 31.8753 107.752 31.886C107.759 30.0511 107.741 28.2147 107.763 26.3779Z" fill="#B98F5A"/>
<path d="M70.1065 42.4603C71.5542 42.3915 73.0048 42.443 74.4543 42.4165C76.653 42.4103 78.916 42.2979 81.0338 42.9975C82.7751 43.7018 84.3259 45.1418 84.7555 47.0204C85.0972 48.5371 85.1035 50.1766 84.5508 51.6448C84.143 52.7224 83.2156 53.4923 82.2441 54.053C81.0243 54.7463 79.5814 54.7963 78.2164 54.8932C75.5319 54.9197 72.8457 54.9182 70.1609 54.8962C70.194 54.8323 70.2594 54.7011 70.2921 54.6371C70.7951 54.5511 71.3418 54.6151 71.8118 54.3917C72.2692 54.0794 72.2023 53.4658 72.2303 52.9833C72.2428 50.1704 72.238 47.3577 72.2335 44.5451C72.199 44.0126 72.3005 43.3443 71.829 42.9662C71.3573 42.6601 70.7624 42.8085 70.2344 42.7071L70.1065 42.4603ZM76.4127 42.7615C76.4266 46.6988 76.4157 50.6374 76.4171 54.5762C77.4698 54.5997 78.8583 54.6526 79.4425 53.5812C80.4279 51.5448 80.5278 49.2007 80.2622 46.9877C80.0513 45.7289 79.8217 44.3547 78.9112 43.3927C78.2634 42.7211 77.2699 42.7725 76.4127 42.7615Z" fill="white"/>
<path d="M94.6036 42.4412C96.1575 42.432 97.7128 42.4383 99.267 42.4365C99.245 46.1081 99.259 49.7799 99.259 53.453C99.2777 53.7731 99.2295 54.1387 99.4261 54.4168C99.7025 54.7321 100.366 54.3914 100.443 54.8944C98.5751 54.9319 96.7072 54.8929 94.8395 54.9146C94.8362 54.843 94.8315 54.7008 94.8285 54.6288C95.233 54.5946 95.9499 54.6461 95.9294 54.0637C96.0138 51.0496 95.9466 48.0338 95.9701 45.018C95.9514 44.3467 96.0153 43.6611 95.8606 43.0005C95.5891 42.5037 94.6848 43.0566 94.6036 42.4412Z" fill="white"/>
<path d="M134.537 42.4355C136.114 42.437 137.691 42.437 139.269 42.437C139.222 45.3764 139.314 48.3187 139.219 51.2563C139.989 50.4535 140.757 49.6492 141.524 48.8449C141.957 48.3749 142.414 47.908 142.673 47.3143C142.361 47.0754 141.965 47.0941 141.594 47.0769C141.587 47.0082 141.571 46.8741 141.565 46.8053C142.647 46.8083 143.732 46.7726 144.815 46.8208L144.85 47.0724C144.279 47.0724 143.667 47.1488 143.239 47.5659C142.787 47.9811 142.222 48.3794 141.944 48.9122C142.63 50.088 143.362 51.2358 144.071 52.3979C144.483 53.0255 144.836 53.6986 145.328 54.2703C145.583 54.6076 146.031 54.5999 146.412 54.6341C146.408 54.7046 146.4 54.845 146.395 54.9152C144.469 54.9012 142.544 54.917 140.618 54.9075L140.629 54.6326C140.929 54.6186 141.238 54.5922 141.485 54.4015C140.974 53.2691 140.223 52.2712 139.594 51.206C139.475 51.3217 139.363 51.4404 139.253 51.5638C139.249 52.3557 139.289 53.1475 139.308 53.9393C139.333 54.1657 139.289 54.5077 139.597 54.5529C139.837 54.6686 140.376 54.4607 140.308 54.9075C138.476 54.9045 136.644 54.9233 134.813 54.8983C134.898 54.3641 135.694 54.7778 135.897 54.3093C136.017 53.7736 135.953 53.2162 135.974 52.6728C135.958 49.5603 136.005 46.4475 135.95 43.3368C135.919 42.6306 135.033 42.7666 134.551 42.7152L134.537 42.4355Z" fill="white"/>
<path d="M87.129 47.9868C88.0553 47.0451 89.392 46.5501 90.7085 46.6203C91.8313 46.6218 93.0137 47.0344 93.7133 47.9493C94.2942 48.6474 94.5646 49.5564 94.5676 50.4577C92.8278 50.4357 91.0865 50.4622 89.3468 50.4497C89.389 51.5431 89.4919 52.7391 90.2245 53.6121C90.8507 54.376 92.0095 54.4399 92.8605 54.0496C93.5806 53.6749 94.0194 52.9438 94.3147 52.2144C94.3927 52.2457 94.5503 52.3066 94.6285 52.3379C94.1583 53.4703 93.2683 54.4664 92.0735 54.843C90.5586 55.3177 88.7923 55.0895 87.5056 54.1353C85.6049 52.7439 85.4627 49.616 87.129 47.9868ZM89.7293 47.3262C89.3545 48.1995 89.403 49.1754 89.3483 50.1031C90.0934 50.1076 90.8382 50.1061 91.583 50.1046C91.5018 49.2019 91.666 48.2399 91.2724 47.3934C91.0178 46.797 90.0089 46.7048 89.7293 47.3262Z" fill="white"/>
<path d="M106.051 46.7881C107.474 46.3446 109.393 46.6664 110.044 48.1747C110.282 47.625 110.522 46.9287 111.186 46.7833C112.325 46.479 113.679 46.5319 114.619 47.3204C115.108 47.697 115.418 48.2934 115.412 48.9151C115.42 50.5314 115.396 52.1495 115.426 53.7643C115.453 53.9922 115.403 54.2765 115.595 54.4467C115.851 54.5921 116.154 54.5922 116.438 54.6404C116.43 54.7091 116.415 54.8497 116.408 54.9199C114.684 54.8934 112.962 54.9232 111.239 54.906C111.223 54.4202 111.933 54.734 112.033 54.3375C112.178 53.6361 112.115 52.9163 112.132 52.2072C112.114 50.9032 112.17 49.5959 112.098 48.2934C112.076 47.8829 111.983 47.3035 111.48 47.2425C110.718 47.1224 110.255 47.9282 110.21 48.5873C110.19 50.1067 110.204 51.6278 110.207 53.1489C110.222 53.577 110.199 54.0205 110.324 54.4357C110.519 54.5389 110.736 54.5951 110.947 54.6638C110.944 54.7263 110.936 54.8512 110.933 54.9137C109.32 54.9075 107.706 54.9059 106.095 54.9152C106.09 54.8482 106.081 54.7138 106.076 54.6466C106.327 54.5794 106.679 54.6436 106.819 54.3688C106.94 53.9172 106.89 53.444 106.908 52.9817C106.904 51.4216 106.93 49.8601 106.891 48.2982C106.868 47.9499 106.836 47.5221 106.505 47.3222C106.11 47.1301 105.54 47.2208 105.331 47.6423C104.838 48.2827 105.025 49.115 104.995 49.8616C105.017 51.3217 104.942 52.7882 105.055 54.2439C105.101 54.6609 105.768 54.4544 105.786 54.9012C104.057 54.9214 102.328 54.9012 100.601 54.9122C100.519 54.4702 101.052 54.6561 101.3 54.5451C101.614 54.5187 101.708 54.1751 101.695 53.911C101.733 52.0918 101.708 50.2723 101.713 48.4543C101.691 48.0608 101.749 47.6313 101.545 47.277C101.282 47.0706 100.919 47.1254 100.61 47.0831C100.602 47.0114 100.588 46.8663 100.582 46.7943C102.039 46.8145 103.496 46.7851 104.955 46.813C104.941 47.2018 104.908 47.5923 104.88 47.9811C105.198 47.5269 105.473 46.9552 106.051 46.7881Z" fill="white"/>
<path d="M119.401 46.8642C120.879 46.4504 122.544 46.5191 123.913 47.2594C124.476 47.553 124.909 48.1214 124.94 48.7696C124.987 50.3359 124.895 51.9085 124.984 53.4734C124.946 53.8952 125.404 54.234 125.768 53.9562C126.183 53.5329 126.111 52.8675 126.178 52.3226H126.446C126.411 52.9377 126.405 53.6031 126.057 54.1373C125.373 55.0493 124.075 55.2756 123.033 54.9416C122.484 54.7604 122.021 54.3339 121.857 53.7703C121.593 54.259 121.195 54.6837 120.656 54.8619C119.693 55.1914 118.534 55.1992 117.673 54.5963C116.471 53.7078 116.579 51.5448 117.937 50.8577C119.052 50.4329 120.346 50.7202 121.418 50.1518C121.706 50.0111 121.656 49.6628 121.662 49.4005C121.642 48.7273 121.69 48.045 121.55 47.3826C121.371 46.658 119.985 46.7532 119.974 47.5141C120.23 47.8701 120.673 48.1214 120.717 48.6009C120.8 49.313 120.197 49.9329 119.527 50.0578C118.868 50.1765 118.086 50.2157 117.569 49.7113C117.171 49.3645 117.224 48.7633 117.38 48.3121C117.742 47.5123 118.602 47.1048 119.401 46.8642ZM120.391 51.134C120.091 51.8585 120.106 52.6724 120.172 53.4407C120.224 53.7578 120.246 54.1888 120.602 54.3214C121.097 54.4713 121.489 54.0014 121.645 53.5873C121.706 52.4832 121.628 51.3746 121.686 50.2705C121.282 50.5998 120.705 50.7059 120.391 51.134Z" fill="white"/>
<path d="M126.297 46.7988C127.779 46.8018 129.262 46.8018 130.743 46.8003C130.737 47.2471 130.725 47.6953 130.715 48.1418C131.028 47.6891 131.21 47.0549 131.788 46.8675C132.638 46.5629 133.728 46.5596 134.382 47.2673C135.102 47.9279 135.16 49.1805 134.467 49.8816C133.751 50.7108 132.23 50.6516 131.698 49.6474C131.245 48.9148 131.695 48.0793 132.041 47.4094C131.284 47.2922 130.878 48.1528 130.772 48.7712C130.754 50.4312 130.753 52.093 130.779 53.7546C130.772 54.0404 130.804 54.4604 131.162 54.5152C131.442 54.6838 132.077 54.4075 132.027 54.9087C130.091 54.901 128.153 54.9307 126.216 54.8932C126.305 54.47 126.794 54.6588 127.094 54.5401C127.517 54.4512 127.441 53.9328 127.472 53.6079C127.459 51.6323 127.531 49.6519 127.436 47.6795C127.462 47.0391 126.714 47.1126 126.283 47.0721C126.286 47.0034 126.294 46.8675 126.297 46.7988Z" fill="white"/>
<path d="M101.975 63.5653C102.648 63.5823 103.413 63.4434 103.986 63.8901C104.744 64.4258 104.705 65.7236 103.915 66.2108C103.346 66.6121 102.614 66.4684 101.962 66.4857C101.992 65.5127 101.973 64.5383 101.975 63.5653ZM102.372 63.9277C102.373 64.6677 102.373 65.4065 102.373 66.1466C102.798 66.1296 103.265 66.1623 103.634 65.9125C104.241 65.5282 104.241 64.4788 103.605 64.1242C103.243 63.8792 102.782 63.9589 102.372 63.9277Z" fill="#B98F5A"/>
<path d="M108.534 63.5639C108.668 63.5609 108.803 63.5576 108.937 63.5576C108.94 64.4137 108.934 65.2709 108.937 66.1284C109.367 66.1314 109.796 66.1094 110.226 66.1362C110.24 66.2548 110.251 66.3736 110.269 66.4937C109.69 66.4875 109.109 66.4875 108.529 66.4937C108.542 65.5178 108.534 64.5401 108.534 63.5639Z" fill="#B98F5A"/>
<path d="M113.33 63.6971C113.928 63.3286 114.703 63.4845 115.223 63.9202C114.854 64.4952 114.448 63.6909 113.966 63.8658C112.99 63.9985 112.704 65.4102 113.468 65.9756C113.91 66.3489 114.562 66.2067 114.926 65.7975C115.031 65.8959 115.139 65.9911 115.248 66.0881C114.678 66.6315 113.71 66.7454 113.099 66.2115C112.337 65.5759 112.426 64.1609 113.33 63.6971Z" fill="#B98F5A"/>
<path d="M124.465 63.5624C125.071 63.5671 125.68 63.5686 126.288 63.5576C126.301 63.6546 126.327 63.8512 126.339 63.9482C125.849 63.9529 125.359 63.9467 124.868 63.9387C124.867 64.223 124.859 64.5056 124.857 64.7914C125.31 64.79 125.763 64.7899 126.216 64.7774C126.232 64.8946 126.247 65.0116 126.265 65.1303C125.799 65.1677 125.332 65.1739 124.867 65.1412C124.862 65.4708 124.864 65.7989 124.864 66.1284C125.368 66.1267 125.871 66.1299 126.375 66.1189C126.377 66.2126 126.382 66.3985 126.383 66.4907C125.74 66.4907 125.096 66.4907 124.453 66.4875C124.48 65.513 124.464 64.5368 124.465 63.5624Z" fill="#B98F5A"/>
<path d="M127.734 63.6311C128.195 63.3592 128.745 63.5264 129.174 63.7795C129.022 64.1106 128.759 64.0591 128.488 63.8997C128.096 63.6373 127.461 64.2072 127.84 64.5805C128.204 64.8634 128.751 64.8491 129.046 65.2334C129.378 65.6894 129.068 66.422 128.515 66.5139C128.042 66.6561 127.567 66.4625 127.183 66.1939C127.273 66.0862 127.365 65.9782 127.459 65.8721C127.736 66.0142 128.004 66.3016 128.345 66.1862C128.595 66.1175 128.858 65.8346 128.734 65.5645C128.455 65.1052 127.779 65.218 127.462 64.7992C127.161 64.4384 127.311 63.828 127.734 63.6311Z" fill="#B98F5A"/>
<path d="M87.3995 63.5641C87.6163 63.5641 87.832 63.5627 88.0491 63.5641C88.335 64.306 88.6238 65.0478 88.9064 65.7911C89.2095 65.0555 89.4748 64.3045 89.7654 63.5641C89.984 63.5627 90.2011 63.5641 90.4198 63.5659C90.4183 64.5403 90.4165 65.5163 90.4212 66.4925C90.3103 66.491 90.0887 66.4892 89.9778 66.4877C89.984 65.7146 89.9965 64.9416 89.9917 64.1686C89.5685 64.9119 89.3641 65.7631 89.0125 66.5424C88.6392 66.5079 88.6393 66.074 88.4974 65.8179C88.2428 65.2789 88.1505 64.6605 87.8037 64.1718C87.8022 64.9464 87.8195 65.7194 87.818 66.494C87.7133 66.4925 87.5024 66.4892 87.3977 66.4877C87.4057 65.5133 87.4025 64.5389 87.3995 63.5641Z" fill="#B98F5A"/>
<path d="M91.5911 63.5625C92.2142 63.5658 92.8356 63.5673 93.4587 63.561C93.4572 63.6592 93.4558 63.8546 93.4543 63.9513C92.973 63.9513 92.4905 63.9451 92.0096 63.9468C92.0081 64.2261 92.0096 64.5073 92.0063 64.7886C92.4795 64.7949 92.9513 64.7824 93.4227 64.7886C93.4105 64.8713 93.3838 65.0352 93.3698 65.1179C92.9278 65.2211 92.4655 65.1446 92.0173 65.1399C92.0125 65.4695 92.011 65.8006 92.0125 66.1316C92.5093 66.1349 93.0075 66.1033 93.5042 66.1456C93.5212 66.23 93.5539 66.3987 93.5712 66.4829C92.909 66.4954 92.2469 66.4861 91.5863 66.4924C91.5988 65.5147 91.5911 64.5388 91.5911 63.5625Z" fill="#B98F5A"/>
<path d="M95.5031 63.5186C95.5858 63.5388 95.7515 63.5795 95.8342 63.5998C96.3184 64.5352 96.648 65.5457 97.1165 66.4906C96.9523 66.4906 96.7884 66.4906 96.6245 66.4906C96.5213 66.2452 96.4183 66.0017 96.3169 65.7581C95.8779 65.7551 95.4391 65.7595 95.0019 65.7518C94.8208 66.1141 94.7488 66.6701 94.1991 66.5157C94.6459 65.5207 95.0596 64.5132 95.5031 63.5186ZM95.6482 64.073C95.4671 64.518 95.297 64.9677 95.1033 65.4097C95.4641 65.4067 95.8249 65.402 96.1857 65.4035C96.0061 64.96 95.8327 64.5132 95.6482 64.073Z" fill="#B98F5A"/>
<path d="M97.385 63.564C98.1456 63.564 98.9047 63.5687 99.6635 63.5625C99.6635 63.6592 99.662 63.8561 99.6605 63.9531C99.3526 63.9498 99.0451 63.945 98.7357 63.945C98.7438 64.7948 98.7343 65.6443 98.7467 66.4953C98.6391 66.4938 98.4219 66.4939 98.3143 66.4939C98.3205 65.6444 98.311 64.7963 98.3235 63.9483C98.0082 63.9468 97.6926 63.9498 97.3788 63.9498C97.3803 63.8531 97.3835 63.661 97.385 63.564Z" fill="#B98F5A"/>
<path d="M105.578 63.5657C106.203 63.5639 106.826 63.5657 107.45 63.564C107.45 63.6609 107.452 63.8546 107.452 63.9512C106.96 63.9497 106.468 63.945 105.976 63.9468C105.97 64.2278 105.971 64.5089 105.973 64.7915C106.427 64.7915 106.88 64.79 107.335 64.7823C107.349 64.8697 107.377 65.0429 107.389 65.1303C106.919 65.1538 106.448 65.1725 105.978 65.1461C105.973 65.4724 105.973 65.8004 105.974 66.1285C106.49 66.1285 107.007 66.119 107.522 66.1348C107.519 66.2237 107.51 66.4016 107.505 66.4923C106.861 66.4923 106.218 66.4908 105.575 66.4891C105.593 65.5146 105.586 64.5401 105.578 63.5657Z" fill="#B98F5A"/>
<path d="M111.111 63.561C111.219 63.561 111.433 63.561 111.539 63.561C111.54 64.537 111.533 65.5147 111.545 66.4924C111.434 66.4924 111.216 66.4924 111.105 66.4924C111.12 65.5147 111.112 64.5387 111.111 63.561Z" fill="#B98F5A"/>
<path d="M115.768 66.5078C116.23 65.5348 116.59 64.5119 117.08 63.5532C117.161 63.5595 117.323 63.5702 117.405 63.5765C117.858 64.5417 118.242 65.5381 118.676 66.5125C118.122 66.6687 118.054 66.1238 117.884 65.7567C117.442 65.7567 117 65.7582 116.558 65.7505C116.458 65.9879 116.363 66.2282 116.271 66.4688C116.144 66.4798 115.895 66.4985 115.768 66.5078ZM116.674 65.4084C117.035 65.4055 117.395 65.4036 117.758 65.4069C117.567 64.9679 117.402 64.5196 117.235 64.0732C117.046 64.5167 116.847 64.9572 116.674 65.4084Z" fill="#B98F5A"/>
<path d="M120.136 63.6484C120.722 63.3405 121.421 63.5095 121.924 63.8982C121.848 63.9747 121.695 64.1261 121.62 64.201C121.278 63.928 120.811 63.7093 120.392 63.9654C119.535 64.3307 119.55 65.7581 120.411 66.1127C120.84 66.3078 121.321 66.1409 121.632 65.8114C121.717 65.8676 121.885 65.98 121.97 66.0362C121.356 66.7998 120.016 66.7156 119.522 65.8614C119.077 65.1288 119.313 64.0044 120.136 63.6484Z" fill="#B98F5A"/>
<path d="M122.838 63.564C122.944 63.5626 123.158 63.5611 123.264 63.5596C123.266 64.534 123.252 65.5084 123.274 66.4829C123.164 66.4876 122.946 66.4939 122.835 66.4987C122.843 65.5195 122.84 64.5418 122.838 63.564Z" fill="#B98F5A"/>
<path d="M97.916 70.5592C98.0674 70.0609 98.2033 69.5565 98.3672 69.0615C98.5406 69.5612 98.6828 70.0719 98.8544 70.5731C99.3732 70.5591 99.8917 70.5606 100.41 70.5639C99.9964 70.9027 99.5654 71.2212 99.1403 71.5475C99.3232 72.0333 99.4871 72.53 99.6088 73.036C99.1983 72.7332 98.7843 72.433 98.3735 72.1317C97.9535 72.4411 97.5317 72.7487 97.1069 73.05C97.2601 72.5488 97.4288 72.052 97.6037 71.5586C97.1789 71.2198 96.7432 70.8964 96.3137 70.5654C96.8479 70.5639 97.3818 70.5606 97.916 70.5592Z" fill="white"/>
<path d="M102.857 70.5726C103.021 70.0682 103.163 69.5592 103.346 69.0625C103.498 69.5622 103.641 70.0667 103.797 70.5664C104.325 70.5664 104.855 70.5539 105.384 70.5616C104.959 70.8975 104.52 71.216 104.097 71.5518C104.285 72.0423 104.445 72.5435 104.594 73.048C104.172 72.7467 103.754 72.4406 103.337 72.1328C102.923 72.4344 102.507 72.7327 102.094 73.0325C102.223 72.5296 102.384 72.0346 102.565 71.5504C102.133 71.2333 101.711 70.9037 101.297 70.5649C101.817 70.5587 102.337 70.5586 102.857 70.5726Z" fill="white"/>
<path d="M117.744 70.5653C117.901 70.0641 118.044 69.5578 118.198 69.0566C118.375 69.5564 118.515 70.0685 118.689 70.5715C119.209 70.5653 119.729 70.5558 120.249 70.5638C119.827 70.8978 119.396 71.2196 118.973 71.554C119.156 72.0412 119.319 72.5362 119.457 73.0374C119.04 72.7375 118.623 72.4377 118.209 72.1331C117.788 72.4377 117.369 72.7456 116.947 73.0484C117.097 72.5472 117.258 72.0474 117.441 71.5569C117.016 71.2259 116.579 70.9088 116.169 70.5575C116.694 70.559 117.219 70.5653 117.744 70.5653Z" fill="white"/>
<path d="M107.834 70.5153C107.997 70.0483 108.11 69.5626 108.312 69.1113C108.466 69.5971 108.603 70.089 108.768 70.5729C109.29 70.5637 109.813 70.562 110.336 70.5495C109.926 70.9025 109.482 71.2148 109.056 71.5474C109.242 72.0426 109.398 72.5471 109.563 73.0498C109.134 72.7518 108.714 72.4377 108.289 72.1331C107.867 72.4472 107.444 72.7562 107.008 73.0498C107.185 72.5519 107.344 72.0489 107.524 71.5521C107.091 71.2258 106.66 70.8978 106.24 70.5575C106.768 70.5325 107.324 70.6339 107.834 70.5153Z" fill="white"/>
<path d="M113.229 69.1255C113.436 69.583 113.571 70.0705 113.699 70.5559C114.226 70.5654 114.754 70.5622 115.282 70.5592C114.875 70.906 114.444 71.2228 114.013 71.5384C114.197 72.0476 114.358 72.5661 114.547 73.075C114.114 72.7597 113.679 72.4504 113.246 72.1366C112.823 72.4411 112.406 72.752 111.983 73.0548C112.142 72.5521 112.298 72.0491 112.482 71.5557C112.053 71.2213 111.609 70.906 111.198 70.5497C111.723 70.564 112.248 70.5592 112.773 70.5765C112.935 70.0955 113.077 69.6097 113.229 69.1255Z" fill="white"/>
</g>
<defs>
<clipPath id="clip0_205_2052">
<rect x="0.399414" y="0.983398" width="214.799" height="99.9834" rx="8" fill="white"/>
</clipPath>
</defs>
</svg>
