<svg width="215" height="101" viewBox="0 0 215 101" fill="none" xmlns="http://www.w3.org/2000/svg">
<g clip-path="url(#clip0_205_2094)">
<rect x="0.198364" y="0.983398" width="214.799" height="99.9834" rx="8" fill="white"/>
<rect width="214.4" height="99.7539" rx="8" transform="matrix(0.999999 0.00107439 -0.00400021 0.999992 0.597412 0.983398)" fill="white"/>
<path d="M120.308 27.6888C120.778 26.6951 122.015 26.3338 123.027 26.5658C124.819 26.9566 126.319 28.2205 127.338 29.7051C128.1 30.7604 128.244 32.2884 127.527 33.3996C126.21 35.7834 124.978 38.217 123.656 40.5977C124.978 40.6185 126.365 40.8536 127.415 41.7236C129.029 42.9905 129.684 45.0833 129.819 47.0615C131.168 45.1566 132.1 42.9905 133.343 41.0184C133.867 40.1895 134.857 39.9102 135.765 39.7515C135.548 38.7696 135.257 37.6527 135.871 36.7505C137.026 34.7841 138.196 32.8236 139.381 30.8749C139.874 30.0109 140.941 29.7815 141.864 29.7992C144.063 30.0253 146.165 31.5216 146.861 33.6611C147.084 34.5108 147.058 35.4836 146.564 36.2388C145.462 38.1085 144.38 39.9922 143.263 41.8529C142.746 42.7702 141.694 43.0903 140.721 43.2373C141.097 44.3073 141.171 45.5213 140.547 46.5176C139.351 48.5752 138.181 50.6501 136.935 52.6782C138.796 52.3022 140.868 53.7395 140.853 55.703C140.918 57.0432 139.642 57.7749 138.816 58.6098C136.603 60.7203 134.193 62.7688 131.247 63.7477C129.513 64.3562 127.362 64.4031 125.901 63.1422C125.055 62.4691 124.681 61.4226 124.355 60.435C121.889 63.0039 118.465 64.9821 114.796 64.7145C113.336 64.7232 112.031 64.024 110.802 63.3214C110.349 63.7711 109.867 64.256 109.212 64.3736C107.587 64.7353 106.02 63.8561 104.803 62.8629C103.448 63.827 101.602 63.736 100.159 63.0186C98.2836 62.1134 96.7113 60.4293 96.2294 58.3687C95.994 57.3195 96.3292 56.282 96.4259 55.2415C95.9002 53.8333 95.1594 52.5138 94.4655 51.1823C90.1157 56.076 86.1298 61.3843 80.9511 65.47C81.7652 65.4787 82.5793 65.4141 83.3904 65.4935C84.0488 65.5022 84.2869 66.2048 84.5896 66.6693C84.7718 66.0343 85.2098 65.3434 85.974 65.467C89.8159 65.467 93.6575 65.4288 97.4959 65.4905C99.0214 65.467 100.294 66.6311 100.697 68.0563C101.032 67.2131 101.144 66.1783 101.881 65.5759C102.728 65.3963 103.642 65.3642 104.477 65.6053C105.221 66.3283 105.338 67.4365 105.744 68.3504C105.888 67.401 105.397 65.8374 106.649 65.5112C107.613 65.5021 109.135 65.0732 109.594 66.2373C109.729 67.8742 109.615 69.5262 109.65 71.1692C110.626 71.275 112.163 70.7549 112.577 71.9833C112.665 72.8858 112.945 74.3848 111.775 74.6845C109.553 74.7847 107.319 74.6962 105.094 74.7257C104.624 74.7817 104.224 74.5435 103.839 74.3202C103.748 74.0087 103.657 73.6999 103.563 73.3942C103.301 73.4002 103.039 73.4119 102.781 73.4293C102.581 73.8908 102.443 74.57 101.855 74.6728C100.597 74.7756 99.3301 74.7317 98.0723 74.7079C97.5814 74.7461 97.299 74.3054 96.9668 74.0292C96.3908 75.0167 95.1651 74.7023 94.2187 74.714C93.7073 74.717 93.425 74.2052 93.0312 73.9558C92.4669 73.9909 92.1967 74.714 91.6146 74.7109C90.9003 74.7317 90.1625 74.802 89.466 74.6259C88.9104 74.2789 88.6163 73.6704 88.4224 73.0736C88.4844 73.3265 88.54 73.5824 88.5959 73.8409C88.4606 74.0348 88.1904 74.42 88.0551 74.6142C87.1941 74.7318 86.315 74.802 85.454 74.6641C84.9101 74.4993 84.7249 73.8791 84.4573 73.4384C84.3224 74.0027 84.0196 74.7434 83.317 74.7053C81.0712 74.7461 78.8198 74.714 76.5713 74.7287C76.0305 74.7847 75.5868 74.4407 75.1075 74.2642C74.0761 74.5904 73.0091 75.0813 71.9067 74.7873C70.2815 74.573 68.9677 73.1855 68.7001 71.5894C68.2061 69.4525 68.7322 66.7604 70.8661 65.7021C68.6207 63.88 67.5832 60.9025 67.9888 58.0603C68.6472 53.2399 71.5011 48.9456 75.0901 45.7651C73.5175 45.2949 71.8715 43.9781 71.9539 42.1851C71.898 41.2769 72.4947 40.4892 73.2147 40.0043C76.727 37.8292 80.948 36.3593 85.1131 37.1647C88.5725 37.7468 91.5322 39.7953 94.1511 42.0234C96.6406 38.9548 99.0066 35.7747 101.758 32.9325C103.51 31.2041 105.509 29.5815 107.922 28.9144C110.305 28.4031 113.271 28.8819 114.644 31.11C115.781 32.6206 115.69 34.5901 115.537 36.3741C117.095 33.4612 118.723 30.5839 120.308 27.6888ZM121.892 28.6676C116.316 38.7669 110.758 48.8779 105.176 58.9742C104.906 59.3944 104.859 59.9648 105.153 60.3911C105.979 61.6637 107.393 62.6864 108.968 62.6131C109.562 61.7487 110.117 60.8583 110.64 59.95C111.387 61.5813 112.995 62.7983 114.814 62.8776C118.312 63.1127 121.522 60.9818 123.685 58.3921C124.972 57.0606 125.231 55.1444 126.26 53.6454C127.741 51.4057 128.211 48.5899 127.806 45.9589C127.512 44.3277 126.324 42.5464 124.505 42.5407C122.712 42.3438 121.145 43.3519 119.69 44.2397C121.704 40.1922 123.932 36.2535 126.013 32.2415C126.327 31.7302 126.066 31.1247 125.757 30.681C125.087 29.7138 124.137 28.8879 123.018 28.4941C122.668 28.4352 122.095 28.2647 121.892 28.6676ZM105.408 32.2212C103.748 33.4968 102.199 34.9606 100.979 36.6712C100.935 36.6946 100.841 36.7445 100.794 36.7679C98.6041 39.434 96.4554 42.1352 94.2569 44.7862C91.6467 42.1469 88.5547 39.7073 84.819 39.002C81.2417 38.2729 77.6118 39.5576 74.558 41.3623C74.1936 41.6061 73.6558 41.8941 73.7938 42.4289C73.9907 43.0903 74.6343 43.5635 75.2459 43.8368C75.7659 44.0605 76.1571 43.5605 76.5626 43.3254C78.5938 41.8147 81.0951 40.9329 83.6285 40.9152C87.3819 41.0093 91.0972 42.9229 93.2636 45.9975C92.7137 46.7262 92.0289 47.3524 91.5852 48.1635C91.5145 48.2108 91.3765 48.3076 91.3058 48.3575C87.3173 53.0456 83.7902 58.3188 78.6259 61.8281C77.4327 62.5394 76.2512 63.4419 74.8403 63.6184C73.6706 61.9928 74.2934 59.8941 75.0017 58.219C76.3922 55.1444 78.5409 52.4431 81.0656 50.2242L81.1359 50.0975C81.9386 49.5918 82.7554 49.1013 83.6492 48.766C83.8492 48.8809 84.2457 49.1043 84.4456 49.2188C84.1667 49.9683 83.8519 50.706 83.4845 51.4203C83.9785 51.92 84.5133 52.3815 85.0719 52.8135C85.9858 51.4499 86.897 49.7774 86.3357 48.0989C85.5919 46.2118 83.6402 44.7892 81.5917 44.813C78.7552 45.0451 76.3892 46.9201 74.5198 48.9338C71.9686 51.77 69.9436 55.356 69.7671 59.2357C69.5819 62.4574 72.3889 65.7228 75.713 65.5051C77.997 65.2731 80.1101 63.9945 81.6506 62.3337C82.5264 61.7283 83.2407 60.9142 84.0196 60.1911C87.5467 56.5258 90.768 52.5815 94.0218 48.678C94.2452 48.4251 94.498 48.2048 94.7478 47.9814C95.2241 48.8072 95.6942 49.6361 96.2173 50.4328L96.2793 50.4766C96.9377 52.0554 97.8459 53.5248 98.3985 55.1474C98.3603 55.6384 98.2072 56.1085 98.1101 56.5874C97.646 58.0013 98.5191 59.4209 99.5184 60.3642C100.588 61.311 102.158 62.1633 103.575 61.455C103.416 60.2206 102.155 59.1034 102.81 57.8486C104.827 51.8758 108.407 46.6412 111.464 41.1828C112.501 39.1898 113.627 37.1296 113.797 34.8456C113.959 33.1381 112.974 31.2097 111.219 30.7838C109.186 30.1284 107.028 30.9777 105.408 32.2212ZM140.844 32.0416C139.836 33.6937 138.872 35.3748 137.855 37.0238C137.593 37.5235 137.129 38.0612 137.423 38.658C137.858 40.1218 139.239 41.0769 140.68 41.3944C140.974 41.2856 141.27 41.1797 141.57 41.0769C142.614 39.2813 143.672 37.4939 144.736 35.71C144.918 35.3309 145.215 34.9606 145.151 34.5135C144.859 33.0852 143.543 32.0533 142.176 31.7332C141.735 31.6538 141.088 31.5537 140.844 32.0416ZM134.713 42.3499C132.2 46.8026 129.71 51.2703 127.221 55.7381C126.418 57.3897 125.678 59.4621 126.66 61.1991C127.4 62.4396 129.087 62.5012 130.328 62.0896C133.881 60.9992 136.532 58.2364 139.128 55.7204C138.831 54.8152 137.799 54.1156 136.997 54.9327C135.169 56.5375 133.387 58.2481 131.265 59.4591C131.459 58.8332 131.7 58.219 132.018 57.6426C134.222 53.5218 136.697 49.5567 138.972 45.477C139.454 44.469 138.725 43.4815 138.129 42.7142C138.087 42.7082 138.008 42.6935 137.967 42.6848C137.232 41.8264 135.389 41.0505 134.713 42.3499ZM82.0974 42.7966C85.1305 43.3726 88.1696 45.6623 88.3812 48.9456C89.2044 47.9489 90.0155 46.9409 90.8799 45.9767C89.6304 44.8187 88.1991 43.8251 86.5648 43.302C85.1395 42.7611 83.5933 42.814 82.0974 42.7966ZM76.066 61.2109C79.1316 59.4829 81.7417 57.0167 83.9342 54.283C83.1141 53.6601 82.3264 52.987 81.6741 52.1846C79.155 54.6768 76.7331 57.6396 76.066 61.2109ZM70.1401 68.0741C69.6083 69.3467 69.6083 70.8665 70.1431 72.139C71.0427 74.2968 74.8842 74.0877 75.343 71.707L75.4575 71.6367C75.4692 70.987 73.9378 70.987 73.9525 71.5395C73.6615 72.6212 71.9097 72.783 71.5011 71.7335C71.1073 70.6518 71.0869 69.3909 71.5775 68.3357C71.8186 67.7627 72.5238 67.754 73.0473 67.8126C73.7204 67.7948 73.8172 68.5681 74.0908 69.0235C74.5346 69.0148 74.9783 69.0088 75.425 69.0031C75.3075 68.4623 75.2372 67.8742 74.8403 67.4569C73.6233 65.9844 70.9104 66.3019 70.1401 68.0741ZM76.3571 66.678C76.354 68.9589 76.357 71.2425 76.3597 73.5234C77.8794 73.5208 79.3961 73.5264 80.9155 73.5177C80.8981 73.1266 80.8834 72.7388 80.8656 72.3537C79.8104 72.3745 78.7582 72.3771 77.7029 72.3302C77.712 71.7542 77.7147 71.1752 77.7207 70.6019C78.6376 70.5815 79.5519 70.5784 80.4718 70.5697C80.4718 70.2844 80.4748 69.7171 80.4748 69.4351C79.5636 69.4264 78.6523 69.4264 77.7441 69.4234C77.7263 68.906 77.706 68.3886 77.6912 67.8716C78.7525 67.8126 79.8164 67.8186 80.8804 67.839C80.8891 67.4539 80.8951 67.0661 80.9038 66.681C79.3871 66.6693 77.8734 66.675 76.3571 66.678ZM81.7062 66.6719C81.7005 68.9559 81.7062 71.2398 81.7062 73.5234C82.1971 73.5208 82.6908 73.5177 83.1847 73.5177C83.1817 72.0687 83.17 70.6227 83.2052 69.1762C84.1164 70.6109 84.9864 72.0717 85.8682 73.5234C86.3531 73.5208 86.8384 73.5177 87.3233 73.5177C87.3173 71.2398 87.3203 68.9589 87.329 66.681C86.8441 66.681 86.3561 66.6866 85.8712 66.6927C85.8769 68.133 85.886 69.5731 85.8448 71.0134C84.9513 69.5791 84.0752 68.1331 83.2082 66.681C82.7085 66.678 82.2058 66.6749 81.7062 66.6719ZM87.9141 66.6927C87.9318 66.975 87.964 67.545 87.9817 67.8273C88.6666 67.8304 89.3484 67.8329 90.0333 67.8329C90.045 69.7613 90.0125 71.6923 90.0567 73.6206L90.0597 73.5234C90.5329 73.5234 91.0031 73.5265 91.4763 73.5265C91.4615 71.6337 91.4884 69.7405 91.4559 67.8477C92.1464 67.836 92.8373 67.833 93.5278 67.836C93.5399 67.4452 93.5547 67.0571 93.5664 66.6719C91.6823 66.681 89.7982 66.6484 87.9141 66.6927ZM102.431 66.7131C101.628 68.9914 100.761 71.2425 99.9179 73.5061C100.43 73.5148 100.944 73.5208 101.455 73.5265C101.646 73.0415 101.831 72.5566 102.028 72.0744C102.799 72.0834 103.569 72.0834 104.339 72.0774C104.498 72.5449 104.653 73.0151 104.803 73.4883C105.314 73.5061 105.826 73.5234 106.34 73.5382C105.608 71.2104 104.662 68.9559 103.83 66.6632C103.363 66.6749 102.895 66.6927 102.431 66.7131ZM106.987 66.6719C106.984 68.9529 106.993 71.2368 106.981 73.5208C108.468 73.5208 109.956 73.5234 111.44 73.5265C111.437 73.1387 111.437 72.7536 111.434 72.3654C110.44 72.3685 109.447 72.3685 108.454 72.3654C108.457 70.4696 108.454 68.5738 108.454 66.678C107.966 66.675 107.475 66.6719 106.987 66.6719ZM94.3835 66.678C94.3835 68.9589 94.3774 71.2398 94.3835 73.5234C94.8567 73.5208 95.3299 73.5208 95.8031 73.5208C95.8031 72.6889 95.8031 71.857 95.8061 71.0252C96.1674 71.0429 96.5261 71.072 96.8874 71.1132C97.3814 71.854 97.731 72.6829 98.1044 73.4883C98.66 73.5061 99.2183 73.5147 99.7769 73.5234C99.3332 72.5887 98.716 71.7334 98.3955 70.7489C99.4095 69.9816 99.8914 68.4328 99.0096 67.3863C97.793 66.1931 95.9028 66.8337 94.3835 66.678Z" fill="#231F27"/>
<path d="M105.52 35.5397C106.675 34.4108 107.839 33.1617 109.456 32.7236C108.88 34.7079 107.719 36.4333 106.755 38.235C104.095 42.9083 101.494 47.6199 99.3241 52.5431C98.2571 50.6915 97.0934 48.8955 95.9411 47.0938C95.562 46.703 96.0764 46.2827 96.2498 45.9475C96.9525 45.1776 97.6195 44.3752 98.2809 43.5698C100.656 40.8598 102.951 38.0701 105.52 35.5397ZM98.0194 46.7706C98.3395 47.3995 98.7217 47.9964 99.1098 48.5901C100.318 46.0004 101.699 43.4961 103.057 40.9861C101.264 42.8112 99.724 44.8661 98.0194 46.7706Z" fill="#231F27"/>
<path d="M118.288 47.7049C119.934 46.4585 121.578 45.1624 123.473 44.3071C123.861 45.4916 123.57 46.7408 123.197 47.8902C122.445 50.1828 121.236 52.3076 119.799 54.242C118.456 56.0289 116.816 57.6954 114.72 58.5741C113.641 59.0651 112.419 58.8859 111.284 58.7212C112.71 55.7879 114.414 52.9955 115.922 50.1034C116.407 49.0481 117.41 48.4015 118.288 47.7049ZM117.207 51.6319C116.334 53.3043 115.349 54.9148 114.526 56.611C115.831 55.9288 116.889 54.8736 117.824 53.7511C119.258 51.955 120.458 49.9595 121.266 47.8047C119.826 48.9658 117.986 49.8506 117.207 51.6319Z" fill="#231F27"/>
<path d="M121.892 28.6677C122.095 28.2648 122.668 28.4352 123.018 28.4942C124.137 28.888 125.087 29.7139 125.757 30.6811C126.066 31.1248 126.327 31.7302 126.013 32.2416C123.932 36.2536 121.704 40.1923 119.69 44.2397C121.145 43.3519 122.712 42.3439 124.505 42.5408C126.324 42.5465 127.512 44.3277 127.806 45.959C128.211 48.5899 127.741 51.4057 126.26 53.6455C125.231 55.1444 124.972 57.0606 123.685 58.3922C121.522 60.9819 118.312 63.1128 114.814 62.8777C112.995 62.7983 111.387 61.5813 110.64 59.9501C110.117 60.8583 109.562 61.7487 108.968 62.6131C107.393 62.6864 105.979 61.6637 105.153 60.3912C104.859 59.9648 104.906 59.3945 105.176 58.9742C110.758 48.878 116.316 38.7669 121.892 28.6677ZM121.924 29.5668C120.804 31.6773 119.635 33.7613 118.473 35.848C114.3 43.2608 110.32 50.7794 106.12 58.1805C105.814 58.8419 105.194 59.6681 105.729 60.3764C106.288 61.1758 107.122 61.8312 108.081 62.0636C109.553 62.2193 109.353 59.5064 110.899 59.9119C111.766 60.497 112.225 61.5874 113.251 61.9722C115.14 62.7394 117.342 62.4132 119.114 61.4755C121.569 60.1383 123.935 58.1571 124.808 55.409C125.443 53.6719 126.821 52.261 127.141 50.4004C127.388 48.9604 127.373 47.4818 127.256 46.0297C127.174 44.8218 126.401 43.6694 125.266 43.2196C123.309 42.7347 121.439 43.6637 119.817 44.657C119.696 44.4895 119.455 44.1487 119.335 43.9782C120.737 40.9066 122.547 38.0409 124.038 35.0105C124.558 33.8936 125.375 32.8648 125.566 31.6244C125.384 30.6602 124.534 29.9667 123.788 29.3964C123.259 28.9822 122.221 28.7852 121.924 29.5668Z" fill="#EAD951"/>
<path d="M105.408 32.2213C107.028 30.9778 109.186 30.1285 111.219 30.7839C112.974 31.2098 113.959 33.1382 113.797 34.8457C113.627 37.1297 112.501 39.1899 111.464 41.1829C108.407 46.6413 104.827 51.8759 102.81 57.8487C102.155 59.1035 103.416 60.2207 103.575 61.4551C102.158 62.1634 100.588 61.3111 99.5184 60.3643C98.5191 59.421 97.646 58.0014 98.1101 56.5875C98.2073 56.1086 98.3603 55.6384 98.3985 55.1475C97.8459 53.5249 96.9377 52.0555 96.2793 50.4767C97.2491 51.0206 97.6018 52.1257 98.0632 53.0665C98.4189 53.8953 98.8891 54.7653 98.7216 55.7C98.6071 56.7197 98.3191 57.8222 98.8509 58.7803C99.6359 60.1999 101.17 61.1407 102.775 61.3051C102.652 60.4645 102.437 59.6413 102.081 58.8684C103.092 55.0416 105.029 51.5554 106.86 48.0726C108.721 44.9039 110.793 41.8383 112.281 38.4643C113.042 36.7476 113.721 34.7165 112.959 32.8823C112.463 31.6332 111.099 31.0571 109.826 31.0923C107.651 30.9721 105.838 32.3943 104.292 33.7376C103.163 34.693 102.396 36.0892 100.979 36.6713C102.199 34.9607 103.748 33.4968 105.408 32.2213Z" fill="#EAD951"/>
<path d="M140.844 32.0417C141.088 31.5537 141.735 31.6539 142.176 31.7333C143.543 32.0534 144.859 33.0852 145.15 34.5135C145.215 34.9606 144.918 35.3309 144.736 35.71C143.672 37.494 142.614 39.2813 141.57 41.077C141.27 41.1798 140.974 41.2856 140.68 41.3944C139.239 41.077 137.858 40.1219 137.423 38.6581C137.129 38.0613 137.593 37.5235 137.855 37.0239C138.872 35.3748 139.836 33.6937 140.844 32.0417ZM141.309 32.2034C140.345 33.8052 139.381 35.4043 138.434 37.0151C138.196 37.5292 137.72 38.0791 137.973 38.6785C138.449 39.9102 139.757 41.0388 141.156 40.5861C142.123 39.6397 142.582 38.3024 143.302 37.1739C143.76 36.3038 144.392 35.5041 144.663 34.549C144.245 33.1321 142.799 32.0976 141.309 32.2034Z" fill="#EAD951"/>
<path d="M108.412 32.5504C108.839 32.2858 109.335 32.5092 109.785 32.556C109.717 34.1608 108.771 35.5071 108.033 36.8711C105.288 41.9149 102.258 46.8204 100.027 52.12C99.8914 52.7195 99.2889 52.6488 98.8101 52.6813C97.8312 50.8974 96.6905 49.2041 95.6561 47.4554C95.2388 46.8586 95.6383 46.168 96.2498 45.9473C96.0764 46.2826 95.562 46.7028 95.9411 47.0936C97.0934 48.8953 98.2571 50.6914 99.3241 52.543C101.494 47.6197 104.095 42.9082 106.755 38.2348C107.719 36.4331 108.88 34.7077 109.456 32.7235C107.839 33.1615 106.675 34.4106 105.52 35.5396C102.951 38.07 100.656 40.8597 98.2809 43.5696L97.8078 43.8077C98.3924 42.6613 99.3566 41.7766 100.112 40.7478C101.779 38.9639 103.239 36.9944 105.038 35.3367C106.105 34.343 107.099 33.2205 108.412 32.5504Z" fill="#EAD951"/>
<path d="M134.713 42.3499C135.389 41.0505 137.232 41.8264 137.967 42.6847C137.144 42.5759 136.332 42.2731 135.498 42.3113C134.542 43.164 134.14 44.4777 133.446 45.536C131.497 48.8983 129.663 52.3286 127.75 55.7116C126.986 57.1959 126.319 59.0093 126.933 60.6583C127.418 61.9517 129.061 61.9399 130.184 61.6549C133.558 60.5967 136.165 58.0425 138.537 55.5382C138.046 55.2823 137.517 55.1092 136.997 54.9327C137.799 54.1156 138.831 54.8152 139.128 55.7204C136.532 58.2364 133.881 60.9992 130.328 62.0896C129.087 62.5012 127.4 62.4396 126.66 61.1991C125.678 59.462 126.418 57.3897 127.221 55.7381C129.71 51.2703 132.2 46.8026 134.713 42.3499Z" fill="#EAD951"/>
<path d="M116.93 48.1456C118.906 46.6409 120.846 45.0596 123.074 43.9307C123.388 44.1159 123.75 44.2424 124.008 44.5157C124.235 45.2886 124.149 46.1235 123.985 46.9051C123.253 49.7711 121.786 52.4017 120.014 54.7533C118.7 56.5845 116.969 58.1659 114.861 59.0238C113.7 59.4324 112.348 59.5443 111.202 59.0329C110.637 58.545 111.152 57.854 111.393 57.3427C112.483 55.4673 113.477 53.5363 114.55 51.6522C115.255 50.4325 115.746 49.0039 116.93 48.1456ZM118.288 47.7049C117.41 48.4014 116.407 49.0481 115.922 50.1033C114.414 52.9954 112.71 55.7878 111.284 58.7211C112.419 58.8859 113.641 59.065 114.72 58.574C116.816 57.6953 118.456 56.0289 119.799 54.2419C121.236 52.3075 122.445 50.1827 123.197 47.8901C123.57 46.7407 123.861 45.4916 123.473 44.3071C121.578 45.1624 119.934 46.4584 118.288 47.7049Z" fill="#EAD951"/>
<path d="M74.5198 48.9336C76.3892 46.9199 78.7552 45.0449 81.5917 44.8128C83.6402 44.789 85.5919 46.2116 86.3358 48.0987C86.897 49.7772 85.9858 51.4496 85.0719 52.8133C84.5133 52.3813 83.9785 51.9198 83.4845 51.4201C83.8519 50.7058 84.1667 49.968 84.4456 49.2185C84.2457 49.104 83.8492 48.8807 83.6493 48.7658C82.7554 49.101 81.9386 49.5916 81.1359 50.0973C81.5947 48.9657 83.0317 48.1546 84.1958 48.6335C85.3039 49.3478 83.949 50.7674 84.4547 51.6461C84.9982 52.334 85.5099 51.1408 85.7095 50.6854C86.9265 48.1985 84.3988 45.371 81.8767 45.3974C79.3342 45.3181 77.1768 46.9819 75.4193 48.6365C73.4264 50.7735 71.6923 53.2396 70.8132 56.0523C70.3226 57.6337 69.9965 59.356 70.4549 60.9842C71.0631 63.2799 73.2824 65.1289 75.7104 64.9875C77.9822 64.9112 79.6664 63.2066 81.6507 62.3335C80.1101 63.9942 77.997 65.2728 75.713 65.5049C72.3889 65.7226 69.5819 62.4571 69.7671 59.2355C69.9436 55.3558 71.9686 51.7697 74.5198 48.9336Z" fill="#EAD951"/>
<path d="M87.9141 66.6928C89.7982 66.6486 91.6823 66.6811 93.5664 66.6721C93.5547 67.0572 93.5399 67.4453 93.5278 67.8361C92.8373 67.8331 92.1464 67.8361 91.4559 67.8479C91.4884 69.7407 91.4615 71.6338 91.4763 73.5266C91.0031 73.5266 90.5329 73.5236 90.0597 73.5236C90.1478 71.5896 90.1039 69.6499 90.1156 67.7129C89.4043 67.7511 88.693 67.7863 87.9817 67.8275C87.964 67.5452 87.9318 66.9751 87.9141 66.6928ZM88.6488 67.2806C89.2044 67.3395 89.7687 67.3837 90.3125 67.5334C90.7593 69.303 90.3919 71.1637 90.5121 72.971C90.6123 72.9741 90.8122 72.9801 90.909 72.9827C91.0295 71.3458 90.8443 69.6998 91.0031 68.0682C91.1501 67.2571 92.1464 67.4189 92.7492 67.2779C91.3826 67.2541 90.0155 67.2602 88.6488 67.2806Z" fill="#EAD951"/>
<path d="M121.924 29.5669C122.221 28.7853 123.259 28.9822 123.788 29.3965C124.534 29.9668 125.384 30.6603 125.566 31.6245C125.375 32.8649 124.558 33.8937 124.038 35.0106C122.547 38.041 120.737 40.9067 119.335 43.9783C119.455 44.1487 119.696 44.4896 119.817 44.6571C121.439 43.6638 123.309 42.7348 125.266 43.2197C126.401 43.6695 127.174 44.8219 127.256 46.0298C127.373 47.4819 127.388 48.9605 127.141 50.4005C126.821 52.2611 125.443 53.672 124.808 55.4091C123.935 58.1572 121.568 60.1384 119.114 61.4756C117.342 62.4133 115.14 62.7395 113.25 61.9722C112.225 61.5875 111.766 60.4971 110.899 59.912C109.353 59.5065 109.553 62.2194 108.08 62.0637C107.122 61.8313 106.287 61.1759 105.729 60.3765C105.194 59.6682 105.814 58.842 106.12 58.1806C110.32 50.7795 114.3 43.2609 118.473 35.8481C119.635 33.7614 120.804 31.6774 121.924 29.5669ZM116.93 48.146C115.746 49.0043 115.255 50.4329 114.55 51.6526C113.477 53.5367 112.483 55.4677 111.393 57.3431C111.152 57.8544 110.637 58.5454 111.202 59.0333C112.348 59.5447 113.7 59.4328 114.861 59.0242C116.969 58.1663 118.7 56.5849 120.014 54.7537C121.786 52.4021 123.253 49.7715 123.985 46.9055C124.149 46.1239 124.235 45.289 124.008 44.5161C123.75 44.2428 123.388 44.1162 123.073 43.931C120.845 45.06 118.906 46.6413 116.93 48.146Z" fill="#FBE433"/>
<path d="M104.292 33.7374C105.838 32.3941 107.651 30.9719 109.826 31.0921C111.099 31.0569 112.463 31.633 112.959 32.8821C113.721 34.7163 113.042 36.7474 112.281 38.4641C110.793 41.8381 108.721 44.9037 106.86 48.0724C105.029 51.5553 103.092 55.0414 102.081 58.8682C102.437 59.6411 102.652 60.4643 102.775 61.3049C101.17 61.1405 99.6359 60.1997 98.8509 58.7802C98.3191 57.822 98.6071 56.7196 98.7216 55.6998C98.8891 54.7652 98.4189 53.8951 98.0632 53.0663C97.6018 52.1255 97.2491 51.0204 96.2793 50.4766L96.2173 50.4327C95.6942 49.636 95.2241 48.8072 94.7478 47.9813C94.498 48.2047 94.2452 48.425 94.0218 48.6779C90.768 52.5814 87.5467 56.5257 84.0196 60.1911C83.2407 60.9141 82.5264 61.7282 81.6506 62.3336C79.6664 63.2067 77.9822 64.9113 75.7104 64.9877C73.2824 65.129 71.0631 63.2801 70.4549 60.9844C69.9965 59.3562 70.3226 57.6338 70.8132 56.0525C71.6923 53.2397 73.4264 50.7736 75.4193 48.6367C77.1768 46.982 79.3342 45.3182 81.8767 45.3976C84.3987 45.3711 86.9265 48.1986 85.7095 50.6855C85.5099 51.141 84.9982 52.3342 84.4547 51.6463C83.949 50.7676 85.3039 49.348 84.1958 48.6337C83.0317 48.1548 81.5947 48.9658 81.1359 50.0974L81.0656 50.2241C78.5409 52.4431 76.3922 55.1443 75.0017 58.2189C74.2934 59.894 73.6706 61.9927 74.8403 63.6183C76.2512 63.4418 77.4327 62.5393 78.6259 61.828C83.7902 58.3187 87.3173 53.0455 91.3058 48.3574C91.3765 48.3075 91.5145 48.2107 91.5851 48.1634C93.2546 47.8225 93.6015 46.0825 94.2569 44.7861C96.4554 42.1351 98.6041 39.4339 100.794 36.7678C100.841 36.7444 100.935 36.6945 100.979 36.6711C102.396 36.089 103.163 34.6928 104.292 33.7374ZM108.412 32.5502C107.099 33.2203 106.105 34.3429 105.038 35.3365C103.239 36.9942 101.779 38.9637 100.112 40.7477C99.3566 41.7765 98.3924 42.6612 97.8077 43.8075L98.2809 43.5695C97.6195 44.3749 96.9524 45.1773 96.2498 45.9472C95.6383 46.1679 95.2388 46.8584 95.6561 47.4552C96.6905 49.204 97.8312 50.8972 98.8101 52.6812C99.2889 52.6487 99.8914 52.7193 100.027 52.1199C102.258 46.8203 105.288 41.9148 108.033 36.871C108.771 35.507 109.717 34.1607 109.785 32.5559C109.335 32.509 108.839 32.2857 108.412 32.5502Z" fill="#FBE234"/>
<path d="M135.498 42.3114C136.332 42.2732 137.144 42.576 137.967 42.6849C138.008 42.6936 138.087 42.7083 138.129 42.7143C138.725 43.4816 139.454 44.4691 138.972 45.4771C136.697 49.5568 134.222 53.5219 132.018 57.6427C131.7 58.2191 131.459 58.8333 131.265 59.4592C133.387 58.2482 135.169 56.5376 136.997 54.9328C137.517 55.1093 138.046 55.2824 138.537 55.5383C136.165 58.0426 133.558 60.5968 130.184 61.6551C129.061 61.94 127.418 61.9518 126.933 60.6584C126.319 59.0094 126.986 57.196 127.75 55.7118C129.663 52.3287 131.497 48.8984 133.446 45.5361C134.14 44.4778 134.542 43.1641 135.498 42.3114Z" fill="#FBE234"/>
<path d="M141.309 32.2032C142.799 32.0974 144.245 33.1319 144.663 34.5488C144.392 35.5039 143.76 36.3036 143.302 37.1737C142.582 38.3023 142.123 39.6395 141.156 40.5859C139.757 41.0387 138.449 39.9101 137.973 38.6783C137.72 38.0789 138.196 37.529 138.434 37.015C139.381 35.4041 140.345 33.805 141.309 32.2032Z" fill="#FBE233"/>
<path d="M88.6488 67.2803C90.0155 67.2599 91.3825 67.2538 92.7492 67.2776C92.1464 67.4186 91.1501 67.2568 91.0031 68.0679C90.8443 69.6995 91.0295 71.3455 90.909 72.9824C90.8122 72.9798 90.6123 72.9738 90.5121 72.9708C90.3919 71.1634 90.7593 69.3027 90.3125 67.5331C89.7687 67.3834 89.2044 67.3392 88.6488 67.2803Z" fill="#FBE233"/>
<path d="M87.9817 67.8275C88.693 67.7863 89.4043 67.7511 90.1156 67.7129C90.1039 69.6499 90.1478 71.5896 90.0597 73.5235L90.0567 73.6207C90.0125 71.6924 90.045 69.7614 90.0333 67.8331C89.3484 67.8331 88.6666 67.8305 87.9817 67.8275Z" fill="#FBE233"/>
<path d="M74.558 41.3621C77.6119 39.5574 81.2417 38.2727 84.8191 39.0018C88.5547 39.7071 91.6468 42.1467 94.2569 44.786C93.6015 46.0823 93.2546 47.8224 91.5852 48.1633C92.0289 47.3522 92.7137 46.726 93.2636 45.9973C91.0972 42.9227 87.3819 41.0091 83.6285 40.915C81.0951 40.9327 78.5938 41.8145 76.5627 43.3252C76.1571 43.5603 75.7659 44.0603 75.2459 43.8366C74.6344 43.5633 73.9907 43.0901 73.7938 42.4287C73.6558 41.8939 74.1937 41.6059 74.558 41.3621Z" fill="#F6DF36"/>
<path d="M98.0194 46.7704C99.7239 44.8659 101.264 42.811 103.057 40.9858C101.699 43.4958 100.318 46.0001 99.1098 48.5899C98.7216 47.9961 98.3395 47.3993 98.0194 46.7704Z" fill="#F1EFEE"/>
<path d="M117.207 51.6318C117.985 49.8505 119.826 48.9658 121.266 47.8047C120.458 49.9594 119.258 51.955 117.824 53.751C116.889 54.8735 115.831 55.9288 114.526 56.611C115.349 54.9147 116.334 53.3043 117.207 51.6318Z" fill="#F1EFEE"/>
<path d="M82.0974 42.7964C83.5933 42.8138 85.1395 42.7609 86.5648 43.3018C88.1991 43.8248 89.6304 44.8185 90.8799 45.9765C90.0155 46.9407 89.2044 47.9487 88.3812 48.9454C88.1696 45.6621 85.1305 43.3724 82.0974 42.7964Z" fill="#F2EFEE"/>
<path d="M120.175 67.0716C121.563 65.1141 124.493 64.7819 126.333 66.2869C126.495 66.0488 126.657 65.8137 126.815 65.5756C127.788 65.4082 128.79 65.3904 129.755 65.6168C129.963 65.943 130.172 66.2721 130.375 66.6044C130.66 66.1312 130.892 65.4021 131.588 65.4815C135.207 65.4611 138.828 65.455 142.449 65.461C143.649 65.4285 144.965 65.887 145.609 66.957C146.408 68.2209 146.211 69.9345 145.25 71.0544C145.629 71.7921 146.067 72.5035 146.361 73.2851C146.488 73.9938 145.879 74.8226 145.109 74.7224C144.175 74.7107 142.949 75.0018 142.423 73.9907C142.082 74.2935 141.788 74.7697 141.27 74.7137C138.031 74.7459 134.789 74.7077 131.55 74.7077C130.854 74.7315 130.551 74.0054 130.316 73.4763C130.063 73.9555 129.89 74.699 129.216 74.696C128.194 74.7402 126.9 75.0018 126.289 73.9435C124.443 75.3986 121.578 75.0459 120.196 73.1294C118.82 75.0282 116.293 74.8135 114.235 74.6786C113.653 74.5463 113.365 73.9144 113.427 73.3618C113.427 71.113 113.406 68.8645 113.439 66.6187C113.4 66.0401 113.882 65.4728 114.476 65.4785C116.454 65.3874 118.9 65.2109 120.175 67.0716ZM123.235 66.5454C120.698 66.8629 120.09 70.1228 121.057 72.0919C121.892 73.9817 124.902 74.1521 125.977 72.4124C126.751 71.1247 126.762 69.4379 126.145 68.0886C125.642 67.0069 124.402 66.3867 123.235 66.5454ZM127.562 66.669C127.559 68.9556 127.556 71.2453 127.562 73.5323C128.038 73.5205 128.517 73.5088 128.993 73.4967C128.99 72.0477 128.981 70.596 129.017 69.1469C129.907 70.6134 130.798 72.0832 131.709 73.541C132.194 73.5292 132.682 73.5175 133.173 73.5089C133.173 71.2336 133.17 68.9587 133.173 66.6864C132.676 66.6777 132.177 66.6747 131.679 66.669C131.674 68.112 131.692 69.5581 131.653 71.0015C130.751 69.5846 129.887 68.1445 129.037 66.6954C128.544 66.6837 128.053 66.6747 127.562 66.669ZM134.34 66.6838C134.343 68.9643 134.34 71.2453 134.346 73.5262C135.889 73.5205 137.432 73.5262 138.978 73.5175C138.975 73.2295 138.972 72.6561 138.969 72.3681C137.911 72.3651 136.853 72.3652 135.798 72.3622C135.8 71.748 135.771 71.1337 135.83 70.5222C136.715 70.5899 137.602 70.5782 138.49 70.5812C138.49 70.2902 138.493 69.7142 138.496 69.4262C137.596 69.4201 136.697 69.4111 135.803 69.4908C135.803 68.9383 135.8 68.3827 135.8 67.8301C136.853 67.8271 137.905 67.8271 138.96 67.8241C138.969 67.5448 138.987 66.9891 138.996 66.7102C137.444 66.6456 135.892 66.6717 134.34 66.6838ZM114.62 66.6838C114.62 68.9643 114.635 71.2422 114.614 73.5205C115.661 73.5028 116.722 73.6086 117.756 73.4147C120.184 72.677 120.578 69.1408 118.935 67.4684C117.795 66.3251 116.061 66.7424 114.62 66.6838ZM139.719 66.6985C139.716 68.9617 139.73 71.2249 139.71 73.488C140.203 73.5058 140.694 73.5205 141.191 73.5349C141.188 72.703 141.185 71.8746 141.185 71.0457C141.447 71.0601 141.967 71.0835 142.229 71.0982C142.831 71.7891 143.11 72.7151 143.554 73.5145C144.077 73.5175 144.604 73.5175 145.133 73.5175C144.698 72.5681 144.198 71.6482 143.716 70.7222C144.354 70.2694 145.206 69.4232 144.759 68.603C145.068 68.2005 144.992 67.9416 144.527 67.821L144.639 67.4654C143.263 66.2839 141.371 66.7514 139.719 66.6985Z" fill="#231F27"/>
<path d="M70.1401 68.0739C70.9103 66.3017 73.6233 65.9842 74.8403 67.4567C75.2371 67.874 75.3074 68.4621 75.425 69.0029C74.9782 69.0086 74.5345 69.0146 74.0908 69.0233C73.8172 68.5679 73.7204 67.7946 73.0473 67.8124C72.5238 67.7538 71.8186 67.7625 71.5774 68.3355C71.0868 69.3907 71.1072 70.6516 71.5011 71.7333C71.9096 72.7829 73.6615 72.6211 73.9525 71.5394C74.414 71.6127 74.8785 71.6686 75.343 71.7068C74.8841 74.0875 71.0426 74.2966 70.1431 72.1388C69.6083 70.8663 69.6083 69.3465 70.1401 68.0739Z" fill="#F1DB3F"/>
<path d="M123.235 66.5456C124.402 66.3869 125.642 67.0071 126.145 68.0888C126.762 69.4381 126.751 71.1249 125.977 72.4126C124.902 74.1523 121.892 73.9818 121.057 72.0921C120.09 70.1229 120.698 66.8631 123.235 66.5456ZM122.883 67.9387C121.883 68.712 122.218 70.1638 122.271 71.2572C122.347 72.4625 124.199 72.8767 124.737 71.7863C125.19 70.8165 125.102 69.6377 124.849 68.6236C124.631 67.7657 123.582 67.6303 122.883 67.9387Z" fill="#F2DE3D"/>
<path d="M76.3571 66.6779C77.8734 66.6749 79.3871 66.6692 80.9038 66.6809C80.8951 67.066 80.8891 67.4538 80.8804 67.8389C79.8165 67.8185 78.7525 67.8125 77.6912 67.8715C77.706 68.3885 77.7264 68.9059 77.7441 69.4233C78.6523 69.4263 79.5636 69.4263 80.4748 69.435C80.4748 69.717 80.4718 70.2843 80.4718 70.5696C79.5519 70.5783 78.6376 70.5814 77.7207 70.6018C77.7147 71.1752 77.712 71.7541 77.7029 72.3301C78.7582 72.377 79.8104 72.3744 80.8657 72.3536C80.8834 72.7387 80.8982 73.1265 80.9155 73.5176C79.3962 73.5263 77.8794 73.5207 76.3597 73.5233C76.357 71.2424 76.354 68.9588 76.3571 66.6779Z" fill="#F2DE41"/>
<path d="M81.7062 66.6719C82.2058 66.6749 82.7085 66.6779 83.2082 66.681C84.0752 68.133 84.9513 69.5791 85.8448 71.0134C85.886 69.573 85.8769 68.133 85.8712 66.6926C86.3562 66.6866 86.8441 66.681 87.329 66.681C87.3203 68.9589 87.3173 71.2398 87.3233 73.5177C86.8384 73.5177 86.3531 73.5207 85.8682 73.5234C84.9865 72.0717 84.1164 70.6109 83.2052 69.1762C83.17 70.6226 83.1817 72.0686 83.1847 73.5177C82.6908 73.5177 82.1972 73.5207 81.7062 73.5234C81.7062 71.2398 81.7005 68.9558 81.7062 66.6719Z" fill="#F5DE38"/>
<path d="M102.431 66.713C102.895 66.6926 103.363 66.6748 103.83 66.6631C104.662 68.9557 105.608 71.2103 106.34 73.5381C105.826 73.5233 105.314 73.5059 104.803 73.4882C104.653 73.015 104.498 72.5448 104.339 72.0773C103.569 72.0833 102.799 72.0833 102.028 72.0742C101.831 72.5565 101.646 73.0414 101.455 73.5263C100.944 73.5207 100.43 73.5146 99.9179 73.506C100.761 71.2424 101.628 68.9913 102.431 66.713ZM102.399 70.9075C102.91 70.9045 103.422 70.9015 103.933 70.8958C103.716 70.1108 103.451 69.3439 103.142 68.5944C102.839 69.3465 102.59 70.1199 102.399 70.9075Z" fill="#F3DE3D"/>
<path d="M106.987 66.6719C107.475 66.6719 107.966 66.6749 108.454 66.6779C108.454 68.5737 108.457 70.4696 108.454 72.3654C109.447 72.3684 110.44 72.3684 111.434 72.3654C111.437 72.7535 111.437 73.1386 111.44 73.5264C109.956 73.5234 108.468 73.5207 106.981 73.5207C106.993 71.2367 106.984 68.9528 106.987 66.6719Z" fill="#F0DD4F"/>
<path d="M127.562 66.6694C128.053 66.6751 128.544 66.6841 129.037 66.6959C129.887 68.1449 130.751 69.585 131.653 71.0019C131.692 69.5585 131.674 68.1125 131.679 66.6694C132.176 66.6751 132.676 66.6782 133.173 66.6869C133.17 68.9591 133.173 71.234 133.173 73.5093C132.682 73.518 132.194 73.5297 131.709 73.5414C130.798 72.0836 129.907 70.6138 129.017 69.1473C128.981 70.5964 128.99 72.0481 128.993 73.4972C128.517 73.5093 128.038 73.521 127.562 73.5327C127.556 71.2457 127.559 68.956 127.562 66.6694Z" fill="#F4DF39"/>
<path d="M134.34 66.684C135.892 66.6719 137.444 66.6458 138.996 66.7104C138.987 66.9894 138.969 67.545 138.96 67.8243C137.905 67.8273 136.853 67.8273 135.8 67.8303C135.8 68.3829 135.803 68.9385 135.803 69.4911C136.438 69.6819 137.082 69.8437 137.735 69.9817C137.076 70.058 136.397 70.1464 135.83 70.5225C135.771 71.134 135.8 71.7482 135.798 72.3624C136.853 72.3654 137.911 72.3653 138.969 72.3684C138.972 72.6564 138.975 73.2297 138.978 73.5177C137.432 73.5264 135.889 73.5208 134.346 73.5264C134.34 71.2455 134.343 68.9646 134.34 66.684Z" fill="#F3DE3C"/>
<path d="M94.3835 66.6779C95.9028 66.8336 97.793 66.193 99.0096 67.3862C99.8914 68.4328 99.4095 69.9816 98.3954 70.7488C98.7159 71.7334 99.3331 72.5887 99.7768 73.5234C99.2182 73.5147 98.66 73.506 98.1044 73.4882C97.731 72.6828 97.3814 71.854 96.8874 71.1132C96.5261 71.072 96.1674 71.0429 95.8061 71.0251C95.8031 71.857 95.8031 72.6888 95.8031 73.5207C95.3299 73.5207 94.8567 73.5207 94.3835 73.5234C94.3774 71.2398 94.3835 68.9589 94.3835 66.6779ZM95.797 67.8065C95.8 68.5121 95.8087 69.2147 95.8235 69.92C96.6879 69.9494 98.2866 69.92 97.9808 68.621C97.875 67.5744 96.5261 67.8802 95.797 67.8065Z" fill="#F3DE3B"/>
<path d="M114.62 66.6841C116.061 66.7426 117.795 66.3254 118.935 67.4687C120.578 69.1411 120.184 72.6773 117.756 73.415C116.722 73.6089 115.661 73.503 114.614 73.5208C114.635 71.2425 114.62 68.9646 114.62 66.6841ZM115.831 67.6951C115.608 69.2912 115.611 70.9163 115.84 72.5094C116.016 70.9133 116.061 69.2912 115.831 67.6951ZM116.09 67.7892C116.081 69.3263 116.078 70.8665 116.096 72.4036C116.745 72.3243 117.548 72.4213 117.977 71.8072C118.609 70.8695 118.535 69.5822 118.129 68.5651C117.75 67.8066 116.81 67.8421 116.09 67.7892Z" fill="#F2DC3C"/>
<path d="M139.719 66.6989C141.371 66.7518 143.263 66.2843 144.639 67.4658L144.527 67.8214C144.424 68.1212 144.501 68.38 144.759 68.6034C145.206 69.4236 144.354 70.2698 143.716 70.7226C144.198 71.6486 144.698 72.5685 145.133 73.5179C144.604 73.5179 144.077 73.5179 143.554 73.5149C143.11 72.7155 142.831 71.7895 142.229 71.0986C141.967 71.0839 141.447 71.0605 141.185 71.0462C141.185 71.875 141.188 72.7035 141.191 73.5353C140.694 73.521 140.203 73.5062 139.71 73.4885C139.73 71.2253 139.716 68.9621 139.719 66.6989ZM141.185 67.8539C141.185 68.4741 141.179 69.0974 141.165 69.7203C142.023 70.1141 143.651 69.879 143.413 68.6212C143.225 67.566 141.952 67.8596 141.185 67.8539ZM141.4 70.7343C141.365 71.1516 142.088 71.1459 142.284 70.8813C142.314 70.461 141.591 70.4668 141.4 70.7343Z" fill="#F3DD3D"/>
<path d="M95.797 67.8066C96.5261 67.8803 97.875 67.5746 97.9808 68.6212C98.2866 69.9202 96.6879 69.9496 95.8235 69.9201C95.8088 69.2149 95.8001 68.5123 95.797 67.8066Z" fill="#232126"/>
<path d="M115.831 67.6948C116.061 69.2909 116.016 70.9131 115.84 72.5091C115.611 70.9161 115.608 69.2909 115.831 67.6948Z" fill="#DDCD56"/>
<path d="M122.883 67.9387C123.582 67.6303 124.631 67.7657 124.849 68.6236C125.102 69.6377 125.19 70.8165 124.737 71.7863C124.199 72.8767 122.347 72.4625 122.271 71.2572C122.218 70.1638 121.883 68.712 122.883 67.9387Z" fill="#231F27"/>
<path d="M141.185 67.8537C141.952 67.8594 143.225 67.5657 143.413 68.621C143.651 69.8788 142.023 70.1139 141.165 69.7201C141.179 69.0972 141.185 68.4739 141.185 67.8537Z" fill="#232026"/>
<path d="M144.527 67.8213C144.992 67.9419 145.068 68.2007 144.759 68.6033C144.501 68.3799 144.424 68.121 144.527 67.8213Z" fill="#C5B453"/>
<path d="M116.09 67.7891C116.81 67.842 117.75 67.8064 118.129 68.565C118.535 69.582 118.609 70.8693 117.977 71.807C117.548 72.4212 116.745 72.3241 116.096 72.4035C116.078 70.8663 116.081 69.3262 116.09 67.7891Z" fill="#231F27"/>
<path d="M102.399 70.9078C102.59 70.1202 102.839 69.3469 103.142 68.5947C103.451 69.3442 103.716 70.1111 103.933 70.8961C103.422 70.9018 102.91 70.9048 102.399 70.9078Z" fill="#242026"/>
<path d="M135.803 69.4913C136.697 69.4115 137.596 69.4206 138.496 69.4266C138.493 69.7146 138.49 70.2906 138.49 70.5817C137.602 70.5786 136.715 70.5903 135.83 70.5227C136.397 70.1466 137.076 70.0582 137.735 69.9819C137.082 69.8439 136.438 69.6822 135.803 69.4913Z" fill="#EDDD5B"/>
<path d="M141.4 70.7341C141.591 70.4665 142.314 70.4608 142.284 70.8811C142.088 71.1456 141.365 71.1513 141.4 70.7341Z" fill="#DCCE5A"/>
<path d="M73.9525 71.5397C73.9378 70.9872 75.4692 70.9872 75.4575 71.6369L75.343 71.7072C74.8785 71.669 74.414 71.6131 73.9525 71.5397Z" fill="#CABE64"/>
</g>
<defs>
<clipPath id="clip0_205_2094">
<rect x="0.198364" y="0.983398" width="214.799" height="99.9834" rx="8" fill="white"/>
</clipPath>
</defs>
</svg>
