<svg width="215" height="100" viewBox="0 0 215 100" fill="none" xmlns="http://www.w3.org/2000/svg">
<rect width="214.799" height="99.9834" rx="8" fill="#C63033"/>
<rect width="214.4" height="99.7539" rx="8" transform="matrix(0.999999 0.00107439 -0.00400021 0.999992 0.399048 0)" fill="#C63033"/>
<path d="M36.9871 42.7298C36.8314 42.946 36.7899 43.2253 36.8673 43.4789L40.3604 54.3757C40.4741 54.7219 40.7961 54.9577 41.1609 54.9577H53.4546C53.5679 54.9577 53.6753 54.9335 53.7773 54.8889L54.5533 57.0534H41.1609C40.7723 57.0534 40.4621 57.3668 40.4621 57.7489C40.4621 58.1401 40.7723 58.4507 41.1609 58.4507H41.9429C41.5426 58.8952 41.2981 59.4833 41.2981 60.1251C41.2981 61.5137 42.4263 62.6422 43.8118 62.6422C45.2023 62.6422 46.3283 61.5137 46.3283 60.1251C46.3283 59.4833 46.0803 58.8952 45.6804 58.4507H51.1645C50.7647 58.8952 50.5197 59.4833 50.5197 60.1251C50.5197 61.5137 51.6457 62.6422 53.0339 62.6422C54.4225 62.6422 55.5503 61.5137 55.5503 60.1251C55.5503 59.4833 55.3054 58.8952 54.8991 58.4507H55.5503C55.7771 58.4507 55.9895 58.34 56.1203 58.1548C56.2518 57.9666 56.2824 57.7315 56.2045 57.5161L54.9471 54.0196C54.8753 53.8171 54.7116 53.6712 54.5177 53.6024L58.8706 41.0683L62.42 39.6729C62.8531 39.504 63.0617 39.0175 62.8943 38.5874C62.7246 38.1562 62.2378 37.9457 61.8077 38.1142L57.8936 39.6502C57.6699 39.7398 57.4907 39.9235 57.4132 40.1533L52.8578 53.2826H41.7694L41.1904 51.465H51.0546C51.5175 51.465 51.8932 51.0905 51.8932 50.6279C51.8932 50.1649 51.5175 49.79 51.0546 49.79H40.6529L39.9601 47.6243H52.0338C52.4934 47.6243 52.8695 47.2482 52.8695 46.7856C52.8695 46.3241 52.4934 45.9496 52.0338 45.9496H39.4204L38.8172 44.0613H53.8726C54.3318 44.0613 54.709 43.6864 54.709 43.2253C54.709 42.7593 54.3318 42.3847 53.8726 42.3847H37.6678C37.3987 42.3847 37.1478 42.5132 36.9871 42.7298ZM53.0339 61.245C52.4156 61.245 51.914 60.743 51.914 60.1251C51.914 59.5102 52.4156 59.0086 53.0339 59.0086C53.6488 59.0086 54.1534 59.5102 54.1534 60.1251C54.1534 60.743 53.6488 61.245 53.0339 61.245ZM43.8118 61.245C43.1965 61.245 42.6954 60.743 42.6954 60.1251C42.6954 59.5102 43.1965 59.0086 43.8118 59.0086C44.4298 59.0086 44.9283 59.5102 44.9283 60.1251C44.9283 60.743 44.4298 61.245 43.8118 61.245Z" fill="white"/>
<path d="M62.7571 57.1425C60.2165 62.4388 54.8039 66.0992 48.5529 66.0992C39.8645 66.0992 32.7949 59.0326 32.7949 50.3484C32.7949 41.6623 39.8645 34.5957 48.5529 34.5957C52.2996 34.5957 55.7476 35.914 58.4522 38.108L60.1447 37.444C56.9571 34.5719 52.8756 33 48.5529 33C43.9158 33 39.5603 34.8047 36.2827 38.0812C33.0077 41.3577 31.2011 45.7155 31.2011 50.3484C31.2011 54.9844 33.0077 59.3373 36.2827 62.6149C39.5603 65.8902 43.9158 67.6964 48.5529 67.6964C53.1859 67.6964 57.5388 65.8902 60.8167 62.6149C62.4143 61.0177 63.6616 59.1612 64.5188 57.1425H62.7571Z" fill="white"/>
<path fill-rule="evenodd" clip-rule="evenodd" d="M62.9147 41.9837H67.703V54.6322H62.9147V41.9837ZM70.1631 45.0908H75.2383L72.6652 49.387L75.7576 54.6322H70.6707L68.002 49.387L70.1631 45.0908ZM79.9362 44.9298C80.7549 44.7612 81.5074 44.6822 82.182 44.6822C83.7339 44.6822 85.0238 45.0557 86.0451 45.8089C87.0655 46.5629 87.7047 47.481 87.9496 48.5691C88.0335 48.9425 88.0754 49.3363 88.0754 49.7559C88.0754 50.5156 87.9046 51.2397 87.5614 51.9325C87.2175 52.62 86.7016 53.2085 86.0088 53.6949C85.3164 54.1722 84.4811 54.4856 83.4894 54.6322C82.6148 54.743 82.0085 54.7989 81.668 54.7989C80.4589 54.7989 79.4143 54.5665 78.5276 54.0978C77.6409 53.6291 76.9693 53.0172 76.5093 52.256C76.0501 51.4949 75.823 50.6917 75.823 49.8379C75.823 48.7838 76.1782 47.8019 76.8861 46.8914C77.6024 45.9775 78.6145 45.321 79.9362 44.9298ZM80.5693 49.8379C80.5515 50.2706 80.6982 50.68 80.9522 51.0666C81.2114 51.4786 81.552 51.6853 81.9726 51.6853C82.2894 51.6853 82.5819 51.5368 82.8597 51.2363C83.1405 50.9154 83.2803 50.4827 83.2803 49.9275C83.2803 49.4365 83.1605 48.9947 82.9221 48.6122C82.6802 48.2301 82.3786 48.0532 82.0146 48.0407C81.4299 48.0203 80.6305 48.365 80.5693 49.8379ZM109.61 41.6133H114.223V44.3118H109.61V41.6133ZM114.223 45.0908V54.6322H109.61V45.0908H114.223ZM115.737 45.0908H120.357V45.9495C120.716 45.5852 121.218 45.2881 121.863 45.0625C122.507 44.8342 123.176 44.7208 123.875 44.7208C124.388 44.7208 124.887 44.7869 125.359 44.9166C125.836 45.0432 126.263 45.2431 126.642 45.5088C127.018 45.7791 127.32 46.1241 127.541 46.5508C127.768 46.9764 127.887 47.4886 127.893 48.0793V54.6322H123.105V49.678C123.105 49.3258 123 49.0468 122.799 48.8378C122.597 48.6334 122.346 48.5272 122.05 48.5272C121.672 48.5272 121.331 48.6987 121.02 49.0408C120.72 49.3844 120.555 49.8723 120.525 50.4978V54.6322H115.737V45.0908ZM129.344 41.9837H134.133V54.6322H129.344V41.9837ZM136.593 45.0908H141.668L139.095 49.387L142.187 54.6322H137.1L134.434 49.387L136.593 45.0908ZM143.931 45.4986C145.874 45.1747 147.483 45.0118 148.761 45.0118C151.77 45.0118 153.347 45.7896 153.502 47.3479V54.6322H148.887V50.9052C148.814 50.974 148.642 51.053 148.349 51.1471C148.068 51.2397 147.835 51.3112 147.653 51.3565C147.262 51.4828 147.065 51.6725 147.065 51.9246C147.065 52.041 147.143 52.1574 147.292 52.281C147.447 52.4038 147.611 52.4665 147.788 52.4665C147.97 52.4665 148.182 52.3951 148.42 52.256L147.788 54.7989C147.323 54.8828 146.823 54.9247 146.301 54.9247C145.113 54.9247 144.179 54.6496 143.495 54.1069C142.815 53.563 142.45 52.8914 142.408 52.0946C142.438 51.3769 142.6 50.807 142.901 50.3901C143.202 49.9736 143.597 49.6633 144.092 49.4558C144.588 49.2528 145.202 49.0858 145.949 48.9675C146.701 48.8454 147.37 48.7422 147.954 48.6576C148.19 48.6379 148.387 48.5691 148.554 48.4557C148.719 48.3435 148.802 48.2301 148.802 48.1197C148.802 47.9855 148.71 47.8687 148.523 47.7705C148.328 47.6767 148.044 47.6272 147.653 47.6272C146.617 47.6272 145.28 47.9285 143.632 48.5272L143.931 45.4986ZM154.973 50.7453H159.12V54.6322H154.973V50.7453ZM160.569 45.0908H165.357V50.008C165.357 50.5008 165.473 50.9026 165.704 51.2159C165.937 51.5292 166.19 51.6853 166.465 51.6853C166.749 51.6853 167.003 51.5394 167.229 51.2424C167.453 50.9457 167.563 50.5352 167.563 50.008V45.0908H172.135V54.6322H167.648V53.7365C167.427 54.0649 166.967 54.3605 166.256 54.6171C165.546 54.8737 164.811 55.0023 164.047 55.0023C163.068 55.0023 162.244 54.7577 161.572 54.2709C160.903 53.7811 160.569 53.0112 160.569 51.965V45.0908ZM173.813 45.1003H182.754V48.6576L178.891 51.6853H182.754V54.6322H173.636V51.2363L177.321 48.2078H173.803L173.813 45.1003Z" fill="white"/>
<path fill-rule="evenodd" clip-rule="evenodd" d="M89.7233 45.0846H94.2228V45.8234C94.252 45.8023 94.3956 45.704 94.6669 45.5188C94.9326 45.3351 95.1481 45.1995 95.2974 45.1144C95.4527 45.029 95.6197 44.9515 95.814 44.8933C96.0045 44.8351 96.2113 44.8037 96.4199 44.8037C96.7306 44.8037 97.014 44.8457 97.2706 44.9231L97.5957 48.8119C97.2344 48.7326 96.8439 48.6925 96.4199 48.6925C95.2256 48.6925 94.5868 49.2908 94.5146 50.4912V54.6252H89.7233V45.0846Z" fill="white"/>
<path fill-rule="evenodd" clip-rule="evenodd" d="M108.131 45.0938H98.937L99.1967 48.2013H102.697L99.0141 51.2302V54.6253H108.131V51.6792H104.268L108.131 48.6506V45.0938Z" fill="white"/>
</svg>
