<svg width="215" height="100" viewBox="0 0 215 100" fill="none" xmlns="http://www.w3.org/2000/svg">
<rect width="214.799" height="99.9834" rx="8" fill="#373535"/>
<rect width="214.4" height="99.7539" rx="8" transform="matrix(0.999999 0.00107439 -0.00400021 0.999992 0.399048 0)" fill="#373535"/>
<path d="M107.347 91.1122C130.293 91.1122 148.894 72.5108 148.894 49.5647C148.894 26.6186 130.293 8.01709 107.347 8.01709C84.4006 8.01709 65.7991 26.6186 65.7991 49.5647C65.7991 72.5108 84.4006 91.1122 107.347 91.1122Z" fill="#606163"/>
<path fill-rule="evenodd" clip-rule="evenodd" d="M65.8018 49.7949H148.892C148.767 72.635 130.216 91.1123 107.347 91.1123C84.4772 91.1123 65.9258 72.635 65.8018 49.7949Z" fill="#606163" stroke="#373535" stroke-width="0.755906" stroke-miterlimit="22.9256"/>
<path d="M148.889 49.9947H65.8046C65.803 49.8511 65.7989 49.7082 65.7989 49.5642C65.7989 26.618 84.4002 8.0166 107.347 8.0166C130.293 8.0166 148.894 26.618 148.894 49.5642C148.894 49.7082 148.89 49.8511 148.889 49.9947ZM104.429 15.0126C102.35 15.3852 100.355 16.4416 99.0478 18.125C97.7401 19.774 97.2302 21.9204 97.2294 23.9934C97.2245 30.6908 97.2287 37.3877 97.2272 44.085C99.2299 44.085 101.232 44.0858 103.235 44.0843C103.234 37.3341 103.234 30.5831 103.235 23.8328C103.228 22.8021 103.513 21.7287 104.222 20.9551C104.77 20.3284 105.573 19.9418 106.403 19.89C107.237 19.8318 108.13 19.9777 108.801 20.5088C109.444 20.9978 109.815 21.7832 109.881 22.5795C110.008 23.6578 109.684 24.7591 109.068 25.6451C108.384 26.6349 107.432 27.4098 106.42 28.0459C106.396 29.3767 106.416 30.7086 106.411 32.0393C107.508 32.2034 108.607 32.4819 109.579 33.0326C110.199 33.381 110.784 33.8402 111.136 34.4699C111.585 35.256 111.583 36.2293 111.323 37.077C111.063 37.9172 110.393 38.5768 109.608 38.9445C108.613 39.4211 107.501 39.5685 106.411 39.6286C106.408 41.1408 106.411 42.6518 106.41 44.164C108.182 44.1946 109.98 44.096 111.685 43.5721C113.226 43.1057 114.688 42.283 115.76 41.0675C116.627 40.0871 117.172 38.8413 117.363 37.5498C117.587 36.0218 117.465 34.4023 116.783 32.9982C116.199 31.771 115.214 30.7712 114.084 30.0323C113.516 29.6423 112.887 29.3589 112.28 29.0418C113.386 28.2643 114.395 27.3077 115.081 26.1312C115.773 24.8896 115.927 23.4246 115.859 22.0262C115.78 20.4524 115.221 18.8918 114.193 17.6877C113.117 16.3796 111.579 15.4956 109.938 15.1104C108.137 14.6879 106.246 14.6906 104.429 15.0126Z" fill="#FFD430"/>
<path d="M104.429 15.0127C106.246 14.6907 108.137 14.688 109.938 15.1105C111.579 15.4957 113.117 16.3797 114.194 17.6878C115.221 18.8919 115.78 20.4525 115.859 22.0263C115.927 23.4247 115.772 24.8897 115.081 26.1313C114.395 27.3078 113.386 28.2644 112.28 29.0419C112.887 29.3586 113.516 29.6424 114.084 30.0324C115.213 30.7713 116.198 31.7714 116.783 32.9983C117.464 34.4024 117.587 36.0215 117.363 37.5499C117.172 38.8414 116.627 40.0872 115.76 41.0676C114.688 42.2831 113.225 43.1058 111.685 43.5722C109.98 44.0961 108.182 44.1947 106.409 44.1641C106.41 42.6519 106.408 41.1409 106.411 39.6287C107.501 39.5686 108.613 39.4216 109.608 38.9446C110.393 38.5769 111.063 37.9173 111.322 37.0775C111.583 36.2294 111.585 35.2565 111.137 34.47C110.784 33.8403 110.199 33.3811 109.579 33.033C108.606 32.482 107.508 32.2031 106.41 32.0394C106.416 30.7087 106.396 29.3768 106.42 28.046C107.431 27.4103 108.383 26.6347 109.068 25.6452C109.684 24.7596 110.008 23.6579 109.881 22.5793C109.814 21.7837 109.444 20.9979 108.801 20.5085C108.13 19.9775 107.237 19.8319 106.403 19.8901C105.573 19.9423 104.77 20.3281 104.221 20.9552C103.513 21.7292 103.228 22.8022 103.235 23.8329C103.234 30.5832 103.234 37.3342 103.235 44.0844C101.232 44.0859 99.2299 44.0851 97.2271 44.0851C97.2286 37.3878 97.2244 30.6912 97.2294 23.9935C97.2301 21.9205 97.74 19.7741 99.0481 18.1251C100.355 16.4413 102.349 15.3853 104.429 15.0127Z" fill="#231F27"/>
<path d="M83.4813 54.3615C84.7648 54.3638 86.0476 54.3581 87.3311 54.3645C88.112 54.3777 88.9427 54.4998 89.5792 54.9878C90.4326 55.6329 90.4931 57.0276 89.7674 57.7903C89.5894 57.9849 89.3656 58.1293 89.1347 58.2544C89.7126 58.4294 90.2663 58.802 90.4965 59.3803C90.8045 60.1676 90.6594 61.1692 90.0104 61.7467C89.2405 62.4244 88.1554 62.5094 87.1754 62.4992C85.9436 62.4992 84.713 62.4992 83.482 62.4992C83.4798 59.787 83.4805 57.0741 83.4813 54.3615ZM85.3582 55.7614C85.3582 56.4179 85.3582 57.0733 85.3582 57.7298C86.1186 57.6992 86.8916 57.7997 87.6433 57.6667C88.3312 57.5491 88.5595 56.6228 88.1388 56.1231C87.9033 55.8498 87.5242 55.7758 87.1799 55.7649C86.5733 55.7569 85.9659 55.7637 85.3582 55.7614ZM85.3582 59.0474C85.3582 59.7311 85.3574 60.4159 85.359 61.1004C86.0691 61.0981 86.7789 61.1053 87.4887 61.0981C87.8916 61.0872 88.3625 60.9999 88.595 60.6317C88.7843 60.3007 88.7945 59.8633 88.6124 59.527C88.4015 59.1702 87.9528 59.0685 87.5685 59.0526C86.8318 59.0394 86.0948 59.0504 85.3582 59.0474Z" fill="white"/>
<path d="M95.5415 54.3604C96.161 54.363 96.7804 54.3615 97.4003 54.3615C98.6146 57.0725 99.8256 59.7862 101.04 62.4984C100.382 62.5029 99.7247 62.4919 99.0678 62.5044C98.8123 61.9277 98.5806 61.3415 98.3414 60.7587C97.0843 60.7515 95.8268 60.7579 94.5702 60.7553C94.3275 61.3354 94.0902 61.9183 93.8483 62.4992C93.2031 62.4992 92.5587 62.4992 91.9131 62.4992C93.1218 59.7855 94.3298 57.0725 95.5415 54.3604ZM96.4573 56.2263C96.0309 57.2577 95.6016 58.2883 95.1768 59.3205C96.0317 59.319 96.8859 59.3244 97.7408 59.3176C97.3122 58.2877 96.8908 57.2547 96.4573 56.2263Z" fill="white"/>
<path d="M102.81 54.3624C104.004 54.3632 105.198 54.3583 106.392 54.3647C107.328 54.3764 108.322 54.5979 109.026 55.2536C109.884 56.0398 110.066 57.3721 109.666 58.4311C109.383 59.1756 108.725 59.732 107.984 59.9905C106.932 60.3756 105.793 60.2267 104.698 60.2585C104.698 61.0045 104.697 61.7499 104.699 62.4964C104.07 62.5024 103.44 62.4979 102.81 62.4994C102.809 59.7872 102.809 57.0742 102.81 54.3624ZM104.695 55.909C104.702 56.8444 104.696 57.7802 104.698 58.7157C105.264 58.7126 105.83 58.7202 106.395 58.7126C106.841 58.6918 107.321 58.5777 107.635 58.2372C108.017 57.8063 108.042 57.1358 107.804 56.629C107.547 56.1169 106.94 55.9272 106.405 55.9075C105.835 55.9011 105.265 55.901 104.695 55.909Z" fill="white"/>
<path d="M111.802 54.3629C112.428 54.3614 113.054 54.3603 113.681 54.3629C113.681 56.1238 113.68 57.8859 113.681 59.6467C114.973 57.8874 116.263 56.1238 117.553 54.3622C118.142 54.3603 118.731 54.3638 119.321 54.3604C119.326 57.0733 119.323 59.7862 119.322 62.4999C118.701 62.4984 118.081 62.4992 117.46 62.4992C117.46 60.7406 117.462 58.9819 117.46 57.2229C116.171 58.9792 114.877 60.7304 113.596 62.4928C112.998 62.5064 112.4 62.4976 111.801 62.4976C111.803 59.7854 111.801 57.074 111.802 54.3629Z" fill="white"/>
<path d="M122.041 54.3625C122.561 54.3625 123.082 54.3599 123.601 54.3633C124.605 56.0312 125.612 57.6976 126.617 59.3652C126.712 59.361 126.729 59.2476 126.779 59.1871C127.723 57.5778 128.689 55.9825 129.628 54.3712C130.152 54.3497 130.677 54.3678 131.202 54.3618C131.201 57.0744 131.211 59.7873 131.211 62.4995C130.621 62.4995 130.033 62.4995 129.443 62.4995C129.427 60.8898 129.446 59.2801 129.421 57.67C128.614 58.9853 127.839 60.3198 127.038 61.6389C126.758 61.6366 126.478 61.6366 126.199 61.6374C125.4 60.338 124.608 59.0355 123.81 57.7354C123.809 59.3239 123.81 60.9117 123.809 62.5003C123.219 62.4987 122.63 62.5003 122.041 62.4995C122.041 59.7866 122.04 57.0743 122.041 54.3625Z" fill="white"/>
<path d="M111.935 66.3253C111.936 66.0456 111.929 65.766 111.942 65.4878C112.518 65.4972 113.094 65.4878 113.67 65.4927C113.67 65.7659 113.67 66.0388 113.67 66.3128C114.822 66.3925 116.04 66.6533 116.922 67.4497C117.619 68.0669 117.946 69.0148 117.919 69.931C117.927 70.8388 117.581 71.7693 116.883 72.3687C116.003 73.1364 114.805 73.3862 113.67 73.4509C113.67 73.7438 113.67 74.0386 113.67 74.3326C113.091 74.3334 112.514 74.3326 111.935 74.3334C111.935 74.0355 111.935 73.7377 111.936 73.4407C110.85 73.3658 109.716 73.1371 108.839 72.4508C108.268 72.0055 107.874 71.3486 107.744 70.637C107.539 69.556 107.761 68.3243 108.58 67.5404C109.465 66.6768 110.742 66.4073 111.935 66.3253ZM110.233 68.3307C109.895 68.5586 109.659 68.9192 109.568 69.3141C109.419 69.965 109.514 70.7228 110.003 71.2138C110.512 71.7172 111.245 71.8884 111.935 71.9712C111.936 70.5826 111.935 69.1944 111.935 67.8061C111.344 67.8723 110.73 67.9834 110.233 68.3307ZM113.67 67.8069C113.67 69.1944 113.67 70.5818 113.67 71.9692C114.211 71.9118 114.763 71.8086 115.235 71.5244C115.638 71.2927 115.936 70.8932 116.038 70.4401C116.187 69.787 116.097 69.0209 115.605 68.5284C115.093 68.0291 114.358 67.8753 113.67 67.8069Z" fill="white"/>
<path d="M100.619 65.81C101.754 65.5768 102.98 65.7068 104.005 66.2632C104.846 66.7137 105.523 67.4676 105.862 68.363C106.324 69.5785 106.218 71.0152 105.526 72.1245C104.939 73.0795 103.937 73.7398 102.851 73.9825C101.662 74.247 100.363 74.1117 99.2976 73.5024C98.4351 73.0164 97.7605 72.2042 97.4554 71.2609C97.082 70.1058 97.1962 68.7853 97.8258 67.7398C98.423 66.7318 99.4798 66.0417 100.619 65.81ZM101.078 67.3774C100.394 67.5252 99.7783 67.9761 99.4616 68.6031C98.8951 69.6923 99.1033 71.2018 100.097 71.9755C101.139 72.7919 102.829 72.6532 103.664 71.6044C104.497 70.5563 104.417 68.8585 103.417 67.9462C102.796 67.3796 101.888 67.1945 101.078 67.3774Z" fill="white"/>
<path d="M88.8441 65.8416C89.4681 65.8408 90.0921 65.8408 90.7154 65.8408C90.7173 66.9361 90.7154 68.0314 90.7173 69.1267C91.1633 69.1267 91.61 69.1259 92.0567 69.1275C92.7703 68.0329 93.4805 66.9354 94.1952 65.8408C94.8585 65.8416 95.5226 65.84 96.1863 65.8416C95.3037 67.1519 94.414 68.4577 93.5292 69.7662C94.4416 71.1688 95.3589 72.5676 96.2683 73.9724C95.5536 73.9739 94.8389 73.9725 94.1249 73.9732C93.4196 72.8809 92.7178 71.7867 92.0084 70.6971C91.5775 70.7001 91.1474 70.6971 90.7161 70.6986C90.7161 71.7898 90.7161 72.8821 90.7161 73.9732C90.0921 73.9725 89.4681 73.9739 88.8441 73.9724C88.8441 71.2617 88.8434 68.5515 88.8441 65.8416Z" fill="white"/>
<path d="M120.024 65.8414C122.071 65.8406 124.12 65.8406 126.169 65.8414C126.17 66.3448 126.169 66.8494 126.169 67.3536C124.746 67.3566 123.322 67.3505 121.898 67.3566C121.901 67.9413 121.899 68.526 121.899 69.1107C123.157 69.1122 124.414 69.1107 125.671 69.1107C125.671 69.6009 125.676 70.0907 125.668 70.5817C124.412 70.5779 123.157 70.5809 121.9 70.5794C121.899 71.2049 121.899 71.8297 121.899 72.4548C123.374 72.4563 124.848 72.4548 126.322 72.4556C126.322 72.9613 126.322 73.4662 126.322 73.9722C124.222 73.973 122.123 73.973 120.024 73.9722C120.022 71.2616 120.023 68.5513 120.024 65.8414Z" fill="white"/>
</svg>
