<svg viewBox="304.55932358053303 0 1738.002966396292 1168.24" xmlns="http://www.w3.org/2000/svg" data-name="Layer 1" id="Layer_1" style="max-height: 500px" width="1738.002966396292" height="1168.24">
  <defs>
    <style>
      .cls-1 {
        fill: #d79728;
      }
    </style>
  </defs>
  <path d="m1950.29,55.15s-33.37,190.88-397.84,288.72c0,0-48.31,10.09-69.41,10.7-21.1.61-106.71,15.9-176.12,75.83,0,0-52.44-25.53-123.22-5.05,0,0,89.28-5.66,152.27,50.3,0,0,35.77,27.82,15.29,72.77,0,0-5.96-50.3-78.28-48.01,0,0,6.73,14.52,42.04,35.62,35.32,21.1,62.22,42.81,46.94,87.6,0,0-20.18-38.37-75.68-38.22-55.5.15-94.94,38.83-101.67,85.46,0,0-.76,6.57-.92,16.28-.15,9.71-.05,330.92-.05,330.92l45.51-32.11s-14.57-40.77-14.78-105.9c0,0,14.78,61.26,28.84,81.33l45.56-30.07s-64.52-91.32-62.07-199.77c0,0,7.03,31.95,13.81,47.45,0,0,3.62-41.43,32.87-53.05,0,0,12.64-4.79,26.7-3.77,14.07,1.02,190.8,19.16,290.68-24.05,0,0-124.24,20.59-266.12-43.01,0,0,92.24,13.25,118.74,15.29,26.5,2.04,296.19,36.69,435.62-98.46,0,0-263.57,88.67-477.61,25.07,0,0,483.11,45.25,614.6-194.47,0,0-218.32,144.93-502.07,125.98,0,0,484.95-39.75,502.07-279.47,0,0-185.3,184.68-472.11,187.74,0,0,494.2-98.61,406.4-381.68Z" class="cls-1"/>
  <path d="m1157.52,1018.09l-45.51-32.11s14.57-40.77,14.78-105.9c0,0-14.78,61.26-28.84,81.33l-45.56-30.07s64.52-91.32,62.07-199.77c0,0-7.03,31.95-13.81,47.45,0,0-3.62-41.43-32.87-53.05,0,0-12.64-4.79-26.7-3.77s-190.8,19.16-290.68-24.05c0,0,124.24,20.59,266.12-43.01,0,0-92.24,13.25-118.74,15.29s-296.19,36.69-435.62-98.46c0,0,263.57,88.67,477.61,25.07,0,0-483.11,45.25-614.6-194.47,0,0,218.32,144.93,502.07,125.98,0,0-484.95-39.75-502.07-279.47,0,0,185.3,184.68,472.11,187.74,0,0-494.2-98.61-406.4-381.68,0,0,33.37,190.88,397.84,288.72,0,0,48.31,10.09,69.41,10.7,0,0,84.78,2.75,164.69,66.35,79.91,63.6,137.73,157.78,134.71,282.53-3.02,124.75,0,314.64,0,314.64Z"/>
  <path d="m1676.77,718.09c-59.64,231.05-269.84,402.25-519.28,402.25s-455.85-168.13-517.64-396.04l-53.4-16.56c7.63,35.42,18.59,70.08,32.84,103.76,29.41,69.56,71.53,132.02,125.17,185.66,53.63,53.64,116.09,95.75,185.66,125.17,72.02,30.47,148.53,45.92,227.36,45.92s155.35-15.45,227.38-45.92c69.56-29.42,132.02-71.53,185.66-125.17,53.64-53.64,95.75-116.11,125.17-185.66,14.41-34.07,25.46-69.15,33.1-104.99l-52.04,11.59ZM1157.49,47.9c181.62,0,342.44,90.75,439.47,229.3l47.71-15.53c-21.47-32.42-46.25-62.71-74.14-90.6-53.64-53.63-116.11-95.75-185.66-125.17C1312.84,15.44,1236.34,0,1157.49,0s-155.34,15.44-227.36,45.9c-69.57,29.42-132.03,71.54-185.66,125.17-26.96,26.96-51.01,56.16-72,87.35l58.29,1.37c98.02-128.69,252.85-211.89,426.74-211.89Z"/>
</svg>