<svg width="145" height="24" viewBox="0 0 145 24" fill="none" xmlns="http://www.w3.org/2000/svg">
<path d="M79 10.5C78.1716 10.5 77.5 11.1716 77.5 12C77.5 12.8284 78.1716 13.5 79 13.5V10.5ZM144.061 13.0607C144.646 12.4749 144.646 11.5251 144.061 10.9393L134.515 1.3934C133.929 0.807611 132.979 0.807611 132.393 1.3934C131.808 1.97919 131.808 2.92893 132.393 3.51472L140.879 12L132.393 20.4853C131.808 21.0711 131.808 22.0208 132.393 22.6066C132.979 23.1924 133.929 23.1924 134.515 22.6066L144.061 13.0607ZM79 13.5H143V10.5H79V13.5Z" fill="white"/>
<path d="M66 10.5C66.8284 10.5 67.5 11.1716 67.5 12C67.5 12.8284 66.8284 13.5 66 13.5V10.5ZM0.939339 13.0607C0.353554 12.4749 0.353554 11.5251 0.939339 10.9393L10.4853 1.3934C11.0711 0.807611 12.0208 0.807611 12.6066 1.3934C13.1924 1.97919 13.1924 2.92893 12.6066 3.51472L4.12132 12L12.6066 20.4853C13.1924 21.0711 13.1924 22.0208 12.6066 22.6066C12.0208 23.1924 11.0711 23.1924 10.4853 22.6066L0.939339 13.0607ZM66 13.5H2V10.5H66V13.5Z" fill="white"/>
</svg>
