<svg width="245" height="29" viewBox="0 0 245 29" fill="none" xmlns="http://www.w3.org/2000/svg">
<path d="M12.1504 6.4668C11.1074 6.4668 10.1816 6.67188 9.37305 7.08203C8.57617 7.48047 7.90234 8.06055 7.35156 8.82227C6.8125 9.58398 6.40234 10.5039 6.12109 11.582C5.83984 12.6602 5.69922 13.873 5.69922 15.2207C5.69922 17.0371 5.92188 18.5898 6.36719 19.8789C6.82422 21.1562 7.52734 22.1348 8.47656 22.8145C9.42578 23.4824 10.6504 23.8164 12.1504 23.8164C13.1934 23.8164 14.2363 23.6992 15.2793 23.4648C16.334 23.2305 17.4766 22.8965 18.707 22.4629V27.0332C17.5703 27.502 16.4512 27.8359 15.3496 28.0352C14.248 28.2461 13.0117 28.3516 11.6406 28.3516C8.99219 28.3516 6.8125 27.8066 5.10156 26.7168C3.40234 25.6152 2.14258 24.0801 1.32227 22.1113C0.501953 20.1309 0.0917969 17.8223 0.0917969 15.1855C0.0917969 13.2402 0.355469 11.459 0.882812 9.8418C1.41016 8.22461 2.18359 6.82422 3.20312 5.64062C4.22266 4.45703 5.48242 3.54297 6.98242 2.89844C8.48242 2.25391 10.2051 1.93164 12.1504 1.93164C13.4277 1.93164 14.7051 2.0957 15.9824 2.42383C17.2715 2.74023 18.502 3.17969 19.6738 3.74219L17.916 8.17188C16.9551 7.71484 15.9883 7.31641 15.0156 6.97656C14.043 6.63672 13.0879 6.4668 12.1504 6.4668ZM41.6289 18.1387C41.6289 19.7793 41.4062 21.2324 40.9609 22.498C40.5273 23.7637 39.8887 24.8359 39.0449 25.7148C38.2129 26.582 37.2051 27.2383 36.0215 27.6836C34.8496 28.1289 33.5254 28.3516 32.0488 28.3516C30.666 28.3516 29.3945 28.1289 28.2344 27.6836C27.0859 27.2383 26.084 26.582 25.2285 25.7148C24.3848 24.8359 23.7285 23.7637 23.2598 22.498C22.8027 21.2324 22.5742 19.7793 22.5742 18.1387C22.5742 15.959 22.9609 14.1133 23.7344 12.6016C24.5078 11.0898 25.6094 9.94141 27.0391 9.15625C28.4688 8.37109 30.1738 7.97852 32.1543 7.97852C33.9941 7.97852 35.623 8.37109 37.041 9.15625C38.4707 9.94141 39.5898 11.0898 40.3984 12.6016C41.2188 14.1133 41.6289 15.959 41.6289 18.1387ZM28.041 18.1387C28.041 19.4277 28.1816 20.5117 28.4629 21.3906C28.7441 22.2695 29.1836 22.9316 29.7812 23.377C30.3789 23.8223 31.1582 24.0449 32.1191 24.0449C33.0684 24.0449 33.8359 23.8223 34.4219 23.377C35.0195 22.9316 35.4531 22.2695 35.7227 21.3906C36.0039 20.5117 36.1445 19.4277 36.1445 18.1387C36.1445 16.8379 36.0039 15.7598 35.7227 14.9043C35.4531 14.0371 35.0195 13.3867 34.4219 12.9531C33.8242 12.5195 33.0449 12.3027 32.084 12.3027C30.666 12.3027 29.6348 12.7891 28.9902 13.7617C28.3574 14.7344 28.041 16.1934 28.041 18.1387ZM51.4199 28H46.0586V0.648438H51.4199V28ZM63.2852 28.3516C61.0938 28.3516 59.3066 27.4961 57.9238 25.7852C56.5527 24.0625 55.8672 21.5371 55.8672 18.209C55.8672 14.8457 56.5645 12.3027 57.959 10.5801C59.3535 8.8457 61.1758 7.97852 63.4258 7.97852C64.3633 7.97852 65.1895 8.10742 65.9043 8.36523C66.6191 8.62305 67.2344 8.96875 67.75 9.40234C68.2773 9.83594 68.7227 10.3223 69.0859 10.8613H69.2617C69.1914 10.4863 69.1035 9.93555 68.998 9.20898C68.9043 8.4707 68.8574 7.71484 68.8574 6.94141V0.648438H74.2363V28H70.123L69.0859 25.4512H68.8574C68.5176 25.9902 68.0898 26.4824 67.5742 26.9277C67.0703 27.3613 66.4668 27.707 65.7637 27.9648C65.0605 28.2227 64.2344 28.3516 63.2852 28.3516ZM65.166 24.0801C66.6309 24.0801 67.6621 23.6465 68.2598 22.7793C68.8691 21.9004 69.1914 20.582 69.2266 18.8242V18.2441C69.2266 16.334 68.9336 14.875 68.3477 13.8672C67.7617 12.8477 66.6719 12.3379 65.0781 12.3379C63.8945 12.3379 62.9688 12.8477 62.3008 13.8672C61.6328 14.8867 61.2988 16.3574 61.2988 18.2793C61.2988 20.2012 61.6328 21.6484 62.3008 22.6211C62.9805 23.5938 63.9355 24.0801 65.166 24.0801ZM102.924 7.97852C105.15 7.97852 106.832 8.55273 107.969 9.70117C109.117 10.8379 109.691 12.666 109.691 15.1855V28H104.312V16.5215C104.312 15.1152 104.072 14.0547 103.592 13.3398C103.111 12.625 102.367 12.2676 101.359 12.2676C99.9414 12.2676 98.9336 12.7773 98.3359 13.7969C97.7383 14.8047 97.4395 16.252 97.4395 18.1387V28H92.0781V16.5215C92.0781 15.584 91.9727 14.7988 91.7617 14.166C91.5508 13.5332 91.2285 13.0586 90.7949 12.7422C90.3613 12.4258 89.8047 12.2676 89.125 12.2676C88.1289 12.2676 87.3438 12.5195 86.7695 13.0234C86.207 13.5156 85.8027 14.248 85.5566 15.2207C85.3223 16.1816 85.2051 17.3594 85.2051 18.7539V28H79.8438V8.34766H83.9395L84.6602 10.8613H84.959C85.3574 10.1816 85.8555 9.63086 86.4531 9.20898C87.0625 8.78711 87.7305 8.47656 88.457 8.27734C89.1836 8.07812 89.9219 7.97852 90.6719 7.97852C92.1133 7.97852 93.332 8.21289 94.3281 8.68164C95.3359 9.15039 96.1094 9.87695 96.6484 10.8613H97.123C97.709 9.85352 98.5352 9.12109 99.6016 8.66406C100.68 8.20703 101.787 7.97852 102.924 7.97852ZM123.262 7.94336C125.898 7.94336 127.92 8.51758 129.326 9.66602C130.732 10.8145 131.436 12.5605 131.436 14.9043V28H127.691L126.654 25.3281H126.514C125.951 26.0312 125.377 26.6055 124.791 27.0508C124.205 27.4961 123.531 27.8242 122.77 28.0352C122.008 28.2461 121.082 28.3516 119.992 28.3516C118.832 28.3516 117.789 28.1289 116.863 27.6836C115.949 27.2383 115.229 26.5586 114.701 25.6445C114.174 24.7188 113.91 23.5469 113.91 22.1289C113.91 20.043 114.643 18.5078 116.107 17.5234C117.572 16.5273 119.77 15.9766 122.699 15.8711L126.109 15.7656V14.9043C126.109 13.873 125.84 13.1172 125.301 12.6367C124.762 12.1562 124.012 11.916 123.051 11.916C122.102 11.916 121.17 12.0508 120.256 12.3203C119.342 12.5898 118.428 12.9297 117.514 13.3398L115.738 9.71875C116.781 9.16797 117.947 8.73438 119.236 8.41797C120.537 8.10156 121.879 7.94336 123.262 7.94336ZM126.109 18.8945L124.035 18.9648C122.301 19.0117 121.094 19.3223 120.414 19.8965C119.746 20.4707 119.412 21.2266 119.412 22.1641C119.412 22.9844 119.652 23.5703 120.133 23.9219C120.613 24.2617 121.24 24.4316 122.014 24.4316C123.162 24.4316 124.129 24.0918 124.914 23.4121C125.711 22.7324 126.109 21.7656 126.109 20.5117V18.8945ZM142.334 0.648438V12.8828C142.334 13.6211 142.305 14.3594 142.246 15.0977C142.188 15.8359 142.123 16.5742 142.053 17.3125H142.123C142.486 16.7969 142.855 16.2871 143.23 15.7832C143.617 15.2793 144.027 14.793 144.461 14.3242L149.963 8.34766H156.01L148.205 16.873L156.484 28H150.297L144.637 20.0371L142.334 21.8828V28H136.973V0.648438H142.334ZM167.4 7.97852C169.217 7.97852 170.781 8.33008 172.094 9.0332C173.406 9.72461 174.42 10.7324 175.135 12.0566C175.85 13.3809 176.207 14.998 176.207 16.9082V19.5098H163.533C163.592 21.0215 164.043 22.2109 164.887 23.0781C165.742 23.9336 166.926 24.3613 168.438 24.3613C169.691 24.3613 170.84 24.2324 171.883 23.9746C172.926 23.7168 173.998 23.3301 175.1 22.8145V26.9629C174.127 27.4434 173.107 27.7949 172.041 28.0176C170.986 28.2402 169.703 28.3516 168.191 28.3516C166.223 28.3516 164.477 27.9883 162.953 27.2617C161.441 26.5352 160.252 25.4277 159.385 23.9395C158.529 22.4512 158.102 20.5762 158.102 18.3145C158.102 16.0176 158.488 14.1074 159.262 12.584C160.047 11.0488 161.137 9.90039 162.531 9.13867C163.926 8.36523 165.549 7.97852 167.4 7.97852ZM167.436 11.793C166.393 11.793 165.525 12.127 164.834 12.7949C164.154 13.4629 163.762 14.5117 163.656 15.9414H171.18C171.168 15.1445 171.021 14.4355 170.74 13.8145C170.471 13.1934 170.061 12.7012 169.51 12.3379C168.971 11.9746 168.279 11.793 167.436 11.793ZM191.535 7.97852C191.805 7.97852 192.115 7.99609 192.467 8.03125C192.83 8.05469 193.123 8.08984 193.346 8.13672L192.941 13.1641C192.766 13.1055 192.514 13.0645 192.186 13.041C191.869 13.0059 191.594 12.9883 191.359 12.9883C190.668 12.9883 189.994 13.0762 189.338 13.252C188.693 13.4277 188.113 13.7148 187.598 14.1133C187.082 14.5 186.672 15.0156 186.367 15.6602C186.074 16.293 185.928 17.0723 185.928 17.998V28H180.566V8.34766H184.627L185.418 11.6523H185.682C186.068 10.9844 186.549 10.375 187.123 9.82422C187.709 9.26172 188.371 8.81641 189.109 8.48828C189.859 8.14844 190.668 7.97852 191.535 7.97852ZM196.158 25.4863C196.158 24.3848 196.457 23.6113 197.055 23.166C197.664 22.7207 198.396 22.498 199.252 22.498C200.084 22.498 200.799 22.7207 201.396 23.166C202.006 23.6113 202.311 24.3848 202.311 25.4863C202.311 26.541 202.006 27.3027 201.396 27.7715C200.799 28.2402 200.084 28.4746 199.252 28.4746C198.396 28.4746 197.664 28.2402 197.055 27.7715C196.457 27.3027 196.158 26.541 196.158 25.4863ZM225.215 8.34766V28H221.102L220.381 25.4863H220.1C219.678 26.1543 219.15 26.6992 218.518 27.1211C217.885 27.543 217.188 27.8535 216.426 28.0527C215.664 28.252 214.873 28.3516 214.053 28.3516C212.646 28.3516 211.422 28.1055 210.379 27.6133C209.336 27.1094 208.521 26.3301 207.936 25.2754C207.361 24.2207 207.074 22.8496 207.074 21.1621V8.34766H212.436V19.8262C212.436 21.2324 212.688 22.293 213.191 23.0078C213.695 23.7227 214.498 24.0801 215.6 24.0801C216.689 24.0801 217.545 23.834 218.166 23.3418C218.787 22.8379 219.221 22.1055 219.467 21.1445C219.725 20.1719 219.854 18.9883 219.854 17.5938V8.34766H225.215ZM244.516 28H228.994V24.8359L238.1 12.4434H229.539V8.34766H244.199V11.8281L235.34 23.9043H244.516V28Z" fill="#00AEEF"/>
</svg>
