<svg width="22" height="20" viewBox="0 0 22 20" fill="none" xmlns="http://www.w3.org/2000/svg">
<path d="M10.1093 0.745358C10.4804 0.0181066 11.5196 0.0181085 11.8907 0.74536L14.366 5.59569C14.5113 5.88041 14.784 6.07851 15.0996 6.12872L20.4775 6.98402C21.2838 7.11226 21.605 8.10055 21.028 8.67826L17.18 12.5312C16.9541 12.7574 16.8499 13.0779 16.8997 13.3937L17.7481 18.7726C17.8753 19.5791 17.0346 20.1899 16.3069 19.8197L11.4534 17.3507C11.1685 17.2057 10.8315 17.2057 10.5466 17.3507L5.69308 19.8197C4.96535 20.1899 4.12466 19.5791 4.25187 18.7726L5.10028 13.3937C5.15008 13.0779 5.04593 12.7574 4.82005 12.5312L0.972013 8.67826C0.395045 8.10055 0.716159 7.11226 1.5225 6.98402L6.90035 6.12872C7.21603 6.07851 7.4887 5.88041 7.634 5.59569L10.1093 0.745358Z" fill="#FFC107"/>
</svg>
