<?xml version="1.0" encoding="UTF-8"?>
<svg id="Layer_1" data-name="Layer 1" xmlns="http://www.w3.org/2000/svg" viewBox="0 0 2000 2000">
  <defs>
    <style>
      .cls-1, .cls-2 {
        fill: #d79728;
      }

      .cls-2 {
        letter-spacing: 0em;
      }

      .cls-2, .cls-3 {
        font-size: 153.56px;
      }

      .cls-2, .cls-3, .cls-4 {
        font-family: Ebrima-Bold, Ebrima;
        font-weight: 700;
      }

      .cls-3 {
        letter-spacing: -.03em;
      }

      .cls-4 {
        fill: #231f20;
        font-size: 86.17px;
        letter-spacing: 0em;
      }
    </style>
  </defs>
  <path class="cls-1" d="M1654.2,378.64s-27.86,159.38-332.2,241.09c0,0-40.34,8.43-57.96,8.94s-89.11,13.28-147.06,63.32c0,0-43.79-21.32-102.89-4.21,0,0,74.55-4.72,127.15,42,0,0,29.87,23.23,12.77,60.77,0,0-4.98-42-65.36-40.09,0,0,5.62,12.13,35.11,29.74s51.96,35.74,39.19,73.15c0,0-16.85-32.04-63.19-31.91s-79.28,32.43-84.89,71.36c0,0-.64,5.49-.77,13.6s-.04,276.32-.04,276.32l38-26.81s-12.17-34.04-12.34-88.43c0,0,12.34,51.15,24.09,67.91l38.04-25.11s-53.87-76.26-51.83-166.81c0,0,5.87,26.68,11.53,39.62,0,0,3.02-34.6,27.45-44.3,0,0,10.55-4,22.3-3.15s159.32,16,242.72-20.09c0,0-103.74,17.19-222.21-35.91,0,0,77.02,11.06,99.15,12.77s247.32,30.64,363.74-82.21c0,0-220.09,74.04-398.81,20.94,0,0,403.4,37.79,513.19-162.38,0,0-182.3,121.02-419.23,105.19,0,0,404.94-33.19,419.23-233.36,0,0-154.72,154.21-394.21,156.77,0,0,412.66-82.34,339.35-318.7Z"/>
  <path d="M987.5,1182.7l-38-26.81s12.17-34.04,12.34-88.43c0,0-12.34,51.15-24.09,67.91l-38.04-25.11s53.87-76.26,51.83-166.81c0,0-5.87,26.68-11.53,39.62,0,0-3.02-34.6-27.45-44.3,0,0-10.55-4-22.3-3.15s-159.32,16-242.72-20.09c0,0,103.74,17.19,222.21-35.91,0,0-77.02,11.06-99.15,12.77s-247.32,30.64-363.74-82.21c0,0,220.09,74.04,398.81,20.94,0,0-403.4,37.79-513.19-162.38,0,0,182.3,121.02,419.23,105.19,0,0-404.94-33.19-419.23-233.36,0,0,154.72,154.21,394.21,156.77,0,0-412.66-82.34-339.35-318.7,0,0,27.86,159.38,332.2,241.09,0,0,40.34,8.43,57.96,8.94,0,0,70.79,2.3,137.52,55.4s115.01,131.74,112.48,235.91,0,262.72,0,262.72Z"/>
  <path d="M1434.25,929.72c-49.8,192.93-225.32,335.88-433.6,335.88s-380.64-140.39-432.23-330.7l-44.59-13.83c6.37,29.58,15.52,58.52,27.42,86.64,24.56,58.08,59.73,110.24,104.52,155.03,44.78,44.79,96.94,79.95,155.03,104.52,60.14,25.44,124.02,38.34,189.85,38.34s129.72-12.9,189.86-38.34c58.08-24.57,110.24-59.73,155.03-104.52s79.95-96.95,104.52-155.03c12.03-28.45,21.26-57.74,27.64-87.67l-43.45,9.68ZM1000.65,370.11c151.65,0,285.94,75.78,366.96,191.47l39.84-12.97c-17.93-27.07-38.62-52.36-61.91-75.65-44.79-44.78-96.95-79.95-155.03-104.52-60.14-25.44-124.02-38.33-189.86-38.33s-129.71,12.89-189.85,38.33c-58.09,24.57-110.25,59.74-155.03,104.52-22.51,22.51-42.59,46.89-60.12,72.94l48.67,1.14c81.85-107.46,211.13-176.93,356.33-176.93Z"/>
  <text class="cls-3" transform="translate(281 1552.83)"><tspan x="0" y="0">COMFORT </tspan></text>
  <text class="cls-2" transform="translate(1014.01 1551.91)"><tspan x="0" y="0">PREMIUM</tspan></text>
  <text class="cls-4" transform="translate(769.71 1676.8)"><tspan x="0" y="0">SINCE 2018</tspan></text>
</svg>