<svg width="22" height="22" viewBox="0 0 22 22" fill="none" xmlns="http://www.w3.org/2000/svg">
<rect x="0.75" y="0.75" width="20.5" height="20.5" rx="10.25" stroke="#EFF6FF" stroke-width="0.5"/>
<path d="M1.03906 13.208V17.1707C1.03906 17.4539 1.23203 17.7015 1.50707 17.7691C7.72437 19.2966 13.9417 16.0683 20.159 17.4552C20.543 17.5409 20.907 17.247 20.907 16.8536V13.208C14.2843 11.3203 7.66172 15.0957 1.03906 13.208Z" fill="#FF473E"/>
<path d="M1.03906 8.77051V13.2075C7.66172 15.0951 14.2843 11.3198 20.907 13.2075V8.77051C14.2843 6.88285 7.66172 10.6582 1.03906 8.77051Z" fill="#0B67B2"/>
<path d="M1.03906 4.95253V8.77053C7.66172 10.6582 14.2843 6.88288 20.907 8.77053V4.63538C20.907 4.35214 20.714 4.1046 20.439 4.03702C14.2217 2.50944 8.00437 5.73776 1.78707 4.35085C1.40309 4.26522 1.03906 4.55909 1.03906 4.95253Z" fill="#E8E8E8"/>
</svg>
