<svg width="170" height="170" viewBox="0 0 170 170" fill="none" xmlns="http://www.w3.org/2000/svg">
<g id="uiw:pay">
<path id="Vector" d="M99.195 72.5649C98.5216 72.5603 97.8738 72.8223 97.3928 73.2937C96.9119 73.7651 96.637 74.4075 96.628 75.0809V93.8829C96.637 94.5577 96.9131 95.2015 97.3958 95.6731C97.8786 96.1447 98.5286 96.4057 99.2035 96.3989H155.839C156.514 96.4057 157.164 96.1447 157.647 95.6731C158.129 95.2015 158.406 94.5577 158.414 93.8829V75.0809C158.406 74.406 158.129 73.7623 157.647 73.2907C157.164 72.8191 156.514 72.5581 155.839 72.5649H99.195ZM133.926 12.7589C141.763 13.1329 147.398 14.6799 150.968 17.9609C154.496 21.2079 156.307 25.9084 156.663 32.1304V49.9549C156.646 51.4728 156.026 52.9216 154.941 53.9831C153.855 55.0445 152.393 55.6317 150.875 55.6159C150.123 55.6249 149.376 55.4855 148.677 55.2059C147.979 54.9263 147.342 54.5118 146.804 53.9861C146.266 53.4604 145.836 52.8338 145.54 52.1422C145.244 51.4505 145.087 50.7072 145.078 49.9549L145.087 32.4534C144.9 29.2234 144.126 27.2174 143.021 26.1974C141.95 25.2114 138.686 24.3274 133.645 24.0724H22.4995C17.935 24.2424 14.9685 25.1094 13.532 26.3419C12.427 27.2854 11.594 29.8864 11.5855 34.3829L11.56 134.428C11.985 138.797 12.9455 141.712 14.178 143.166C15.113 144.271 18.0115 145.376 22.2785 145.92H133.765C138.984 146.022 142.06 145.24 143.097 144.194C144.245 143.03 145.078 139.97 145.078 134.963V117.581C145.078 114.461 147.671 111.92 150.875 111.92C154.071 111.92 156.663 114.461 156.663 117.581V134.963C156.663 142.613 155.1 148.334 151.436 152.048C147.662 155.873 141.661 157.403 133.645 157.233L21.59 157.208C13.9655 156.324 8.5 154.233 5.2445 150.382C2.295 146.897 0.6545 141.925 0 134.972V34.3744C0.017 26.9284 1.802 21.3269 5.899 17.8249C9.656 14.5949 15.079 13.0224 22.2785 12.7504H133.926V12.7589ZM155.839 61.2429C163.659 61.2429 170 67.4394 170 75.0809V93.8829C170 101.524 163.659 107.721 155.839 107.721H99.2035C91.3835 107.721 85.0425 101.516 85.0425 93.8829V75.0809C85.0425 67.4394 91.3835 61.2429 99.2035 61.2429H155.839ZM113.365 77.7329C109.454 77.7329 106.284 80.7929 106.284 84.5584C106.284 88.3324 109.454 91.3839 113.365 91.3839C117.274 91.3839 120.445 88.3239 120.445 84.5584C120.445 80.7844 117.274 77.7244 113.365 77.7244V77.7329Z" fill="white" fill-opacity="0.6"/>
</g>
</svg>
