<svg width="32" height="33" viewBox="0 0 32 33" fill="none" xmlns="http://www.w3.org/2000/svg">
<g id="basil:telegram-outline">
<path id="Vector" fill-rule="evenodd" clip-rule="evenodd" d="M7.71743 19.193C7.77472 19.2121 7.83363 19.226 7.89343 19.2344C8.27066 20.1232 8.64577 21.013 9.01876 21.9037C9.68943 23.5064 10.3654 25.157 10.5134 25.6317C10.6988 26.2157 10.8934 26.613 11.1068 26.885C11.2174 27.0237 11.3441 27.1464 11.4934 27.2397C11.5712 27.2884 11.6545 27.3278 11.7414 27.357C12.1681 27.517 12.5574 27.4504 12.8014 27.369C12.9446 27.3202 13.0809 27.2529 13.2068 27.169L13.2134 27.1664L16.9814 24.817L21.3348 28.153C21.3988 28.2024 21.4681 28.2437 21.5428 28.277C22.0654 28.5037 22.5721 28.5837 23.0494 28.5197C23.5241 28.453 23.9014 28.2544 24.1828 28.029C24.5058 27.7687 24.7634 27.4362 24.9348 27.0584L24.9468 27.029L24.9508 27.0184L24.9534 27.013V27.0104L24.9548 27.009C24.9779 26.9517 24.9958 26.8923 25.0081 26.8317L28.9814 6.79836C28.994 6.73424 29.0002 6.66904 29.0001 6.6037C29.0001 6.01703 28.7788 5.45836 28.2601 5.12103C27.8148 4.8317 27.3201 4.81836 27.0068 4.84236C26.6708 4.86903 26.3588 4.9517 26.1494 5.01836C26.0322 5.0555 25.9166 5.09731 25.8028 5.1437L25.7881 5.15036L3.50276 13.8917L3.50009 13.893C3.42469 13.9208 3.35041 13.9515 3.27743 13.985C3.10071 14.0645 2.93119 14.1591 2.77076 14.2677C2.46809 14.4744 1.77076 15.0424 1.88943 15.981C1.98276 16.7277 2.49476 17.1877 2.80809 17.409C2.97876 17.5304 3.14143 17.617 3.26143 17.6744C3.31476 17.701 3.42943 17.7464 3.47876 17.7677L3.49209 17.7717L7.71743 19.193ZM26.5681 6.99036H26.5654C26.554 6.99546 26.5424 7.00035 26.5308 7.00503L4.21876 15.7584C4.20728 15.763 4.19572 15.7674 4.18409 15.7717L4.17076 15.7757C4.13 15.7917 4.08996 15.8095 4.05076 15.829C4.08787 15.8503 4.12615 15.8694 4.16543 15.8864L8.35476 17.297C8.42962 17.3223 8.50123 17.3563 8.56809 17.3984L22.4041 9.29836L22.4174 9.2917C22.4712 9.25904 22.5263 9.22879 22.5828 9.20103C22.6788 9.1517 22.8321 9.0797 23.0054 9.02636C23.1254 8.98903 23.4814 8.8837 23.8654 9.0077C24.0691 9.0719 24.2506 9.19208 24.3893 9.35452C24.5279 9.51697 24.618 9.71512 24.6494 9.92636C24.6991 10.1114 24.7005 10.306 24.6534 10.4917C24.5601 10.8584 24.3041 11.1437 24.0694 11.3624C23.8694 11.549 21.2761 14.0504 18.7174 16.5197L15.2334 19.8797L14.6134 20.4797L22.4428 26.4824C22.5484 26.5267 22.6632 26.545 22.7774 26.5357C22.835 26.5279 22.8891 26.5038 22.9334 26.4664C22.9875 26.4207 23.0339 26.3667 23.0708 26.3064L23.0734 26.305L26.9268 6.87436C26.8054 6.90356 26.6864 6.94189 26.5708 6.98903L26.5681 6.99036ZM15.2868 23.5157L13.7241 22.3184L13.3454 24.725L15.2868 23.5157ZM12.2908 19.9424L13.8441 18.4424L17.3281 15.0797L18.6254 13.829L9.93209 18.9184L9.97876 19.0277C10.527 20.3229 11.0693 21.6207 11.6054 22.921L11.9828 20.521C12.0169 20.2984 12.1255 20.0953 12.2908 19.9424Z" fill="white"/>
</g>
</svg>
