<svg width="39" height="39" viewBox="0 0 39 39" fill="none" xmlns="http://www.w3.org/2000/svg">
<path d="M26.8282 24.959C26.7121 24.8039 26.4948 24.515 26.1169 24.4121C25.6145 24.2784 25.1874 24.5703 25.0046 24.6948L21.9874 26.7642C21.4957 27.1006 20.9442 27.4217 20.5648 27.2665C20.3489 27.1759 20.1584 26.9178 19.9495 26.6136L15.7677 20.5329L11.7849 14.3524C11.6136 14.0851 11.4193 13.7824 11.42 13.532C11.4216 13.1188 11.9615 12.7178 12.4317 12.4136L15.5042 10.4272C15.6901 10.3074 16.1249 10.0262 16.194 9.50543C16.2455 9.11672 16.0619 8.8064 15.9651 8.64354L12.8288 3.29727C12.4762 2.69505 11.9938 1.87156 11.1197 1.50441C10.0796 1.07114 8.94201 1.49824 8.26065 1.75639C6.77576 2.31876 5.46758 2.87177 4.48664 3.94876C2.81284 5.78771 2.70604 8.4931 2.73758 10.8851C2.76752 13.1358 3.32601 15.746 4.39828 18.6434C5.30389 21.0907 6.54602 23.4489 8.09307 25.6535C9.53028 27.9318 11.2271 29.9904 13.1398 31.7741C15.4004 33.8803 17.5935 35.4028 19.6582 36.2984C21.2583 36.9913 23.0404 37.6811 24.7941 37.6811C25.4478 37.6811 26.0968 37.5843 26.7313 37.3585C28.1056 36.87 29.1202 35.876 30.211 34.7222C30.7103 34.1937 31.5453 33.3073 31.5453 32.1812C31.5446 31.2379 30.9708 30.4728 30.5514 29.9136L26.8282 24.959ZM29.2962 33.8588C28.3191 34.8912 27.4204 35.7776 26.3081 36.1724C24.4031 36.8546 22.1341 36.0004 20.1584 35.1431C18.2258 34.3059 16.1533 32.8617 13.9986 30.8523C12.2633 29.2346 10.7125 27.3803 9.38205 25.3324C9.36246 25.2794 9.33584 25.2293 9.30291 25.1834C9.24827 25.1083 9.19449 25.0325 9.14158 24.9561C9.09321 24.8793 9.04476 24.8024 8.99716 24.7256C8.96826 24.6779 8.93283 24.6345 8.89189 24.5966C7.51386 22.5764 6.40076 20.4302 5.57811 18.2072C4.55649 15.4449 4.02412 12.976 3.99571 10.8698C3.96737 8.71735 4.05193 6.29623 5.41769 4.79679C6.21041 3.92416 7.37569 3.43719 8.70534 2.93324C9.38898 2.67669 10.1003 2.44467 10.6342 2.66595C11.0827 2.85494 11.4015 3.35112 11.7426 3.93338L14.8951 9.31964C14.8751 9.33503 14.8505 9.35034 14.8206 9.37038L11.748 11.3568C11.2342 11.6886 10.1656 12.3799 10.1618 13.5291C10.1595 14.1498 10.4868 14.6598 10.7264 15.0331L14.7453 21.2674L18.9125 27.3265C19.1621 27.6906 19.5048 28.1884 20.0824 28.4281C21.1378 28.8705 22.1917 28.1484 22.6979 27.8028L25.7151 25.7334C25.8196 25.6642 25.8703 25.6351 25.8219 25.715L29.5451 30.6695C29.9507 31.2102 30.2864 31.6973 30.2871 32.1812C30.2871 32.7588 29.797 33.3272 29.2962 33.8588Z" fill="white"/>
<path d="M33.1738 9.15374C29.7256 4.26374 23.8716 1.53381 17.9046 2.01621C17.5589 2.04386 17.3009 2.34802 17.3293 2.69368C17.3577 3.03935 17.6519 3.30054 18.0075 3.26977C23.5351 2.83498 28.9528 5.35299 32.146 9.8789C35.3385 14.4063 35.9053 20.361 33.6247 25.417C33.4818 25.7335 33.6231 26.1053 33.9396 26.2481C34.0208 26.2854 34.1091 26.3048 34.1985 26.3049C34.3198 26.3048 34.4384 26.2697 34.5402 26.2037C34.642 26.1377 34.7226 26.0438 34.7723 25.9331C37.235 20.4732 36.6228 14.0437 33.1738 9.15374Z" fill="white"/>
<path d="M19.1466 5.79232C18.8009 5.82919 18.5521 6.14103 18.5897 6.48518C18.6273 6.83237 18.9492 7.09661 19.2833 7.04283C23.2469 6.60957 27.1822 8.32412 29.5634 11.5104C31.9447 14.6982 32.4685 18.9614 30.9299 22.6362C30.8656 22.7902 30.8651 22.9635 30.9285 23.1179C30.9918 23.2723 31.1139 23.3952 31.2679 23.4596C31.3449 23.4916 31.4273 23.5083 31.5107 23.5088C31.6348 23.5085 31.7561 23.4717 31.8595 23.4028C31.9628 23.3339 32.0434 23.2361 32.0914 23.1216C33.8005 19.0382 33.2183 14.3002 30.5712 10.7575C27.9265 7.2149 23.5557 5.30535 19.1466 5.79232Z" fill="white"/>
<path d="M28.5732 22.1538C28.6502 22.1857 28.7326 22.2024 28.816 22.2029C28.9401 22.2027 29.0615 22.1658 29.1648 22.097C29.2681 22.0281 29.3487 21.9303 29.3967 21.8157C30.6941 18.7139 30.2524 15.116 28.2429 12.4259C26.2334 9.73594 22.9189 8.29484 19.5675 8.6559C19.2226 8.69276 18.973 9.00309 19.0106 9.34876C19.0482 9.69442 19.3685 9.95562 19.7042 9.90641C22.5993 9.59304 25.4907 10.8451 27.2351 13.1787C28.9788 15.5138 29.3621 18.6371 28.2352 21.3302C28.1015 21.6514 28.2521 22.0202 28.5732 22.1538Z" fill="white"/>
</svg>
