<svg width="36" height="37" viewBox="0 0 36 37" fill="none" xmlns="http://www.w3.org/2000/svg">
<path d="M31.9704 15.2404C31.9172 15.01 31.8191 14.7922 31.6818 14.5996C31.5444 14.4071 31.3705 14.2434 31.1699 14.1181C30.9694 13.9927 30.7461 13.9081 30.5128 13.869C30.2795 13.83 30.0408 13.8372 29.8104 13.8904C29.5799 13.9436 29.3621 14.0417 29.1696 14.179C28.977 14.3163 28.8134 14.4903 28.688 14.6908C28.5626 14.8914 28.478 15.1147 28.439 15.348C28.3999 15.5813 28.4072 15.82 28.4604 16.0504C29.1363 18.7604 28.7499 21.6263 27.3804 24.0604C24.4104 29.1904 17.7503 30.9904 12.6203 28.0204C7.49035 25.1404 5.69035 18.4804 8.66035 13.3504C11.6303 8.22043 18.2903 6.42043 23.4204 9.39043C23.6213 9.50862 23.8435 9.58608 24.0744 9.61838C24.3052 9.65068 24.5402 9.6372 24.7658 9.5787C24.9915 9.5202 25.2034 9.41783 25.3895 9.27743C25.5756 9.13703 25.7322 8.96135 25.8504 8.76043C25.9685 8.55951 26.046 8.33727 26.0783 8.10642C26.1106 7.87556 26.0971 7.6406 26.0386 7.41495C25.9801 7.18931 25.8777 6.97739 25.7373 6.79131C25.5969 6.60523 25.4213 6.44862 25.2204 6.33043C18.2903 2.28043 9.56035 4.62043 5.51035 11.5504C4.31871 13.5976 3.64918 15.9065 3.56083 18.2736C3.47248 20.6406 3.96802 22.993 5.00373 25.1233C6.03945 27.2536 7.58351 29.0962 9.49971 30.4887C11.4159 31.8811 13.6453 32.7806 15.9913 33.1078C18.3373 33.435 20.7278 33.1797 22.9519 32.3647C25.1759 31.5496 27.1652 30.1997 28.7442 28.4341C30.3232 26.6684 31.4435 24.5413 32.0061 22.2404C32.5687 19.9395 32.5565 17.5355 31.9704 15.2404ZM12.2603 17.2204C11.8546 16.9579 11.3611 16.8672 10.8885 16.9685C10.4159 17.0698 10.0029 17.3546 9.74035 17.7604C9.47778 18.1662 9.38717 18.6597 9.48844 19.1323C9.58971 19.6049 9.87457 20.0179 10.2803 20.2804L17.4803 24.7804C17.7775 24.9638 18.1212 25.0576 18.4703 25.0504C18.7487 25.0446 19.0223 24.977 19.2714 24.8524C19.5204 24.7279 19.7387 24.5496 19.9103 24.3304L29.3604 12.1804C29.9904 11.3704 29.8104 10.2904 29.0004 9.66043C28.1904 9.03043 27.1104 9.21043 26.4804 10.0204L18.0203 20.8204L12.2603 17.2204Z" fill="#FF0090"/>
</svg>
