<svg width="434" height="100" viewBox="0 0 434 100" fill="none" xmlns="http://www.w3.org/2000/svg">
<path d="M9.84661 1.26311L3.97003 1.75012V2.97393H4.9572C5.80356 3.0665 6.64207 3.22045 7.46611 3.43457L8.75098 3.76844L10.8962 4.6424L10.9378 4.66655C12.1395 5.36431 13.2815 6.1601 14.3523 7.04579L14.576 7.28738C15.4179 8.19668 16.168 9.18693 16.8153 10.2437L17.4229 11.5469C17.5609 11.8429 17.6746 12.1496 17.7628 12.464C17.9117 12.994 17.9872 13.542 17.9872 14.0926V16.1032L17.9338 16.5481C17.89 16.913 17.8176 17.274 17.7174 17.6276C17.593 18.0669 17.4261 18.493 17.219 18.8999L16.9543 19.4203L16.8493 19.6215C16.4433 20.3997 15.9735 21.1429 15.4447 21.8435C14.8101 22.6245 14.2378 23.4542 13.7331 24.3248L13.0413 25.5181L12.2667 27.3852L11.9787 28.181C11.668 29.0394 11.4293 29.9221 11.2649 30.8201C11.0856 31.7989 10.9955 32.7919 10.9955 33.787V36.1646L11.4325 39.9981L11.5655 42.8934C11.5922 43.4736 11.1289 43.9586 10.5481 43.9586C10.4942 43.9586 10.4404 43.9544 10.3872 43.9458L10.0618 43.8938C9.7938 43.8509 9.52957 43.7869 9.27159 43.7025L8.77039 43.5385L9.02894 43.8294L9.46807 44.1609C9.70233 44.3378 9.95714 44.4857 10.227 44.6013L10.6085 44.7648C10.6862 44.7981 10.7684 44.8197 10.8524 44.8289L11.1968 44.8665C11.4344 44.8924 11.6144 45.0931 11.6144 45.3322V46.5991C11.6144 47.5487 11.4784 48.4933 11.2105 49.4043C10.8235 50.3072 10.351 51.1709 9.79928 51.9836L9.1259 52.9756L8.07554 54.3976L7.73282 54.9212C7.57535 55.1618 7.47187 55.4336 7.42951 55.718L7.40425 55.8876C7.38865 55.9924 7.39048 56.099 7.40966 56.2031C7.46281 56.4917 7.64491 56.7401 7.90407 56.8776L8.13443 56.9998C8.23489 57.0531 8.34109 57.0948 8.45098 57.1241L9.98235 57.5325L10.8177 57.8805C11.2512 58.0612 11.5336 58.4848 11.5336 58.9545L11.4205 59.9079L11.3803 60.0688C11.2997 60.3912 11.2589 60.7224 11.2589 61.0548V61.9006C11.2589 62.1606 11.3367 62.4146 11.4823 62.6301C11.6009 62.8056 11.7606 62.9496 11.9474 63.0496L12.3578 63.2691L12.7581 63.4492C13.1045 63.6051 13.3273 63.9497 13.3273 64.3296C13.3273 64.5529 13.2499 64.7693 13.1083 64.9419L12.9208 65.1705C12.8474 65.2598 12.7866 65.3588 12.7401 65.4646L12.6728 65.6175C12.6462 65.6779 12.6325 65.7432 12.6325 65.8093C12.6325 65.9598 12.7036 66.1014 12.8244 66.1913L13.3273 66.5656C13.7581 66.8185 14.037 67.267 14.0734 67.7652L14.1797 69.2165C14.2093 69.621 14.1814 70.0277 14.0968 70.4245L14.0152 70.8075L13.9021 71.4687C13.8382 71.8421 13.8061 72.2202 13.8061 72.5991V74.0756C13.8061 74.6969 14.0248 75.2983 14.4239 75.7744C14.6217 76.0103 14.8592 76.2099 15.1256 76.3642L15.2067 76.4111C15.6905 76.6912 16.2395 76.8387 16.7985 76.8387H17.2048C17.6494 76.8387 18.0919 76.7754 18.5187 76.6508L21.2366 75.8576L25.1609 74.3297L28.0915 73.3182C28.5603 73.1564 29.0402 73.0286 29.5274 72.9358L29.849 72.8745C30.2717 72.794 30.701 72.7535 31.1312 72.7535H31.7618C32.2352 72.7535 32.7041 72.8457 33.1423 73.025C33.6374 73.2275 34.0818 73.5365 34.4442 73.9301L34.464 73.9517C34.8419 74.3621 35.1241 74.8511 35.2905 75.3835L35.4145 75.7803C35.5844 76.324 35.6708 76.8904 35.6708 77.46V78.2351C35.6708 79.4987 35.4472 80.7522 35.0104 81.9379L34.9075 82.2172C34.6782 82.8395 34.3993 83.4424 34.0735 84.02L33.1704 85.6209L32.9624 85.9242C32.0918 87.194 31.065 88.3493 29.9063 89.3632C28.8784 90.2626 27.7534 91.0447 26.5522 91.695L25.9976 91.9952C24.7683 92.6607 23.4833 93.2177 22.1571 93.6597L21.1117 94.0082L19.0504 94.4023C17.5583 94.6875 16.0427 94.8311 14.5236 94.8311C13.1788 94.8311 11.8364 94.7186 10.5104 94.4947L10.0658 94.4196L10.027 94.4109C8.8322 94.1431 7.66802 93.7536 6.55265 93.2486L3.83073 91.7927L1.77347 90.3051L0.380859 89.0074L0.816479 89.8787C1.2002 90.6461 1.66391 91.3709 2.19991 92.0409C2.84145 92.8428 3.58181 93.5604 4.40337 94.1765L4.78373 94.4618C5.72798 95.17 6.74802 95.771 7.82507 96.2538L8.03217 96.3467C9.25747 96.896 10.5405 97.3061 11.8572 97.5694L13.3574 97.8695C14.8529 98.1223 16.3669 98.2493 17.8836 98.2493H19.4976L22.441 97.8695L22.8505 97.778C25.2176 97.2494 27.5286 96.4958 29.7522 95.5274L30.155 95.2799C31.9087 94.2021 33.5638 92.9716 35.1011 91.6028L35.9776 90.6784C36.553 90.0717 37.0826 89.4231 37.5621 88.7381C38.2615 87.739 38.8509 86.6672 39.3199 85.5415L39.5638 84.9562L39.7405 84.3C40.0652 83.0936 40.2919 81.863 40.4183 80.6201C40.4183 78.766 40.2775 76.9146 39.9969 75.0818L39.9436 74.7332L39.0257 71.6315L38.2345 69.5109L36.0506 65.2065L34.1516 61.8516L27.9482 52.4198L24.4983 47.071L21.8397 42.45L19.8457 38.6204L19.1178 36.8163L18.1999 34.3476L17.6302 32.1004L17.3258 30.7486C17.0022 29.3121 16.839 27.8442 16.839 26.3717V24.7576C16.9863 23.5995 17.2403 22.4576 17.5975 21.3462L17.6302 21.2444L18.1999 19.6619L19.5292 16.845L20.4787 15.1043C21.469 13.6926 22.5652 12.3583 23.7578 11.1129L23.7982 11.0706L25.0161 10.0984C25.9838 9.32587 27.0102 8.6301 28.0862 8.01739V6.06423L32.464 5.83973H37.5602L40.0971 6.06423L42.2298 6.42343L45.4178 7.14184L47.775 7.88269L50.1323 8.7358L52.6916 9.81341L55.0713 11.2278L55.9876 11.8957C56.9762 12.6164 57.8978 13.4247 58.7411 14.3109L58.9509 14.5314C59.7302 15.3503 60.4271 16.2438 61.0316 17.199L61.2351 17.5206C61.6898 18.239 62.0744 18.9993 62.3839 19.7911C62.7313 20.68 62.9819 21.6037 63.1315 22.5462L63.1659 22.763C63.2921 23.5578 63.3555 24.3613 63.3555 25.166V25.2909C63.3555 26.5084 63.224 27.7224 62.9633 28.9116L62.9468 28.9871C62.7406 29.9276 62.4578 30.8497 62.101 31.744L61.614 32.9648C61.204 33.9926 60.7186 34.9887 60.1616 35.9448L59.5699 36.9608C59.0167 37.9105 58.3464 38.787 57.5747 39.5695C56.7634 40.3922 55.847 41.1042 54.8492 41.6869L53.7697 42.3173C52.6948 42.9451 51.5697 43.4827 50.4061 43.9247L49.6716 44.2037C48.3965 44.688 47.0809 45.0579 45.7402 45.3091L47.05 48.4056L50.2068 49.0368L54.4718 50.0443L56.6996 50.7495C58.3233 51.2635 59.8985 51.9194 61.4071 52.7096L61.749 52.8886C62.8289 53.4543 63.8641 54.1016 64.8456 54.8248C65.9874 55.6661 67.0522 56.6071 68.0276 57.6366L68.9796 58.6415L69.8789 59.8852C70.331 60.5105 70.7377 61.1675 71.0958 61.8511C71.4755 62.5761 71.7995 63.3289 72.065 64.1031L72.4317 65.1727C72.727 66.0339 72.957 66.9161 73.1199 67.8118C73.3146 68.8829 73.4125 69.9692 73.4125 71.0578V71.6256C73.4125 73.1085 73.2776 74.5883 73.0094 76.0467L72.8752 76.7763L72.5986 77.9703C72.358 79.0085 72.0344 80.0257 71.6309 81.012L71.4824 81.3751C71.18 82.1141 70.8192 82.8278 70.4032 83.5093C69.7699 84.5467 69.0128 85.5034 68.1486 86.358L67.6466 86.8544C66.8351 87.6569 65.9589 88.3911 65.0268 89.0496L64.9838 89.08C63.8888 89.8536 62.7236 90.5227 61.5034 91.0784L59.9458 91.7878L54.8748 93.4334L51.7852 94.0043L46.7141 94.5752H40.6356C39.8798 94.5141 37.8722 94.3628 35.8888 94.2461C33.8587 96.7896 28.7232 98.6894 26.4092 99.3213H35.5096H42.539L49.7144 98.913L55.4021 98.2713L60.6232 97.4254L64.7942 96.492L70.3069 94.5086L73.8362 92.8461L75.0054 92.1002C76.4782 91.1607 77.8573 90.0817 79.1235 88.8782L79.4136 88.6025C80.3024 87.7578 81.1203 86.8415 81.859 85.8629L82.0498 85.6103C82.6788 84.777 83.2366 83.8924 83.7175 82.9657C84.3037 81.8358 84.7727 80.6488 85.1169 79.4233L85.3284 78.6704C85.7158 77.295 85.9331 75.8773 85.9754 74.4489L85.9956 73.7649C86.0368 72.3713 85.9515 70.9768 85.7405 69.5986L85.6201 68.8117L85.4095 68.1139C84.87 66.3259 84.1995 64.58 83.4033 62.8906L82.1199 60.7613L80.6907 58.8363L78.5031 56.2986L75.5719 53.6552C74.7645 52.9271 73.9022 52.2624 72.9924 51.6672C72.1514 51.1169 71.2721 50.6273 70.3612 50.2022L69.2942 49.7043L65.8202 48.4056L57.0215 45.9381L59.5865 44.9316L62.054 43.8277C63.847 42.942 65.5589 41.9006 67.1699 40.7155L67.5734 40.4186L69.5539 38.7628L71.2422 37.0745L71.3632 36.9168C72.4926 35.4445 73.4948 33.8789 74.3591 32.2369L74.9024 30.9756C75.1459 30.4103 75.3485 29.8282 75.5085 29.2339C75.8015 28.1454 75.95 27.0231 75.95 25.8959V25.3538V24.7662C75.95 23.6695 75.8019 22.5778 75.5098 21.5206C75.3489 20.9384 75.145 20.3689 74.8997 19.817L74.3591 18.6006L74.0682 18.0652C73.3116 16.6723 72.4194 15.3575 71.4046 14.1398C70.4757 13.0251 69.4481 11.9966 68.3342 11.0667L68.2556 11.0011C66.9384 9.90154 65.5126 8.9392 64.0002 8.12898L60.8202 6.42542L56.1125 4.63972L46.697 2.36701L35.8854 0.905977L28.5153 0.678711H23.5803L15.0738 0.905977L9.84661 1.26311Z" fill="black"/>
<path d="M27.3962 9.33902L27.7596 9.00635L27.5219 9.44712C26.8931 10.6129 26.3602 11.8279 25.9285 13.0801L25.4419 14.8155L25.4152 14.956C25.1093 16.5671 24.9553 18.2034 24.9553 19.8432L25.3121 22.7301L25.9447 25.6819L26.9989 28.6175L28.7505 32.5262L31.6536 37.6513L34.3297 42.079L36.5192 45.1281L40.3468 50.3343L43.6716 55.1026L46.3802 58.7355L48.4678 62.0621L49.9986 64.6615L50.905 66.5926C51.6275 68.1318 52.1946 69.7392 52.5979 71.3909L52.7962 72.0589C53.0286 72.8418 53.1467 73.6541 53.1467 74.4707C53.1467 75.1302 53.0697 75.7874 52.9173 76.4289L52.5979 77.7738C52.196 79.0562 51.5985 80.2688 50.8265 81.3688L49.6809 83.0014C47.8395 85.1305 45.7419 87.0237 43.4359 88.6379L42.5759 89.2399L38.5036 91.3482L40.6986 88.6045L41.7137 87.3083C42.2873 86.5759 42.7907 85.7912 43.2173 84.9646C43.7125 84.0052 44.1015 82.9948 44.3774 81.951L44.6266 81.0086L44.709 80.6423C44.9997 79.3501 45.1464 78.0297 45.1464 76.7052L44.9731 74.8279C44.7426 73.0794 44.3511 71.356 43.8037 69.6796L43.7023 69.3692L42.3449 66.3366C41.768 65.0675 41.0996 63.842 40.3449 62.6699L38.7636 60.2137L37.1462 57.6143L32.9872 52.0979L30.7922 49.152L27.2108 44.2132L25.6224 41.8449L24.1205 39.3611L21.6078 34.1624L20.7125 31.6496L20.4256 30.5716C20.0593 29.1948 19.8265 27.7858 19.7305 26.3643V23.5916V23.0225C19.7305 22.2688 19.8242 21.5181 20.0096 20.7875C20.1505 20.2321 20.3437 19.6913 20.5864 19.1722L21.059 18.1619L22.5898 15.3026L24.3227 12.7032C25.245 11.4926 26.2736 10.3667 27.3962 9.33902Z" fill="#FFAEAD"/>
<path d="M28.028 75.8799C25.9644 77.3258 19.9854 78.7752 17.2539 79.3192C17.4203 81.1942 17.6532 86.4517 17.2539 92.4809C23.3981 91.2879 27.4808 88.7676 28.028 87.9876V75.8799Z" fill="#FFAEAD"/>
<path d="M147.086 38.152C147.086 38.9218 146.951 39.7109 146.682 40.5192C145.72 43.2136 143.506 45.119 140.042 46.2352C140.966 46.3507 141.851 46.5239 142.698 46.7549C147.356 47.9866 149.684 50.7388 149.684 55.0114C149.684 56.936 149.107 58.7066 147.952 60.3232C145.604 63.4411 141.794 65 136.52 65H116.774V63.4411H121.393V31.9163H116.774V30.3574H135.481C137.598 30.3574 139.484 30.5883 141.139 31.0502C145.104 32.205 147.086 34.5722 147.086 38.152ZM132.248 31.9163H129.476V45.4269H132.71C133.402 45.4269 134.057 45.3499 134.673 45.196C137.367 44.4261 138.714 42.2321 138.714 38.6139C138.676 34.2258 136.52 31.9933 132.248 31.9163ZM134.211 47.0436H129.476V63.4411H133.345C133.845 63.4411 134.345 63.4026 134.846 63.3256C138.849 62.7482 140.851 59.8421 140.851 54.6072C140.851 53.4525 140.677 52.3747 140.331 51.3739C139.33 48.487 137.29 47.0436 134.211 47.0436ZM173.53 65.5774C170.451 65.3849 168.507 63.6335 167.699 60.3232C167.506 60.8621 167.256 61.3818 166.948 61.8822C165.408 64.3456 163.003 65.5774 159.731 65.5774C158.653 65.5774 157.671 65.4427 156.786 65.1732C153.784 64.2109 152.283 62.0169 152.283 58.5911C152.321 53.5487 157.287 50.9312 167.179 50.7388V46.9858C167.179 45.8696 167.102 44.9073 166.948 44.0989C166.563 41.9049 165.466 40.8079 163.657 40.8079C163.118 40.8079 162.637 40.9041 162.213 41.0966C161.559 41.4815 161.02 42.4438 160.597 43.9835C160.443 44.5224 160.327 44.9073 160.25 45.1382C159.673 46.7549 158.557 47.5632 156.902 47.5632C156.517 47.5632 156.151 47.5055 155.805 47.39C154.38 47.0051 153.668 46.062 153.668 44.5608C153.668 43.9065 153.842 43.2906 154.188 42.7132C155.535 40.4422 158.826 39.3067 164.061 39.3067C165.408 39.3067 166.659 39.4414 167.814 39.7109C172.279 40.8271 174.512 43.791 174.512 48.6025V60.6697C174.512 62.5173 174.935 63.4796 175.782 63.5566C176.898 63.5181 177.572 62.1709 177.803 59.5149L179.304 59.5727C179.188 60.7659 179.015 61.7474 178.784 62.5173C178.091 64.5573 176.34 65.5774 173.53 65.5774ZM162.733 63.0947C163.003 63.0947 163.31 63.0369 163.657 62.9214C165.274 62.3056 166.448 60.6504 167.179 57.956V52.3554C165.447 52.4324 164.023 52.6441 162.906 52.9906C160.828 53.7604 159.788 55.4155 159.788 57.956C159.827 61.3048 160.809 63.0177 162.733 63.0947ZM192.93 63.4988C193.161 63.4988 193.373 63.5181 193.565 63.5566C194.065 63.6335 194.316 64.1147 194.316 65H180.747V63.4988C181.017 63.4988 181.286 63.4796 181.556 63.4411C183.288 63.2871 184.154 62.3056 184.154 60.4965V28.9717H180.747V27.4705H191.487V44.5031C191.756 43.9642 192.083 43.4253 192.468 42.8865C194.316 40.5 196.798 39.3067 199.916 39.3067C200.917 39.3067 201.841 39.4607 202.688 39.7686C206.113 40.9234 207.826 43.9065 207.826 48.718V63.4988H209.732C209.963 63.4988 210.194 63.5181 210.424 63.5566C210.925 63.6335 211.175 64.1147 211.175 65H198.242V63.4988C198.896 63.4988 199.416 63.4026 199.801 63.2101C200.263 62.9407 200.494 62.0361 200.494 60.4965V47.7364C200.494 47.3515 200.474 47.0051 200.436 46.6971C200.166 43.8103 198.858 42.3668 196.51 42.3668C195.894 42.3668 195.259 42.54 194.604 42.8865C192.526 44.0027 191.487 46.2545 191.487 49.6418V63.4988H192.93ZM212.907 41.9627V40.4615H216.891V34.9764L224.224 33.7639V40.4615H231.845V41.9627H224.224V59.4572C224.224 59.9576 224.262 60.4387 224.339 60.9006C224.647 62.9022 225.513 63.903 226.937 63.903C227.168 63.903 227.399 63.8837 227.63 63.8452C229.131 63.5373 230.267 61.8244 231.037 58.7066L232.596 58.9375C232.288 60.5157 231.864 61.7859 231.326 62.7482C230.209 64.6728 228.169 65.6351 225.205 65.6351C224.743 65.6351 224.282 65.6159 223.82 65.5774C219.201 65.0385 216.891 61.9784 216.891 56.3971V41.9627H212.907ZM281.788 65H280.634C279.979 65 279.44 64.8845 279.017 64.6536C278.324 64.2687 277.516 62.9022 276.592 60.5542L270.356 44.3299L262.735 65H261.58C260.926 65 260.387 64.8845 259.963 64.6536C259.271 64.2687 258.462 62.9022 257.538 60.5542L246.453 31.9163H243.566V30.3574H259.213V31.9163H254.594L263.659 57.1477L269.317 41.7317L264.929 30.3574H278.324V31.9163L273.705 31.8585L282.654 56.628L290.795 31.9163H286.176V30.3574H295.703V31.9163H292.816L281.788 65ZM305.345 52.4709C305.345 56.0891 305.576 58.7258 306.038 60.381C306.731 62.8445 308.271 64.0762 310.657 64.0762C312.004 64.0762 313.101 63.672 313.948 62.8637C315.411 61.401 316.142 57.8598 316.142 52.24C316.142 48.7372 315.911 46.1775 315.449 44.5608C314.757 42.0589 313.178 40.8079 310.715 40.8079C309.252 40.8079 308.117 41.2506 307.308 42.1359C306 43.637 305.345 47.0821 305.345 52.4709ZM311.004 39.3067C314.314 39.3067 317.143 40.2113 319.491 42.0204C322.532 44.4454 324.052 47.8134 324.052 52.1245C324.052 55.3578 323.09 58.2062 321.165 60.6697C318.586 63.9415 315.026 65.5774 310.484 65.5774C307.174 65.5774 304.325 64.5766 301.939 62.575C298.936 60.0346 297.435 56.5895 297.435 52.24C297.435 49.1606 298.321 46.4662 300.091 44.1567C302.632 40.9234 306.269 39.3067 311.004 39.3067ZM338.66 63.4988C338.891 63.4988 339.103 63.5181 339.295 63.5566C339.795 63.6335 340.046 64.1147 340.046 65H326.939V63.4988C327.247 63.4988 327.536 63.4796 327.805 63.4411C329.46 63.2486 330.288 62.2671 330.288 60.4965V41.674H326.939V40.1728H337.217L337.505 44.3876C339.199 41.0388 341.893 39.3452 345.588 39.3067C346.204 39.3067 346.82 39.3837 347.436 39.5377C349.784 40.2305 351.42 41.9434 352.344 44.6763C354.191 41.1351 356.982 39.3452 360.716 39.3067C362.063 39.3067 363.314 39.6724 364.469 40.4037C366.971 41.9819 368.222 44.6571 368.222 48.4293V63.4988H370.127C370.358 63.4988 370.589 63.5181 370.82 63.5566C371.32 63.6335 371.57 64.1147 371.57 65H358.406V63.4988C359.022 63.4988 359.503 63.4411 359.85 63.3256C360.581 63.0177 360.947 62.0746 360.947 60.4965V47.7364C360.947 46.7741 360.831 45.8888 360.6 45.0805C359.984 43.1174 358.849 42.1359 357.194 42.1359C356.809 42.1359 356.424 42.2128 356.039 42.3668C354.23 43.1367 353.191 45.119 352.921 48.3138V48.718V63.4988H353.903C354.134 63.4988 354.365 63.5181 354.596 63.5566C355.096 63.6335 355.346 64.1147 355.346 65H343.106V63.4988C343.722 63.4988 344.203 63.4411 344.549 63.3256C345.281 63.0177 345.646 62.0746 345.646 60.4965V47.7364C345.646 46.6971 345.511 45.7541 345.242 44.9073C344.626 43.1367 343.606 42.2513 342.182 42.2513C341.682 42.2513 341.181 42.3861 340.681 42.6555C338.91 43.5793 337.909 45.5616 337.678 48.6025L337.621 63.4988H338.66ZM394.839 65.5774C391.759 65.3849 389.816 63.6335 389.007 60.3232C388.815 60.8621 388.565 61.3818 388.257 61.8822C386.717 64.3456 384.311 65.5774 381.039 65.5774C379.962 65.5774 378.98 65.4427 378.095 65.1732C375.092 64.2109 373.591 62.0169 373.591 58.5911C373.63 53.5487 378.595 50.9312 388.488 50.7388V46.9858C388.488 45.8696 388.411 44.9073 388.257 44.0989C387.872 41.9049 386.775 40.8079 384.966 40.8079C384.427 40.8079 383.946 40.9041 383.522 41.0966C382.868 41.4815 382.329 42.4438 381.906 43.9835C381.752 44.5224 381.636 44.9073 381.559 45.1382C380.982 46.7549 379.865 47.5632 378.21 47.5632C377.825 47.5632 377.46 47.5055 377.113 47.39C375.689 47.0051 374.977 46.062 374.977 44.5608C374.977 43.9065 375.15 43.2906 375.497 42.7132C376.844 40.4422 380.135 39.3067 385.37 39.3067C386.717 39.3067 387.968 39.4414 389.123 39.7109C393.588 40.8271 395.82 43.791 395.82 48.6025V60.6697C395.82 62.5173 396.244 63.4796 397.091 63.5566C398.207 63.5181 398.88 62.1709 399.111 59.5149L400.613 59.5727C400.497 60.7659 400.324 61.7474 400.093 62.5173C399.4 64.5573 397.649 65.5774 394.839 65.5774ZM384.042 63.0947C384.311 63.0947 384.619 63.0369 384.966 62.9214C386.582 62.3056 387.756 60.6504 388.488 57.956V52.3554C386.755 52.4324 385.331 52.6441 384.215 52.9906C382.136 53.7604 381.097 55.4155 381.097 57.956C381.136 61.3048 382.117 63.0177 384.042 63.0947ZM414.181 63.4988C414.412 63.4988 414.624 63.5181 414.816 63.5566C415.316 63.6335 415.567 64.1147 415.567 65H402.056V63.4988C402.364 63.4988 402.653 63.4796 402.922 63.4411C404.577 63.2486 405.405 62.2671 405.405 60.4965V41.674H402.056V40.1728H412.333L412.622 44.6763C412.968 43.9835 413.43 43.3099 414.008 42.6555C415.971 40.423 418.357 39.3067 421.167 39.3067C422.168 39.3067 423.13 39.4607 424.054 39.7686C427.441 40.9619 429.135 43.945 429.135 48.718V63.4988H431.04C431.271 63.4988 431.502 63.5181 431.733 63.5566C432.234 63.6335 432.484 64.1147 432.484 65H419.146V63.4988C419.685 63.4988 420.147 63.4411 420.532 63.3256C421.379 63.0562 421.802 62.1131 421.802 60.4965V47.7364C421.802 47.1975 421.764 46.6779 421.687 46.1775C421.302 43.5986 420.012 42.3091 417.818 42.3091C417.241 42.3091 416.683 42.4438 416.144 42.7132C414.181 43.6755 413.065 45.6771 412.795 48.718L412.737 63.4988H414.181Z" fill="black"/>
</svg>
