<svg width="245" height="56" viewBox="0 0 245 56" fill="none" xmlns="http://www.w3.org/2000/svg">
<path d="M5.33384 0.537311L2.02246 0.811737V1.50134H2.57872C3.05563 1.5535 3.52812 1.64025 3.99246 1.7609L4.71647 1.94903L5.92525 2.4415L5.94869 2.45511C6.62584 2.84829 7.26937 3.29671 7.87273 3.79578L7.99879 3.93192C8.47321 4.4443 8.89587 5.00229 9.26059 5.59776L9.60298 6.33212C9.68074 6.49889 9.74481 6.67172 9.79455 6.84888C9.87842 7.14756 9.92095 7.45632 9.92095 7.76655V8.89953L9.89087 9.1502C9.86619 9.35585 9.82543 9.55925 9.76897 9.75853C9.69884 10.0061 9.60478 10.2462 9.48812 10.4755L9.33894 10.7687L9.27978 10.882C9.051 11.3206 8.78627 11.7394 8.48832 12.1341C8.13071 12.5742 7.80823 13.0417 7.52384 13.5323L7.13403 14.2047L6.69753 15.2568L6.53525 15.7052C6.3602 16.1889 6.22565 16.6863 6.13301 17.1923C6.03202 17.7439 5.98121 18.3034 5.98121 18.8642V20.2039L6.22745 22.364L6.30241 23.9955C6.31744 24.3225 6.05642 24.5957 5.72912 24.5957C5.69875 24.5957 5.66843 24.5933 5.63845 24.5885L5.45512 24.5592C5.30408 24.535 5.15519 24.499 5.00983 24.4514L4.72741 24.359L4.8731 24.5229L5.12054 24.7097C5.25254 24.8094 5.39613 24.8927 5.54816 24.9579L5.76314 25.05C5.80693 25.0688 5.85326 25.081 5.90062 25.0861L6.09465 25.1073C6.22856 25.1219 6.33 25.235 6.33 25.3697V26.0836C6.33 26.6187 6.25334 27.151 6.10235 27.6643C5.88432 28.1731 5.61804 28.6598 5.30717 29.1177L4.92773 29.6767L4.33587 30.478L4.14274 30.773C4.05401 30.9086 3.9957 31.0618 3.97184 31.222L3.9576 31.3176C3.94881 31.3766 3.94984 31.4367 3.96065 31.4954C3.9906 31.658 4.09321 31.7979 4.23924 31.8754L4.36905 31.9443C4.42566 31.9743 4.4855 31.9978 4.54742 32.0144L5.41033 32.2445L5.88102 32.4406C6.12533 32.5424 6.28447 32.7811 6.28447 33.0458L6.22073 33.583L6.19807 33.6736C6.15264 33.8553 6.12967 34.0419 6.12967 34.2292V34.7058C6.12967 34.8523 6.1735 34.9955 6.25553 35.1169C6.32238 35.2158 6.41234 35.297 6.51762 35.3533L6.74885 35.477L6.97444 35.5785C7.16965 35.6663 7.29519 35.8605 7.29519 36.0745C7.29519 36.2004 7.25157 36.3223 7.17175 36.4196L7.06609 36.5484C7.02476 36.5987 6.99051 36.6545 6.96427 36.7141L6.92637 36.8003C6.91139 36.8343 6.90365 36.8711 6.90365 36.9083C6.90365 36.9931 6.94375 37.073 7.01179 37.1236L7.29519 37.3345C7.53789 37.477 7.69506 37.7297 7.71561 38.0105L7.77546 38.8283C7.79214 39.0562 7.77643 39.2854 7.72879 39.5089L7.6828 39.7248L7.61907 40.0973C7.58307 40.3077 7.56498 40.5208 7.56498 40.7343V41.5663C7.56498 41.9164 7.68823 42.2553 7.91311 42.5235C8.02455 42.6565 8.15835 42.769 8.30848 42.8559L8.35419 42.8823C8.62678 43.0402 8.93618 43.1233 9.25115 43.1233H9.48009C9.73065 43.1233 9.97994 43.0876 10.2205 43.0174L11.7519 42.5704L13.9632 41.7095L15.6146 41.1395C15.8788 41.0484 16.1492 40.9763 16.4238 40.924L16.605 40.8895C16.8431 40.8442 17.085 40.8213 17.3275 40.8213H17.6828C17.9496 40.8213 18.2138 40.8733 18.4607 40.9743C18.7397 41.0884 18.9901 41.2626 19.1943 41.4843L19.2055 41.4965C19.4184 41.7278 19.5774 42.0033 19.6712 42.3033L19.741 42.5269C19.8368 42.8333 19.8855 43.1524 19.8855 43.4734V43.9102C19.8855 44.6222 19.7595 45.3285 19.5134 45.9966L19.4554 46.154C19.3262 46.5047 19.169 46.8444 18.9854 47.1698L18.4766 48.0719L18.3594 48.2429C17.8687 48.9584 17.2902 49.6094 16.6373 50.1807C16.058 50.6875 15.4241 51.1282 14.7473 51.4946L14.4348 51.6638C13.7421 52.0388 13.0179 52.3526 12.2707 52.6017L11.6816 52.7981L10.5201 53.0201C9.67931 53.1809 8.82525 53.2618 7.96927 53.2618C7.2115 53.2618 6.45506 53.1984 5.70786 53.0722L5.45736 53.0299L5.43546 53.025C4.76223 52.8741 4.10623 52.6547 3.47773 52.3701L1.94396 51.5497L0.78472 50.7115L0 49.9802L0.245467 50.4712C0.461687 50.9036 0.722987 51.312 1.02502 51.6895C1.38651 52.1414 1.8037 52.5458 2.26664 52.893L2.48097 53.0537C3.01304 53.4528 3.58782 53.7914 4.19473 54.0635L4.31142 54.1158C5.00187 54.4253 5.72484 54.6564 6.46678 54.8048L7.31215 54.9739C8.15484 55.1163 9.00797 55.1879 9.86261 55.1879H10.772L12.4307 54.9739L12.6614 54.9224C13.9952 54.6245 15.2975 54.1998 16.5504 53.6541L16.7774 53.5147C17.7656 52.9073 18.6982 52.214 19.5645 51.4427L20.0584 50.9218C20.3826 50.5799 20.681 50.2145 20.9512 49.8285C21.3453 49.2655 21.6774 48.6615 21.9417 48.0272L22.0791 47.6974L22.1787 47.3276C22.3617 46.6479 22.4894 45.9544 22.5607 45.2541C22.5607 44.2093 22.4813 43.166 22.3232 42.1333L22.2931 41.9369L21.7759 40.1891L21.3301 38.9942L20.0995 36.5687L19.0294 34.6782L15.5339 29.3635L13.5899 26.3495L12.0918 23.7457L10.9682 21.5877L10.558 20.5711L10.0408 19.18L9.71981 17.9138L9.54825 17.1521C9.36594 16.3426 9.27395 15.5155 9.27395 14.6857V13.7762C9.357 13.1236 9.50008 12.4802 9.70137 11.8539L9.71981 11.7965L10.0408 10.9048L10.7899 9.31755L11.3249 8.33665C11.8829 7.54119 12.5006 6.78932 13.1726 6.08753L13.1954 6.06373L13.8817 5.51588C14.4269 5.08058 15.0054 4.68852 15.6116 4.34327V3.24268L18.0785 3.11618H20.9501L22.3796 3.24268L23.5814 3.44509L25.3778 3.8499L26.7061 4.26737L28.0344 4.74809L29.4765 5.35531L30.8175 6.15228L31.3338 6.52865C31.8908 6.93473 32.4101 7.39023 32.8853 7.88962L33.0036 8.01385C33.4427 8.47528 33.8354 8.97874 34.176 9.51698L34.2907 9.69822C34.5469 10.103 34.7636 10.5314 34.938 10.9776C35.1337 11.4785 35.275 11.999 35.3593 12.5301L35.3787 12.6523C35.4498 13.1001 35.4855 13.5529 35.4855 14.0063V14.0767C35.4855 14.7627 35.4114 15.4468 35.2645 16.1169L35.2552 16.1594C35.139 16.6894 34.9796 17.209 34.7786 17.7129L34.5042 18.4009C34.2732 18.98 33.9996 19.5413 33.6858 20.0801L33.3523 20.6526C33.0406 21.1877 32.6629 21.6816 32.2281 22.1225C31.7709 22.5861 31.2545 22.9873 30.6923 23.3156L30.084 23.6709C29.4783 24.0246 28.8443 24.3276 28.1886 24.5766L27.7748 24.7338C27.0563 25.0067 26.3149 25.2152 25.5595 25.3567L26.2975 27.1016L28.0763 27.4572L30.4796 28.0249L31.735 28.4223C32.6499 28.7119 33.5375 29.0815 34.3876 29.5268L34.5802 29.6277C35.1888 29.9465 35.7721 30.3112 36.3251 30.7187C36.9685 31.1928 37.5685 31.723 38.1182 32.3031L38.6546 32.8694L39.1613 33.5702C39.4161 33.9226 39.6453 34.2928 39.8471 34.6779C40.061 35.0865 40.2436 35.5107 40.3932 35.9469L40.5998 36.5496C40.7662 37.0349 40.8958 37.532 40.9876 38.0367C41.0973 38.6403 41.1525 39.2524 41.1525 39.8658V40.1858C41.1525 41.0214 41.0765 41.8552 40.9253 42.677L40.8497 43.0881L40.6938 43.7609C40.5583 44.3459 40.376 44.9191 40.1486 45.4749L40.0649 45.6795C39.8945 46.0959 39.6912 46.4981 39.4568 46.8821C39.0999 47.4667 38.6733 48.0057 38.1863 48.4873L37.9035 48.767C37.4462 49.2192 36.9525 49.6329 36.4273 50.004L36.403 50.0211C35.786 50.4571 35.1294 50.8341 34.4419 51.1472L33.5642 51.547L30.7067 52.4742L28.9657 52.7959L26.1083 53.1176H22.6831C22.2572 53.0832 21.1259 52.9979 20.0083 52.9322C18.8644 54.3654 15.9706 55.4359 14.6667 55.792H19.7946H23.7557L27.7989 55.5619L31.0038 55.2003L33.9458 54.7237L36.2962 54.1977L39.4025 53.0801L41.3913 52.1432L42.0501 51.723C42.88 51.1936 43.6571 50.5856 44.3706 49.9074L44.5341 49.7521C45.0349 49.2761 45.4957 48.7598 45.912 48.2083L46.0195 48.066C46.3739 47.5964 46.6883 47.098 46.9592 46.5758C47.2896 45.9391 47.5538 45.2702 47.7478 44.5797L47.867 44.1555C48.0853 43.3804 48.2077 42.5815 48.2315 41.7767L48.2429 41.3912C48.2662 40.6059 48.2181 39.8202 48.0992 39.0436L48.0313 38.6002L47.9127 38.207C47.6087 37.1994 47.2308 36.2157 46.7822 35.2637L46.059 34.0639L45.2537 32.9791L44.021 31.5492L42.3693 30.0596C41.9144 29.6494 41.4284 29.2749 40.9158 28.9394C40.4419 28.6293 39.9464 28.3535 39.4331 28.114L38.8319 27.8334L36.8743 27.1016L31.9164 25.7111L33.3617 25.144L34.7521 24.522C35.7625 24.0229 36.7271 23.4361 37.6348 22.7683L37.8622 22.601L38.9782 21.668L39.9296 20.7166L39.9977 20.6278C40.6341 19.7982 41.1989 18.916 41.6859 17.9907L41.992 17.2799C42.1293 16.9614 42.2434 16.6334 42.3336 16.2985C42.4987 15.6852 42.5823 15.0528 42.5823 14.4176V14.1122V13.7811C42.5823 13.1631 42.4989 12.5479 42.3343 11.9522C42.2436 11.6241 42.1287 11.3032 41.9905 10.9922L41.6859 10.3068L41.522 10.0051C41.0956 9.22023 40.5929 8.47933 40.0211 7.79315C39.4977 7.16505 38.9186 6.58549 38.2909 6.06153L38.2466 6.02453C37.5044 5.40496 36.701 4.8627 35.8488 4.40615L34.0569 3.44621L31.4041 2.43999L26.0986 1.15935L20.0064 0.336069L15.8534 0.208008H13.0726L8.27933 0.336069L5.33384 0.537311Z" fill="black"/>
<path d="M15.2219 5.08784L15.4267 4.90039L15.2927 5.14876C14.9384 5.80567 14.6381 6.4903 14.3948 7.19588L14.1207 8.17375L14.1056 8.25297C13.9333 9.1608 13.8465 10.0828 13.8465 11.0068L14.0476 12.6336L14.404 14.2969L14.998 15.9511L15.985 18.1536L17.6209 21.0415L19.1288 23.5364L20.3626 25.2546L22.5194 28.1882L24.3929 30.8751L25.9191 32.9222L27.0955 34.7967L27.9581 36.2614L28.4688 37.3496C28.8759 38.2169 29.1955 39.1226 29.4228 40.0534L29.5345 40.4298C29.6655 40.8709 29.732 41.3287 29.732 41.7888C29.732 42.1604 29.6886 42.5307 29.6028 42.8922L29.4228 43.6501C29.1963 44.3727 28.8596 45.056 28.4246 45.6758L27.779 46.5958C26.7415 47.7955 25.5595 48.8623 24.2601 49.7719L23.7755 50.1111L21.4808 51.2991L22.7177 49.753L23.2896 49.0226C23.6128 48.61 23.8965 48.1678 24.1369 47.702C24.4159 47.1614 24.6351 46.592 24.7906 46.0039L24.931 45.4728L24.9774 45.2664C25.1413 44.5383 25.2239 43.7942 25.2239 43.0479L25.1263 41.9901C24.9964 41.0048 24.7758 40.0337 24.4673 39.0891L24.4102 38.9142L23.6453 37.2053C23.3203 36.4902 22.9436 35.7997 22.5184 35.1392L21.6273 33.7551L20.7159 32.2904L18.3724 29.182L17.1355 27.522L15.1175 24.7391L14.2224 23.4045L13.3761 22.0049L11.9602 19.0755L11.4557 17.6596L11.2941 17.0522C11.0876 16.2763 10.9565 15.4824 10.9023 14.6814V13.119V12.7984C10.9023 12.3737 10.9552 11.9506 11.0596 11.539C11.139 11.226 11.2479 10.9212 11.3847 10.6287L11.651 10.0594L12.5135 8.44824L13.49 6.98353C14.0097 6.30136 14.5893 5.66695 15.2219 5.08784Z" fill="#FFAEAD"/>
<path d="M15.5789 42.583C14.4161 43.3978 11.047 44.2145 9.50781 44.521C9.60155 45.5776 9.73278 48.5401 9.50781 51.9375C12.97 51.2652 15.2706 49.8451 15.5789 49.4055V42.583Z" fill="#FFAEAD"/>
<path d="M82.6669 21.3714C82.6669 21.8052 82.591 22.2499 82.4391 22.7053C81.8969 24.2236 80.6497 25.2973 78.6977 25.9263C79.2182 25.9913 79.7171 26.0889 80.1943 26.2191C82.8187 26.9132 84.1309 28.464 84.1309 30.8715C84.1309 31.956 83.8056 32.9537 83.1549 33.8647C81.8318 35.6216 79.6845 36.5 76.7131 36.5H65.5862V35.6216H68.189V17.8577H65.5862V16.9793H76.1274C77.3204 16.9793 78.3832 17.1094 79.3158 17.3697C81.5499 18.0204 82.6669 19.3543 82.6669 21.3714ZM74.3055 17.8577H72.7438V25.4708H74.5658C74.9562 25.4708 75.3249 25.4274 75.6719 25.3406C77.1902 24.9069 77.9494 23.6705 77.9494 21.6317C77.9277 19.1591 76.7131 17.9011 74.3055 17.8577ZM75.4117 26.3818H72.7438V35.6216H74.9237C75.2056 35.6216 75.4876 35.5999 75.7696 35.5565C78.0253 35.2312 79.1531 33.5936 79.1531 30.6438C79.1531 29.9931 79.0555 29.3858 78.8603 28.8218C78.2964 27.1951 77.1468 26.3818 75.4117 26.3818ZM97.5677 36.8253C95.8325 36.7169 94.7372 35.73 94.2817 33.8647C94.1733 34.1684 94.0323 34.4612 93.8588 34.7431C92.9912 36.1313 91.6356 36.8253 89.7919 36.8253C89.1846 36.8253 88.6315 36.7494 88.1327 36.5976C86.4409 36.0554 85.595 34.819 85.595 32.8887C85.6167 30.0473 88.4147 28.5724 93.9889 28.464V26.3492C93.9889 25.7202 93.9455 25.178 93.8588 24.7225C93.6419 23.4862 93.0237 22.868 92.0043 22.868C91.7006 22.868 91.4295 22.9222 91.1909 23.0307C90.8222 23.2476 90.5186 23.7898 90.28 24.6574C90.1932 24.9611 90.1281 25.178 90.0848 25.3081C89.7594 26.2191 89.1304 26.6746 88.1978 26.6746C87.9809 26.6746 87.7748 26.642 87.5796 26.577C86.7771 26.3601 86.3758 25.8287 86.3758 24.9828C86.3758 24.614 86.4734 24.267 86.6686 23.9417C87.4278 22.662 89.2822 22.0221 92.232 22.0221C92.9912 22.0221 93.6961 22.098 94.3468 22.2499C96.8628 22.8789 98.1208 24.549 98.1208 27.2602V34.0599C98.1208 35.101 98.3594 35.6433 98.8366 35.6866C99.4656 35.6649 99.8451 34.9058 99.9753 33.4092L100.821 33.4418C100.756 34.1141 100.658 34.6672 100.528 35.101C100.138 36.2506 99.1511 36.8253 97.5677 36.8253ZM91.4837 35.4264C91.6356 35.4264 91.8091 35.3938 92.0043 35.3288C92.9153 34.9817 93.5768 34.0491 93.9889 32.5308V29.3749C93.0129 29.4183 92.2103 29.5376 91.5813 29.7328C90.4101 30.1666 89.8245 31.0993 89.8245 32.5308C89.8462 34.4178 90.3993 35.383 91.4837 35.4264ZM108.499 35.6541C108.629 35.6541 108.749 35.6649 108.857 35.6866C109.139 35.73 109.28 36.0011 109.28 36.5H101.635V35.6541C101.786 35.6541 101.938 35.6433 102.09 35.6216C103.066 35.5348 103.554 34.9817 103.554 33.9623V16.1984H101.635V15.3525H107.686V24.9502C107.838 24.6466 108.022 24.3429 108.239 24.0393C109.28 22.6945 110.679 22.0221 112.436 22.0221C113 22.0221 113.52 22.1089 113.998 22.2824C115.928 22.9331 116.893 24.614 116.893 27.3253V35.6541H117.967C118.097 35.6541 118.227 35.6649 118.357 35.6866C118.639 35.73 118.78 36.0011 118.78 36.5H111.492V35.6541C111.861 35.6541 112.154 35.5999 112.371 35.4914C112.631 35.3396 112.761 34.8299 112.761 33.9623V26.7722C112.761 26.5553 112.75 26.3601 112.729 26.1865C112.577 24.5598 111.84 23.7465 110.516 23.7465C110.169 23.7465 109.812 23.8441 109.443 24.0393C108.272 24.6683 107.686 25.9371 107.686 27.8458V35.6541H108.499ZM119.756 23.5187V22.6728H122.001V19.582L126.133 18.8988V22.6728H130.428V23.5187H126.133V33.3767C126.133 33.6586 126.155 33.9298 126.198 34.19C126.372 35.3179 126.86 35.8818 127.662 35.8818C127.792 35.8818 127.922 35.871 128.053 35.8493C128.898 35.6758 129.538 34.7106 129.972 32.9537L130.851 33.0839C130.677 33.9731 130.438 34.6889 130.135 35.2312C129.506 36.3156 128.356 36.8579 126.686 36.8579C126.426 36.8579 126.166 36.847 125.905 36.8253C123.303 36.5217 122.001 34.7974 122.001 31.6524V23.5187H119.756ZM158.57 36.5H157.919C157.551 36.5 157.247 36.4349 157.008 36.3048C156.618 36.0879 156.162 35.3179 155.642 33.9948L152.128 24.8526L147.834 36.5H147.183C146.814 36.5 146.511 36.4349 146.272 36.3048C145.882 36.0879 145.426 35.3179 144.905 33.9948L138.659 17.8577H137.032V16.9793H145.849V17.8577H143.246L148.354 32.0753L151.543 23.3886L149.07 16.9793H156.618V17.8577L154.015 17.8252L159.058 31.7825L163.645 17.8577H161.043V16.9793H166.411V17.8577H164.784L158.57 36.5ZM171.844 29.44C171.844 31.4788 171.974 32.9646 172.235 33.8972C172.625 35.2854 173.493 35.9794 174.837 35.9794C175.596 35.9794 176.215 35.7517 176.692 35.2962C177.516 34.472 177.928 32.4766 177.928 29.3099C177.928 27.3361 177.798 25.8937 177.538 24.9828C177.147 23.5729 176.258 22.868 174.87 22.868C174.046 22.868 173.406 23.1175 172.95 23.6163C172.213 24.4622 171.844 26.4034 171.844 29.44ZM175.032 22.0221C176.898 22.0221 178.492 22.5318 179.815 23.5512C181.529 24.9177 182.385 26.8155 182.385 29.2448C182.385 31.0667 181.843 32.6718 180.759 34.0599C179.305 35.9035 177.299 36.8253 174.74 36.8253C172.874 36.8253 171.269 36.2614 169.925 35.1335C168.233 33.702 167.387 31.7608 167.387 29.3099C167.387 27.5747 167.886 26.0564 168.883 24.755C170.315 22.9331 172.365 22.0221 175.032 22.0221ZM190.617 35.6541C190.747 35.6541 190.866 35.6649 190.974 35.6866C191.256 35.73 191.397 36.0011 191.397 36.5H184.012V35.6541C184.186 35.6541 184.348 35.6433 184.5 35.6216C185.433 35.5131 185.899 34.96 185.899 33.9623V23.356H184.012V22.5101H189.803L189.966 24.8852C190.92 22.9982 192.438 22.0438 194.521 22.0221C194.868 22.0221 195.215 22.0655 195.562 22.1523C196.885 22.5427 197.807 23.5079 198.327 25.0478C199.368 23.0524 200.941 22.0438 203.045 22.0221C203.804 22.0221 204.509 22.2282 205.159 22.6403C206.569 23.5296 207.274 25.037 207.274 27.1626V35.6541H208.348C208.478 35.6541 208.608 35.6649 208.738 35.6866C209.02 35.73 209.161 36.0011 209.161 36.5H201.743V35.6541C202.09 35.6541 202.362 35.6216 202.557 35.5565C202.969 35.383 203.175 34.8516 203.175 33.9623V26.7722C203.175 26.2299 203.11 25.7311 202.98 25.2756C202.633 24.1694 201.993 23.6163 201.06 23.6163C200.843 23.6163 200.626 23.6597 200.409 23.7465C199.39 24.1802 198.804 25.2973 198.653 27.0975V27.3253V35.6541H199.206C199.336 35.6541 199.466 35.6649 199.596 35.6866C199.878 35.73 200.019 36.0011 200.019 36.5H193.122V35.6541C193.469 35.6541 193.74 35.6216 193.935 35.5565C194.347 35.383 194.553 34.8516 194.553 33.9623V26.7722C194.553 26.1865 194.477 25.6551 194.325 25.178C193.978 24.1802 193.404 23.6814 192.601 23.6814C192.319 23.6814 192.037 23.7573 191.755 23.9091C190.758 24.4297 190.194 25.5467 190.063 27.2602L190.031 35.6541H190.617ZM222.273 36.8253C220.537 36.7169 219.442 35.73 218.987 33.8647C218.878 34.1684 218.737 34.4612 218.564 34.7431C217.696 36.1313 216.341 36.8253 214.497 36.8253C213.89 36.8253 213.336 36.7494 212.838 36.5976C211.146 36.0554 210.3 34.819 210.3 32.8887C210.322 30.0473 213.12 28.5724 218.694 28.464V26.3492C218.694 25.7202 218.65 25.178 218.564 24.7225C218.347 23.4862 217.729 22.868 216.709 22.868C216.406 22.868 216.134 22.9222 215.896 23.0307C215.527 23.2476 215.223 23.7898 214.985 24.6574C214.898 24.9611 214.833 25.178 214.79 25.3081C214.464 26.2191 213.835 26.6746 212.903 26.6746C212.686 26.6746 212.48 26.642 212.285 26.577C211.482 26.3601 211.081 25.8287 211.081 24.9828C211.081 24.614 211.178 24.267 211.374 23.9417C212.133 22.662 213.987 22.0221 216.937 22.0221C217.696 22.0221 218.401 22.098 219.052 22.2499C221.568 22.8789 222.826 24.549 222.826 27.2602V34.0599C222.826 35.101 223.064 35.6433 223.542 35.6866C224.171 35.6649 224.55 34.9058 224.68 33.4092L225.526 33.4418C225.461 34.1141 225.363 34.6672 225.233 35.101C224.843 36.2506 223.856 36.8253 222.273 36.8253ZM216.189 35.4264C216.341 35.4264 216.514 35.3938 216.709 35.3288C217.62 34.9817 218.282 34.0491 218.694 32.5308V29.3749C217.718 29.4183 216.915 29.5376 216.286 29.7328C215.115 30.1666 214.529 31.0993 214.529 32.5308C214.551 34.4178 215.104 35.383 216.189 35.4264ZM233.172 35.6541C233.302 35.6541 233.421 35.6649 233.53 35.6866C233.812 35.73 233.953 36.0011 233.953 36.5H226.339V35.6541C226.513 35.6541 226.676 35.6433 226.827 35.6216C227.76 35.5131 228.226 34.96 228.226 33.9623V23.356H226.339V22.5101H232.131L232.293 25.0478C232.489 24.6574 232.749 24.2779 233.074 23.9091C234.18 22.6511 235.525 22.0221 237.108 22.0221C237.672 22.0221 238.215 22.1089 238.735 22.2824C240.644 22.9548 241.598 24.6357 241.598 27.3253V35.6541H242.672C242.802 35.6541 242.932 35.6649 243.062 35.6866C243.344 35.73 243.485 36.0011 243.485 36.5H235.97V35.6541C236.273 35.6541 236.534 35.6216 236.751 35.5565C237.228 35.4047 237.466 34.8733 237.466 33.9623V26.7722C237.466 26.4685 237.445 26.1757 237.401 25.8937C237.184 24.4405 236.458 23.7139 235.221 23.7139C234.896 23.7139 234.582 23.7898 234.278 23.9417C233.172 24.4839 232.543 25.6118 232.391 27.3253L232.358 35.6541H233.172Z" fill="black"/>
</svg>
