<svg width="253" height="157" viewBox="0 0 253 157" fill="none" xmlns="http://www.w3.org/2000/svg">
<path d="M100.069 0.943932L95.4234 1.32894V2.29642H96.2038C96.8729 2.3696 97.5357 2.49131 98.1872 2.66058L99.2029 2.92452L100.899 3.61543L100.932 3.63452C101.882 4.18614 102.785 4.81525 103.631 5.51543L103.808 5.70642C104.473 6.42527 105.066 7.20811 105.578 8.04353L106.059 9.0738C106.168 9.30778 106.257 9.55024 106.327 9.79879C106.445 10.2178 106.505 10.651 106.505 11.0863V12.6758L106.462 13.0275C106.428 13.316 106.371 13.6013 106.291 13.8809C106.193 14.2282 106.061 14.565 105.897 14.8867L105.688 15.2981L105.605 15.4572C105.284 16.0724 104.913 16.6599 104.495 17.2138C103.993 17.8312 103.541 18.4871 103.142 19.1753L102.595 20.1187L101.982 21.5948L101.755 22.2239C101.509 22.9025 101.32 23.6003 101.19 24.3102C101.049 25.084 100.977 25.8691 100.977 26.6557V28.5353L101.323 31.5659L101.428 33.8548C101.449 34.3135 101.083 34.6969 100.624 34.6969C100.581 34.6969 100.539 34.6935 100.496 34.6868L100.239 34.6456C100.027 34.6117 99.8185 34.5612 99.6145 34.4944L99.2183 34.3647L99.4227 34.5947L99.7698 34.8568C99.955 34.9967 100.156 35.1136 100.37 35.205L100.671 35.3342C100.733 35.3606 100.798 35.3776 100.864 35.3849L101.136 35.4146C101.324 35.4351 101.467 35.5938 101.467 35.7827V36.7843C101.467 37.535 101.359 38.2818 101.147 39.002C100.841 39.7157 100.468 40.3985 100.032 41.041L99.4993 41.8252L98.669 42.9494L98.398 43.3633C98.2735 43.5535 98.1917 43.7684 98.1583 43.9933L98.1383 44.1274C98.1259 44.2102 98.1274 44.2945 98.1426 44.3768C98.1846 44.6049 98.3285 44.8013 98.5334 44.91L98.7155 45.0066C98.7949 45.0487 98.8789 45.0817 98.9658 45.1049L100.176 45.4277L100.837 45.7029C101.18 45.8457 101.403 46.1806 101.403 46.5519L101.313 47.3056L101.282 47.4328C101.218 47.6877 101.186 47.9495 101.186 48.2123V48.8809C101.186 49.0864 101.247 49.2873 101.362 49.4576C101.456 49.5964 101.582 49.7102 101.73 49.7892L102.054 49.9628L102.371 50.1052C102.645 50.2284 102.821 50.5008 102.821 50.8011C102.821 50.9777 102.76 51.1488 102.648 51.2852L102.499 51.4659C102.441 51.5366 102.393 51.6148 102.357 51.6985L102.303 51.8193C102.282 51.8671 102.271 51.9187 102.271 51.9709C102.271 52.0899 102.328 52.2019 102.423 52.2729L102.821 52.5688C103.161 52.7688 103.382 53.1233 103.411 53.5172L103.495 54.6645C103.518 54.9843 103.496 55.3058 103.429 55.6195L103.365 55.9222L103.275 56.445C103.225 56.7402 103.199 57.0391 103.199 57.3386V58.5059C103.199 58.997 103.372 59.4725 103.688 59.8488C103.844 60.0354 104.032 60.1931 104.242 60.3151L104.307 60.3522C104.689 60.5736 105.123 60.6902 105.565 60.6902H105.886C106.238 60.6902 106.587 60.6402 106.925 60.5417L109.073 59.9146L112.176 58.7067L114.493 57.9071C114.863 57.7792 115.243 57.6782 115.628 57.6048L115.882 57.5564C116.216 57.4927 116.556 57.4607 116.896 57.4607H117.394C117.768 57.4607 118.139 57.5336 118.485 57.6753C118.877 57.8354 119.228 58.0797 119.515 58.3909L119.53 58.4079C119.829 58.7324 120.052 59.1189 120.184 59.5399L120.282 59.8535C120.416 60.2833 120.484 60.7311 120.484 61.1814V61.7942C120.484 62.7931 120.308 63.7841 119.962 64.7214L119.881 64.9423C119.7 65.4342 119.479 65.9108 119.222 66.3674L118.508 67.633L118.343 67.8728C117.655 68.8766 116.843 69.79 115.927 70.5915C115.115 71.3025 114.225 71.9208 113.276 72.4349L112.837 72.6722C111.865 73.1983 110.85 73.6386 109.801 73.9881L108.975 74.2636L107.345 74.5751C106.166 74.8006 104.967 74.9141 103.766 74.9141C102.703 74.9141 101.642 74.8252 100.594 74.6482L100.242 74.5889L100.212 74.582C99.2671 74.3703 98.3468 74.0624 97.465 73.6631L95.3132 72.5121L93.6869 71.3361L92.5859 70.3103L92.9303 70.999C93.2337 71.6057 93.6003 72.1787 94.024 72.7083C94.5312 73.3423 95.1164 73.9096 95.7659 74.3967L96.0666 74.6222C96.8131 75.1821 97.6195 75.6572 98.471 76.0389L98.6347 76.1123C99.6033 76.5465 100.618 76.8708 101.659 77.0789L102.845 77.3161C104.027 77.516 105.224 77.6164 106.423 77.6164H107.699L110.026 77.3161L110.349 77.2439C112.221 76.826 114.048 76.2302 115.805 75.4646L116.124 75.2689C117.51 74.4169 118.819 73.4441 120.034 72.362L120.727 71.6312C121.182 71.1516 121.601 70.6389 121.98 70.0973C122.532 69.3075 122.998 68.4602 123.369 67.5702L123.562 67.1076L123.702 66.5887C123.958 65.6351 124.138 64.6622 124.238 63.6797C124.238 62.2139 124.126 60.7502 123.904 59.3013L123.862 59.0258L123.137 56.5737L122.511 54.8973L120.785 51.4944L119.283 48.8422L114.379 41.3859L111.652 37.1573L109.55 33.5043L107.974 30.4767L107.398 29.0505L106.673 27.0989L106.222 25.3224L105.982 24.2537C105.726 23.1181 105.597 21.9576 105.597 20.7936V19.5175C105.713 18.602 105.914 17.6992 106.197 16.8206L106.222 16.7402L106.673 15.4891L107.724 13.2622L108.474 11.8861C109.257 10.7701 110.124 9.71523 111.067 8.73065L111.099 8.69726L112.061 7.92865C112.826 7.31795 113.638 6.76791 114.488 6.28353V4.73946L117.949 4.56198H121.978L123.984 4.73946L125.67 5.02342L128.19 5.59136L130.053 6.17704L131.917 6.85147L133.94 7.70337L135.822 8.8215L136.546 9.34953C137.327 9.91924 138.056 10.5583 138.723 11.2589L138.889 11.4332C139.505 12.0806 140.055 12.7869 140.533 13.542L140.694 13.7963C141.054 14.3642 141.358 14.9653 141.602 15.5913C141.877 16.294 142.075 17.0242 142.193 17.7693L142.221 17.9407C142.32 18.569 142.371 19.2042 142.371 19.8404V19.9391C142.371 20.9016 142.267 21.8613 142.061 22.8015L142.047 22.8611C141.884 23.6047 141.661 24.3336 141.379 25.0406L140.994 26.0058C140.67 26.8183 140.286 27.6057 139.846 28.3616L139.378 29.1648C138.941 29.9156 138.411 30.6084 137.801 31.2271C137.159 31.8775 136.435 32.4403 135.646 32.9009L134.793 33.3993C133.943 33.8956 133.053 34.3206 132.133 34.6701L131.553 34.8906C130.545 35.2735 129.505 35.5659 128.445 35.7645L129.48 38.2124L131.976 38.7114L135.348 39.5079L137.109 40.0654C138.392 40.4717 139.638 40.9902 140.83 41.615L141.101 41.7565C141.954 42.2037 142.773 42.7154 143.549 43.2871C144.451 43.9522 145.293 44.6961 146.064 45.51L146.817 46.3045L147.528 47.2876C147.885 47.782 148.207 48.3014 148.49 48.8418C148.79 49.4149 149.046 50.0101 149.256 50.6221L149.546 51.4677C149.779 52.1485 149.961 52.8459 150.09 53.554C150.244 54.4007 150.321 55.2596 150.321 56.1202V56.5691C150.321 57.7414 150.214 58.9112 150.002 60.0642L149.896 60.6409L149.678 61.5848C149.487 62.4056 149.232 63.2097 148.913 63.9894L148.795 64.2765C148.556 64.8607 148.271 65.4249 147.942 65.9637C147.441 66.7838 146.843 67.5401 146.16 68.2157L145.763 68.6082C145.121 69.2426 144.429 69.823 143.692 70.3436L143.658 70.3676C142.792 70.9792 141.871 71.5082 140.906 71.9475L139.675 72.5083L135.666 73.8092L133.224 74.2605L129.215 74.7119H124.409C123.812 74.6636 122.225 74.5439 120.657 74.4517C119.052 76.4624 114.992 77.9643 113.163 78.4639H120.357H125.914L131.587 78.1411L136.083 77.6338L140.211 76.9651L143.508 76.2272L147.866 74.6592L150.656 73.3449L151.58 72.7552C152.745 72.0125 153.835 71.1595 154.836 70.2081L155.065 69.9901C155.768 69.3223 156.415 68.598 156.999 67.8244L157.149 67.6246C157.647 66.9659 158.088 66.2665 158.468 65.534C158.931 64.6407 159.302 63.7023 159.574 62.7335L159.741 62.1383C160.048 61.051 160.219 59.9302 160.253 58.801L160.269 58.2602C160.301 57.1585 160.234 56.0561 160.067 54.9666L159.972 54.3445L159.805 53.7929C159.379 52.3793 158.849 50.9992 158.219 49.6636L157.205 47.9803L156.075 46.4584L154.346 44.4523L152.028 42.3625C151.39 41.7869 150.708 41.2615 149.989 40.7909C149.324 40.3558 148.629 39.9688 147.909 39.6328L147.065 39.2391L144.319 38.2124L137.363 36.2617L139.391 35.4661L141.342 34.5934C142.759 33.8932 144.112 33.0699 145.386 32.133L145.705 31.8984L147.271 30.5893L148.605 29.2547L148.701 29.13C149.594 27.9661 150.386 26.7284 151.069 25.4303L151.499 24.4331C151.691 23.9862 151.852 23.5261 151.978 23.0562C152.21 22.1957 152.327 21.3085 152.327 20.4174V19.9889V19.5243C152.327 18.6573 152.21 17.7942 151.979 16.9585C151.852 16.4982 151.691 16.0481 151.497 15.6117L151.069 14.6501L150.84 14.2268C150.241 13.1257 149.536 12.0862 148.734 11.1236C147.999 10.2424 147.187 9.42927 146.306 8.69418L146.244 8.64227C145.203 7.77304 144.076 7.01227 142.88 6.37175L140.366 5.025L136.645 3.61331L129.201 1.81662L120.654 0.661599L114.828 0.481934H110.926L104.201 0.661599L100.069 0.943932Z" fill="black"/>
<path d="M113.943 7.32842L114.23 7.06543L114.042 7.41389C113.545 8.3355 113.124 9.296 112.783 10.2859L112.398 11.6578L112.377 11.769C112.135 13.0426 112.013 14.3361 112.013 15.6325L112.295 17.9148L112.795 20.2483L113.629 22.569L115.014 25.6591L117.309 29.7107L119.424 33.211L121.155 35.6215L124.181 39.7372L126.81 43.5068L128.951 46.3789L130.601 49.0087L131.811 51.0636L132.528 52.5903C133.099 53.8071 133.547 55.0778 133.866 56.3836L134.023 56.9117C134.207 57.5306 134.3 58.1728 134.3 58.8183C134.3 59.3396 134.239 59.8592 134.119 60.3664L133.866 61.4296C133.548 62.4433 133.076 63.402 132.466 64.2716L131.56 65.5623C130.104 67.2454 128.446 68.7421 126.623 70.0182L125.943 70.4941L122.724 72.1608L124.459 69.9918L125.262 68.9671C125.715 68.3881 126.113 67.7677 126.45 67.1142C126.842 66.3558 127.149 65.557 127.367 64.7319L127.564 63.9868L127.63 63.6972C127.859 62.6757 127.975 61.6318 127.975 60.5848L127.838 59.1007C127.656 57.7184 127.347 56.356 126.914 55.0307L126.834 54.7853L125.761 52.3879C125.305 51.3846 124.776 50.4158 124.18 49.4892L122.929 47.5474L121.651 45.4925L118.363 41.1315L116.628 38.8026L113.796 34.8982L112.541 33.026L111.353 31.0624L109.367 26.9525L108.659 24.9661L108.432 24.1139C108.143 23.0254 107.959 21.9115 107.883 20.7878V18.5958V18.1459C107.883 17.5501 107.957 16.9566 108.103 16.379C108.215 15.94 108.368 15.5124 108.56 15.1021L108.933 14.3033L110.143 12.0429L111.513 9.98798C112.242 9.03093 113.056 8.14088 113.943 7.32842Z" fill="#FF0090"/>
<path d="M114.443 59.9321C112.812 61.0752 108.085 62.221 105.926 62.6511C106.057 64.1334 106.241 68.2896 105.926 73.0561C110.783 72.1129 114.011 70.1205 114.443 69.5039V59.9321Z" fill="#FF0090"/>
<path d="M25.3294 119.609C25.3294 120.218 25.2229 120.842 25.0099 121.481C24.2492 123.611 22.4995 125.117 19.7608 125.999C20.4911 126.091 21.191 126.228 21.8604 126.41C25.5424 127.384 27.3834 129.56 27.3834 132.937C27.3834 134.459 26.927 135.859 26.0141 137.137C24.1579 139.602 21.1453 140.834 16.9765 140.834H1.36602V139.602H5.01758V114.68H1.36602V113.447H16.1549C17.8285 113.447 19.3195 113.63 20.628 113.995C23.7623 114.908 25.3294 116.779 25.3294 119.609ZM13.5988 114.68H11.4078V125.36H13.9639C14.5117 125.36 15.029 125.3 15.5158 125.178C17.6459 124.569 18.711 122.835 18.711 119.974C18.6805 116.505 16.9765 114.741 13.5988 114.68ZM15.1507 126.639H11.4078V139.602H14.466C14.8616 139.602 15.2572 139.571 15.6528 139.51C18.8175 139.054 20.3998 136.756 20.3998 132.618C20.3998 131.705 20.2629 130.853 19.989 130.062C19.1978 127.78 17.5851 126.639 15.1507 126.639ZM46.2346 141.29C43.8003 141.138 42.2636 139.754 41.6245 137.137C41.4724 137.563 41.2746 137.974 41.0312 138.369C39.814 140.317 37.9121 141.29 35.3256 141.29C34.4735 141.29 33.6976 141.184 32.9977 140.971C30.6242 140.21 29.4374 138.476 29.4374 135.767C29.4679 131.781 33.3933 129.712 41.2137 129.56V126.593C41.2137 125.71 41.1529 124.95 41.0312 124.311C40.7269 122.576 39.8596 121.709 38.4294 121.709C38.0034 121.709 37.623 121.785 37.2883 121.937C36.771 122.241 36.345 123.002 36.0102 124.219C35.8885 124.645 35.7972 124.95 35.7364 125.132C35.2799 126.41 34.3975 127.049 33.089 127.049C32.7847 127.049 32.4956 127.004 32.2217 126.912C31.0958 126.608 30.5329 125.863 30.5329 124.676C30.5329 124.159 30.6698 123.672 30.9437 123.215C32.0087 121.42 34.6105 120.522 38.7489 120.522C39.814 120.522 40.8029 120.629 41.7158 120.842C45.2457 121.724 47.0106 124.067 47.0106 127.871V137.411C47.0106 138.871 47.3453 139.632 48.0148 139.693C48.8972 139.662 49.4298 138.597 49.6123 136.498L50.7991 136.543C50.7078 137.487 50.5709 138.263 50.3883 138.871C49.8406 140.484 48.456 141.29 46.2346 141.29ZM37.6991 139.328C37.9121 139.328 38.1555 139.282 38.4294 139.191C39.7075 138.704 40.6356 137.395 41.2137 135.265V130.838C39.8444 130.899 38.7185 131.066 37.836 131.34C36.1928 131.949 35.3712 133.257 35.3712 135.265C35.4017 137.913 36.1776 139.267 37.6991 139.328ZM61.5712 139.647C61.7538 139.647 61.9212 139.662 62.0733 139.693C62.4689 139.754 62.6667 140.134 62.6667 140.834H51.9402V139.647C52.1532 139.647 52.3662 139.632 52.5792 139.602C53.9486 139.48 54.6332 138.704 54.6332 137.274V112.352H51.9402V111.165H60.4301V124.63C60.6431 124.204 60.9018 123.778 61.2061 123.352C62.6667 121.465 64.6294 120.522 67.0942 120.522C67.8854 120.522 68.6157 120.644 69.2851 120.887C71.9934 121.8 73.3475 124.159 73.3475 127.962V139.647H74.8538C75.0364 139.647 75.2189 139.662 75.4015 139.693C75.7971 139.754 75.9949 140.134 75.9949 140.834H65.7705V139.647C66.2878 139.647 66.6986 139.571 67.0029 139.419C67.3681 139.206 67.5506 138.491 67.5506 137.274V127.186C67.5506 126.882 67.5354 126.608 67.505 126.365C67.292 124.082 66.2574 122.941 64.4012 122.941C63.9143 122.941 63.4122 123.078 62.8949 123.352C61.2517 124.235 60.4301 126.015 60.4301 128.693V139.647H61.5712ZM77.3642 122.622V121.435H80.5137V117.099L86.3106 116.14V121.435H92.3357V122.622H86.3106V136.452C86.3106 136.848 86.341 137.228 86.4019 137.593C86.6453 139.176 87.33 139.967 88.4559 139.967C88.6384 139.967 88.821 139.952 89.0036 139.921C90.1904 139.678 91.088 138.324 91.6966 135.859L92.929 136.041C92.6856 137.289 92.3509 138.293 91.9249 139.054C91.0424 140.575 89.4296 141.336 87.0865 141.336C86.7214 141.336 86.3562 141.321 85.9911 141.29C82.3395 140.864 80.5137 138.445 80.5137 134.033V122.622H77.3642ZM131.818 140.834H130.905C130.388 140.834 129.962 140.743 129.627 140.56C129.08 140.256 128.441 139.176 127.71 137.319L122.781 124.493L116.755 140.834H115.843C115.325 140.834 114.899 140.743 114.565 140.56C114.017 140.256 113.378 139.176 112.647 137.319L103.884 114.68H101.601V113.447H113.971V114.68H110.32L117.486 134.626L121.959 122.439L118.49 113.447H129.08V114.68L125.428 114.634L132.503 134.216L138.939 114.68H135.287V113.447H142.819V114.68H140.536L131.818 140.834ZM150.441 130.929C150.441 133.79 150.624 135.874 150.989 137.182C151.537 139.13 152.754 140.104 154.641 140.104C155.706 140.104 156.573 139.784 157.242 139.145C158.399 137.989 158.977 135.189 158.977 130.747C158.977 127.977 158.794 125.954 158.429 124.676C157.881 122.698 156.634 121.709 154.686 121.709C153.53 121.709 152.632 122.059 151.993 122.759C150.959 123.945 150.441 126.669 150.441 130.929ZM154.914 120.522C157.531 120.522 159.768 121.237 161.624 122.667C164.028 124.585 165.23 127.247 165.23 130.655C165.23 133.211 164.469 135.463 162.948 137.411C160.909 139.997 158.094 141.29 154.504 141.29C151.887 141.29 149.635 140.499 147.748 138.917C145.375 136.909 144.188 134.185 144.188 130.747C144.188 128.312 144.888 126.182 146.288 124.356C148.296 121.8 151.172 120.522 154.914 120.522ZM176.778 139.647C176.961 139.647 177.128 139.662 177.28 139.693C177.676 139.754 177.874 140.134 177.874 140.834H167.512V139.647C167.756 139.647 167.984 139.632 168.197 139.602C169.505 139.449 170.16 138.673 170.16 137.274V122.394H167.512V121.207H175.637L175.865 124.539C177.204 121.891 179.334 120.553 182.255 120.522C182.742 120.522 183.229 120.583 183.716 120.705C185.572 121.252 186.866 122.607 187.596 124.767C189.057 121.968 191.263 120.553 194.214 120.522C195.279 120.522 196.268 120.811 197.181 121.389C199.159 122.637 200.148 124.752 200.148 127.734V139.647H201.654C201.837 139.647 202.02 139.662 202.202 139.693C202.598 139.754 202.796 140.134 202.796 140.834H192.389V139.647C192.875 139.647 193.256 139.602 193.53 139.51C194.108 139.267 194.397 138.521 194.397 137.274V127.186C194.397 126.426 194.306 125.726 194.123 125.087C193.636 123.535 192.739 122.759 191.43 122.759C191.126 122.759 190.821 122.82 190.517 122.941C189.087 123.55 188.265 125.117 188.052 127.643V127.962V139.647H188.828C189.011 139.647 189.193 139.662 189.376 139.693C189.772 139.754 189.969 140.134 189.969 140.834H180.293V139.647C180.78 139.647 181.16 139.602 181.434 139.51C182.012 139.267 182.301 138.521 182.301 137.274V127.186C182.301 126.365 182.195 125.619 181.982 124.95C181.495 123.55 180.688 122.85 179.562 122.85C179.167 122.85 178.771 122.957 178.376 123.17C176.976 123.9 176.185 125.467 176.002 127.871L175.957 139.647H176.778ZM221.19 141.29C218.756 141.138 217.219 139.754 216.58 137.137C216.428 137.563 216.23 137.974 215.987 138.369C214.77 140.317 212.868 141.29 210.281 141.29C209.429 141.29 208.653 141.184 207.953 140.971C205.58 140.21 204.393 138.476 204.393 135.767C204.424 131.781 208.349 129.712 216.169 129.56V126.593C216.169 125.71 216.109 124.95 215.987 124.311C215.683 122.576 214.815 121.709 213.385 121.709C212.959 121.709 212.579 121.785 212.244 121.937C211.727 122.241 211.301 123.002 210.966 124.219C210.844 124.645 210.753 124.95 210.692 125.132C210.236 126.41 209.353 127.049 208.045 127.049C207.74 127.049 207.451 127.004 207.177 126.912C206.052 126.608 205.489 125.863 205.489 124.676C205.489 124.159 205.625 123.672 205.899 123.215C206.964 121.42 209.566 120.522 213.705 120.522C214.77 120.522 215.759 120.629 216.671 120.842C220.201 121.724 221.966 124.067 221.966 127.871V137.411C221.966 138.871 222.301 139.632 222.97 139.693C223.853 139.662 224.385 138.597 224.568 136.498L225.755 136.543C225.663 137.487 225.527 138.263 225.344 138.871C224.796 140.484 223.412 141.29 221.19 141.29ZM212.655 139.328C212.868 139.328 213.111 139.282 213.385 139.191C214.663 138.704 215.591 137.395 216.169 135.265V130.838C214.8 130.899 213.674 131.066 212.792 131.34C211.148 131.949 210.327 133.257 210.327 135.265C210.357 137.913 211.133 139.267 212.655 139.328ZM236.481 139.647C236.664 139.647 236.831 139.662 236.983 139.693C237.379 139.754 237.577 140.134 237.577 140.834H226.896V139.647C227.139 139.647 227.368 139.632 227.581 139.602C228.889 139.449 229.543 138.673 229.543 137.274V122.394H226.896V121.207H235.021L235.249 124.767C235.523 124.219 235.888 123.687 236.344 123.17C237.896 121.405 239.783 120.522 242.004 120.522C242.795 120.522 243.556 120.644 244.286 120.887C246.964 121.831 248.303 124.189 248.303 127.962V139.647H249.809C249.992 139.647 250.175 139.662 250.357 139.693C250.753 139.754 250.951 140.134 250.951 140.834H240.407V139.647C240.833 139.647 241.198 139.602 241.502 139.51C242.172 139.297 242.506 138.552 242.506 137.274V127.186C242.506 126.76 242.476 126.349 242.415 125.954C242.111 123.915 241.091 122.896 239.357 122.896C238.9 122.896 238.459 123.002 238.033 123.215C236.481 123.976 235.599 125.558 235.386 127.962L235.34 139.647H236.481Z" fill="#FF0090"/>
</svg>
