<svg width="24" height="24" viewBox="0 0 24 24" fill="none" xmlns="http://www.w3.org/2000/svg">
<path fill-rule="evenodd" clip-rule="evenodd" d="M4.99934 20C4.29508 20 3.82407 19.2979 4.05912 18.6586L4.10491 18.5528L5.26033 16.242C5.69772 15.3672 5.9464 14.4115 5.99177 13.4369L5.99934 13.1115V10C5.99934 7.02694 8.16172 4.55893 10.9995 4.08293L10.9993 3C10.9993 2.44772 11.4471 2 11.9993 2C12.5516 2 12.9993 2.44772 12.9993 3L13.0001 4.08309C15.7586 4.54627 17.8787 6.89172 17.9944 9.75347L17.9993 10V13.1115C17.9993 14.0895 18.2043 15.0555 18.5996 15.9474L18.7383 16.242L19.8938 18.5528C20.2087 19.1827 19.7914 19.918 19.1145 19.9936L18.9993 20H13.9993C13.9993 21.1046 13.1039 22 11.9993 22C10.8948 22 9.99934 21.1046 9.99934 20H4.99934ZM11.9993 6C9.85714 6 8.10826 7.68397 8.00423 9.80036L7.99934 10V13.1115C7.99934 14.3922 7.72599 15.6569 7.19914 16.8213L7.04918 17.1364L6.61737 18H17.3813L16.9495 17.1364C16.3767 15.9908 16.0556 14.7374 16.0061 13.4603L15.9993 13.1115V10C15.9993 7.79086 14.2085 6 11.9993 6Z" fill="#191E50"/>
</svg>
