<svg width="108" height="107" viewBox="0 0 108 107" fill="none" xmlns="http://www.w3.org/2000/svg">
<g opacity="0.997002">
<path d="M54.1747 24.8809C38.3786 24.8809 25.5586 37.7009 25.5586 53.4969C25.5586 69.293 38.3786 82.113 54.1747 82.113C69.9707 82.113 82.7907 69.293 82.7907 53.4969C82.7907 37.7009 69.9707 24.8809 54.1747 24.8809ZM67.4525 44.3398C67.0233 48.8611 65.1632 59.8497 64.2189 64.9147C63.8183 67.0609 63.017 67.7764 62.273 67.8622C60.6133 68.0053 59.3542 66.7748 57.7517 65.716C55.2335 64.0563 53.8027 63.0261 51.3703 61.4236C48.5373 59.5635 50.3687 58.5334 51.9998 56.8736C52.4291 56.4444 59.7548 49.7768 59.8979 49.1759C59.9178 49.0849 59.9151 48.9904 59.8902 48.9006C59.8652 48.8109 59.8188 48.7285 59.7548 48.6608C59.5831 48.5177 59.3542 48.575 59.1539 48.6036C58.8963 48.6608 54.8901 51.3221 47.0779 56.5875C45.9332 57.3601 44.9031 57.7607 43.9873 57.7321C42.9572 57.7035 41.0113 57.1598 39.5519 56.6733C37.749 56.101 36.3469 55.7862 36.4613 54.7847C36.5185 54.2696 37.234 53.7545 38.5789 53.2108C46.9348 49.5765 52.4863 47.1728 55.2621 46.0281C63.2173 42.7087 64.8485 42.1363 65.9359 42.1363C66.1648 42.1363 66.7085 42.1936 67.0519 42.4797C67.3381 42.7087 67.4239 43.0234 67.4525 43.2524C67.4239 43.4241 67.4811 43.9392 67.4525 44.3398Z" fill="black" fill-opacity="0.75"/>
</g>
</svg>
