<svg width="250" height="250" viewBox="0 0 250 250" fill="none" xmlns="http://www.w3.org/2000/svg">
<g opacity="0.997002" filter="url(#filter0_d_298_641)">
<rect x="52.2051" y="52" width="145.588" height="145.588" rx="72.7941" fill="black" shape-rendering="crispEdges"/>
<path d="M125.001 85.7972C103.474 85.7972 86.0039 103.268 86.0039 124.794C86.0039 146.32 103.474 163.791 125.001 163.791C146.527 163.791 163.998 146.32 163.998 124.794C163.998 103.268 146.527 85.7972 125.001 85.7972ZM143.095 112.315C142.51 118.477 139.976 133.451 138.689 140.354C138.143 143.279 137.051 144.254 136.037 144.37C133.775 144.565 132.059 142.889 129.875 141.446C126.444 139.184 124.494 137.78 121.179 135.596C117.318 133.061 119.814 131.658 122.037 129.396C122.622 128.811 132.605 119.724 132.8 118.906C132.827 118.782 132.824 118.653 132.79 118.53C132.756 118.408 132.692 118.296 132.605 118.204C132.371 118.009 132.059 118.087 131.786 118.126C131.435 118.204 125.976 121.83 115.33 129.006C113.77 130.059 112.366 130.605 111.118 130.566C109.714 130.527 107.062 129.786 105.073 129.123C102.617 128.343 100.706 127.914 100.862 126.549C100.94 125.847 101.915 125.145 103.747 124.404C115.135 119.452 122.7 116.176 126.483 114.616C137.324 110.092 139.547 109.312 141.028 109.312C141.34 109.312 142.081 109.39 142.549 109.78C142.939 110.092 143.056 110.521 143.095 110.833C143.056 111.067 143.134 111.769 143.095 112.315Z" fill="#FEB7D1"/>
</g>
<defs>
<filter id="filter0_d_298_641" x="0.209297" y="0.00421906" width="249.579" height="249.58" filterUnits="userSpaceOnUse" color-interpolation-filters="sRGB">
<feFlood flood-opacity="0" result="BackgroundImageFix"/>
<feColorMatrix in="SourceAlpha" type="matrix" values="0 0 0 0 0 0 0 0 0 0 0 0 0 0 0 0 0 0 127 0" result="hardAlpha"/>
<feOffset/>
<feGaussianBlur stdDeviation="25.9979"/>
<feComposite in2="hardAlpha" operator="out"/>
<feColorMatrix type="matrix" values="0 0 0 0 0.890196 0 0 0 0 0.176471 0 0 0 0 0.568627 0 0 0 0.7 0"/>
<feBlend mode="normal" in2="BackgroundImageFix" result="effect1_dropShadow_298_641"/>
<feBlend mode="normal" in="SourceGraphic" in2="effect1_dropShadow_298_641" result="shape"/>
</filter>
</defs>
</svg>
