<svg width="108" height="107" viewBox="0 0 108 107" fill="none" xmlns="http://www.w3.org/2000/svg">
<g opacity="0.997002">
<path d="M67.1726 35.8129C65.2165 33.5798 64.1385 30.7119 64.1393 27.7432H55.2969V63.2271C55.2287 65.1473 54.4181 66.9661 53.0356 68.3005C51.6531 69.635 49.8068 70.3808 47.8854 70.3811C43.8219 70.3811 40.4452 67.0616 40.4452 62.9409C40.4452 58.019 45.1955 54.3275 50.0888 55.8441V46.8015C40.2163 45.4851 31.5742 53.1542 31.5742 62.9409C31.5742 72.4701 39.4723 79.2521 47.8568 79.2521C56.8422 79.2521 64.1393 71.955 64.1393 62.9409V44.9414C67.7249 47.5164 72.0298 48.898 76.4442 48.8904V40.0481C76.4442 40.0481 71.0644 40.3056 67.1726 35.8129Z" fill="black" fill-opacity="0.75"/>
</g>
</svg>
