<svg width="251" height="251" viewBox="0 0 251 251" fill="none" xmlns="http://www.w3.org/2000/svg">
<g opacity="0.997002" filter="url(#filter0_d_298_648)">
<rect x="52.6172" y="52.7815" width="145.588" height="145.588" rx="72.7941" fill="black" shape-rendering="crispEdges"/>
<path d="M117.612 137.275L137.851 125.576L117.612 113.877V137.275ZM162.692 106.74C163.199 108.573 163.55 111.03 163.784 114.15C164.057 117.269 164.174 119.96 164.174 122.3L164.408 125.576C164.408 134.116 163.784 140.394 162.692 144.411C161.717 147.921 159.455 150.183 155.945 151.158C154.113 151.664 150.759 152.015 145.611 152.249C140.542 152.522 135.901 152.639 131.611 152.639L125.411 152.873C109.071 152.873 98.8931 152.249 94.8764 151.158C91.3667 150.183 89.1048 147.921 88.1299 144.411C87.623 142.578 87.272 140.121 87.038 137.002C86.765 133.882 86.648 131.191 86.648 128.851L86.4141 125.576C86.4141 117.035 87.038 110.757 88.1299 106.74C89.1048 103.23 91.3667 100.969 94.8764 99.9937C96.7092 99.4867 100.063 99.1358 105.211 98.9018C110.28 98.6288 114.921 98.5118 119.21 98.5118L125.411 98.2778C141.751 98.2778 151.929 98.9018 155.945 99.9937C159.455 100.969 161.717 103.23 162.692 106.74Z" fill="#FEB7D1"/>
</g>
<defs>
<filter id="filter0_d_298_648" x="0.621407" y="0.785713" width="249.579" height="249.58" filterUnits="userSpaceOnUse" color-interpolation-filters="sRGB">
<feFlood flood-opacity="0" result="BackgroundImageFix"/>
<feColorMatrix in="SourceAlpha" type="matrix" values="0 0 0 0 0 0 0 0 0 0 0 0 0 0 0 0 0 0 127 0" result="hardAlpha"/>
<feOffset/>
<feGaussianBlur stdDeviation="25.9979"/>
<feComposite in2="hardAlpha" operator="out"/>
<feColorMatrix type="matrix" values="0 0 0 0 0.890196 0 0 0 0 0.176471 0 0 0 0 0.568627 0 0 0 0.7 0"/>
<feBlend mode="normal" in2="BackgroundImageFix" result="effect1_dropShadow_298_648"/>
<feBlend mode="normal" in="SourceGraphic" in2="effect1_dropShadow_298_648" result="shape"/>
</filter>
</defs>
</svg>
